<?xml version="1.0" encoding="UTF-8"?>
<svg version="1.1" xmlns="http://www.w3.org/2000/svg" width="512" height="512">
<path d="M0 0 C0.85183483 -0.0072672 1.70366966 -0.01453441 2.58131766 -0.02202183 C5.44942188 -0.04033911 8.31620012 -0.02288532 11.18429565 -0.00571251 C13.25570423 -0.01147103 15.3271077 -0.01941033 17.39850044 -0.02934873 C23.10127895 -0.05028209 28.80364079 -0.03987726 34.50642109 -0.02441764 C40.65239137 -0.01313464 46.7982885 -0.03055168 52.94424438 -0.04431725 C64.29180969 -0.06529882 75.63920457 -0.06343387 86.98676568 -0.0497599 C97.46914755 -0.03719025 107.95148055 -0.03389481 118.43386841 -0.03987312 C119.47618355 -0.04044601 119.47618355 -0.04044601 120.53955556 -0.04103047 C123.36017036 -0.04258712 126.18078514 -0.04417912 129.00139988 -0.04582929 C155.46982959 -0.06112996 181.93817437 -0.04724803 208.40659097 -0.02034481 C231.93068256 0.00338388 255.45463884 0.00126077 278.97872925 -0.02264977 C305.39823166 -0.04941341 331.817659 -0.06004492 358.23717308 -0.04458845 C361.05269748 -0.04298482 363.8682219 -0.04142062 366.68374634 -0.03987312 C367.72365422 -0.03928004 367.72365422 -0.03928004 368.78457035 -0.03867498 C379.26127751 -0.03298367 389.73793047 -0.03964632 400.21463013 -0.05227089 C412.125176 -0.06655156 424.03556201 -0.06254412 435.94610167 -0.03586717 C442.02669824 -0.02269827 448.10701971 -0.01762909 454.18761444 -0.03411293 C459.74900746 -0.0489616 465.30986917 -0.04090813 470.87121367 -0.01422517 C472.88795816 -0.00861862 474.90474712 -0.01152896 476.92146325 -0.02360411 C479.65416015 -0.0387169 482.38501551 -0.02331245 485.11761475 0 C485.90843185 -0.01170583 486.69924896 -0.02341166 487.51403022 -0.03547221 C491.4630916 0.03228742 493.36619461 0.48313373 496.54723114 2.8955403 C498.56531727 5.63805244 499.18399106 6.68013751 499.18521976 9.99705791 C499.1976418 10.8440447 499.21006384 11.69103148 499.2228623 12.56368452 C499.21102657 13.48411038 499.19919085 14.40453623 499.18699646 15.35285378 C499.19763804 16.83123274 499.19763804 16.83123274 499.2084946 18.33947796 C499.22611163 21.64551504 499.20795018 24.95038228 499.18991089 28.25640297 C499.19504822 30.62500991 499.20232809 32.99361303 499.21159363 35.36220741 C499.22821182 41.12953575 499.2214584 46.896489 499.2035054 52.66380639 C499.18947952 57.35046242 499.18558655 62.03702647 499.18894768 66.72370148 C499.18966384 67.72424605 499.18966384 67.72424605 499.19039447 68.74500365 C499.1914208 70.10005008 499.19247616 71.45509648 499.19356024 72.81014287 C499.20212716 84.79115806 499.18545191 96.77200962 499.1557312 108.752985 C499.12688728 120.38065906 499.11981327 132.00809747 499.13522339 143.6357975 C499.1519802 156.29698839 499.15602562 168.95806741 499.13851303 181.61926121 C499.13666863 182.96901602 499.1348339 184.31877085 499.13300896 185.6685257 C499.13209687 186.33263848 499.13118478 186.99675127 499.13024505 187.68098869 C499.12463689 192.36297643 499.12794935 197.04490959 499.13455391 201.72689438 C499.1422 208.02656047 499.13014506 214.32588603 499.102705 220.625494 C499.09580282 222.94105264 499.09574269 225.25664298 499.10292053 227.57220078 C499.11157229 230.72603106 499.09573105 233.87880001 499.07347107 237.03254128 C499.08171184 237.95519785 499.0899526 238.87785442 499.09844309 239.82847029 C499.01778256 245.99338583 499.01778256 245.99338583 496.70381451 249.1989336 C493.81179773 251.12730524 491.87703765 251.11146774 488.41329956 251.08330727 C487.17231506 251.08300514 485.93133057 251.08270302 484.65274048 251.08239174 C483.30371455 251.06196685 481.95469521 251.0411029 480.60568237 251.0198307 C479.22135231 251.01236672 477.83701166 251.00667453 476.45266724 251.00267982 C472.8159142 250.98743545 469.17980412 250.94816523 465.54330444 250.90386391 C461.82981056 250.86288462 458.11621238 250.84466322 454.40255737 250.8245182 C447.12101483 250.78166872 439.84000132 250.71343324 432.55880737 250.6292057 C432.77431359 255.46397348 433.00502911 260.2977187 433.24850464 265.13115883 C433.32895559 266.76768801 433.40559526 268.40441003 433.47799683 270.04131508 C434.09215404 283.83232121 434.96823106 297.81746832 440.55880737 310.6292057 C440.81863403 311.24674721 441.07846069 311.86428871 441.34616089 312.50054359 C442.41329937 315.03646059 443.52417006 317.55186146 444.64865112 320.06279945 C447.38602423 326.53410086 446.63550103 330.91406517 444.12130737 337.2542057 C438.9871392 345.38022727 426.30975183 349.71222422 417.55880737 352.6292057 C418.21880737 357.2492057 418.87880737 361.8692057 419.55880737 366.6292057 C421.09408081 367.02494789 422.62935425 367.42069008 424.21115112 367.82842445 C430.98302262 369.6788462 437.53884738 372.0115426 444.12130737 374.4417057 C445.27566284 374.85485023 446.43001831 375.26799477 447.61935425 375.69365883 C461.31540729 380.73548437 472.95817515 387.29139093 479.99630737 400.5667057 C483.28741331 407.72326571 484.9748447 414.72449645 484.55880737 422.6292057 C485.23943237 422.7942057 485.92005737 422.9592057 486.62130737 423.1292057 C491.68001836 425.71237727 495.53306008 430.0518183 497.63658142 435.33732033 C498.63136051 438.88818411 498.83246753 441.88094369 498.86520386 445.56499672 C498.87352737 446.23083778 498.88185089 446.89667885 498.89042664 447.58269691 C498.91436705 449.76622933 498.92327638 451.94946257 498.92990112 454.13311195 C498.93887565 455.6595563 498.94799763 457.18599978 498.95726013 458.7124424 C498.97370638 461.90403819 498.98144294 465.09552957 498.98434448 468.28716469 C498.98974132 472.37185452 499.02749207 476.45556157 499.07308865 480.53997326 C499.10285324 483.68931598 499.1100678 486.83842101 499.11107063 489.98789215 C499.1152698 491.49378361 499.12769215 492.99967598 499.14858818 494.50542831 C499.17550975 496.61195783 499.17067965 498.71619436 499.15817261 500.82280922 C499.16324326 502.01938652 499.1683139 503.21596382 499.17353821 504.44880104 C498.34084005 508.75689322 497.05415898 509.98273278 493.55880737 512.6292057 C490.20446336 513.36106727 486.91565621 513.29550158 483.4934845 513.25066566 C482.47114655 513.25705449 481.44880859 513.26344331 480.39549071 513.27002573 C476.96507662 513.28530304 473.53581236 513.26479521 470.10543823 513.24444008 C467.64816403 513.24794041 465.19089209 513.25359798 462.73362732 513.26125526 C456.74968652 513.27404233 450.76619715 513.26355026 444.78231471 513.24214202 C437.81497512 513.21813016 430.84771326 513.21984647 423.88034148 513.22244793 C411.4500949 513.22613796 399.02000823 513.20531316 386.58981323 513.17119789 C374.52564452 513.13809945 362.46164362 513.1239408 350.39743042 513.13018227 C337.26160954 513.1369447 324.12585896 513.1344908 310.99004847 513.11482286 C310.29559861 513.11378338 309.60114874 513.11274389 308.88565494 513.11167291 C307.49086247 513.109582 306.09607003 513.10747103 304.70127762 513.10533974 C299.84347316 513.09844164 294.98569034 513.09777523 290.127882 513.09922218 C283.5918934 513.10081131 277.0560785 513.08593018 270.52013206 513.05999565 C268.11749497 513.05281679 265.71483649 513.05075844 263.31219101 513.05411339 C260.04028912 513.05781151 256.7689802 513.0431383 253.49714661 513.02361488 C252.5394715 513.02894281 251.58179639 513.03427073 250.59510082 513.03976011 C244.21821272 512.97381147 244.21821272 512.97381147 241.00016117 511.29205513 C237.74619817 507.53804934 238.38056682 502.88398639 238.35568237 498.1995182 C238.3499823 497.37217171 238.34428223 496.54482521 238.33840942 495.69240761 C238.32896715 493.94234938 238.32242851 492.19227344 238.318573 490.44219398 C238.3088689 487.77114139 238.27783953 485.10085895 238.24630737 482.42998695 C238.23977679 480.7281686 238.23452653 479.02634475 238.23068237 477.3245182 C238.21833557 476.52853218 238.20598877 475.73254616 238.19326782 474.91243935 C238.21138574 470.38022393 238.47958737 467.2239473 241.55880737 463.6292057 C242.87880737 463.2992057 244.19880737 462.9692057 245.55880737 462.6292057 C245.55880737 459.3292057 245.55880737 456.0292057 245.55880737 452.6292057 C244.24829281 452.63289288 242.93777824 452.63658005 241.58755112 452.64037895 C210.49391751 452.72696928 179.40031572 452.79294714 148.30658977 452.83346702 C144.48131964 452.83846998 140.65604977 452.84364726 136.83078003 452.84893227 C135.68844374 452.85050613 135.68844374 452.85050613 134.52302995 452.85211179 C122.18432696 452.86952745 109.84569835 452.9010715 97.50703952 452.93781689 C84.85088596 452.97519407 72.19477141 452.99743472 59.53856492 453.00555968 C51.72599692 453.01105418 43.91363913 453.02842149 36.10113582 453.06087157 C30.11524936 453.0844714 24.12954457 453.08703372 18.14360619 453.08163643 C15.68451071 453.08274019 13.22540754 453.09074055 10.76635933 453.1060276 C7.41747969 453.12583162 4.06951082 453.12117933 0.72061157 453.11022377 C-0.25992888 453.12187514 -1.24046933 453.1335265 -2.25072312 453.14553094 C-8.77785191 453.08752874 -8.77785191 453.08752874 -12.04498005 450.83016682 C-14.16015231 447.49585228 -13.99036274 444.21784613 -13.94290161 440.39507484 C-13.9483046 439.5668119 -13.95370758 438.73854897 -13.95927429 437.88518715 C-13.9717871 435.14454908 -13.95524108 432.4049573 -13.93728638 429.66436195 C-13.93744144 427.75066002 -13.9389316 425.83695777 -13.94169617 423.92325783 C-13.94308175 419.9057475 -13.93050583 415.88859342 -13.90774536 411.87114906 C-13.87953283 406.75386031 -13.88204885 401.63717117 -13.89483547 396.51983929 C-13.90184125 392.5620722 -13.89394504 388.6044402 -13.88157845 384.64669037 C-13.8770991 382.76229244 -13.87669596 380.8778798 -13.88064384 378.99348068 C-13.90277052 359.11640464 -11.19217755 341.70739827 3.32443237 326.8010807 C4.06177612 326.08436195 4.79911987 325.3676432 5.55880737 324.6292057 C6.17240112 323.99498695 6.78599487 323.3607682 7.41818237 322.7073307 C20.19015683 310.37200495 37.17365136 307.11148924 54.29708862 307.33623695 C55.54386887 307.3404818 56.79064911 307.34472664 58.07521057 307.34910011 C62.00747457 307.36572138 65.93920163 307.40334252 69.87130737 307.4417057 C72.55814327 307.45849235 75.24499349 307.47066533 77.93185425 307.48272133 C84.47437481 307.51557061 91.01650047 307.56723699 97.55880737 307.6292057 C97.55880737 299.7092057 97.55880737 291.7892057 97.55880737 283.6292057 C96.23880737 282.9692057 94.91880737 282.3092057 93.55880737 281.6292057 C84.21103194 274.8194496 77.32723881 265.09576277 72.55880737 254.6292057 C72.55880737 253.9692057 72.55880737 253.3092057 72.55880737 252.6292057 C71.73380737 252.5673307 70.90880737 252.5054557 70.05880737 252.4417057 C64.77777453 251.21575165 60.38880329 248.45920162 56.55880737 244.6292057 C54.19371377 244.32860628 51.81438856 244.13405559 49.43380737 244.0042057 C48.15247925 243.92944008 46.87115112 243.85467445 45.55099487 243.7776432 C44.06986206 243.70416664 44.06986206 243.70416664 42.55880737 243.6292057 C42.12568237 244.8048307 42.12568237 244.8048307 41.68380737 246.0042057 C40.55880737 248.6292057 40.55880737 248.6292057 38.55880737 250.6292057 C36.52294922 250.89663124 36.52294922 250.89663124 33.98898315 250.91973305 C33.04104889 250.93249275 32.09311462 250.94525246 31.11645508 250.95839882 C30.08938446 250.96062447 29.06231384 250.96285011 28.00411987 250.9651432 C26.42447952 250.9751284 26.42447952 250.9751284 24.81292725 250.98531532 C22.58191681 250.9954545 20.35087598 251.00013195 18.11984253 250.99981117 C14.70445748 251.00417929 11.2903694 251.0404728 7.87521362 251.07842445 C5.70985347 251.08429329 3.54448716 251.08826223 1.37911987 251.0901432 C0.35609772 251.10451424 -0.66692444 251.11888527 -1.72094727 251.13369179 C-2.67518585 251.12753853 -3.62942444 251.12138527 -4.61257935 251.11504555 C-5.86927933 251.1193206 -5.86927933 251.1193206 -7.15136719 251.12368202 C-10.46591373 250.40792232 -11.42241879 249.37449821 -13.44119263 246.6292057 C-14.04902723 243.4361447 -13.98481401 240.2747156 -13.95585632 237.03254128 C-13.96280185 236.04851529 -13.96974738 235.0644893 -13.97690338 234.05064434 C-13.99524099 230.74400189 -13.98489001 227.43807143 -13.97463989 224.13140297 C-13.98169493 221.76456602 -13.99043818 219.39773359 -14.00074768 217.03090858 C-14.02095442 211.26383814 -14.02225738 205.49699282 -14.01412214 199.72989697 C-14.00782457 195.04275382 -14.00895691 190.35566823 -14.01539421 185.6685257 C-14.01629587 185.00164921 -14.01719752 184.33477273 -14.0181265 183.64768786 C-14.01997769 182.29296564 -14.02184025 180.93824343 -14.02371406 179.58352124 C-14.04029736 166.87649875 -14.03156901 154.16958726 -14.01472848 141.46257143 C-14.00003255 129.83605848 -14.01465731 118.20980398 -14.04349864 106.58332432 C-14.07288863 94.64682432 -14.08386602 82.71044363 -14.07431644 70.77390903 C-14.07329388 69.42383987 -14.07229928 68.07377068 -14.07133293 66.72370148 C-14.07085654 66.05943441 -14.07038015 65.39516735 -14.06988933 64.71077098 C-14.06772457 60.0297388 -14.07753252 55.34881949 -14.09210396 50.66781235 C-14.11041796 44.36647855 -14.10455419 38.06562616 -14.07990456 31.76431847 C-14.07488317 29.44917289 -14.07842058 27.13399091 -14.09105301 24.81887436 C-14.10691326 21.66297575 -14.09209777 18.50867599 -14.06938171 15.35285378 C-14.08713531 13.972215 -14.08713531 13.972215 -14.10524756 12.56368452 C-14.09282552 11.71669774 -14.08040348 10.86971096 -14.06760502 9.99705791 C-14.06733533 9.26902401 -14.06706564 8.54099011 -14.06678778 7.79089457 C-12.01258778 0.69278768 -6.483852 -0.09597526 0 0 Z M211.57052612 248.1526432 C209.43879844 249.71728993 208.05118923 250.06264778 205.49630737 250.5667057 C201.69344754 251.82434439 200.49803276 254.10565913 198.71261597 257.58526039 C198.06405441 258.91515569 197.41858403 260.24656259 196.77609253 261.57940102 C193.1031499 269.0036994 187.3697903 277.09998548 179.91500854 281.01909828 C176.0213868 285.33230003 177.03597559 290.30055962 177.24630737 295.8792057 C177.26886597 297.00584633 177.29142456 298.13248695 177.31466675 299.2932682 C177.37356484 302.07325802 177.45576536 304.85055903 177.55880737 307.6292057 C178.23959854 307.63285133 178.92038971 307.63649696 179.62181091 307.64025307 C186.10722719 307.67846791 192.59218328 307.73568966 199.0772562 307.81310844 C202.40965622 307.85225121 205.7415655 307.88250026 209.07418823 307.9002018 C232.69649101 308.03313541 252.62421858 309.44064806 270.55880737 326.6292057 C282.71229368 340.49414552 286.70712678 355.2466677 287.18380737 373.1917057 C287.22247925 374.39117836 287.26115112 375.59065102 287.30099487 376.82647133 C287.39450923 379.76048442 287.47771171 382.6948231 287.55880737 385.6292057 C293.00380737 383.6492057 293.00380737 383.6492057 298.55880737 381.6292057 C298.62068237 380.5360807 298.68255737 379.4429557 298.74630737 378.3167057 C299.55880737 374.6292057 299.55880737 374.6292057 301.69552612 373.0276432 C304.80155347 371.51064758 307.87728819 370.56626265 311.18380737 369.5667057 C315.89161508 367.87369342 315.89161508 367.87369342 319.10568237 364.25811195 C320.45910554 359.96163179 321.35128309 355.88547044 319.55880737 351.6292057 C316.99957416 350.23353435 314.70222497 349.19733822 311.99630737 348.1917057 C304.77088098 345.27213166 298.8837214 342.26583042 293.55880737 336.4417057 C290.1753654 326.92577514 293.58768119 319.53749449 297.48605347 310.82549477 C304.29981452 295.44976492 304.61511407 279.73974412 304.57833862 263.1760807 C304.57692871 261.96871254 304.5755188 260.76134438 304.57406616 259.5173893 C304.57040304 256.55465637 304.56527508 253.59193361 304.55880737 250.6292057 C303.69881134 250.62111885 302.83881531 250.613032 301.95275879 250.60470009 C293.85937178 250.52685143 285.76615332 250.43959059 277.67298317 250.34167862 C273.5119118 250.29167171 269.35086636 250.2453423 265.18966675 250.2073307 C261.17601871 250.17053308 257.16258537 250.12418868 253.14912033 250.0711422 C251.61571381 250.05256875 250.08226122 250.03747175 248.54878616 250.02586174 C246.40557991 250.00904929 244.26286856 249.98002782 242.11984253 249.94805336 C240.89850616 249.93472969 239.6771698 249.92140602 238.41882324 249.9076786 C235.55880737 249.6292057 235.55880737 249.6292057 233.55880737 247.6292057 C232.93380737 245.5042057 232.93380737 245.5042057 232.55880737 243.6292057 C224.1890741 242.98629589 218.25367471 242.74188704 211.57052612 248.1526432 Z " fill="#000202" transform="translate(13.441192626953125,-0.6292057037353516)"/>
<path d="M0 0 C159.72 0 319.44 0 484 0 C484 73.26 484 146.52 484 222 C465.85 222 447.7 222 429 222 C426.03 216.39 423.06 210.78 420 205 C410.46649948 190.60981054 395.67464057 182.46422672 379 179 C375.009683 178.58822444 371.07176911 178.52200558 367.0625 178.5625 C366.00780518 178.57007324 364.95311035 178.57764648 363.86645508 178.58544922 C356.28904591 178.74608443 349.85752259 179.59790092 343 183 C342.09894531 183.40089844 341.19789063 183.80179688 340.26953125 184.21484375 C326.66083326 190.83684771 315.97913355 202.35594025 310.30859375 216.31640625 C309.87216553 217.3844751 309.4357373 218.45254395 308.98608398 219.55297852 C308.66067627 220.36049561 308.33526855 221.1680127 308 222 C307.10464035 222.00586624 306.2092807 222.01173248 305.28678894 222.01777649 C296.85519538 222.07564322 288.42386843 222.14768505 279.99253368 222.23571491 C275.65772034 222.28047205 271.32300214 222.31971616 266.98803711 222.34643555 C262.80573993 222.37241555 258.62380785 222.4127797 254.44173622 222.46318626 C252.84496916 222.47989103 251.2481389 222.49138279 249.65129662 222.49761391 C247.41712402 222.50721617 245.18389309 222.53522662 242.94995117 222.56762695 C241.67754074 222.57873001 240.40513031 222.58983307 239.09416199 222.60127258 C236.0423577 222.74644201 236.0423577 222.74644201 234.12812805 224.33952332 C232.80961736 226.11854438 232.80961736 226.11854438 232 229 C227.38 229 222.76 229 218 229 C219.52994792 225.97265625 221.05989583 222.9453125 222.58984375 219.91796875 C224.85022071 215.24067902 225.13656957 211.48172788 225.10107422 206.38598633 C225.09949814 205.61145615 225.09792206 204.83692596 225.09629822 204.03892517 C225.08879328 201.46988765 225.07276394 198.90101523 225.0546875 196.33203125 C225.04897861 195.45008276 225.04326973 194.56813427 225.03738785 193.65946007 C225.00581497 188.97903574 224.96688768 184.29873091 224.92285156 179.6184082 C224.8794122 174.82324729 224.86332554 170.02841305 224.85362053 165.23308277 C224.84062982 161.51522962 224.80579586 157.797793 224.76550674 154.08014488 C224.75018429 152.31549937 224.74290689 150.55076219 224.74441147 148.7860508 C224.74593589 128.00541226 219.06081998 109.52452852 204.3203125 94.234375 C197.90374083 88.05545413 191.51698856 83.4839236 183.5 79.625 C182.81228516 79.29097168 182.12457031 78.95694336 181.41601562 78.61279297 C171.91296175 74.26207815 162.4198897 73.68410229 152.08203125 73.6640625 C150.86658127 73.6574057 149.65113129 73.6507489 148.39884949 73.64389038 C145.83809918 73.63381156 143.27732286 73.62907187 140.71655273 73.62939453 C136.84118345 73.62503229 132.96696443 73.58868862 129.09179688 73.55078125 C104.73511095 73.43854434 85.96199396 77.50235495 67.8515625 95.0859375 C55.60836456 108.07967631 49.06638664 124.88151532 48.71533203 142.65087891 C48.69740097 143.39325806 48.67946991 144.13563721 48.66099548 144.9005127 C48.60416936 147.34244388 48.55486914 149.78442426 48.5078125 152.2265625 C48.49145626 153.06662212 48.47510002 153.90668175 48.45824814 154.77219772 C48.37345225 159.2209239 48.29578153 163.66972012 48.22265625 168.11865234 C48.16102907 171.77925789 48.08467939 175.43909429 47.99511719 179.09912109 C47.88648499 183.54083395 47.80372906 187.98234697 47.73885727 192.42490768 C47.71015929 194.10656415 47.67274119 195.78809774 47.62598038 197.46934891 C47.29746386 209.64305339 48.43123071 218.90830762 56 229 C51.05 229 46.1 229 41 229 C40.34 227.35 39.68 225.7 39 224 C27.3571672 218.1785836 13.01233117 222.35168463 0 222 C0 148.74 0 75.48 0 0 Z " fill="#8CC8FA" transform="translate(14,14)"/>
<path d="M0 0 C0.85183483 -0.0072672 1.70366966 -0.01453441 2.58131766 -0.02202183 C5.44942188 -0.04033911 8.31620012 -0.02288532 11.18429565 -0.00571251 C13.25570423 -0.01147103 15.3271077 -0.01941033 17.39850044 -0.02934873 C23.10127895 -0.05028209 28.80364079 -0.03987726 34.50642109 -0.02441764 C40.65239137 -0.01313464 46.7982885 -0.03055168 52.94424438 -0.04431725 C64.29180969 -0.06529882 75.63920457 -0.06343387 86.98676568 -0.0497599 C97.46914755 -0.03719025 107.95148055 -0.03389481 118.43386841 -0.03987312 C119.47618355 -0.04044601 119.47618355 -0.04044601 120.53955556 -0.04103047 C123.36017036 -0.04258712 126.18078514 -0.04417912 129.00139988 -0.04582929 C155.46982959 -0.06112996 181.93817437 -0.04724803 208.40659097 -0.02034481 C231.93068256 0.00338388 255.45463884 0.00126077 278.97872925 -0.02264977 C305.39823166 -0.04941341 331.817659 -0.06004492 358.23717308 -0.04458845 C361.05269748 -0.04298482 363.8682219 -0.04142062 366.68374634 -0.03987312 C367.72365422 -0.03928004 367.72365422 -0.03928004 368.78457035 -0.03867498 C379.26127751 -0.03298367 389.73793047 -0.03964632 400.21463013 -0.05227089 C412.125176 -0.06655156 424.03556201 -0.06254412 435.94610167 -0.03586717 C442.02669824 -0.02269827 448.10701971 -0.01762909 454.18761444 -0.03411293 C459.74900746 -0.0489616 465.30986917 -0.04090813 470.87121367 -0.01422517 C472.88795816 -0.00861862 474.90474712 -0.01152896 476.92146325 -0.02360411 C479.65416015 -0.0387169 482.38501551 -0.02331245 485.11761475 0 C485.90843185 -0.01170583 486.69924896 -0.02341166 487.51403022 -0.03547221 C491.4630916 0.03228742 493.36619461 0.48313373 496.54723114 2.8955403 C498.56531727 5.63805244 499.18399106 6.68013751 499.18521976 9.99705791 C499.1976418 10.8440447 499.21006384 11.69103148 499.2228623 12.56368452 C499.21102657 13.48411038 499.19919085 14.40453623 499.18699646 15.35285378 C499.19763804 16.83123274 499.19763804 16.83123274 499.2084946 18.33947796 C499.22611163 21.64551504 499.20795018 24.95038228 499.18991089 28.25640297 C499.19504822 30.62500991 499.20232809 32.99361303 499.21159363 35.36220741 C499.22821182 41.12953575 499.2214584 46.896489 499.2035054 52.66380639 C499.18947952 57.35046242 499.18558655 62.03702647 499.18894768 66.72370148 C499.18966384 67.72424605 499.18966384 67.72424605 499.19039447 68.74500365 C499.1914208 70.10005008 499.19247616 71.45509648 499.19356024 72.81014287 C499.20212716 84.79115806 499.18545191 96.77200962 499.1557312 108.752985 C499.12688728 120.38065906 499.11981327 132.00809747 499.13522339 143.6357975 C499.1519802 156.29698839 499.15602562 168.95806741 499.13851303 181.61926121 C499.13666863 182.96901602 499.1348339 184.31877085 499.13300896 185.6685257 C499.13209687 186.33263848 499.13118478 186.99675127 499.13024505 187.68098869 C499.12463689 192.36297643 499.12794935 197.04490959 499.13455391 201.72689438 C499.1422 208.02656047 499.13014506 214.32588603 499.102705 220.625494 C499.09580282 222.94105264 499.09574269 225.25664298 499.10292053 227.57220078 C499.11157229 230.72603106 499.09573105 233.87880001 499.07347107 237.03254128 C499.08171184 237.95519785 499.0899526 238.87785442 499.09844309 239.82847029 C499.01778256 245.99338583 499.01778256 245.99338583 496.70381451 249.1989336 C493.81179773 251.12730524 491.87703765 251.11146774 488.41329956 251.08330727 C487.17231506 251.08300514 485.93133057 251.08270302 484.65274048 251.08239174 C483.30371455 251.06196685 481.95469521 251.0411029 480.60568237 251.0198307 C479.22135231 251.01236672 477.83701166 251.00667453 476.45266724 251.00267982 C472.8159142 250.98743545 469.17980412 250.94816523 465.54330444 250.90386391 C461.82981056 250.86288462 458.11621238 250.84466322 454.40255737 250.8245182 C447.12101483 250.78166872 439.84000132 250.71343324 432.55880737 250.6292057 C432.77431359 255.46397348 433.00502911 260.2977187 433.24850464 265.13115883 C433.32895559 266.76768801 433.40559526 268.40441003 433.47799683 270.04131508 C434.09215404 283.83232121 434.96823106 297.81746832 440.55880737 310.6292057 C440.81863403 311.24674721 441.07846069 311.86428871 441.34616089 312.50054359 C442.41329937 315.03646059 443.52417006 317.55186146 444.64865112 320.06279945 C447.38602423 326.53410086 446.63550103 330.91406517 444.12130737 337.2542057 C438.9871392 345.38022727 426.30975183 349.71222422 417.55880737 352.6292057 C418.21880737 357.2492057 418.87880737 361.8692057 419.55880737 366.6292057 C421.09408081 367.02494789 422.62935425 367.42069008 424.21115112 367.82842445 C430.98302262 369.6788462 437.53884738 372.0115426 444.12130737 374.4417057 C445.27566284 374.85485023 446.43001831 375.26799477 447.61935425 375.69365883 C461.31540729 380.73548437 472.95817515 387.29139093 479.99630737 400.5667057 C483.28741331 407.72326571 484.9748447 414.72449645 484.55880737 422.6292057 C485.23943237 422.7942057 485.92005737 422.9592057 486.62130737 423.1292057 C491.68001836 425.71237727 495.53306008 430.0518183 497.63658142 435.33732033 C498.63136051 438.88818411 498.83246753 441.88094369 498.86520386 445.56499672 C498.87352737 446.23083778 498.88185089 446.89667885 498.89042664 447.58269691 C498.91436705 449.76622933 498.92327638 451.94946257 498.92990112 454.13311195 C498.93887565 455.6595563 498.94799763 457.18599978 498.95726013 458.7124424 C498.97370638 461.90403819 498.98144294 465.09552957 498.98434448 468.28716469 C498.98974132 472.37185452 499.02749207 476.45556157 499.07308865 480.53997326 C499.10285324 483.68931598 499.1100678 486.83842101 499.11107063 489.98789215 C499.1152698 491.49378361 499.12769215 492.99967598 499.14858818 494.50542831 C499.17550975 496.61195783 499.17067965 498.71619436 499.15817261 500.82280922 C499.16324326 502.01938652 499.1683139 503.21596382 499.17353821 504.44880104 C498.34084005 508.75689322 497.05415898 509.98273278 493.55880737 512.6292057 C490.20446336 513.36106727 486.91565621 513.29550158 483.4934845 513.25066566 C482.47114655 513.25705449 481.44880859 513.26344331 480.39549071 513.27002573 C476.96507662 513.28530304 473.53581236 513.26479521 470.10543823 513.24444008 C467.64816403 513.24794041 465.19089209 513.25359798 462.73362732 513.26125526 C456.74968652 513.27404233 450.76619715 513.26355026 444.78231471 513.24214202 C437.81497512 513.21813016 430.84771326 513.21984647 423.88034148 513.22244793 C411.4500949 513.22613796 399.02000823 513.20531316 386.58981323 513.17119789 C374.52564452 513.13809945 362.46164362 513.1239408 350.39743042 513.13018227 C337.26160954 513.1369447 324.12585896 513.1344908 310.99004847 513.11482286 C310.29559861 513.11378338 309.60114874 513.11274389 308.88565494 513.11167291 C307.49086247 513.109582 306.09607003 513.10747103 304.70127762 513.10533974 C299.84347316 513.09844164 294.98569034 513.09777523 290.127882 513.09922218 C283.5918934 513.10081131 277.0560785 513.08593018 270.52013206 513.05999565 C268.11749497 513.05281679 265.71483649 513.05075844 263.31219101 513.05411339 C260.04028912 513.05781151 256.7689802 513.0431383 253.49714661 513.02361488 C252.5394715 513.02894281 251.58179639 513.03427073 250.59510082 513.03976011 C244.21821272 512.97381147 244.21821272 512.97381147 241.00016117 511.29205513 C237.74619817 507.53804934 238.38056682 502.88398639 238.35568237 498.1995182 C238.3499823 497.37217171 238.34428223 496.54482521 238.33840942 495.69240761 C238.32896715 493.94234938 238.32242851 492.19227344 238.318573 490.44219398 C238.3088689 487.77114139 238.27783953 485.10085895 238.24630737 482.42998695 C238.23977679 480.7281686 238.23452653 479.02634475 238.23068237 477.3245182 C238.21833557 476.52853218 238.20598877 475.73254616 238.19326782 474.91243935 C238.21154152 470.34125565 238.56960987 467.3293911 241.55880737 463.6292057 C244.58292817 462.43547381 246.11704972 462.5059245 249.24630737 463.3792057 C251.55880737 464.6292057 251.55880737 464.6292057 253.55880737 467.6292057 C253.55880737 477.8592057 253.55880737 488.0892057 253.55880737 498.6292057 C329.78880737 498.6292057 406.01880737 498.6292057 484.55880737 498.6292057 C487.43242346 467.05615102 487.43242346 467.05615102 481.55880737 437.6292057 C477.93461319 434.83466678 473.53681932 435.35215921 469.17025757 435.37764931 C468.31619969 435.37467917 467.46214181 435.37170903 466.58220339 435.36864889 C463.71561287 435.36100003 460.8492267 435.36750651 457.9826355 435.37383461 C455.92944703 435.37108518 453.87625963 435.36740558 451.82307434 435.36286354 C447.39943505 435.3547465 442.97584633 435.35258433 438.55220032 435.35481071 C431.56091161 435.3576397 424.5697243 435.34330798 417.57846069 435.32583046 C397.69741332 435.27876175 377.81637282 435.2548553 357.93527222 435.24834633 C346.9569161 435.24460031 335.97867462 435.22660868 325.00036764 435.19325197 C318.04680648 435.17299118 311.09354 435.17069043 304.13996124 435.18153214 C299.81855709 435.184133 295.49732575 435.17016607 291.17596626 435.15145111 C289.16840303 435.14611348 287.16080827 435.14765256 285.15325737 435.15648651 C282.4175411 435.167556 279.683001 435.15423673 276.94735718 435.13472939 C276.14852883 435.14385404 275.34970048 435.1529787 274.52666521 435.16237986 C270.98786617 435.11310292 268.94931179 434.91806146 266.06577301 432.78511047 C264.00470698 429.83649508 263.97160806 428.15240161 264.55880737 424.6292057 C266.08307266 422.47176933 266.08307266 422.47176933 268.55880737 420.6292057 C271.39416727 420.24489537 273.83772244 420.10534599 276.67056274 420.14818764 C277.90688033 420.14306109 277.90688033 420.14306109 279.16817403 420.13783097 C281.93382854 420.13123498 284.69851551 420.15325619 287.46408081 420.17510414 C289.44494097 420.17623225 291.4258028 420.17559948 293.40666199 420.17333412 C298.78863088 420.17218462 304.1702445 420.19573235 309.5521307 420.22362995 C315.17488246 420.24860413 320.79764201 420.25098246 326.42044067 420.25573158 C337.06996754 420.26817306 347.71933051 420.30101062 358.36878514 420.34112954 C370.4919615 420.38581072 382.6151456 420.40782511 394.73838377 420.42791128 C419.6786159 420.46974215 444.61870246 420.54011706 469.55880737 420.6292057 C469.25486307 419.02333175 468.94616963 417.41835618 468.63546753 415.81377602 C468.46407257 414.91991188 468.29267761 414.02604774 468.11608887 413.10509682 C467.46309853 410.20399032 466.47929631 407.91760653 464.93380737 405.3792057 C464.48779175 404.61092445 464.04177612 403.8426432 463.58224487 403.0510807 C458.43930359 396.89543669 451.93696785 393.56970841 444.49240112 390.94561195 C443.65467667 390.64098534 442.81695221 390.33635872 441.95384216 390.02250099 C440.19742746 389.38820858 438.43849777 388.76084049 436.67721558 388.14019203 C433.99199013 387.19017829 431.31954834 386.20912735 428.646698 385.22490883 C426.92927683 384.60908302 425.21119842 383.99508641 423.49240112 383.38311195 C422.70054916 383.09054008 421.9086972 382.79796822 421.09284973 382.49653053 C416.1719882 380.79419246 412.76220392 380.43563076 407.55880737 381.6292057 C406.85377075 381.78260414 406.14873413 381.93600258 405.42233276 382.09404945 C404.83959595 382.25002602 404.25685913 382.40600258 403.65646362 382.5667057 C402.99324097 382.73944008 402.33001831 382.91217445 401.646698 383.0901432 C400.30008508 383.44854741 398.9537288 383.80791733 397.6076355 384.1682682 C376.43221512 389.67264518 351.34290503 388.18556737 330.55880737 381.8167057 C323.79073245 379.86102899 318.71720368 381.75430716 312.37130737 384.2542057 C308.929716 385.57894524 306.27923263 386.29061464 302.55880737 385.6292057 C299.62130737 383.5042057 299.62130737 383.5042057 297.55880737 380.6292057 C297.55880737 377.52133905 297.81281328 375.63512806 299.67990112 373.11748695 C302.4147852 370.95118584 305.33392673 370.07376129 308.62130737 368.9417057 C309.25874878 368.7167643 309.89619019 368.49182289 310.552948 368.26006508 C315.25715939 366.6292057 315.25715939 366.6292057 317.55880737 366.6292057 C317.89700903 365.0469051 318.22916677 363.46331196 318.55880737 361.8792057 C318.74443237 360.99748695 318.93005737 360.1157682 319.12130737 359.2073307 C319.67034412 356.40776605 319.67034412 356.40776605 319.55880737 352.6292057 C318.49661987 352.19350258 317.43443237 351.75779945 316.34005737 351.3088932 C295.64707617 342.65746595 295.64707617 342.65746595 291.55880737 333.6292057 C289.54802317 325.22047177 293.13088605 318.32513934 296.48580933 310.82525063 C303.26941103 295.52249649 303.45985507 279.65084006 304.08224487 263.1760807 C304.12824829 261.96871254 304.17425171 260.76134438 304.22164917 259.5173893 C304.33447251 256.55467777 304.44684575 253.5919499 304.55880737 250.6292057 C303.70103195 250.63586754 302.84325653 250.64252937 301.95948792 250.64939308 C293.8812894 250.70946932 285.80316577 250.75516231 277.72479534 250.78464222 C273.5714688 250.8003076 269.41832663 250.82156153 265.2651062 250.85552406 C261.25805152 250.8880868 257.25117434 250.90605215 253.24399757 250.91383743 C251.71414202 250.91938653 250.18429634 250.93022246 248.65451622 250.94639587 C246.51391883 250.96812986 244.37405765 250.97117443 242.23336792 250.96978188 C241.01425217 250.97644371 239.79513641 250.98310555 238.53907776 250.98996925 C235.55880737 250.6292057 235.55880737 250.6292057 233.66899109 249.32276344 C231.76413513 246.41695289 232.14687989 243.98347233 232.55880737 240.6292057 C234.14468384 238.4349308 234.14468384 238.4349308 236.55880737 236.6292057 C239.77322388 236.14818764 239.77322388 236.14818764 243.62228394 236.17510414 C244.67654572 236.17422798 244.67654572 236.17422798 245.75210571 236.17333412 C248.06838889 236.17611432 250.38337487 236.20720058 252.69943237 236.2385807 C254.30796607 236.24604339 255.91650888 236.25173619 257.52505493 236.25573158 C261.75360322 236.27098593 265.98159976 236.31026552 270.20993042 236.3545475 C274.52666765 236.3955048 278.84349424 236.41374355 283.16036987 236.4338932 C291.62676858 236.47676043 300.09271929 236.54500877 308.55880737 236.6292057 C308.69673706 235.69818031 308.83466675 234.76715492 308.97677612 233.80791664 C311.2954211 221.14484717 323.01057673 210.00373915 332.81271362 202.4495182 C348.00140057 192.38134165 366.05687847 189.8998932 383.85568237 193.3167057 C400.57030164 197.77393751 414.5404796 207.83850856 423.55880737 222.6292057 C425.53880737 226.9192057 427.51880737 231.2092057 429.55880737 235.6292057 C447.70880737 235.9592057 465.85880737 236.2892057 484.55880737 236.6292057 C484.55880737 163.3692057 484.55880737 90.1092057 484.55880737 14.6292057 C324.83880737 14.6292057 165.11880737 14.6292057 0.55880737 14.6292057 C0.55880737 87.8892057 0.55880737 161.1492057 0.55880737 236.6292057 C12.76880737 236.6292057 24.97880737 236.6292057 37.55880737 236.6292057 C42.55880737 241.6292057 42.55880737 241.6292057 42.55880737 245.6292057 C41.23068237 248.25005531 41.23068237 248.25005531 38.55880737 250.6292057 C34.98263621 251.38636561 31.45253016 251.30562543 27.80880737 251.25811195 C26.23341187 251.26172989 26.23341187 251.26172989 24.62619019 251.26542091 C22.40707623 251.26444201 20.18793799 251.25103835 17.96896362 251.22612953 C14.57098489 251.19182863 11.17560709 251.2054675 7.77755737 251.22490883 C5.62129629 251.21801032 3.46504193 251.20833789 1.30880737 251.19561195 C0.29205933 251.20057182 -0.72468872 251.20553169 -1.77224731 251.21064186 C-2.72003052 251.19480553 -3.66781372 251.17896919 -4.64431763 251.16265297 C-5.47608521 251.15645439 -6.30785278 251.15025581 -7.16482544 251.1438694 C-10.45926249 250.39903036 -11.42814351 249.36415096 -13.44119263 246.6292057 C-14.04913208 243.43617623 -13.98481388 240.27470012 -13.95585632 237.03254128 C-13.96280185 236.04851529 -13.96974738 235.0644893 -13.97690338 234.05064434 C-13.99524099 230.74400189 -13.98489001 227.43807143 -13.97463989 224.13140297 C-13.98169493 221.76456602 -13.99043818 219.39773359 -14.00074768 217.03090858 C-14.02095442 211.26383814 -14.02225738 205.49699282 -14.01412214 199.72989697 C-14.00782457 195.04275382 -14.00895691 190.35566823 -14.01539421 185.6685257 C-14.01629587 185.00164921 -14.01719752 184.33477273 -14.0181265 183.64768786 C-14.01997769 182.29296564 -14.02184025 180.93824343 -14.02371406 179.58352124 C-14.04029736 166.87649875 -14.03156901 154.16958726 -14.01472848 141.46257143 C-14.00003255 129.83605848 -14.01465731 118.20980398 -14.04349864 106.58332432 C-14.07288863 94.64682432 -14.08386602 82.71044363 -14.07431644 70.77390903 C-14.07329388 69.42383987 -14.07229928 68.07377068 -14.07133293 66.72370148 C-14.07085654 66.05943441 -14.07038015 65.39516735 -14.06988933 64.71077098 C-14.06772457 60.0297388 -14.07753252 55.34881949 -14.09210396 50.66781235 C-14.11041796 44.36647855 -14.10455419 38.06562616 -14.07990456 31.76431847 C-14.07488317 29.44917289 -14.07842058 27.13399091 -14.09105301 24.81887436 C-14.10691326 21.66297575 -14.09209777 18.50867599 -14.06938171 15.35285378 C-14.08713531 13.972215 -14.08713531 13.972215 -14.10524756 12.56368452 C-14.09282552 11.71669774 -14.08040348 10.86971096 -14.06760502 9.99705791 C-14.06733533 9.26902401 -14.06706564 8.54099011 -14.06678778 7.79089457 C-12.01258778 0.69278768 -6.483852 -0.09597526 0 0 Z " fill="#000000" transform="translate(13.441192626953125,-0.6292057037353516)"/>
<path d="M0 0 C1.05398987 0.00604248 1.05398987 0.00604248 2.12927246 0.01220703 C4.73618957 0.03302299 7.34273234 0.08886856 9.94921875 0.140625 C15.78609375 0.223125 21.62296875 0.305625 27.63671875 0.390625 C27.63671875 15.240625 27.63671875 30.090625 27.63671875 45.390625 C24.33671875 47.040625 21.03671875 48.690625 17.63671875 50.390625 C12.58227033 54.54650482 8.70955879 60.17210488 6.63671875 66.390625 C5.85353631 75.62098949 5.85968408 83.72039343 11.63671875 91.390625 C18.17827827 98.46947893 25.19257768 102.19619652 34.82421875 102.703125 C43.00612082 102.56721301 50.0334349 99.03049629 55.875 93.4140625 C62.08546255 86.28098134 63.47746785 79.38392912 63.109375 70.01171875 C61.95478282 61.16620673 57.70651976 55.82414261 51.11328125 50.08203125 C48.04797688 47.87165987 48.04797688 47.87165987 41.63671875 45.390625 C41.63671875 30.870625 41.63671875 16.350625 41.63671875 1.390625 C57.09016005 1.390625 57.09016005 1.390625 63.63671875 4.390625 C64.72533203 4.88369141 64.72533203 4.88369141 65.8359375 5.38671875 C77.81114378 11.42656974 85.72362245 20.74763768 90.73046875 33.0859375 C93.55377283 42.26167575 94.71779607 53.94273898 92.63671875 63.390625 C90.46728439 66.60088626 88.42342041 68.29354935 85.25390625 70.484375 C79.70910087 74.52297951 76.14171608 81.76863675 74.63671875 88.390625 C74.31120699 92.54089993 74.28622258 93.86488075 76.63671875 97.390625 C78.61418997 97.75360436 78.61418997 97.75360436 80.76171875 97.578125 C82.04046875 97.51625 83.31921875 97.454375 84.63671875 97.390625 C84.89324219 96.64039063 85.14976562 95.89015625 85.4140625 95.1171875 C88.84447445 85.94632188 93.59746157 78.56349063 102.01171875 73.265625 C104.9645895 71.1564316 105.01086173 70.64558345 105.88671875 67.328125 C106.77451919 64.45487994 107.2404246 63.61649213 109.8984375 62.1015625 C112.58779082 61.19856796 114.79614776 60.48486195 117.63671875 60.390625 C118.97230602 61.38761268 120.30551027 62.38779812 121.63671875 63.390625 C126.53647508 64.00055317 129.96056179 62.64975261 134.44921875 60.765625 C140.97176977 58.35289453 144.22433156 58.21851978 150.63671875 60.390625 C152.98523988 60.93635072 155.34008366 61.45527995 157.69921875 61.953125 C158.82457031 62.20191406 159.94992187 62.45070313 161.109375 62.70703125 C182.10013852 66.77500868 207.22204243 66.48094836 227.36328125 58.84375 C233.31772393 57.65695387 239.32100595 60.10873039 244.87890625 62.0859375 C245.64671417 62.35646942 246.41452209 62.62700134 247.20559692 62.9057312 C248.82212026 63.4787497 250.43733018 64.05548565 252.05126953 64.63574219 C254.49207562 65.50860041 256.94074408 66.35613099 259.390625 67.203125 C269.67662153 70.83644125 279.64512292 74.48755828 285.13671875 84.640625 C285.60078125 85.47078125 286.06484375 86.3009375 286.54296875 87.15625 C288.61381367 91.38669033 288.72475242 94.72484024 288.63671875 99.390625 C287.60358394 99.39301335 286.57044912 99.39540171 285.50600719 99.39786243 C260.39417666 99.45659707 235.28244254 99.5324423 210.17071819 99.62633991 C198.02698826 99.6713495 185.88328799 99.71075218 173.73950195 99.73706055 C163.15781486 99.75999888 152.57622124 99.79335003 141.99460822 99.83932656 C136.38915439 99.86331508 130.78379345 99.8820069 125.17828941 99.88823891 C119.90632834 99.89426437 114.63460514 99.91417172 109.36273193 99.94490051 C107.42410238 99.95372163 105.4854418 99.95739496 103.54679298 99.95563316 C100.90699025 99.95399109 98.26792196 99.9705877 95.6282196 99.99189758 C94.85487752 99.98705001 94.08153544 99.98220243 93.28475875 99.97720796 C89.2382088 100.02216106 89.2382088 100.02216106 85.66068745 101.72804546 C84.04342361 104.35393605 84.26143645 106.38836657 84.63671875 109.390625 C85.58164397 111.21606414 85.58164397 111.21606414 87.63671875 112.390625 C90.46360107 112.68460776 93.07044743 112.79350148 95.89828491 112.76916504 C96.7507828 112.77369517 97.60328069 112.7782253 98.48161185 112.7828927 C101.34906014 112.79455527 104.2160454 112.78485416 107.08349609 112.77539062 C109.1349162 112.77949398 111.18633398 112.78495344 113.23774719 112.79167175 C117.66087892 112.80341616 122.08388581 112.80587415 126.50703049 112.80131531 C133.4985367 112.79452171 140.48987781 112.81034616 147.48135376 112.82971191 C162.32479982 112.86761862 177.1682317 112.88037383 192.01171875 112.890625 C208.02798827 112.90168986 224.04418222 112.91699797 240.06039965 112.96133757 C247.01280987 112.97972303 253.96503239 112.98357558 260.91746116 112.97640228 C265.24106696 112.97488256 269.56457852 112.98565104 273.8881588 112.99978065 C275.89530393 113.00379015 277.90246687 113.00264668 279.90960503 112.99600792 C282.6470298 112.9876483 285.38380014 112.99759168 288.1211853 113.01208496 C288.91778293 113.00519103 289.71438056 112.99829709 290.53511751 112.99119425 C295.06623672 113.03801408 298.09831398 113.47178185 301.63671875 116.390625 C310.73494813 134.58708375 303.63671875 157.04636564 303.63671875 177.390625 C227.40671875 177.390625 151.17671875 177.390625 72.63671875 177.390625 C72.30671875 167.160625 71.97671875 156.930625 71.63671875 146.390625 C71.30671875 145.400625 70.97671875 144.410625 70.63671875 143.390625 C67.62824457 142.16542236 67.62824457 142.16542236 64.63671875 141.390625 C64.63671875 138.090625 64.63671875 134.790625 64.63671875 131.390625 C65.60609375 131.04 66.57546875 130.689375 67.57421875 130.328125 C70.99078626 128.65117647 70.99078626 128.65117647 71.57421875 124.890625 C71.8306244 121.41714955 71.8306244 121.41714955 70.63671875 118.390625 C67.86532361 117.34035508 65.18691263 117.2575169 62.24542236 117.23240662 C61.37326584 117.2226178 60.50110931 117.21282898 59.6025238 117.20274353 C58.65377884 117.19698807 57.70503387 117.1912326 56.72753906 117.18530273 C55.72233719 117.17540314 54.71713531 117.16550354 53.68147278 117.15530396 C50.35928705 117.12371928 47.03708703 117.09894341 43.71484375 117.07421875 C41.41127145 117.05364661 39.1077029 117.03265007 36.80413818 117.01124573 C30.74118082 116.95605192 24.67818955 116.90663071 18.61517334 116.85839844 C12.42831402 116.80816382 6.24150395 116.75248797 0.0546875 116.69726562 C-12.08459334 116.58971694 -24.22391695 116.4882646 -36.36328125 116.390625 C-36.71236719 104.76846448 -36.97810893 93.14756971 -37.14046383 81.52121544 C-37.2184314 76.12097122 -37.32397031 70.72433768 -37.49487305 65.32617188 C-37.65907937 60.10625 -37.74778334 54.88977594 -37.7864399 49.66746902 C-37.81394608 47.68565218 -37.86766739 45.70400348 -37.9492321 43.72367477 C-38.59236707 27.44646423 -38.59236707 27.44646423 -33.08670044 21.1038208 C-29.98003986 18.00821288 -26.65295165 15.28939717 -23.1210804 12.69508743 C-20.86541053 11.02115523 -18.80325911 9.16726254 -16.73828125 7.265625 C-15.62252708 6.29654274 -14.49731936 5.33824589 -13.36328125 4.390625 C-12.67548584 3.70919434 -11.98769043 3.02776367 -11.27905273 2.32568359 C-7.50402093 -0.17962513 -4.37244879 -0.1190292 0 0 Z " fill="#8CC9FB" transform="translate(194.36328125,320.609375)"/>
<path d="M0 0 C9.50826179 7.59933734 15.86491826 19.48538701 17.85546875 31.4453125 C17.96804023 33.86298553 18.03312923 36.28306139 18.06640625 38.703125 C18.09186963 40.1386867 18.11818776 41.57423343 18.14526367 43.00976562 C18.15850677 43.75492432 18.17174988 44.50008301 18.18539429 45.26782227 C18.58766423 65.81654461 19.49259948 87.15694211 29.60546875 105.64453125 C30.85546875 108.4453125 30.85546875 108.4453125 30.92578125 111.1015625 C29.33143936 114.5928221 27.15988859 115.3188315 23.73046875 116.9453125 C22.79908081 117.38750122 22.79908081 117.38750122 21.84887695 117.83862305 C-7.47286952 131.36354929 -44.06292727 133.24575331 -74.60693359 122.5859375 C-81.79871625 119.8376007 -88.50117528 116.31284585 -95.14453125 112.4453125 C-94.4554051 108.0212928 -92.90579695 104.05982895 -91.20703125 99.9453125 C-90.94212891 99.29433594 -90.67722656 98.64335937 -90.40429688 97.97265625 C-89.32252266 95.31519601 -88.24072818 92.66237223 -87.078125 90.0390625 C-84.31957667 82.3751458 -83.64977678 74.52120293 -83.08203125 66.4453125 C-82.95308472 64.75692261 -82.95308472 64.75692261 -82.8215332 63.03442383 C-82.31978696 56.13721348 -82.04592762 49.26462027 -81.90600586 42.3515625 C-81.56450502 27.49233113 -79.42797344 16.78734433 -69.14453125 5.4453125 C-68.5721875 4.75824219 -67.99984375 4.07117188 -67.41015625 3.36328125 C-49.319651 -16.85324492 -20.58766128 -14.92511692 0 0 Z " fill="#93512F" transform="translate(414.14453125,216.5546875)"/>
<path d="M0 0 C4.35621214 -0.18940053 8.70416059 -0.32792656 13.0625 -0.4375 C14.29162109 -0.49615234 15.52074219 -0.55480469 16.78710938 -0.61523438 C25.77319021 -0.78478307 25.77319021 -0.78478307 29.29907227 1.47070312 C31.04164892 3.22464794 32.525116 5.01923658 34 7 C35.25415504 8.14356351 36.52138962 9.2733302 37.8125 10.375 C41.8740559 13.87333233 45.84038973 17.46980602 49.80078125 21.08203125 C52.04822519 23.12519492 52.04822519 23.12519492 55 25 C55.28611763 27.96074811 55.37798291 30.71050332 55.34057617 33.67236328 C55.34093778 34.58452543 55.34129938 35.49668758 55.34167194 36.43649101 C55.33942737 39.39798579 55.316557 42.35891866 55.29296875 45.3203125 C55.28855959 47.14509814 55.28549801 48.96988755 55.28381348 50.79467773 C55.26806528 57.57150957 55.22618184 64.34826026 55.1875 71.125 C55.125625 86.26375 55.06375 101.4025 55 117 C12.1 117 -30.8 117 -75 117 C-75.0825 104.893125 -75.165 92.78625 -75.25 80.3125 C-75.28641602 76.51532471 -75.32283203 72.71814941 -75.36035156 68.8059082 C-75.37841797 64.10388184 -75.37841797 64.10388184 -75.3817749 61.89006042 C-75.38784466 60.37141709 -75.40175889 58.8527908 -75.42230225 57.33427429 C-75.62512719 41.52668209 -72.84450344 26.91453789 -61.93359375 14.68359375 C-51.20007848 4.56451943 -40.10307957 0.65330974 -25.625 0.875 C-23.94857422 0.88853516 -23.94857422 0.88853516 -22.23828125 0.90234375 C-19.49209488 0.92581543 -16.74601937 0.96168345 -14 1 C-14 4.96 -14 8.92 -14 13 C-15.815 13.70125 -17.63 14.4025 -19.5 15.125 C-29.56913378 19.36089882 -37.34591954 25.39270043 -42.17370605 35.4434967 C-44.90093839 42.52837746 -45.58851913 48.75387686 -45.53125 56.30859375 C-45.53699036 58.00230858 -45.53699036 58.00230858 -45.54284668 59.73023987 C-45.54554954 62.09580385 -45.53830345 64.46139856 -45.52148438 66.8269043 C-45.49991176 70.45232949 -45.52141493 74.0758046 -45.546875 77.70117188 C-45.54423418 80.00781687 -45.53911431 82.31446065 -45.53125 84.62109375 C-45.53934692 85.70337753 -45.54744385 86.78566132 -45.55578613 87.90074158 C-45.54317749 88.90601395 -45.53056885 89.91128632 -45.51757812 90.94702148 C-45.51439575 91.8287352 -45.51121338 92.71044891 -45.50793457 93.61888123 C-44.8346269 96.77524356 -43.46785052 97.98930381 -41 100 C-38.76505469 100.60591661 -38.76505469 100.60591661 -36.375 100.53125 C-35.50359375 100.53640625 -34.6321875 100.5415625 -33.734375 100.546875 C-32.83203125 100.53140625 -31.9296875 100.5159375 -31 100.5 C-29.64648438 100.52320313 -29.64648438 100.52320313 -28.265625 100.546875 C-22.990013 100.52500906 -22.990013 100.52500906 -18.3671875 98.19921875 C-16.66071422 95.9090986 -16.66071422 95.9090986 -17.125 92.3125 C-17.41375 91.219375 -17.7025 90.12625 -18 89 C-20.70183055 87.64908472 -23.11808206 87.66141942 -26.125 87.4375 C-27.76855469 87.31181641 -27.76855469 87.31181641 -29.4453125 87.18359375 C-30.28835937 87.12300781 -31.13140625 87.06242187 -32 87 C-32.12448527 81.3441553 -32.21475374 75.68912461 -32.2746582 70.03222656 C-32.29965487 68.11183768 -32.33366412 66.19154249 -32.37719727 64.27148438 C-32.85150026 42.79950869 -32.85150026 42.79950869 -24.90234375 33.5625 C-24.25394531 33.046875 -23.60554688 32.53125 -22.9375 32 C-21.96103516 31.195625 -21.96103516 31.195625 -20.96484375 30.375 C-14.47079948 25.83046007 -7.64988106 26.26069308 0 27 C8.42230086 29.36087964 12.85255293 34.4865435 17.05807495 41.85345459 C18.09025404 44.2056792 18.24244039 45.75489562 18.22705078 48.30957031 C18.22689972 49.15013977 18.22674866 49.99070923 18.22659302 50.85675049 C18.21627045 51.75480408 18.20594788 52.65285767 18.1953125 53.578125 C18.1924826 54.5046991 18.18965271 55.43127319 18.18673706 56.38592529 C18.17555611 59.34074909 18.15045527 62.29526805 18.125 65.25 C18.11496751 67.25520395 18.10584213 69.26041266 18.09765625 71.265625 C18.07562358 76.17720051 18.04110795 81.08854859 18 86 C17.31510498 86.04753418 16.63020996 86.09506836 15.92456055 86.14404297 C14.57551636 86.25449951 14.57551636 86.25449951 13.19921875 86.3671875 C11.86250122 86.46942627 11.86250122 86.46942627 10.4987793 86.57373047 C7.72213359 86.87301895 7.72213359 86.87301895 4.8125 89.125 C2.63289803 91.97240799 2.63289803 91.97240799 3.1875 95.8125 C3.5896875 97.3903125 3.5896875 97.3903125 4 99 C8.29909653 100.43303218 12.43394397 100.22450216 16.9375 100.25 C17.84435547 100.270625 18.75121094 100.29125 19.68554688 100.3125 C20.56146484 100.31765625 21.43738281 100.3228125 22.33984375 100.328125 C23.53661743 100.34214355 23.53661743 100.34214355 24.75756836 100.35644531 C27.6489945 99.8968392 28.88557693 99.01769367 31 97 C31.60566698 94.55274728 31.60566698 94.55274728 31.51757812 91.75341797 C31.53018677 90.68155243 31.54279541 89.60968689 31.55578613 88.50534058 C31.54768921 87.34600006 31.53959229 86.18665955 31.53125 84.9921875 C31.5350769 83.79699493 31.53890381 82.60180237 31.54284668 81.37039185 C31.5455717 78.83676311 31.53816952 76.30310651 31.52148438 73.76953125 C31.50019755 69.91080952 31.52120982 66.05397391 31.546875 62.1953125 C31.54422962 59.73176675 31.53910032 57.26822216 31.53125 54.8046875 C31.53934692 53.65749237 31.54744385 52.51029724 31.55578613 51.32833862 C31.43082459 40.51786734 27.96719254 32.50418633 20.6875 24.4375 C14.23405541 18.58437584 8.31958013 15.77319338 0 13 C0 8.71 0 4.42 0 0 Z " fill="#00C3CA" transform="translate(89,321)"/>
<path d="M0 0 C1.13526123 -0.00478363 2.27052246 -0.00956726 3.44018555 -0.01449585 C5.83741646 -0.01789422 8.23469375 -0.00869641 10.63183594 0.01220703 C14.29987994 0.03897042 17.96486361 0.01245382 21.6328125 -0.01953125 C23.96354842 -0.01622714 26.29428243 -0.0098209 28.625 0 C30.26891724 -0.01518173 30.26891724 -0.01518173 31.94604492 -0.03067017 C36.76123128 0.04340161 39.47259694 0.08753028 43.51245117 2.8605957 C45.5206467 5.98823836 45.90352807 7.50525761 45.80078125 11.18359375 C45.78466797 12.20517578 45.76855469 13.22675781 45.75195312 14.27929688 C45.71005859 15.33439453 45.66816406 16.38949219 45.625 17.4765625 C45.60244141 18.55099609 45.57988281 19.62542969 45.55664062 20.73242188 C45.49785598 23.377731 45.41573957 26.02017663 45.3125 28.6640625 C45.98829102 28.64311523 46.66408203 28.62216797 47.36035156 28.60058594 C50.42758254 28.51734607 53.49457582 28.46537784 56.5625 28.4140625 C57.62597656 28.38054688 58.68945312 28.34703125 59.78515625 28.3125 C60.80996094 28.29960938 61.83476562 28.28671875 62.890625 28.2734375 C64.30456543 28.2420166 64.30456543 28.2420166 65.74707031 28.20996094 C69.14082338 28.81068236 70.15644896 30.01495476 72.3125 32.6640625 C72.82043457 35.13024902 72.82043457 35.13024902 72.83007812 37.91992188 C72.84268677 38.96780884 72.85529541 40.0156958 72.86828613 41.09533691 C72.86018921 42.22145386 72.85209229 43.3475708 72.84375 44.5078125 C72.84949036 46.24967834 72.84949036 46.24967834 72.85534668 48.0267334 C72.85806792 50.48120999 72.85069205 52.93571548 72.83398438 55.39013672 C72.81257965 59.15007091 72.83378088 62.90809409 72.859375 66.66796875 C72.85673176 69.05208756 72.85160688 71.43620517 72.84375 73.8203125 C72.85184692 74.94642944 72.85994385 76.07254639 72.86828613 77.23278809 C72.85567749 78.28067505 72.84306885 79.32856201 72.83007812 80.40820312 C72.82689575 81.32879517 72.82371338 82.24938721 72.82043457 83.19787598 C72.15551531 86.4262739 70.85554686 87.63261555 68.3125 89.6640625 C65.74707031 90.11816406 65.74707031 90.11816406 62.890625 90.0546875 C61.35341797 90.03535156 61.35341797 90.03535156 59.78515625 90.015625 C58.72167969 89.98210937 57.65820312 89.94859375 56.5625 89.9140625 C55.48355469 89.89601563 54.40460938 89.87796875 53.29296875 89.859375 C50.63191212 89.81227665 47.97265746 89.7465185 45.3125 89.6640625 C45.35177612 90.6698938 45.35177612 90.6698938 45.3918457 91.69604492 C45.49607238 94.74764378 45.56090623 97.79886792 45.625 100.8515625 C45.66689453 101.90666016 45.70878906 102.96175781 45.75195312 104.04882812 C45.76806641 105.07041016 45.78417969 106.09199219 45.80078125 107.14453125 C45.82696533 108.08192139 45.85314941 109.01931152 45.88012695 109.98510742 C45.01908847 114.0488387 43.74471576 115.30809659 40.3125 117.6640625 C36.41604245 118.40141404 32.58117559 118.36466066 28.625 118.328125 C27.48973877 118.33290863 26.35447754 118.33769226 25.18481445 118.34262085 C22.78758354 118.34601922 20.39030625 118.33682141 17.99316406 118.31591797 C14.32512006 118.28915458 10.66013639 118.31567118 6.9921875 118.34765625 C4.66145158 118.34435214 2.33071757 118.3379459 0 118.328125 C-1.64391724 118.34330673 -1.64391724 118.34330673 -3.32104492 118.35879517 C-8.13623128 118.28472339 -10.84759694 118.24059472 -14.88745117 115.4675293 C-16.8956467 112.33988664 -17.27852807 110.82286739 -17.17578125 107.14453125 C-17.15966797 106.12294922 -17.14355469 105.10136719 -17.12695312 104.04882812 C-17.08505859 102.99373047 -17.04316406 101.93863281 -17 100.8515625 C-16.97744141 99.77712891 -16.95488281 98.70269531 -16.93164062 97.59570312 C-16.87285598 94.950394 -16.79073957 92.30794837 -16.6875 89.6640625 C-17.70118652 89.6954834 -17.70118652 89.6954834 -18.73535156 89.72753906 C-21.80258254 89.81077893 -24.86957582 89.86274716 -27.9375 89.9140625 C-29.00097656 89.94757813 -30.06445312 89.98109375 -31.16015625 90.015625 C-32.18496094 90.02851562 -33.20976562 90.04140625 -34.265625 90.0546875 C-35.67956543 90.0861084 -35.67956543 90.0861084 -37.12207031 90.11816406 C-40.51876179 89.51692252 -41.53281629 88.31923545 -43.6875 85.6640625 C-44.19543457 83.15318298 -44.19543457 83.15318298 -44.20507812 80.30053711 C-44.21768677 79.2294017 -44.23029541 78.1582663 -44.24328613 77.05467224 C-44.23518921 75.90354446 -44.22709229 74.75241669 -44.21875 73.56640625 C-44.2225769 72.38059464 -44.22640381 71.19478302 -44.23034668 69.97303772 C-44.23306789 67.46728669 -44.22569223 64.96150735 -44.20898438 62.45581055 C-44.18756084 58.61247734 -44.20879088 54.77100969 -44.234375 50.92773438 C-44.23173214 48.49478753 -44.22660802 46.06184184 -44.21875 43.62890625 C-44.22684692 42.47575424 -44.23494385 41.32260223 -44.24328613 40.13450623 C-44.23067749 39.06652298 -44.21806885 37.99853973 -44.20507812 36.89819336 C-44.20189575 35.95761581 -44.19871338 35.01703827 -44.19543457 34.04795837 C-43.6875 31.6640625 -43.6875 31.6640625 -41.81549072 29.85821533 C-39.12790404 28.35003712 -37.33646593 28.31991307 -34.265625 28.37109375 C-32.72841797 28.3855957 -32.72841797 28.3855957 -31.16015625 28.40039062 C-29.56494141 28.4380957 -29.56494141 28.4380957 -27.9375 28.4765625 C-26.31908203 28.49686523 -26.31908203 28.49686523 -24.66796875 28.51757812 C-22.0073058 28.55289666 -19.34765704 28.60222051 -16.6875 28.6640625 C-16.71368408 27.9935083 -16.73986816 27.3229541 -16.7668457 26.63208008 C-16.87107238 23.58048122 -16.93590623 20.52925708 -17 17.4765625 C-17.04189453 16.42146484 -17.08378906 15.36636719 -17.12695312 14.27929688 C-17.14306641 13.25771484 -17.15917969 12.23613281 -17.17578125 11.18359375 C-17.20196533 10.24620361 -17.22814941 9.30881348 -17.25512695 8.34301758 C-15.33041522 -0.74079395 -7.56585785 -0.06987142 0 0 Z " fill="#030404" transform="translate(395.6875,26.3359375)"/>
<path d="M0 0 C1.05398987 0.00604248 1.05398987 0.00604248 2.12927246 0.01220703 C4.73618957 0.03302299 7.34273234 0.08886856 9.94921875 0.140625 C15.78609375 0.223125 21.62296875 0.305625 27.63671875 0.390625 C27.63671875 15.240625 27.63671875 30.090625 27.63671875 45.390625 C24.33671875 47.040625 21.03671875 48.690625 17.63671875 50.390625 C12.58227033 54.54650482 8.70955879 60.17210488 6.63671875 66.390625 C5.85353631 75.62098949 5.85968408 83.72039343 11.63671875 91.390625 C18.17827827 98.46947893 25.19257768 102.19619652 34.82421875 102.703125 C43.00612082 102.56721301 50.0334349 99.03049629 55.875 93.4140625 C62.08546255 86.28098134 63.47746785 79.38392912 63.109375 70.01171875 C61.95478282 61.16620673 57.70651976 55.82414261 51.11328125 50.08203125 C48.04797688 47.87165987 48.04797688 47.87165987 41.63671875 45.390625 C41.63671875 30.870625 41.63671875 16.350625 41.63671875 1.390625 C57.09016005 1.390625 57.09016005 1.390625 63.63671875 4.390625 C64.72533203 4.88369141 64.72533203 4.88369141 65.8359375 5.38671875 C77.81114378 11.42656974 85.72362245 20.74763768 90.73046875 33.0859375 C93.55377283 42.26167575 94.71779607 53.94273898 92.63671875 63.390625 C90.46728439 66.60088626 88.42342041 68.29354935 85.25390625 70.484375 C79.70910087 74.52297951 76.14171608 81.76863675 74.63671875 88.390625 C74.31120699 92.54089993 74.28622258 93.86488075 76.63671875 97.390625 C78.12171875 97.885625 78.12171875 97.885625 79.63671875 98.390625 C79.63671875 101.360625 79.63671875 104.330625 79.63671875 107.390625 C77.65104167 108.33463542 75.66536458 109.27864583 73.6796875 110.22265625 C70.38673032 112.10524554 68.73914991 114.23697826 66.63671875 117.390625 C64.78203392 117.74415112 64.78203392 117.74415112 62.4859314 117.71342468 C61.6165242 117.70913452 60.747117 117.70484436 59.85136414 117.70042419 C58.89542862 117.68028763 57.9394931 117.66015106 56.95458984 117.6394043 C55.44722511 117.62543106 55.44722511 117.62543106 53.90940857 117.61117554 C50.57598785 117.57670266 47.24327954 117.5208255 43.91015625 117.46484375 C41.60374483 117.43682214 39.2973169 117.41013053 36.99087524 117.38471985 C30.91118753 117.31414795 24.83189252 117.22544768 18.75250244 117.13305664 C12.55258503 117.04201378 6.35246741 116.9679979 0.15234375 116.89257812 C-12.01978904 116.74198874 -24.19157495 116.57226025 -36.36328125 116.390625 C-36.71236719 104.76846448 -36.97810893 93.14756971 -37.14046383 81.52121544 C-37.2184314 76.12097122 -37.32397031 70.72433768 -37.49487305 65.32617188 C-37.65907937 60.10625 -37.74778334 54.88977594 -37.7864399 49.66746902 C-37.81394608 47.68565218 -37.86766739 45.70400348 -37.9492321 43.72367477 C-38.59236707 27.44646423 -38.59236707 27.44646423 -33.08670044 21.1038208 C-29.98003986 18.00821288 -26.65295165 15.28939717 -23.1210804 12.69508743 C-20.86541053 11.02115523 -18.80325911 9.16726254 -16.73828125 7.265625 C-15.62252708 6.29654274 -14.49731936 5.33824589 -13.36328125 4.390625 C-12.67548584 3.70919434 -11.98769043 3.02776367 -11.27905273 2.32568359 C-7.50402093 -0.17962513 -4.37244879 -0.1190292 0 0 Z " fill="#00C5CC" transform="translate(194.36328125,320.609375)"/>
<path d="M0 0 C0.05607422 1.08667969 0.05607422 1.08667969 0.11328125 2.1953125 C0.49022482 7.73860036 0.83609941 12.25414911 4 17 C7.18420845 19.12280563 8.20537255 19.28019537 11.88671875 19.4140625 C12.82451172 19.45273438 13.76230469 19.49140625 14.72851562 19.53125 C16.19321289 19.57765625 16.19321289 19.57765625 17.6875 19.625 C18.67556641 19.66367188 19.66363281 19.70234375 20.68164062 19.7421875 C23.12090707 19.83645867 25.56016595 19.92206218 28 20 C28.12834161 26.68517191 28.21498615 33.37001848 28.2746582 40.05615234 C28.29957263 42.32352569 28.33351698 44.59082069 28.37719727 46.85791016 C28.77805336 68.221182 26.49584179 85.1643589 11.1875 101.3125 C-1.1278006 113.01574499 -14.42525245 116.63876356 -31.04150391 116.47045898 C-38.01899278 116.24501022 -43.79606603 115.36046423 -50 112 C-50.99 111.50242187 -51.98 111.00484375 -53 110.4921875 C-66.18261725 103.40653073 -75.18961478 92.94165611 -80.10986328 78.81298828 C-83.68356253 66.59482165 -83.45835558 54.63892795 -83.25 42 C-83.22988508 39.8567877 -83.21164323 37.71355697 -83.1953125 35.5703125 C-83.15175714 30.3797434 -83.08301066 25.19008186 -83 20 C-82.31619263 19.99635437 -81.63238525 19.99270874 -80.92785645 19.98895264 C-73.78945329 19.94703522 -66.65168754 19.87762404 -59.51367188 19.79248047 C-56.85208389 19.76212477 -54.1910998 19.74307886 -51.52929688 19.72900391 C-47.69618357 19.70751785 -43.86406398 19.66083437 -40.03125 19.609375 C-38.25578796 19.60753204 -38.25578796 19.60753204 -36.44445801 19.60565186 C-27.47621404 19.4478363 -21.27284276 17.75713796 -14.82421875 11.328125 C-14.14166016 10.66425781 -13.45910156 10.00039062 -12.75585938 9.31640625 C-11.73202148 8.29353516 -11.73202148 8.29353516 -10.6875 7.25 C-9.302151 5.8735559 -7.9105067 4.50340983 -6.51171875 3.140625 C-5.60619263 2.23618652 -5.60619263 2.23618652 -4.68237305 1.31347656 C-3 0 -3 0 0 0 Z " fill="#FCC5A9" transform="translate(178,165)"/>
<path d="M0 0 C1.19749878 -0.00902847 2.39499756 -0.01805695 3.62878418 -0.02735901 C6.16037509 -0.04183706 8.69200321 -0.05074215 11.22363281 -0.05444336 C15.05339608 -0.06628151 18.88151653 -0.11544674 22.7109375 -0.16601562 C43.45975394 -0.3039769 59.04146592 2.3420006 74.78125 16.93359375 C90.29476526 33.26230965 91.0627667 51.37207117 90.78125 72.74609375 C90.76616715 74.75389615 90.75248516 76.76170958 90.74023438 78.76953125 C90.70753429 83.63699647 90.65595336 88.50391984 90.59375 93.37109375 C88.94375 92.71109375 87.29375 92.05109375 85.59375 91.37109375 C85.57957031 90.50226563 85.56539062 89.6334375 85.55078125 88.73828125 C85.46971192 81.17877054 85.46971192 81.17877054 82.21875 74.62109375 C78.86630844 71.74757241 76.41289321 71.25521457 72.14453125 71.0546875 C71.29697266 71.01279297 70.44941406 70.97089844 69.57617188 70.92773438 C68.69509766 70.88841797 67.81402344 70.84910156 66.90625 70.80859375 C66.01357422 70.76541016 65.12089844 70.72222656 64.20117188 70.67773438 C61.99884892 70.57174022 59.79641527 70.46967324 57.59375 70.37109375 C57.55830078 69.6649292 57.52285156 68.95876465 57.48632812 68.23120117 C57.09448752 61.40150002 55.73207179 57.22411356 50.53125 52.49609375 C45.75065741 50.6652285 41.61531821 50.23102643 36.59375 51.37109375 C30.3457369 55.16512851 25.1650529 60.51109532 20.2265625 65.86328125 C16.32050236 69.47031286 13.09167306 70.74507641 7.79711914 70.73999023 C6.65565933 70.74687363 5.51419952 70.75375702 4.33815002 70.760849 C3.11409958 70.7546907 1.89004913 70.74853241 0.62890625 70.7421875 C-1.97070446 70.75956766 -4.5703138 70.77715207 -7.16992188 70.79492188 C-11.2626159 70.80800941 -15.35528776 70.80859164 -19.44799805 70.80688477 C-23.40171506 70.8068237 -27.35498639 70.83778955 -31.30859375 70.8671875 C-32.53061996 70.85900497 -33.75264618 70.85082245 -35.01170349 70.84239197 C-43.50918871 70.91130807 -43.50918871 70.91130807 -50.40625 75.37109375 C-51.8870348 78.33266335 -51.75939037 81.2061567 -51.96875 84.49609375 C-52.05253906 85.77742188 -52.13632813 87.05875 -52.22265625 88.37890625 C-52.28324219 89.36632812 -52.34382813 90.35375 -52.40625 91.37109375 C-55.37625 92.36109375 -55.37625 92.36109375 -58.40625 93.37109375 C-58.50605454 87.20048597 -58.57815611 81.03036087 -58.62597656 74.85913086 C-58.64593776 72.76529746 -58.67311659 70.67151869 -58.70800781 68.57788086 C-59.03933287 48.16728293 -56.30652179 31.98745738 -41.68359375 16.5859375 C-29.80126039 5.02970591 -16.31357428 0.07662367 0 0 Z " fill="#017196" transform="translate(134.40625,100.62890625)"/>
<path d="M0 0 C2.34852113 0.54572572 4.70336491 1.06465495 7.0625 1.5625 C8.18785156 1.81128906 9.31320312 2.06007813 10.47265625 2.31640625 C31.46341977 6.38438368 56.58532368 6.09032336 76.7265625 -1.546875 C82.68100518 -2.73367113 88.6842872 -0.28189461 94.2421875 1.6953125 C95.00999542 1.96584442 95.77780334 2.23637634 96.56887817 2.5151062 C98.18540151 3.0881247 99.80061143 3.66486065 101.41455078 4.24511719 C103.85535687 5.11797541 106.30402533 5.96550599 108.75390625 6.8125 C119.03990278 10.44581625 129.00840417 14.09693328 134.5 24.25 C134.9640625 25.08015625 135.428125 25.9103125 135.90625 26.765625 C137.97709492 30.99606533 138.08803367 34.33421524 138 39 C136.96686519 39.00238835 135.93373037 39.00477671 134.86928844 39.00723743 C109.75745791 39.06597207 84.64572379 39.1418173 59.53399944 39.23571491 C47.39026951 39.2807245 35.24656924 39.32012718 23.1027832 39.34643555 C12.52109611 39.36937388 1.93950249 39.40272503 -8.64211053 39.44870156 C-14.24756436 39.47269008 -19.8529253 39.4913819 -25.45842934 39.49761391 C-30.73039041 39.50363937 -36.00211361 39.52354672 -41.27398682 39.55427551 C-43.21261637 39.56309663 -45.15127695 39.56676996 -47.08992577 39.56500816 C-49.7297285 39.56336609 -52.36879679 39.5799627 -55.00849915 39.60127258 C-55.78184123 39.59642501 -56.55518331 39.59157743 -57.35196 39.58658296 C-61.4079711 39.62078629 -61.4079711 39.62078629 -64.95650005 41.38820171 C-66.15185755 43.23456037 -66.6277406 44.84089548 -67 47 C-68.32 47 -69.64 47 -71 47 C-71 44.03 -71 41.06 -71 38 C-69.63875 37.8453125 -69.63875 37.8453125 -68.25 37.6875 C-64.88403681 36.37256621 -64.88403681 36.37256621 -64.02734375 33.76953125 C-63.75019531 32.85558594 -63.47304688 31.94164062 -63.1875 31 C-60.70947715 23.10972639 -55.59691362 17.26472339 -48.625 12.875 C-45.67212925 10.7658066 -45.62585702 10.25495845 -44.75 6.9375 C-43.86219956 4.06425494 -43.39629415 3.22586713 -40.73828125 1.7109375 C-38.04892793 0.80794296 -35.84057099 0.09423695 -33 0 C-31.66441273 0.99698768 -30.33120848 1.99717312 -29 3 C-24.10024367 3.60992817 -20.67615696 2.25912761 -16.1875 0.375 C-9.66494898 -2.03773047 -6.41238719 -2.17210522 0 0 Z " fill="#EA596D" transform="translate(345,381)"/>
<path d="M0 0 C159.72 0 319.44 0 484 0 C484 73.26 484 146.52 484 222 C465.85 222 447.7 222 429 222 C429 221.67 429 221.34 429 221 C439.56 221 450.12 221 461 221 C461 148.4 461 75.8 461 1 C309.2 1 157.4 1 1 1 C1 73.93 1 146.86 1 222 C0.67 222 0.34 222 0 222 C0 148.74 0 75.48 0 0 Z " fill="#5D9CD0" transform="translate(14,14)"/>
<path d="M0 0 C11.22 0 22.44 0 34 0 C34.3125 11.8125 34.3125 11.8125 34.38793945 15.52661133 C34.42105225 16.4936499 34.45416504 17.46068848 34.48828125 18.45703125 C34.51446533 19.44678955 34.54064941 20.43654785 34.56762695 21.45629883 C34.82363348 23.99860903 34.82363348 23.99860903 36.19921875 25.81445312 C38.63858182 27.42041124 40.4145727 27.43134179 43.32421875 27.51171875 C44.71386841 27.56138794 44.71386841 27.56138794 46.1315918 27.61206055 C47.89176636 27.64940308 47.89176636 27.64940308 49.6875 27.6875 C53.420625 27.790625 57.15375 27.89375 61 28 C61 38.89 61 49.78 61 61 C49.6875 61.3125 49.6875 61.3125 46.1315918 61.38793945 C45.20515869 61.42105225 44.27872559 61.45416504 43.32421875 61.48828125 C42.37635498 61.51446533 41.42849121 61.54064941 40.4519043 61.56762695 C37.99271522 61.83422559 37.99271522 61.83422559 36.19921875 63.18554688 C34.54577497 65.68725578 34.5672812 67.55677079 34.48828125 70.54296875 C34.43861206 71.99352661 34.43861206 71.99352661 34.38793945 73.47338867 C34.35059692 75.31187378 34.35059692 75.31187378 34.3125 77.1875 C34.209375 81.085625 34.10625 84.98375 34 89 C22.78 89 11.56 89 0 89 C-0.495 76.13 -0.495 76.13 -1 63 C-3.98367726 62.00544091 -6.2004192 61.80440368 -9.32421875 61.68359375 C-10.25065186 61.64548584 -11.17708496 61.60737793 -12.1315918 61.56811523 C-13.3050415 61.52501221 -14.47849121 61.48190918 -15.6875 61.4375 C-19.420625 61.293125 -23.15375 61.14875 -27 61 C-27 50.11 -27 39.22 -27 28 C-16.25 27.5625 -16.25 27.5625 -12.87988281 27.43188477 C-11.99655273 27.39377686 -11.11322266 27.35566895 -10.203125 27.31640625 C-8.85202637 27.26141968 -8.85202637 27.26141968 -7.47363281 27.20532227 C-4.71650899 27.04349075 -4.71650899 27.04349075 -1 26 C-0.67 17.42 -0.34 8.84 0 0 Z " fill="#E7F3FC" transform="translate(393,41)"/>
<path d="M0 0 C1.51279096 -0.00935994 1.51279096 -0.00935994 3.05614334 -0.01890898 C6.44571005 -0.03490195 9.83456392 -0.02220964 13.22413635 -0.00964355 C15.65008464 -0.01506188 18.07602965 -0.02218291 20.50196838 -0.03088379 C26.41341679 -0.0472563 32.32467913 -0.04482311 38.23612242 -0.03323323 C43.04054005 -0.02420342 47.84490074 -0.02297293 52.64932442 -0.02732849 C53.33285307 -0.02794142 54.01638172 -0.02855436 54.72062336 -0.02918586 C56.10916759 -0.03046475 57.4977118 -0.03176161 58.88625599 -0.03307623 C71.91089367 -0.04448607 84.93541879 -0.03136247 97.96003801 -0.00987476 C109.13618058 0.00799262 120.31215695 0.00489594 131.48829651 -0.0135498 C144.46444262 -0.03495633 157.44049001 -0.04338318 170.41665131 -0.03110075 C171.80042237 -0.02982655 173.18419346 -0.02856906 174.56796455 -0.02732849 C175.24881628 -0.02671139 175.929668 -0.02609429 176.6311516 -0.02545848 C181.42938189 -0.02200462 186.22754959 -0.02783478 191.02577019 -0.0372467 C197.48461314 -0.04963739 203.94321593 -0.04081414 210.40203094 -0.01766968 C212.77522573 -0.01237213 215.14844688 -0.01391412 217.52163124 -0.02272034 C220.75615396 -0.03361776 223.9896633 -0.01998134 227.22412109 0 C228.16789264 -0.00892289 229.11166418 -0.01784577 230.08403486 -0.02703905 C234.27965915 0.02338745 236.59489355 0.16101387 240.26236057 2.35218048 C242.17555237 4.50793457 242.17555237 4.50793457 242.73805237 7.50793457 C242.02277169 11.32276486 241.33647536 12.24988823 238.17555237 14.50793457 C234.8907098 15.11204238 231.63830418 15.04714504 228.30641174 15.01586914 C227.29309532 15.0221091 226.2797789 15.02834907 225.23575592 15.03477812 C221.83003682 15.05077138 218.42502716 15.0380787 215.01930237 15.0255127 C212.58187949 15.03093098 210.14445988 15.03805197 207.70704651 15.04675293 C201.76785993 15.06312515 195.82885854 15.06069259 189.88967705 15.04910237 C185.06332108 15.04007327 180.23702178 15.03884176 175.41065979 15.04319763 C174.72406705 15.04381056 174.03747432 15.0444235 173.33007574 15.045055 C171.93532878 15.04633389 170.54058185 15.04763074 169.14583492 15.04894537 C156.06352368 15.06035489 142.9813245 15.04723168 129.89903164 15.0257439 C118.67083658 15.00787254 107.44280694 15.01097655 96.21461487 15.02941895 C83.17951483 15.05081914 70.14451304 15.05925622 57.10939789 15.04696989 C55.71974692 15.04569568 54.33009594 15.0444382 52.94044495 15.04319763 C52.2566884 15.04258053 51.57293185 15.04196343 50.86845541 15.04132763 C46.04721311 15.03787216 41.22603307 15.04370728 36.40480042 15.05311584 C29.91723376 15.06549779 23.42990635 15.05669771 16.94236755 15.03353882 C14.55746481 15.02823729 12.17253583 15.02979001 9.78764343 15.03858948 C6.5396341 15.04947114 3.29263728 15.03586985 0.04469299 15.01586914 C-1.38117001 15.02925347 -1.38117001 15.02925347 -2.83583832 15.04290819 C-9.18116772 14.96677566 -9.18116772 14.96677566 -12.41001892 12.66368866 C-14.35251691 9.70309549 -14.40322908 7.98062325 -13.82444763 4.50793457 C-10.3549302 -0.76959165 -5.72232983 -0.05397419 0 0 Z " fill="#020304" transform="translate(68.82444763183594,62.4920654296875)"/>
<path d="M0 0 C1.50794726 -0.00935994 1.50794726 -0.00935994 3.04635811 -0.01890898 C6.4190012 -0.03487907 9.79092561 -0.02221857 13.16357422 -0.00964355 C15.57981793 -0.01506286 17.99605835 -0.02218444 20.41229248 -0.03088379 C26.29619854 -0.04724575 32.17991757 -0.04482885 38.06381845 -0.03323323 C42.84580568 -0.02419936 47.6277357 -0.02297468 52.409729 -0.02732849 C53.43065571 -0.02824789 53.43065571 -0.02824789 54.47220719 -0.02918586 C55.85487288 -0.03046476 57.23753855 -0.03176162 58.62020421 -0.03307623 C71.58523491 -0.04448219 84.55015247 -0.03136811 97.51516461 -0.00987476 C108.63956093 0.00799628 119.76379029 0.00489217 130.88818359 -0.0135498 C143.80683834 -0.03495627 156.72539394 -0.04338355 169.64406395 -0.03110075 C171.02164076 -0.02982655 172.39921759 -0.02856907 173.77679443 -0.02732849 C174.45458706 -0.02671139 175.13237969 -0.02609429 175.83071148 -0.02545848 C180.60691211 -0.0220049 185.38304984 -0.02783408 190.15924072 -0.0372467 C196.58772865 -0.04963709 203.01597527 -0.04081454 209.44443512 -0.01766968 C211.80634282 -0.01237224 214.16827703 -0.01391394 216.53017426 -0.02272034 C219.74931845 -0.03361806 222.96744448 -0.01998107 226.18652344 0 C227.59532115 -0.01338433 227.59532115 -0.01338433 229.03257942 -0.02703905 C233.21805792 0.02350429 235.51891926 0.16447685 239.17727661 2.35218048 C241.09326172 4.50793457 241.09326172 4.50793457 241.65576172 7.50793457 C240.94048104 11.32276486 240.25418471 12.24988823 237.09326172 14.50793457 C233.80841915 15.11204238 230.55601353 15.04714504 227.22412109 15.01586914 C226.21080467 15.0221091 225.19748825 15.02834907 224.15346527 15.03477812 C220.74774617 15.05077138 217.34273651 15.0380787 213.93701172 15.0255127 C211.49958884 15.03093098 209.06216923 15.03805197 206.62475586 15.04675293 C200.68556928 15.06312515 194.74656789 15.06069259 188.8073864 15.04910237 C183.98103043 15.04007327 179.15473113 15.03884176 174.32836914 15.04319763 C173.6417764 15.04381056 172.95518367 15.0444235 172.24778509 15.045055 C170.85303814 15.04633389 169.4582912 15.04763074 168.06354427 15.04894537 C154.98123303 15.06035489 141.89903385 15.04723168 128.81674099 15.0257439 C117.58854594 15.00787254 106.36051629 15.01097655 95.13232422 15.02941895 C82.09722418 15.05081914 69.06222239 15.05925622 56.02710724 15.04696989 C54.63745627 15.04569568 53.24780529 15.0444382 51.8581543 15.04319763 C51.17439775 15.04258053 50.4906412 15.04196343 49.78616476 15.04132763 C44.96492246 15.03787216 40.14374242 15.04370728 35.32250977 15.05311584 C28.83494311 15.06549779 22.3476157 15.05669771 15.8600769 15.03353882 C13.47517416 15.02823729 11.09024518 15.02979001 8.70535278 15.03858948 C5.45734345 15.04947114 2.21034663 15.03586985 -1.03759766 15.01586914 C-2.46346066 15.02925347 -2.46346066 15.02925347 -3.91812897 15.04290819 C-10.26444683 14.9667638 -10.26444683 14.9667638 -13.48840332 12.66368866 C-15.45208532 9.6790513 -15.56286506 8.00727741 -14.90673828 4.50793457 C-10.53916043 -0.40620791 -6.12916129 -0.0582303 0 0 Z " fill="#030406" transform="translate(69.90673828125,32.4920654296875)"/>
<path d="M0 0 C0.74378906 0.2165625 1.48757812 0.433125 2.25390625 0.65625 C10.21766045 2.68714836 17.67707368 3.30201756 25.875 3.3125 C26.84896729 3.31765625 27.82293457 3.3228125 28.82641602 3.328125 C34.57781423 3.27300764 39.47322001 2.5665077 45 1 C46.99601306 0.6435691 48.994845 0.30077325 51 0 C53.04546083 17.22544294 53.04546083 17.22544294 49.90136719 23.02734375 C47.02695941 26.5411728 43.4995121 29.16394339 39.78369141 31.734375 C38.02829935 32.97992009 36.4150674 34.30531568 34.79296875 35.71875 C27.55208333 42 27.55208333 42 24 42 C22.00407871 40.36482301 20.16483911 38.72269181 18.3125 36.9375 C17.23628816 35.92513124 16.15946407 34.91341296 15.08203125 33.90234375 C14.55689941 33.40589355 14.03176758 32.90944336 13.49072266 32.39794922 C11.52870869 30.55803898 9.52345217 28.77194964 7.5 27 C6.9121875 26.484375 6.324375 25.96875 5.71875 25.4375 C4.00500727 23.9343381 4.00500727 23.9343381 1.91699219 22.71557617 C0 21 0 21 -0.45410156 18.73168945 C-0.4331543 17.86761475 -0.41220703 17.00354004 -0.390625 16.11328125 C-0.37773438 15.17548828 -0.36484375 14.23769531 -0.3515625 13.27148438 C-0.31804687 12.29501953 -0.28453125 11.31855469 -0.25 10.3125 C-0.23195313 9.32443359 -0.21390625 8.33636719 -0.1953125 7.31835938 C-0.14815447 4.87793158 -0.08236042 2.43945231 0 0 Z " fill="#FBA779" transform="translate(125,291)"/>
<path d="M0 0 C2.22855574 -0.0814222 4.45797655 -0.13938079 6.6875 -0.1875 C7.92886719 -0.22230469 9.17023438 -0.25710938 10.44921875 -0.29296875 C14.2622149 0.02163489 16.03724525 0.6244579 19 3 C28.09822938 21.19645875 21 43.65574064 21 64 C-55.23 64 -131.46 64 -210 64 C-210 63.67 -210 63.34 -210 63 C-139.38 63 -68.76 63 4 63 C5.95663357 30.6509904 5.95663357 30.6509904 0 0 Z " fill="#5B98CA" transform="translate(477,434)"/>
<path d="M0 0 C14.65005484 3.84684153 25.99375597 11.43528744 33.84375 24.46484375 C38.32400004 32.75444345 40.46412452 40.14332911 40.59375 49.5703125 C40.61921338 51.0058742 40.64553151 52.44142093 40.67260742 53.87695312 C40.69247208 54.99469116 40.69247208 54.99469116 40.71273804 56.13500977 C41.12220837 77.05154159 42.47506438 97.60708841 52.06640625 116.65625 C53.3828125 119.3125 53.3828125 119.3125 53.4453125 122 C51.92774595 125.30293896 49.59444535 125.82856312 46.3828125 127.3125 C39.07069389 111.8372086 34.35059106 97.37910103 34.171875 80.11328125 C34.1437929 78.55793243 34.11512836 77.00259403 34.0859375 75.44726562 C34.04493583 73.04305479 34.00796732 70.63903568 33.98144531 68.23461914 C33.75055813 48.8858755 30.4177504 31.71166639 16.3828125 17.3125 C5.57594863 7.9673548 -5.69959258 3.81157179 -19.6171875 1.3125 C-13.90295938 -2.49698541 -6.52087826 -1.23938939 0 0 Z " fill="#763C1F" transform="translate(391.6171875,205.6875)"/>
<path d="M0 0 C0.70456329 -0.00700928 1.40912659 -0.01401855 2.13504028 -0.02124023 C4.45965212 -0.03881776 6.78304221 -0.02719832 9.10766602 -0.01367188 C10.72665134 -0.01636719 12.34563508 -0.02024995 13.96461487 -0.02526855 C17.35661237 -0.03116348 20.74818827 -0.02260234 24.14013672 -0.00390625 C28.4826365 0.01886554 32.82414643 0.00577215 37.16660976 -0.01819611 C40.50986652 -0.03267006 43.85288974 -0.02804056 47.19615364 -0.01768494 C48.79689718 -0.0150211 50.39766208 -0.01827537 51.99838066 -0.02760315 C54.23907239 -0.03779364 56.47817617 -0.02223482 58.71875 0 C59.99241928 0.00318237 61.26608856 0.00636475 62.57835388 0.00964355 C66.50667328 0.60602645 68.1818552 1.68285732 70.92407227 4.51757812 C71.48657227 7.51757812 71.48657227 7.51757812 70.92407227 10.51757812 C68.66336726 13.5892071 67.47078554 14.43248521 63.66064453 15.0255127 C61.72016235 15.03028625 61.72016235 15.03028625 59.74047852 15.03515625 C59.02455536 15.04216553 58.3086322 15.0491748 57.5710144 15.05639648 C55.20913683 15.0739736 52.8484616 15.06235588 50.48657227 15.04882812 C48.8427711 15.05152315 47.19897149 15.05540566 45.55517578 15.0604248 C42.11190599 15.06631943 38.66905155 15.05775841 35.22583008 15.0390625 C30.81373534 15.01627254 26.40261385 15.02939588 21.99055481 15.05335236 C18.59672726 15.06781156 15.20313018 15.06320388 11.80929565 15.05284119 C10.18260584 15.05017422 8.55589505 15.05344265 6.92922974 15.0627594 C4.65481198 15.07292755 2.38196672 15.05742289 0.10766602 15.03515625 C-1.18598877 15.03197388 -2.47964355 15.0287915 -3.8125 15.0255127 C-7.62155921 14.43265359 -8.81901469 13.59162532 -11.07592773 10.51757812 C-11.57592773 7.51757812 -11.57592773 7.51757812 -11.07592773 4.51757812 C-7.8664995 0.16466184 -5.24905503 0.01312342 0 0 Z " fill="#020304" transform="translate(240.075927734375,92.482421875)"/>
<path d="M0 0 C1.794375 0.144375 3.58875 0.28875 5.4375 0.4375 C6.95150391 0.55931641 6.95150391 0.55931641 8.49609375 0.68359375 C10.31155854 0.84753204 12.12743559 1.0165766 13.93505859 1.25170898 C20.87079155 2.14248567 27.76420807 2.18375226 34.75 2.1875 C36.52890625 2.20586914 36.52890625 2.20586914 38.34375 2.22460938 C45.41749361 2.23619302 52.10947328 1.70078879 59.07128906 0.4309082 C62.08944598 -0.0131604 64.95392471 -0.07164904 68 0 C69.42258812 3.82320557 70.24042276 6.91281305 70 11 C58.64906856 15.89648023 46.78241517 16.32804097 34.5625 16.25 C33.35529297 16.25773437 32.14808594 16.26546875 30.90429688 16.2734375 C19.63240211 16.24931359 8.41822745 15.58402008 -2 11 C-1.34 7.37 -0.68 3.74 0 0 Z " fill="#FBC4A8" transform="translate(348,356)"/>
<path d="M0 0 C12.04542982 1.45897377 21.50973297 9.94734599 29 19 C40.39037516 34.48869491 40.43100336 50.88712214 40.1875 69.375 C40.17241715 71.3828024 40.15873516 73.39061583 40.14648438 75.3984375 C40.11378429 80.26590272 40.06220336 85.13282609 40 90 C38.35 89.34 36.7 88.68 35 88 C34.98582031 87.13117188 34.97164062 86.26234375 34.95703125 85.3671875 C34.88831239 77.82956998 34.88831239 77.82956998 31.625 71.3125 C29.03422082 68.92619039 29.03422082 68.92619039 26 67 C25.70703125 64.76025391 25.70703125 64.76025391 25.8125 61.9765625 C25.85093018 60.45337402 25.85093018 60.45337402 25.89013672 58.89941406 C25.94451904 57.2785791 25.94451904 57.2785791 26 55.625 C26.28366997 37.24858913 21.75174333 22.71674013 9 9 C6.61634872 6.75721769 4.19394876 4.60032523 1.6875 2.49609375 C1.130625 2.00238281 0.57375 1.50867188 0 1 C0 0.67 0 0.34 0 0 Z " fill="#015E7E" transform="translate(185,104)"/>
<path d="M0 0 C1.69195496 -0.01891296 1.69195496 -0.01891296 3.41809082 -0.03820801 C5.23850891 -0.02606262 5.23850891 -0.02606262 7.09570312 -0.01367188 C8.3457312 -0.01749878 9.59575928 -0.02132568 10.88366699 -0.02526855 C13.52701218 -0.02799102 16.16887798 -0.02262141 18.81201172 -0.00390625 C22.19512803 0.01888458 25.57697509 0.00575829 28.96004486 -0.01819611 C32.19280946 -0.03614871 35.42542195 -0.02356889 38.65820312 -0.01367188 C39.87181519 -0.0217688 41.08542725 -0.02986572 42.33581543 -0.03820801 C43.4637854 -0.02559937 44.59175537 -0.01299072 45.75390625 0 C47.24138367 0.00477356 47.24138367 0.00477356 48.75891113 0.00964355 C52.11005673 0.65980986 53.3016394 1.85500536 55.37695312 4.51757812 C55.87695312 7.51757812 55.87695312 7.51757812 55.37695312 10.51757812 C53.3016394 13.18015089 52.11005673 14.37534639 48.75891113 15.0255127 C47.27143372 15.03028625 47.27143372 15.03028625 45.75390625 15.03515625 C44.62593628 15.04776489 43.49796631 15.06037354 42.33581543 15.07336426 C40.51539734 15.06121887 40.51539734 15.06121887 38.65820312 15.04882812 C37.40817505 15.05265503 36.15814697 15.05648193 34.87023926 15.0604248 C32.22689407 15.06314727 29.58502827 15.05777766 26.94189453 15.0390625 C23.55877822 15.01627167 20.17693116 15.02939796 16.79386139 15.05335236 C13.56109679 15.07130496 10.3284843 15.05872514 7.09570312 15.04882812 C5.88209106 15.05692505 4.668479 15.06502197 3.41809082 15.07336426 C2.29012085 15.06075562 1.16215088 15.04814697 0 15.03515625 C-0.99165161 15.03197388 -1.98330322 15.0287915 -3.00500488 15.0255127 C-6.35615048 14.37534639 -7.54773315 13.18015089 -9.62304688 10.51757812 C-10.12304688 7.51757812 -10.12304688 7.51757812 -9.62304688 4.51757812 C-6.67802991 0.73919905 -4.72758316 0.01517159 0 0 Z " fill="#020203" transform="translate(255.623046875,122.482421875)"/>
<path d="M0 0 C1.57194374 -0.01902626 1.57194374 -0.01902626 3.17564392 -0.03843689 C4.30692215 -0.03550125 5.43820038 -0.03256561 6.60375977 -0.02954102 C8.34774803 -0.03740379 8.34774803 -0.03740379 10.12696838 -0.04542542 C12.58740439 -0.05185303 15.04787109 -0.05049912 17.50830078 -0.04199219 C21.27700456 -0.03348825 25.04419044 -0.06222629 28.81274414 -0.09399414 C31.20141556 -0.09560631 33.59008967 -0.09502831 35.97875977 -0.09204102 C37.10801376 -0.10327499 38.23726776 -0.11450897 39.40074158 -0.12608337 C40.45185623 -0.11670242 41.50297089 -0.10732147 42.5859375 -0.09765625 C43.50954575 -0.09749008 44.43315399 -0.09732391 45.38475037 -0.09715271 C48.63210226 0.56101387 49.82918398 1.83396071 51.85766602 4.40405273 C52.35766602 7.40405273 52.35766602 7.40405273 51.85766602 10.40405273 C49.83222365 12.96643916 48.62627987 14.24365219 45.39147949 14.91871643 C44.47088745 14.92491501 43.55029541 14.93111359 42.60180664 14.9375 C41.55391968 14.95333633 40.50603271 14.96917267 39.4263916 14.98548889 C38.30027466 14.98052902 37.17415771 14.97556915 36.01391602 14.97045898 C34.85267212 14.97665756 33.69142822 14.98285614 32.49499512 14.98924255 C30.04053588 14.99634453 27.5860285 14.99316023 25.1315918 14.98046875 C21.37141518 14.96660343 17.61372613 15.00067235 13.85375977 15.03881836 C11.46964457 15.03976952 9.08552626 15.03791089 6.70141602 15.03295898 C5.57529907 15.04621719 4.44918213 15.0594754 3.28894043 15.07313538 C-4.46764002 14.98036384 -4.46764002 14.98036384 -7.88647461 12.06005859 C-9.50085887 8.64581164 -9.30422477 6.96718447 -8.14233398 3.40405273 C-5.75049103 0.20557748 -3.89637017 0.02281289 0 0 Z " fill="#010102" transform="translate(259.142333984375,182.595947265625)"/>
<path d="M0 0 C1.51176819 -0.00934319 1.51176819 -0.00934319 3.05407715 -0.01887512 C4.13644653 -0.00966537 5.21881592 -0.00045563 6.33398438 0.0090332 C7.45083618 0.0085347 8.56768799 0.00803619 9.71838379 0.00752258 C12.07871277 0.00986213 14.43904428 0.01958359 16.79931641 0.03613281 C20.41396372 0.05972458 24.02787339 0.0566926 27.64257812 0.05004883 C29.93555128 0.05562567 32.22852132 0.06273559 34.52148438 0.0715332 C35.60385376 0.0706218 36.68622314 0.06971039 37.8013916 0.06877136 C39.31315979 0.08306938 39.31315979 0.08306938 40.85546875 0.09765625 C41.74053101 0.10226364 42.62559326 0.10687103 43.53747559 0.11161804 C46.121908 0.39349223 47.73999416 0.98378639 49.92773438 2.37231445 C51.34815258 5.21315087 51.2422571 7.22708723 50.92773438 10.37231445 C48.91241494 12.94887336 47.69981651 14.21119013 44.46154785 14.88697815 C43.54095581 14.89317673 42.62036377 14.89937531 41.671875 14.90576172 C40.62398804 14.92159805 39.57610107 14.93743439 38.49645996 14.95375061 C37.37034302 14.94879074 36.24422607 14.94383087 35.08398438 14.9387207 C33.92274048 14.94491928 32.76149658 14.95111786 31.56506348 14.95750427 C29.11060424 14.96460625 26.65609686 14.96142195 24.20166016 14.94873047 C20.44148354 14.93486515 16.68379449 14.96893407 12.92382812 15.00708008 C10.53971293 15.00803124 8.15559462 15.00617261 5.77148438 15.0012207 C4.64536743 15.01447891 3.51925049 15.02773712 2.35900879 15.04139709 C-5.3985457 14.9486139 -5.3985457 14.9486139 -8.8125 12.02832031 C-10.44151987 8.59380342 -10.314514 6.94377854 -9.07226562 3.37231445 C-6.09879518 0.55056919 -4.04887687 -0.00287942 0 0 Z " fill="#010202" transform="translate(260.072265625,152.627685546875)"/>
<path d="M0 0 C3.87987121 2.16971439 5.96960968 4.22849679 7.8125 8.375 C8.70015569 13.96908015 8.41109325 19.11323341 5.20703125 23.90234375 C1.62156291 27.68867866 -2.6411689 29.1264825 -7.6875 29.9375 C-13.52964626 28.99858364 -17.65651403 26.4322624 -21.1875 21.6875 C-22.96350795 15.80447367 -23.2334606 10.6342749 -20.625 5 C-14.68494044 -1.39698722 -8.36575524 -3.68712916 0 0 Z " fill="#E5F1F9" transform="translate(236.1875,380.625)"/>
<path d="M0 0 C7.40469897 1.47005053 14.38767472 3.67050345 21.5 6.1875 C23.11455078 6.72987305 23.11455078 6.72987305 24.76171875 7.28320312 C33.69575882 10.44439513 41.8304785 14.61681491 46.5 23.25 C46.9640625 24.08015625 47.428125 24.9103125 47.90625 25.765625 C50.16727546 30.384577 50 32.36020705 50 38 C45.05 38 40.1 38 35 38 C34.62875 36.22625 34.2575 34.4525 33.875 32.625 C31.21826544 22.1702575 25.97610449 14.12503179 17 8 C13.08977917 6.04488959 9.10940059 4.48076167 5 3 C3.33114117 2.33884008 1.66371926 1.67398846 0 1 C0 0.67 0 0.34 0 0 Z " fill="#D32E44" transform="translate(433,382)"/>
<path d="M0 0 C0.66 0 1.32 0 2 0 C2 8.58 2 17.16 2 26 C1.34 26 0.68 26 0 26 C-3.49156729 22.21217851 -5.37032401 18.14127146 -5.625 13 C-5.37032401 7.85872854 -3.49156729 3.78782149 0 0 Z " fill="#E2976D" transform="translate(80,208)"/>
<path d="M0 0 C6.15151515 6.15151515 6.15151515 6.15151515 6.3125 11.625 C6.28883405 17.0523904 4.74243389 20.37214281 2 25 C1.34 25 0.68 25 0 25 C0 16.75 0 8.5 0 0 Z " fill="#F7A577" transform="translate(220,208)"/>
<path d="M0 0 C1.98 0 3.96 0 6 0 C7.42258812 3.82320557 8.24042276 6.91281305 8 11 C6.02 11.66 4.04 12.32 2 13 C1.34 8.71 0.68 4.42 0 0 Z " fill="#F3A376" transform="translate(410,356)"/>
</svg>
