<?xml version="1.0" encoding="UTF-8"?>
<svg version="1.1" xmlns="http://www.w3.org/2000/svg" width="512" height="512">
<path d="M0 0 C0.78095032 -0.00705963 1.56190063 -0.01411926 2.36651611 -0.02139282 C34.93937573 -0.24908173 34.93937573 -0.24908173 48.57421875 3.203125 C49.41645996 3.41243652 50.25870117 3.62174805 51.12646484 3.83740234 C83.02338632 11.9596496 110.37868713 26.96638527 134.57421875 49.203125 C135.41597656 49.97269531 136.25773437 50.74226563 137.125 51.53515625 C168.73969512 81.80215566 187.45200817 126.77887062 188.859375 170.20703125 C189.79807333 220.66624205 173.09761658 265.25094541 138.57421875 302.203125 C137.81496094 303.01652344 137.05570312 303.82992188 136.2734375 304.66796875 C118.76367971 322.80819245 96.81339806 335.6911717 73.51171875 344.953125 C72.84092285 345.22278076 72.17012695 345.49243652 71.47900391 345.77026367 C64.35211618 348.50456855 56.95817875 350.3098954 49.57421875 352.203125 C50.31400467 352.20677063 51.05379059 352.21041626 51.81599426 352.21417236 C58.83243871 352.25224471 65.8484224 352.30931234 72.86452198 352.38702774 C76.47048921 352.4263186 80.07621898 352.45859594 83.68237305 352.47412109 C87.17105327 352.48941066 90.65907982 352.52406819 94.14746666 352.57143402 C96.10739009 352.59320721 98.06749865 352.59558811 100.02754211 352.59747314 C113.16496836 352.80973518 123.03031735 356.44721701 132.2421875 365.91796875 C135.57421875 369.73533789 135.57421875 369.73533789 135.57421875 372.203125 C142.02597742 366.95298327 147.56831231 360.98916934 153.11669922 354.81787109 C155.51919126 352.15621576 157.95279543 349.52351541 160.38671875 346.890625 C160.87938232 346.35687256 161.3720459 345.82312012 161.87963867 345.27319336 C166.37496275 340.40740326 170.89793253 335.56758353 175.42407227 330.73046875 C178.6258515 327.30483536 181.80670848 323.86234338 184.95898438 320.39111328 C187.15046706 317.98252018 189.36202916 315.59269136 191.57421875 313.203125 C192.41597656 312.28273438 193.25773437 311.36234375 194.125 310.4140625 C201.81990876 302.30030179 209.70443513 297.22400279 221.05615234 296.91015625 C232.73059776 296.80056277 241.26305254 299.18379259 250.34375 306.921875 C258.5827243 315.34842664 261.05817256 324.82701618 260.99926758 336.24072266 C260.64880391 349.13101092 254.69860723 356.98562109 245.93359375 365.81542969 C243.99138389 367.79810225 242.16094739 369.87289066 240.32421875 371.953125 C235.72605454 377.07773377 231.01208495 382.09035041 226.29614258 387.10620117 C222.34735254 391.30730376 218.41641162 395.52351394 214.51171875 399.765625 C210.21834862 404.42950002 205.90308512 409.0721761 201.57421875 413.703125 C197.22543761 418.35570965 192.88908739 423.01906973 188.57421875 427.703125 C184.25934966 432.38718075 179.92293806 437.05048209 175.57421875 441.703125 C169.21247785 448.51044885 162.8865394 455.34998973 156.57421875 462.203125 C155.60031601 463.26046787 154.62635753 464.31775941 153.65234375 465.375 C153.16644775 465.90254883 152.68055176 466.43009766 152.17993164 466.97363281 C151.19378699 468.04221362 150.205995 469.10927655 149.21655273 470.17480469 C146.47721886 473.12601828 143.76952842 476.10032509 141.09375 479.109375 C131.55113736 489.74588735 121.68758262 499.40040765 106.65507889 500.48620415 C101.68231625 500.64029169 96.70944234 500.62056293 91.73486328 500.60717773 C89.82036949 500.61288581 87.90587911 500.61985176 85.99139404 500.62797546 C80.80948615 500.64587436 75.62774791 500.64474453 70.44581842 500.63903308 C66.11197889 500.63593626 61.7781717 500.64203922 57.44433677 500.64807183 C47.2159561 500.66210494 36.98765897 500.66056607 26.75927734 500.64916992 C16.22496188 500.63769191 5.6909011 500.65176191 -4.84338081 500.6785664 C-13.90439926 500.70075464 -22.96533794 500.70735367 -32.02638161 500.70148998 C-37.4307955 500.69812645 -42.83504619 500.70049527 -48.2394371 500.71774101 C-53.32360634 500.73325768 -58.40739962 500.72920224 -63.49155426 500.71043587 C-65.35105698 500.70676294 -67.21058785 500.70982039 -69.07006454 500.72032166 C-84.72925676 500.80196346 -94.8959559 497.91510976 -107.64453125 488.578125 C-118.814899 480.53546022 -131.05109807 474.17953449 -143.42578125 468.203125 C-143.34328125 469.1725 -143.26078125 470.141875 -143.17578125 471.140625 C-143.22223184 478.82045661 -147.49602586 485.03089324 -152.56640625 490.48046875 C-158.75041287 496.209769 -166.07515581 498.44593608 -174.39331055 498.4777832 C-175.39689102 498.4854496 -175.39689102 498.4854496 -176.42074585 498.49327087 C-178.61392357 498.50707839 -180.80678422 498.50621787 -183 498.50390625 C-184.53123592 498.50779605 -186.06247076 498.5121313 -187.59370422 498.51689148 C-190.79370636 498.52433312 -193.9935981 498.52407592 -197.19360352 498.51879883 C-201.29618052 498.51298521 -205.39830883 498.52999024 -209.50081158 498.5531435 C-212.65864201 498.5678592 -215.81636354 498.5687559 -218.97422218 498.56563377 C-220.48731187 498.56614737 -222.0004076 498.57139229 -223.51346397 498.58144569 C-225.62475451 498.59376104 -227.73515957 498.58705078 -229.84643555 498.57543945 C-231.64796333 498.57638359 -231.64796333 498.57638359 -233.48588562 498.5773468 C-236.42578125 498.203125 -236.42578125 498.203125 -238.27449036 496.86735535 C-240.86485478 493.12289502 -240.55623232 489.48280687 -240.56622314 485.08047485 C-240.57067983 483.98548788 -240.57067983 483.98548788 -240.57522655 482.86837995 C-240.58391698 480.41565973 -240.58542207 477.96298831 -240.58691406 475.51025391 C-240.59154195 473.75439855 -240.59656657 471.99854421 -240.60195923 470.24269104 C-240.61508703 465.46789224 -240.62152879 460.6931075 -240.62596989 455.91829348 C-240.62889966 452.93639594 -240.63300426 449.95450226 -240.63747406 446.97260666 C-240.65114924 437.64634711 -240.66081612 428.32009635 -240.66467595 418.99382746 C-240.6691586 408.22143571 -240.686716 397.44917073 -240.71567655 386.67681754 C-240.73727651 378.35402751 -240.74737931 370.0312732 -240.74871707 361.70845544 C-240.7497662 356.73563732 -240.755697 351.76293835 -240.77353668 346.79014969 C-240.7899885 342.11325017 -240.79218696 337.43655975 -240.78339767 332.75964165 C-240.78262578 331.04274753 -240.78699004 329.32584231 -240.79685593 327.60897636 C-240.80953251 325.26564808 -240.80372247 322.92306525 -240.79327393 320.57974243 C-240.79474049 319.2682403 -240.79620705 317.95673817 -240.79771805 316.60549355 C-240.40090979 312.97560823 -239.62365629 311.08618254 -237.42578125 308.203125 C-234.63156416 306.80601645 -232.31727472 307.06041441 -229.19116211 307.04199219 C-227.87897202 307.03238464 -226.56678192 307.0227771 -225.21482849 307.01287842 C-223.7734291 307.00802819 -222.33202768 307.00374992 -220.890625 307 C-219.41288756 306.99424592 -217.93515013 306.98848822 -216.45741272 306.98272705 C-213.35287122 306.97221072 -210.24835564 306.96637343 -207.14379883 306.96289062 C-203.18520863 306.95743022 -199.22696665 306.93345815 -195.26848507 306.90491867 C-192.21164491 306.88618973 -189.15488651 306.88108109 -186.09799385 306.87955475 C-184.64009274 306.87654647 -183.18219243 306.8685803 -181.72434807 306.85536957 C-170.02436574 306.75698894 -160.63547644 307.67329142 -151.64453125 315.81640625 C-146.37982273 321.20380925 -144.35528839 327.01241516 -142.42578125 334.203125 C-141.91192871 333.91066895 -141.39807617 333.61821289 -140.86865234 333.31689453 C-138.51575062 331.98183595 -136.15834172 330.6549381 -133.80078125 329.328125 C-132.58841797 328.63783203 -132.58841797 328.63783203 -131.3515625 327.93359375 C-123.37354752 323.45812193 -116.62558167 321.82821013 -107.55078125 321.078125 C-106.08898437 320.94857422 -106.08898437 320.94857422 -104.59765625 320.81640625 C-102.20751679 320.60551159 -99.817005 320.40127863 -97.42578125 320.203125 C-98.20179688 319.57148438 -98.9778125 318.93984375 -99.77734375 318.2890625 C-134.57740283 289.62698377 -156.99624476 252.55302387 -165.42578125 208.203125 C-165.65265625 207.07777344 -165.87953125 205.95242187 -166.11328125 204.79296875 C-173.65402086 160.01982729 -161.59986223 111.84861652 -135.55078125 74.953125 C-106.9043898 35.56362698 -64.67587342 8.89347552 -16.42578125 1.203125 C-10.91449287 0.41723876 -5.56326117 0.03355618 0 0 Z " fill="#010101" transform="translate(245.42578125,5.796875)"/>
<path d="M0 0 C1.20011719 0.42925781 2.40023437 0.85851563 3.63671875 1.30078125 C22.95209524 8.58766611 40.63952441 18.80661443 55.76171875 32.9140625 C57.85454366 34.86444383 60.00298541 36.71631367 62.1875 38.5625 C66.19529133 42.07431715 69.6319205 45.87652818 73 50 C74.12535156 51.35158203 74.12535156 51.35158203 75.2734375 52.73046875 C90.25318754 71.37246052 100.74061378 92.99227809 107 116 C107.21317871 116.74797852 107.42635742 117.49595703 107.64599609 118.26660156 C118.74730164 158.67500162 109.63532986 203.84689801 89.52734375 239.73828125 C82.67441431 251.51288397 74.10411966 261.90615723 65 272 C64.32453125 272.74894531 63.6490625 273.49789063 62.953125 274.26953125 C53.16840217 284.53512721 41.14675499 292.78744664 29 300 C28.41669922 300.34659668 27.83339844 300.69319336 27.23242188 301.05029297 C5.32610372 313.84901727 -18.87414373 319.88007912 -44 322 C-44.94045166 322.10272217 -45.88090332 322.20544434 -46.84985352 322.3112793 C-54.68358585 322.82933078 -58.57606232 320.26274719 -64.4375 315.3125 C-76.11169993 306.07302009 -85.82090356 301.79418727 -100.8046875 302.03515625 C-102.77082676 302.04119269 -104.73697655 302.04435203 -106.703125 302.04492188 C-109.77591964 302.04662898 -112.84483712 302.06186334 -115.91699219 302.12670898 C-130.66220301 302.41468271 -139.69063663 300.642769 -151 291 C-152.76781733 289.64189841 -154.5380159 288.2868792 -156.3125 286.9375 C-161.35283767 282.78466365 -166.21488386 278.44332213 -171 274 C-171.59296875 273.46117187 -172.1859375 272.92234375 -172.796875 272.3671875 C-196.37242528 250.02654699 -211.23116482 217.55271438 -217 186 C-217.16846436 185.2685376 -217.33692871 184.5370752 -217.51049805 183.78344727 C-219.26262847 175.6097003 -219.33832771 167.56165252 -219.31567383 159.2409668 C-219.31252811 156.83400505 -219.33599847 154.4282939 -219.36132812 152.02148438 C-219.40341567 141.67325078 -218.27968352 132.08519247 -216 122 C-215.74029419 120.76793823 -215.74029419 120.76793823 -215.4753418 119.51098633 C-210.30647851 95.47037263 -199.48018096 73.0890248 -184 54 C-183.51917969 53.40106934 -183.03835937 52.80213867 -182.54296875 52.18505859 C-167.60975726 33.73032791 -149.93995481 20.08099667 -129 9 C-128.11957031 8.51917969 -127.23914063 8.03835937 -126.33203125 7.54296875 C-88.2105679 -12.57137121 -40.21781247 -14.85836842 0 0 Z " fill="#EC4747" transform="translate(310,27)"/>
<path d="M0 0 C6.55146009 3.91979536 11.45407176 10.2210053 13.625 17.5 C14.66290698 24.42802912 13.17199094 30.50284326 9.625 36.5 C6.70127051 40.14823891 3.52092893 43.49743078 0.25048828 46.83007812 C-2.65640786 49.81643583 -5.47640423 52.88411326 -8.3125 55.9375 C-9.50878844 57.21775275 -10.70540168 58.49770208 -11.90234375 59.77734375 C-15.07343415 63.17250237 -18.22759423 66.58289184 -21.375 70 C-26.28155631 75.32643878 -31.21894166 80.62343104 -36.1640625 85.9140625 C-39.91529543 89.92969951 -43.65186457 93.95830753 -47.375 98 C-51.68986909 102.68405575 -56.02628069 107.34735709 -60.375 112 C-66.7367409 118.80732385 -73.06267935 125.64686473 -79.375 132.5 C-81.33277796 134.62551261 -83.29104943 136.75056804 -85.25 138.875 C-85.73637939 139.40262939 -86.22275879 139.93025879 -86.72387695 140.47387695 C-89.47061657 143.44969796 -92.22786859 146.41524199 -94.99609375 149.37109375 C-95.60630371 150.02295654 -96.21651367 150.67481934 -96.84521484 151.34643555 C-98.06423085 152.64735469 -99.28458917 153.94701745 -100.50634766 155.24536133 C-103.49772923 158.43608476 -106.36859724 161.66401754 -109.125 165.0625 C-114.1410611 170.89128999 -121.05386667 174.43437144 -128.375 176.5 C-131.02359773 176.68592999 -133.56508118 176.77893956 -136.21113586 176.76742554 C-136.98170372 176.77195665 -137.75227157 176.77648776 -138.54618996 176.78115618 C-141.11850141 176.7937782 -143.69060054 176.79218124 -146.26293945 176.79052734 C-148.11126985 176.79651397 -149.95959774 176.80331983 -151.80792236 176.81088257 C-156.82248764 176.82853623 -161.83698465 176.83323769 -166.851578 176.83451414 C-169.98646455 176.83593668 -173.1213338 176.84020822 -176.25621605 176.84550858 C-187.19840978 176.86400687 -198.14055482 176.87217945 -209.08276367 176.87060547 C-219.27338621 176.86940418 -229.4637969 176.8905046 -239.65436584 176.9220928 C-248.41125301 176.9482671 -257.16807105 176.95897227 -265.92499703 176.95769465 C-271.15167102 176.95718535 -276.37815671 176.96285092 -281.60479164 176.98405075 C-286.52228533 177.00345247 -291.43941149 177.00354431 -296.35691833 176.98901749 C-298.15760016 176.98693068 -299.9583051 176.9916226 -301.75894737 177.0037384 C-319.16021306 177.11320397 -319.16021306 177.11320397 -326.375 172.5 C-327.20394775 172.00346924 -328.03289551 171.50693848 -328.88696289 170.99536133 C-329.5339917 170.5289624 -330.18102051 170.06256348 -330.84765625 169.58203125 C-331.59354004 169.05440186 -332.33942383 168.52677246 -333.10791016 167.9831543 C-333.8766748 167.43183838 -334.64543945 166.88052246 -335.4375 166.3125 C-349.1624019 156.719581 -363.06618897 149.70414637 -378.375 142.5 C-378.375 107.85 -378.375 73.2 -378.375 37.5 C-350.12202634 22.19630593 -350.12202634 22.19630593 -340.96386719 22.2253418 C-340.12903305 22.22023087 -339.29419891 22.21511993 -338.43406677 22.20985413 C-335.67992946 22.19597874 -332.92604308 22.19691385 -330.171875 22.19921875 C-328.25001941 22.19532969 -326.32816467 22.19099458 -324.40631104 22.18623352 C-320.37810481 22.17877498 -316.34998622 22.17905921 -312.32177734 22.18432617 C-307.1761432 22.19010949 -302.03087034 22.17321552 -296.88529587 22.1499815 C-292.91485519 22.13519891 -288.9445005 22.1343788 -284.97403717 22.13749123 C-283.07794735 22.13697993 -281.18185248 22.13177843 -279.28578949 22.12167931 C-276.6248632 22.10924915 -273.96462739 22.11614645 -271.30371094 22.12768555 C-270.53040939 22.12004181 -269.75710785 22.11239807 -268.96037292 22.10452271 C-260.80621057 22.18211031 -254.0367452 24.57719485 -247.4375 29.375 C-246.90737305 29.75358154 -246.37724609 30.13216309 -245.83105469 30.5222168 C-243.26134633 32.36476635 -240.7199914 34.24499303 -238.17724609 36.12451172 C-236.61423903 37.27926331 -235.04917288 38.43123245 -233.48217773 39.58056641 C-231.95066126 40.70584635 -230.42504574 41.83921809 -228.90649414 42.98193359 C-219.8667111 49.64111512 -211.82299746 52.66747226 -200.56225586 52.61010742 C-198.96369933 52.61064996 -197.36514281 52.61123695 -195.7665863 52.61186218 C-194.92365965 52.61043402 -194.08073299 52.60900585 -193.21226311 52.60753441 C-188.71762089 52.60399402 -184.2231006 52.6298477 -179.72851562 52.65039062 C-174.02308721 52.67465882 -168.31802154 52.69047962 -162.61254883 52.67504883 C-157.98987979 52.66331727 -153.36810636 52.68097107 -148.74557686 52.71749306 C-146.99433884 52.72604946 -145.24301382 52.72411933 -143.49180412 52.710989 C-132.09249593 52.63194235 -122.32686747 53.2743425 -113.36070251 61.30387878 C-106.87452812 68.14791372 -105.81420925 74.85040034 -106.01953125 84.05078125 C-106.51231685 88.83242617 -107.87654364 92.42908859 -110.375 96.5 C-110.91125 97.386875 -111.4475 98.27375 -112 99.1875 C-117.64474675 104.68370078 -124.44442151 108.60005065 -132.41116333 108.64476013 C-133.20470215 108.65165863 -133.99824097 108.65855713 -134.81582642 108.66566467 C-135.67727264 108.66827805 -136.53871887 108.67089142 -137.42626953 108.67358398 C-138.34047668 108.680271 -139.25468384 108.68695801 -140.19659424 108.69384766 C-142.1794515 108.70788431 -144.16232479 108.71978276 -146.14520645 108.72979546 C-149.27979658 108.74620886 -152.41426695 108.76944421 -155.54879761 108.79469299 C-164.46004278 108.86547945 -173.37133519 108.9257358 -182.28271484 108.97680664 C-187.73385818 109.00852449 -193.184861 109.04977403 -198.63589096 109.09700203 C-200.71636313 109.11305693 -202.79686763 109.12536228 -204.87738419 109.13390923 C-207.77924205 109.14600759 -210.68076659 109.17013142 -213.58251953 109.19702148 C-214.44801422 109.19761063 -215.31350891 109.19819977 -216.20523071 109.19880676 C-220.76700187 109.05199099 -220.76700187 109.05199099 -224.375 111.5 C-224.21082968 115.06592619 -224.21082968 115.06592619 -223.375 118.5 C-220.08641813 120.14429093 -216.43281457 119.66545545 -212.81713867 119.67700195 C-211.48740021 119.68685875 -211.48740021 119.68685875 -210.13079834 119.69691467 C-207.1848543 119.71668643 -204.23896157 119.7283247 -201.29296875 119.73828125 C-200.28500055 119.74235678 -199.27703236 119.7464323 -198.23851967 119.75063133 C-192.89379709 119.77151793 -187.54910031 119.78580311 -182.2043457 119.79516602 C-176.70810101 119.80617912 -171.21226694 119.84051224 -165.7161665 119.88033772 C-161.47192182 119.90662513 -157.22777265 119.91486903 -152.98345375 119.91844749 C-150.95946827 119.9232896 -148.93548638 119.93483495 -146.91158104 119.95348549 C-132.19799028 120.08054114 -118.0680694 119.7514581 -106.375 109.5 C-98.58188115 101.56744164 -95.57288215 93.00976656 -94.8125 82.0625 C-93.83292361 73.76540424 -89.88994363 69.56858349 -84.03271484 64.08935547 C-81.0306755 61.21111156 -78.2543757 58.1202007 -75.4375 55.0625 C-74.24179005 53.78170694 -73.0451792 52.50175433 -71.84765625 51.22265625 C-68.67656585 47.82749763 -65.52240577 44.41710816 -62.375 41 C-57.47409053 35.67969129 -52.54537362 30.3859503 -47.60131836 25.10571289 C-44.73750467 22.04423056 -41.88658253 18.9728661 -39.06640625 15.87109375 C-28.58381592 4.34862788 -17.01401293 -7.51009164 0 0 Z " fill="#F9CBAD" transform="translate(480.375,317.5)"/>
<path d="M0 0 C2.72245414 1.3680925 5.45205295 2.72059593 8.1875 4.0625 C9.60095703 4.76052734 9.60095703 4.76052734 11.04296875 5.47265625 C17.97509472 8.32947035 24.85139333 8.43691809 32.25 8.5 C33.25546875 8.5103125 34.2609375 8.520625 35.296875 8.53125 C44.03240953 8.42847901 52.8154719 7.20156323 60.1875 2.1875 C71.40927162 -5.00088725 82.12509613 -8.91422463 95.5703125 -6.51171875 C103.69684262 -3.91441599 107.9771643 2.32705122 112 9.5 C120.93047014 26.98134535 121.18035507 52.5452512 115.1875 71.0625 C112.59670575 78.40690495 109.67674087 85.25148487 105.75 92 C102.71654143 97.95660955 103.04276244 102.83113925 103.74609375 109.30859375 C104.36322862 115.13652655 104.36372185 120.95697259 104.375 126.8125 C104.38740723 127.84141357 104.39981445 128.87032715 104.41259766 129.93041992 C104.43080602 140.28353056 103.16405502 150.06816906 99.0625 159.625 C98.60399658 160.70986694 98.60399658 160.70986694 98.13623047 161.81665039 C95.30993557 168.23842171 91.71391553 173.6947433 87.1875 179.0625 C86.45273437 179.94679688 85.71796875 180.83109375 84.9609375 181.7421875 C80.53301496 186.87005656 75.95192528 191.44502903 70.1875 195.0625 C69.8575 195.0625 69.5275 195.0625 69.1875 195.0625 C69.18607498 194.375047 69.18464996 193.68759399 69.18318176 192.97930908 C69.16523108 186.44876318 69.1232655 179.91884274 69.05540943 173.38861465 C69.02135338 170.03247192 68.99871769 166.67717436 68.99194336 163.32080078 C68.982588 159.44768077 68.94144874 155.57595091 68.89453125 151.703125 C68.8984639 150.518255 68.90239655 149.33338501 68.90644836 148.11260986 C68.70491513 136.41366011 65.06114707 126.66723922 56.80859375 118.265625 C47.87943894 110.76034435 38.6317355 109.01112046 27.3125 109.6015625 C22.34338455 110.04251554 18.38312313 111.3532187 14.1875 114.0625 C13.15625 114.64 12.125 115.2175 11.0625 115.8125 C3.77074633 121.51908983 -1.89486481 128.87603023 -3.8125 138.0625 C-3.92575854 139.95585853 -3.98845145 141.85250785 -4.01782227 143.74902344 C-4.03776749 144.88990417 -4.05771271 146.03078491 -4.07826233 147.20623779 C-4.09497482 148.43239807 -4.11168732 149.65855835 -4.12890625 150.921875 C-4.14968735 152.18138977 -4.17046844 153.44090454 -4.19187927 154.73858643 C-4.24616302 158.07908871 -4.29642069 161.41960222 -4.34472656 164.76019287 C-4.39505704 168.17221393 -4.4506827 171.58414823 -4.50585938 174.99609375 C-4.61295114 181.68482664 -4.7147354 188.37362463 -4.8125 195.0625 C-22.10162862 184.8838754 -32.39314109 168.0028974 -38.05078125 149.16796875 C-39.89781704 141.63774593 -39.96465903 134.33363825 -39.9375 126.625 C-39.94136719 125.53123047 -39.94523438 124.43746094 -39.94921875 123.31054688 C-39.94123253 116.67798742 -39.548743 110.38128623 -38.43359375 103.83984375 C-37.81446684 97.63540174 -40.64792903 93.14413303 -43.60180664 87.93017578 C-54.73944229 68.16437839 -57.30121924 43.08641744 -51.8125 21.0625 C-51.61785156 20.19882813 -51.42320312 19.33515625 -51.22265625 18.4453125 C-48.68111708 8.54985229 -43.10223009 0.99336381 -34.8125 -4.9375 C-23.11897535 -11.05002425 -10.61182128 -5.40238174 0 0 Z " fill="#EDEDED" transform="translate(223.8125,88.9375)"/>
<path d="M0 0 C61.41803279 0 61.41803279 0 66.70703125 4.4296875 C70.56281566 9.47081906 72.24586745 13.35789689 72.26742554 19.70379639 C72.27595551 20.84198822 72.28448547 21.98018005 72.29327393 23.15286255 C72.29236755 24.3924472 72.29146118 25.63203186 72.29052734 26.90917969 C72.29724457 28.22193878 72.30396179 29.53469788 72.31088257 30.88723755 C72.32852381 34.48249114 72.33323723 38.07764947 72.33451414 41.67294216 C72.33593771 43.92220227 72.34021126 46.17143832 72.34550858 48.42069244 C72.36400477 56.27657096 72.37217997 64.13238168 72.37060547 71.98828125 C72.36940514 79.29612905 72.3904869 86.60368099 72.4220928 93.91145396 C72.44830293 100.19700779 72.45897074 106.4824653 72.45769465 112.76807332 C72.45718627 116.51702484 72.46279966 120.2657135 72.48405075 124.01461029 C72.50713431 128.20102421 72.4978834 132.38678188 72.48583984 136.57324219 C72.49707886 137.80472992 72.50831787 139.03621765 72.51989746 140.30502319 C72.4650129 147.82539444 71.85818711 154.89428159 66.48187828 160.61552048 C49.65680053 175.11193623 22.20876654 165 0 165 C0 110.55 0 56.1 0 0 Z " fill="#3988BE" transform="translate(18,326)"/>
<path d="M0 0 C0.99 0.66 1.98 1.32 3 2 C14.0318373 5.42367364 28.37265796 5.96189489 39 1 C41.47039835 -0.4186446 43.87592907 -1.91524534 46.28125 -3.44140625 C58.23237279 -10.29269647 71.39034203 -12.70008877 85 -11 C94.74342052 -7.88126819 102.25210904 -2.01025884 107.625 6.625 C108.01252441 7.2432666 108.40004883 7.8615332 108.79931641 8.49853516 C120.51314425 27.70762652 122.15947688 53.83407655 117.04296875 75.453125 C114.38125634 84.50494097 111.12305183 93.07008633 106.625 101.375 C103.79498049 106.84292282 103.29918545 110.93943477 104 117 C107.10063169 144.85646881 103.17496951 171.15820232 85.6328125 193.81640625 C67.64329603 216.01780727 67.64329603 216.01780727 56.25 217.3125 C52.14232771 216.91753151 50.17073386 215.5942368 47 213 C44.84866934 209.70452201 44.7539593 206.9917674 44.76049805 203.10498047 C44.75676682 201.91629364 44.75303558 200.72760681 44.74919128 199.50289917 C44.75332535 198.22061432 44.75745941 196.93832947 44.76171875 195.6171875 C44.75569401 194.27921774 44.74808489 192.94125426 44.7389679 191.603302 C44.70197356 185.93440277 44.6832307 180.26569643 44.69458008 174.59667969 C44.70047889 171.12283644 44.68193846 167.64979954 44.64869118 164.17612076 C44.63700667 162.22769864 44.65199115 160.27917428 44.66764832 158.33078003 C44.57549121 149.891948 43.29441541 142.90858187 37.59281921 136.39157104 C31.09973435 130.51225634 24.71697114 129.3596931 16.22265625 129.59375 C9.32238577 130.46360228 4.81226892 133.60606253 0.5625 139 C-2.8849729 143.87164261 -4.24823456 148.09420114 -4.25537109 154.07202148 C-4.26233002 155.27354355 -4.26928894 156.47506561 -4.27645874 157.71299744 C-4.27496323 159.64750511 -4.27496323 159.64750511 -4.2734375 161.62109375 C-4.28200378 162.9672186 -4.29200584 164.313335 -4.30337524 165.65943909 C-4.34948986 171.35958818 -4.37424871 177.05968034 -4.38085938 182.76000977 C-4.38588753 186.25436334 -4.41019851 189.7481616 -4.44618607 193.24232674 C-4.46067804 195.21084983 -4.45336173 197.1794947 -4.44564819 199.14805603 C-4.56803522 210.26422699 -4.56803522 210.26422699 -9 215 C-12.23622605 217.37323244 -15.06855147 217.59342619 -19 217 C-39.0241751 207.24667416 -53.7606693 185.22488014 -61 165 C-63.79120148 155.25260109 -65.18027586 145.61548233 -65.125 135.5 C-65.12886719 134.79230469 -65.13273438 134.08460938 -65.13671875 133.35546875 C-65.12781503 128.4851327 -64.66796117 123.824164 -64 119 C-62.80602947 110.14984733 -64.88176616 104.31359674 -68.78930664 96.56518555 C-80.51573991 73.24442594 -81.9928792 46.24947642 -74.93359375 21.21875 C-70.13248045 7.90873293 -62.86106751 -3.09494726 -49.859375 -9.2734375 C-32.63813793 -16.00274442 -15.05106377 -8.13679346 0 0 Z M-55.109375 9.55859375 C-67.8609425 26.0249774 -67.06931103 47.83762668 -65.76171875 67.6015625 C-64.24942554 78.69171269 -59.67154163 89.30699364 -54.125 98.9375 C-51.12191469 104.29542754 -50.09520448 107.96460263 -51 114 C-52.00674161 120.77468977 -52.18338129 127.4047039 -52.1875 134.25 C-52.19974609 135.30574219 -52.21199219 136.36148438 -52.22460938 137.44921875 C-52.24390478 147.95878169 -51.0405145 157.85664024 -46.875 167.5625 C-46.56933105 168.28574463 -46.26366211 169.00898926 -45.94873047 169.75415039 C-43.12243557 176.17592171 -39.52641553 181.6322433 -35 187 C-34.26523438 187.88429688 -33.53046875 188.76859375 -32.7734375 189.6796875 C-28.34551496 194.80755656 -23.76442528 199.38252903 -18 203 C-17.67 203 -17.34 203 -17 203 C-16.99635437 202.30810577 -16.99270874 201.61621155 -16.98895264 200.90335083 C-16.95088846 194.34279551 -16.89382999 187.78270193 -16.81609726 181.22249031 C-16.77679765 177.85078272 -16.74452465 174.47932942 -16.72900391 171.10742188 C-16.70746888 167.21963103 -16.66076058 163.3328098 -16.609375 159.4453125 C-16.60814636 158.25011993 -16.60691772 157.05492737 -16.60565186 155.82351685 C-16.41442582 144.76395209 -13.40998206 136.28065495 -6 128 C2.17073846 120.18451104 10.63874083 117.57584091 21.74169922 117.47875977 C32.00701755 117.71433383 40.33104015 121.80790969 47.5625 129.1875 C54.76188375 138.59677138 56.74568463 147.99472186 56.70703125 159.640625 C56.72215256 160.88882019 56.73727386 162.13701538 56.75285339 163.42303467 C56.79545282 167.36554423 56.80454222 171.30728402 56.8125 175.25 C56.83292854 177.94146015 56.86070544 180.63282772 56.88867188 183.32421875 C56.95125041 189.88282003 56.98640413 196.44112387 57 203 C70.9748412 194.78764937 80.76096542 182.15858219 87 167.375 C87.27875977 166.71943115 87.55751953 166.0638623 87.84472656 165.38842773 C91.71721481 155.51212871 92.31075169 145.25104406 92.1875 134.75 C92.18830566 133.6559082 92.18911133 132.56181641 92.18994141 131.43457031 C92.16995382 126.76298851 92.11793324 122.18683775 91.41796875 117.5625 C89.70511253 105.53553836 94.33890346 97.85235847 99.81738281 87.38818359 C108.1365053 70.58850231 108.67244313 46.95511164 104 29 C103.80535156 28.22269531 103.61070312 27.44539063 103.41015625 26.64453125 C100.65659131 17.17813344 95.3898731 8.42874142 87 3 C78.05598995 -0.63617325 68.65405313 0.04697463 59.82421875 3.65625 C55.46356692 5.73102763 51.24547546 8.04504211 47.0234375 10.38671875 C33.98991592 17.34129809 18.72659272 17.78397782 4.3125 15.38671875 C1.38222413 14.46286788 -1.24440339 13.36083499 -4 12 C-4.62310059 11.69433105 -5.24620117 11.38866211 -5.88818359 11.07373047 C-8.69552449 9.69101032 -11.49342785 8.29084582 -14.28222656 6.87109375 C-28.35948144 -0.29304174 -43.31613961 -3.0471677 -55.109375 9.55859375 Z " fill="#050303" transform="translate(236,81)"/>
<path d="M0 0 C1.835769 0.51218225 3.66897916 1.03359439 5.5 1.5625 C17.53250762 4.65089459 28.95077977 3.64100045 40.6328125 -0.22265625 C44.49835714 -1.11504997 47.16389067 -0.97075138 51 0 C53 3 53 3 53.1875 5.9375 C51.84634465 9.39626907 51.44472794 9.66340961 48.25 11.1875 C46.51663364 11.83785253 44.76417165 12.43855923 43 13 C41.58654297 13.45052734 41.58654297 13.45052734 40.14453125 13.91015625 C24.58044334 18.15132089 3.30253012 18.15215205 -11 10 C-13 7 -13 7 -12.8125 3.9375 C-10.97175494 -2.71750136 -5.47243427 -1.02455679 0 0 Z " fill="#060606" transform="translate(236,112)"/>
</svg>
