<?xml version="1.0" encoding="UTF-8"?>
<svg version="1.1" xmlns="http://www.w3.org/2000/svg" width="512" height="512">
<path d="M0 0 C1.52190445 -0.01029488 1.52190445 -0.01029488 3.07455444 -0.02079773 C6.39376234 -0.03894268 9.71249194 -0.03524554 13.03173828 -0.02954102 C15.36142122 -0.03410889 17.69110281 -0.03941626 20.02078247 -0.04542542 C24.89086398 -0.05433256 29.76078129 -0.05196088 34.63085938 -0.04199219 C40.8431959 -0.03050931 47.05496342 -0.05071653 53.26722527 -0.07990932 C58.07507879 -0.09833758 62.88279763 -0.09796559 67.69067764 -0.0922718 C69.97979658 -0.09211938 72.2689251 -0.09809764 74.5580101 -0.11056328 C93.51620783 -0.19926893 109.92939282 1.42412051 124.22705078 15.40405273 C134.34948659 27.47834837 137.31164262 40.4906508 137.50830078 55.83764648 C137.52671021 56.94777603 137.54511963 58.05790558 137.56408691 59.20167542 C137.62265375 62.74824885 137.67546444 66.29487136 137.72705078 69.84155273 C137.94881372 89.14860341 137.94881372 89.14860341 139.00756836 108.421875 C142.20288206 151.83762227 130.28081315 197.81240481 102.22705078 231.40405273 C103.50903405 234.79364641 104.97677114 237.86525528 106.82861328 240.97827148 C107.31845703 241.81036133 107.80830078 242.64245117 108.31298828 243.49975586 C109.3462114 245.23971408 110.38007441 246.97929246 111.41455078 248.71850586 C111.90181641 249.54672852 112.38908203 250.37495117 112.89111328 251.22827148 C113.56327881 252.35881958 113.56327881 252.35881958 114.24902344 253.51220703 C115.22705078 255.40405273 115.22705078 255.40405273 115.22705078 257.40405273 C116.53150146 257.38834229 117.83595215 257.37263184 119.17993164 257.35644531 C124.10206727 257.30141437 129.02417681 257.26744139 133.9465332 257.23925781 C136.06148884 257.22433551 138.17641446 257.20399036 140.29125977 257.17773438 C173.71657773 256.77368336 202.11240984 264.84532418 226.53955078 288.34155273 C251.60694293 314.38086315 256.72025359 344.74782801 256.66064453 379.48999023 C256.6652168 381.84982451 256.67052545 384.20965746 256.67652893 386.56948853 C256.68538958 391.4724068 256.68311133 396.37516149 256.6730957 401.27807617 C256.66151119 407.56046784 256.68199736 413.84230529 256.71101284 420.12462425 C256.72932882 424.97846035 256.72909332 429.83216174 256.72337532 434.68602371 C256.72322209 437.00408338 256.72926744 439.32215217 256.74166679 441.64017868 C256.75651757 444.86570512 256.74594911 448.0901807 256.72875977 451.31567383 C256.73842773 452.26837662 256.7480957 453.22107941 256.75805664 454.20265198 C256.7482225 455.08238174 256.73838837 455.96211151 256.72825623 456.86849976 C256.72804694 457.62826803 256.72783766 458.38803631 256.72762203 459.17082787 C255.99155594 462.45467827 254.60307059 464.03532066 252.22705078 466.40405273 C249.05463123 467.02849722 249.05463123 467.02849722 245.2179718 467.02767181 C244.15423601 467.03767383 244.15423601 467.03767383 243.06901062 467.04787791 C240.68013745 467.06418896 238.29288562 467.04469993 235.90405273 467.0255127 C234.17927809 467.02983943 232.45450776 467.03635337 230.72974873 467.04487276 C225.98046675 467.06191853 221.23170936 467.04764541 216.48245478 467.02835798 C211.36445188 467.01297089 206.24651494 467.02632251 201.12850952 467.03610229 C191.09852313 467.05065201 181.06873868 467.03837152 171.03877139 467.01698905 C159.36643531 466.99301573 147.69414586 466.99469116 136.02179062 466.99729496 C115.19986916 467.00098781 94.37804305 466.98013652 73.55615234 466.94604492 C53.33672678 466.91295187 33.11740131 466.89878632 12.89794922 466.9050293 C-9.10255035 466.91178875 -31.10300795 466.90934573 -53.10350132 466.8896699 C-54.26618985 466.88863041 -55.42887837 466.88759092 -56.62679988 466.88651994 C-58.96221347 466.88442899 -61.29762705 466.88231802 -63.63304061 466.88018677 C-71.77549537 466.87328243 -79.91793721 466.87262331 -88.06039429 466.87406921 C-97.97895558 466.87550687 -107.89743509 466.86585564 -117.81596923 466.84212285 C-122.87969248 466.83023835 -127.94330155 466.82315396 -133.00703812 466.82896042 C-137.6381739 466.83411404 -142.26906799 466.82550877 -146.90016234 466.80568582 C-148.57977315 466.80092725 -150.25940735 466.80126982 -151.93901479 466.80709618 C-154.21425775 466.81422891 -156.48868905 466.80307434 -158.76387024 466.78716278 C-160.66301666 466.78480598 -160.66301666 466.78480598 -162.60052967 466.78240156 C-165.98767124 466.37844458 -167.39473284 465.8058778 -169.77294922 463.40405273 C-170.27631378 461.27357388 -170.27631378 461.27357388 -170.28088379 458.76060486 C-170.29780273 457.32937538 -170.29780273 457.32937538 -170.31506348 455.86923218 C-170.30696655 454.82361115 -170.29886963 453.77799011 -170.29052734 452.70068359 C-170.29753662 451.5977446 -170.3045459 450.4948056 -170.31176758 449.35844421 C-170.32943371 445.69500854 -170.31768161 442.03234072 -170.30419922 438.36889648 C-170.30689452 435.81555534 -170.31077726 433.2622152 -170.3157959 430.70887756 C-170.32170502 425.341129 -170.31347563 419.97365492 -170.29443359 414.60595703 C-170.27282882 408.44570657 -170.27959099 402.28598911 -170.30173922 396.12575239 C-170.3222906 390.16650462 -170.31983967 384.20741832 -170.30821228 378.24814034 C-170.3055662 375.73150112 -170.30873908 373.21484811 -170.31813049 370.69822502 C-170.40972988 339.20808511 -163.52295834 311.34823221 -140.82763672 288.36499023 C-122.55942853 270.46747492 -98.17673998 257.65360416 -72.0769043 257.37530518 C-69.25765248 257.4449463 -66.4450433 257.56119794 -63.62841797 257.70092773 C-44.16555667 259.79831621 -44.16555667 259.79831621 -26.41259766 254.17700195 C-21.30924985 248.4957489 -17.53308069 241.08851832 -16.77294922 233.40405273 C-18.0181344 230.09367346 -20.03321797 227.81440884 -22.33544922 225.15405273 C-41.45599075 201.43489994 -49.03979203 170.03134007 -52.77294922 140.40405273 C-52.97017578 138.90358398 -52.97017578 138.90358398 -53.17138672 137.37280273 C-53.89472759 130.56948856 -53.87011714 123.73873844 -53.89794922 116.90405273 C-53.90270264 115.95433594 -53.90745605 115.00461914 -53.91235352 114.02612305 C-53.90128729 109.25699129 -53.73094537 104.56246639 -53.27563477 99.81420898 C-52.73664221 93.55434322 -52.6218459 87.34037464 -52.59716797 81.06030273 C-52.57398274 78.73867895 -52.54986595 76.41706432 -52.52490234 74.09545898 C-52.48980557 70.49497172 -52.4604149 66.89482717 -52.44702148 63.29418945 C-52.43144335 59.77832486 -52.39119917 56.26341178 -52.34716797 52.74780273 C-52.34907639 51.68807251 -52.3509848 50.62834229 -52.35295105 49.53649902 C-52.1370347 36.16247521 -47.24791002 24.05281741 -38.14794922 14.21655273 C-27.32964825 4.03704668 -14.61056161 -0.07063051 0 0 Z " fill="#010103" transform="translate(169.77294921875,22.595947265625)"/>
<path d="M0 0 C5.6976662 -0.23057102 11.37900722 -0.42913272 17.07763672 -0.54931641 C19.01211515 -0.59941568 20.94621844 -0.66752126 22.87939453 -0.75439453 C38.89531294 -1.45576139 38.89531294 -1.45576139 43.85375977 1.97387695 C45.9035598 4.5426137 47.43966299 7.1126281 49 10 C50.14115079 11.46386505 51.31626637 12.90203142 52.52734375 14.30859375 C53.08719971 14.98712402 53.64705566 15.6656543 54.22387695 16.36474609 C54.78937256 17.04875488 55.35486816 17.73276367 55.9375 18.4375 C57.15898487 19.91786091 58.38033912 21.39832961 59.6015625 22.87890625 C60.47603027 23.93875732 60.47603027 23.93875732 61.36816406 25.02001953 C65.61380512 30.17144816 69.8318724 35.34548636 74.0546875 40.515625 C79.29357545 46.92510697 84.55278195 53.31759766 89.81787109 59.70556641 C94.03487578 64.82333527 98.23710817 69.95275383 102.42578125 75.09375 C103.85872965 76.8903854 103.85872965 76.8903854 105 78 C105.09527037 79.34072817 105.1218877 80.68642503 105.12025452 82.03053284 C105.12232076 83.32986299 105.12232076 83.32986299 105.12442875 84.65544224 C105.12083064 85.61678546 105.11723253 86.57812868 105.11352539 87.56860352 C105.11364593 88.58967917 105.11376646 89.61075483 105.11389065 90.66277218 C105.1131412 93.98483864 105.10551153 97.30684976 105.09765625 100.62890625 C105.09618693 102.67313612 105.09516616 104.71736636 105.09460449 106.76159668 C105.08935046 114.3619035 105.0753894 121.96220229 105.0625 129.5625 C105.041875 146.536875 105.02125 163.51125 105 181 C65.07 181 25.14 181 -16 181 C-16.33 166.48 -16.66 151.96 -17 137 C-19.38949213 132.87917162 -19.38949213 132.87917162 -22.04296875 132.609375 C-22.75066406 132.65578125 -23.45835938 132.7021875 -24.1875 132.75 C-25.445625 132.8325 -26.70375 132.915 -28 133 C-28.92923977 135.78771931 -29.14867338 137.58234248 -29.20532227 140.47143555 C-29.22550415 141.38469604 -29.24568604 142.29795654 -29.26647949 143.2388916 C-29.28295532 144.19517456 -29.29943115 145.15145752 -29.31640625 146.13671875 C-29.33505737 147.01831665 -29.3537085 147.89991455 -29.3729248 148.80822754 C-29.44121944 152.10121648 -29.50137012 155.39437026 -29.5625 158.6875 C-29.706875 166.050625 -29.85125 173.41375 -30 181 C-48.81 181 -67.62 181 -87 181 C-87.20054405 155.8072112 -87.20054405 155.8072112 -87.24414062 144.95898438 C-87.27387737 137.59478442 -87.3088197 130.23089916 -87.37719727 122.86694336 C-87.43205295 116.92112625 -87.46153219 110.97564723 -87.47438622 105.02959633 C-87.48353088 102.77609253 -87.50138415 100.52260445 -87.52865028 98.26924706 C-87.86285138 69.4697052 -80.39778721 46.18056138 -60.30859375 25.1875 C-48.09602159 13.52600461 -30.36034267 2 -13 2 C-13 14.54 -13 27.08 -13 40 C-15.97 40.99 -18.94 41.98 -22 43 C-24.02081924 43.95723017 -26.03120677 44.93988057 -28 46 C-28.27259437 61.97193327 -27.90619987 77.86142392 -27.125 93.8125 C-27.08570374 94.67183136 -27.04640747 95.53116272 -27.00592041 96.41653442 C-26.89101775 98.88895022 -26.76394142 101.36042864 -26.6328125 103.83203125 C-26.59937744 104.56854919 -26.56594238 105.30506714 -26.53149414 106.06390381 C-26.23680471 113.0561275 -26.23680471 113.0561275 -23 119 C-16.66896639 119.46043881 -10.83121054 118.63379956 -5 116 C-2.67961905 113.17431454 -2.67961905 113.17431454 -3.1875 109.9375 C-3.73754498 106.70259047 -3.73754498 106.70259047 -7 105 C-10.12521833 104.83300768 -10.12521833 104.83300768 -13 105 C-13.83807166 98.93630507 -14.29573988 92.92662004 -14.5625 86.8125 C-14.6049585 85.86938965 -14.64741699 84.9262793 -14.69116211 83.95458984 C-15.10287229 73.96916816 -15.09194838 63.99172431 -15 54 C-11.89743488 53.1606242 -8.79270556 52.3295495 -5.6875 51.5 C-4.80642578 51.26152344 -3.92535156 51.02304687 -3.01757812 50.77734375 C-2.17001953 50.55175781 -1.32246094 50.32617188 -0.44921875 50.09375 C0.33106689 49.88427734 1.11135254 49.67480469 1.9152832 49.45898438 C4 49 4 49 7 49 C7.4532666 49.91177002 7.9065332 50.82354004 8.37353516 51.76293945 C10.08234973 55.19889469 11.79396002 58.63345123 13.50634766 62.06762695 C14.2421175 63.54414456 14.97716423 65.02102277 15.71142578 66.49829102 C19.64890422 74.4189076 23.61070689 82.29119232 27.98193359 89.98510742 C29 92 29 92 29 94 C28.195625 94.4125 27.39125 94.825 26.5625 95.25 C23.74597716 96.80727376 23.74597716 96.80727376 22.9375 99.9375 C22.74216912 103.04212013 22.74216912 103.04212013 24.5 105.4375 C26.95932694 107.29124858 26.95932694 107.29124858 30.1875 106.9375 C38.75337881 105.3002369 38.75337881 105.3002369 45 100 C44.80702065 94.18972706 41.94953405 89.35596277 39.37109375 84.28125 C38.9031691 83.34631714 38.43524445 82.41138428 37.95314026 81.44812012 C36.96074774 79.46936862 35.96447413 77.49255948 34.96459961 75.51757812 C33.45886793 72.54222345 31.96571545 69.56083131 30.47460938 66.578125 C28.11648768 61.87555187 25.72562721 57.19113905 23.30487061 52.52050781 C22.46953212 50.90695535 21.63947104 49.29065299 20.81622314 47.67089844 C19.78589227 45.65361065 18.72909958 43.65327518 17.66015625 41.65625 C17.09047119 40.57150391 16.52078613 39.48675781 15.93383789 38.36914062 C14.17984241 35.79056196 14.17984241 35.79056196 11.27124023 35.08398438 C7.19790781 34.8978667 7.19790781 34.8978667 0 36 C0 24.12 0 12.24 0 0 Z " fill="#CBCBCB" transform="translate(101,294)"/>
<path d="M0 0 C1.68742689 0.00025114 3.37485891 0.00581427 5.06225586 0.01586914 C6.24023743 0.01737976 6.24023743 0.01737976 7.4420166 0.0189209 C10.38705904 0.02416901 13.33208073 0.03813016 16.27709961 0.05102539 C22.85647461 0.07165039 29.43584961 0.09227539 36.21459961 0.11352539 C36.21459961 17.27352539 36.21459961 34.43352539 36.21459961 52.11352539 C32.58459961 53.43352539 28.95459961 54.75352539 25.21459961 56.11352539 C16.45150484 61.8285872 9.59279765 68.62540483 7.21459961 79.11352539 C5.92577311 90.06855065 6.60702122 100.55585159 13.09741211 109.79321289 C18.74579461 116.61581111 26.25727521 122.56004108 35.21459961 124.11352539 C47.14456591 124.97883805 57.77499231 123.76916462 67.36303711 116.01586914 C75.93038337 107.21355347 78.65146414 97.81261909 78.57373047 85.93969727 C78.32241439 75.58421305 75.01029611 68.91371988 67.85913086 61.38305664 C62.4264894 56.72077497 56.12298901 53.84062274 49.21459961 52.11352539 C49.21459961 35.28352539 49.21459961 18.45352539 49.21459961 1.11352539 C74.39241894 6.92379139 96.33113752 19.66256689 110.39086914 41.98071289 C119.32436445 56.89526129 124.39609357 72.6196585 124.328125 90.06616211 C124.32827103 91.0521489 124.32841705 92.03813568 124.3285675 93.05400085 C124.327873 96.30042755 124.32010223 99.54679627 124.31225586 102.79321289 C124.31039004 105.04908212 124.30896691 107.30495175 124.30796814 109.56082153 C124.30415588 115.48898443 124.29433662 121.41712269 124.28326416 127.34527588 C124.27122053 134.46305838 124.26664165 141.58084913 124.26081085 148.69863892 C124.25112418 159.50361818 124.23195856 170.30854345 124.21459961 181.11352539 C105.07459961 181.11352539 85.93459961 181.11352539 66.21459961 181.11352539 C65.83959961 158.80102539 65.83959961 158.80102539 65.73657227 151.76464844 C65.70137046 149.9264988 65.66544968 148.08836273 65.62866211 146.25024414 C65.61730225 145.29396118 65.60594238 144.33767822 65.59423828 143.35241699 C65.57417725 142.43915649 65.55411621 141.525896 65.53344727 140.58496094 C65.5201236 139.79220261 65.50679993 138.99944427 65.49307251 138.18266296 C65.32746378 135.80749431 65.32746378 135.80749431 63.21459961 133.11352539 C60.25690784 132.61342015 60.25690784 132.61342015 57.21459961 133.11352539 C45.86167537 144.46644963 53.57129953 165.0620288 53.21459961 181.11352539 C12.95459961 181.11352539 -27.30540039 181.11352539 -68.78540039 181.11352539 C-69.01227539 164.38665039 -69.23915039 147.65977539 -69.47290039 130.42602539 C-69.57304443 125.16705322 -69.67318848 119.90808105 -69.77636719 114.48974609 C-69.8260498 108.01037598 -69.8260498 108.01037598 -69.83528137 104.96598816 C-69.85204676 102.86379803 -69.89047427 100.76170614 -69.94673157 98.66020203 C-70.46730505 78.16910798 -70.46730505 78.16910798 -63.40722656 70.36376953 C-61.58959029 68.534645 -59.7112814 66.83321685 -57.78540039 65.11352539 C-56.74217411 63.87426344 -55.72574943 62.61083895 -54.76196289 61.30883789 C-49.5520804 54.50656607 -44.12916151 47.95943824 -38.4855957 41.51293945 C-34.56908082 37.03592154 -30.77212972 32.47809602 -27.02758789 27.85571289 C-24.48286475 24.74352536 -21.88927022 21.67621504 -19.28540039 18.61352539 C-14.94886995 13.51217208 -10.68622104 8.35795225 -6.46508789 3.16040039 C-3.96931594 0.11904108 -3.96931594 0.11904108 0 0 Z " fill="#CBCBCB" transform="translate(287.785400390625,293.886474609375)"/>
<path d="M0 0 C0.64438558 -0.00382555 1.28877115 -0.00765109 1.95268357 -0.01159257 C4.10982514 -0.02190333 6.26669958 -0.01793416 8.42385864 -0.01396179 C9.9713465 -0.01830938 11.5188322 -0.02349268 13.0663147 -0.02944946 C17.26885024 -0.04284671 21.47129589 -0.04341726 25.67384863 -0.04088616 C29.18277464 -0.0398168 32.69168244 -0.04469901 36.20060456 -0.04949158 C44.47978903 -0.06058958 52.75892814 -0.06102273 61.03811646 -0.05497742 C69.57688051 -0.04893837 78.11547976 -0.06124619 86.65421569 -0.08254749 C93.98682419 -0.10016676 101.31938025 -0.10616427 108.65200913 -0.10290974 C113.03071518 -0.10109704 117.4093037 -0.10373168 121.78799057 -0.11762428 C125.90680227 -0.13020309 130.02535727 -0.1282581 134.14416504 -0.11521339 C135.65422782 -0.11284805 137.16430867 -0.11558081 138.67435074 -0.12383652 C140.73925216 -0.13430999 142.80329321 -0.12619962 144.86816406 -0.11352539 C146.59979451 -0.113777 146.59979451 -0.113777 148.36640739 -0.1140337 C154.00418433 0.5472717 157.77757261 2.97472725 161.37356567 7.26069641 C161.95751099 7.94132141 162.5414563 8.62194641 163.14309692 9.32319641 C165.29007859 12.25681323 165.6872484 14.7587824 165.71496582 18.28808594 C165.72356628 19.10523575 165.73216675 19.92238556 165.74102783 20.76429749 C165.74741776 22.10382477 165.74741776 22.10382477 165.75393677 23.47041321 C165.766203 24.88556969 165.766203 24.88556969 165.77871704 26.32931519 C165.80355882 29.4561754 165.8200851 32.58299021 165.83450317 35.70991516 C165.83982685 36.77836985 165.84515053 37.84682453 165.85063553 38.94765663 C165.87736338 44.6043234 165.89673842 50.26096814 165.91116333 55.91767883 C165.92449796 60.59593783 165.95234282 65.27376018 165.99319458 69.95185852 C166.04254213 75.60285466 166.06728731 81.25345495 166.07439041 86.90465736 C166.08109827 89.05559928 166.09630813 91.20653253 166.12028122 93.3573513 C166.15197652 96.37336896 166.15196252 99.38786578 166.14456177 102.40400696 C166.1609671 103.28690399 166.17737244 104.16980103 166.1942749 105.07945251 C166.13174275 111.32816292 164.48401722 115.39069245 160.56106567 120.26069641 C155.14403272 125.40687772 150.62405699 126.49704532 143.35403442 126.33100891 C142.76235474 126.30780579 142.17067505 126.28460266 141.56106567 126.26069641 C141.69383911 126.88975891 141.82661255 127.51882141 141.96340942 128.16694641 C146.50757151 150.19120644 146.50757151 150.19120644 142.93606567 155.82319641 C139.75629417 157.74779496 138.26887938 157.71025812 134.56106567 157.26069641 C131.5419696 155.83207896 128.82908526 153.99668624 126.06106567 152.13569641 C124.38027223 151.03904157 122.69927384 149.94270079 121.01809692 148.84663391 C120.13589478 148.26494446 119.25369263 147.683255 118.34475708 147.0839386 C113.51489198 143.92050827 108.62714529 140.84822912 103.74856567 137.76069641 C101.92882659 136.60559355 100.10977637 135.44940448 98.29153442 134.29194641 C97.52220581 133.80274719 96.7528772 133.31354797 95.9602356 132.80952454 C93.56106567 131.26069641 93.56106567 131.26069641 90.97932434 129.19404602 C86.59250976 126.71288614 83.41390305 126.711318 78.46975708 126.77827454 C77.5746492 126.77436203 76.67954132 126.77044952 75.75730896 126.76641846 C73.82087531 126.76045739 71.88439673 126.76358826 69.9479866 126.77484131 C66.87854725 126.79213847 63.81004686 126.78457565 60.74060059 126.77058411 C53.11765541 126.74096892 45.49489086 126.75411006 37.87191772 126.76576233 C31.42758179 126.77397896 24.98365675 126.76597266 18.53937912 126.7366333 C15.52360932 126.72956012 12.50857096 126.74619152 9.49285889 126.76374817 C7.63228976 126.75803764 5.77172359 126.75121906 3.91116333 126.74311829 C2.66401802 126.7600901 2.66401802 126.7600901 1.39167786 126.77740479 C-5.24689366 126.70861902 -10.70399882 124.96449413 -15.49752808 120.22554016 C-16.18008667 119.222005 -16.18008667 119.222005 -16.87643433 118.19819641 C-17.58606323 117.19079407 -17.58606323 117.19079407 -18.31002808 116.16304016 C-20.9479702 111.71778821 -20.60056379 107.23304946 -20.61593628 102.23457336 C-20.62250748 101.31064285 -20.62907867 100.38671234 -20.635849 99.43478394 C-20.65558132 96.37284769 -20.66724537 93.31096053 -20.67721558 90.24897766 C-20.6812911 89.2025881 -20.68536663 88.15619854 -20.68956566 87.0781002 C-20.71042756 81.53813753 -20.72472796 75.99819963 -20.73410034 70.45820618 C-20.74515625 64.7429108 -20.77954663 59.02800567 -20.81927204 53.31284809 C-20.8454509 48.91268197 -20.8537934 44.51260859 -20.85738182 40.11237144 C-20.8622456 38.00610409 -20.8738536 35.89984082 -20.89241982 33.79364967 C-20.91683454 30.84005193 -20.91584163 27.88746042 -20.90890503 24.93379211 C-20.92171509 24.06959656 -20.93452515 23.205401 -20.94772339 22.3150177 C-20.8933219 15.93442164 -19.48208213 10.47362147 -14.9915514 5.73256397 C-10.02071935 1.42045601 -6.53709453 0.01163231 0 0 Z " fill="#7CD43D" transform="translate(346.4389343261719,119.73930358886719)"/>
<path d="M0 0 C53.79 0 107.58 0 163 0 C163 48.74910072 163 48.74910072 157.6875 69.1875 C157.47585205 70.01080811 157.2642041 70.83411621 157.04614258 71.68237305 C150.47395042 96.44344769 138.42960266 121.28765875 116 135.25 C114.34399169 136.18578418 112.67767295 137.10363566 111 138 C109.95779297 138.57041016 109.95779297 138.57041016 108.89453125 139.15234375 C93.87277298 146.62094777 75.36566006 147.06837604 59.53515625 142.32421875 C38.29173141 134.36673696 24.38724758 117.01582451 15.0859375 96.99609375 C8.08425408 81.12232327 3.62183602 64.12006829 1 47 C0.79503906 45.72898438 0.59007812 44.45796875 0.37890625 43.1484375 C-1.61474648 29.59193152 -3.33367876 13.33471506 0 0 Z " fill="#FE9D5B" transform="translate(131,121)"/>
<path d="M0 0 C1.01912979 -0.00700928 2.03825958 -0.01401855 3.08827209 -0.02124023 C6.43291052 -0.03874105 9.77669194 -0.02722424 13.12133789 -0.01367188 C15.46106629 -0.01636926 17.8007936 -0.02025372 20.14051819 -0.02526855 C25.03519401 -0.0311531 29.92957707 -0.02263476 34.82421875 -0.00390625 C41.07952943 0.01886954 47.334153 0.00576159 53.58943844 -0.01819611 C58.41863625 -0.03269287 63.24767285 -0.02803003 68.07687569 -0.01768494 C70.38242233 -0.01502773 72.68798389 -0.01825177 74.99351311 -0.02760315 C78.22393079 -0.03783101 81.45325678 -0.02217918 84.68359375 0 C86.09522293 -0.01214539 86.09522293 -0.01214539 87.53536987 -0.02453613 C97.38240444 0.09988979 106.2942542 3.604175 113.40649414 10.51757812 C128.21638597 28.92079972 123.40649414 46.43887508 123.40649414 71.51757812 C70.27649414 71.51757812 17.14649414 71.51757812 -37.59350586 71.51757812 C-37.59350586 21.23351346 -37.59350586 21.23351346 -27.59350586 10.51757812 C-19.4054746 3.03929165 -11.00673546 -0.09449658 0 0 Z " fill="#CACACA" transform="translate(169.593505859375,36.482421875)"/>
<path d="M0 0 C0.64438558 -0.00382555 1.28877115 -0.00765109 1.95268357 -0.01159257 C4.10982514 -0.02190333 6.26669958 -0.01793416 8.42385864 -0.01396179 C9.9713465 -0.01830938 11.5188322 -0.02349268 13.0663147 -0.02944946 C17.26885024 -0.04284671 21.47129589 -0.04341726 25.67384863 -0.04088616 C29.18277464 -0.0398168 32.69168244 -0.04469901 36.20060456 -0.04949158 C44.47978903 -0.06058958 52.75892814 -0.06102273 61.03811646 -0.05497742 C69.57688051 -0.04893837 78.11547976 -0.06124619 86.65421569 -0.08254749 C93.98682419 -0.10016676 101.31938025 -0.10616427 108.65200913 -0.10290974 C113.03071518 -0.10109704 117.4093037 -0.10373168 121.78799057 -0.11762428 C125.90680227 -0.13020309 130.02535727 -0.1282581 134.14416504 -0.11521339 C135.65422782 -0.11284805 137.16430867 -0.11558081 138.67435074 -0.12383652 C140.73925216 -0.13430999 142.80329321 -0.12619962 144.86816406 -0.11352539 C146.59979451 -0.113777 146.59979451 -0.113777 148.36640739 -0.1140337 C154.00418433 0.5472717 157.77757261 2.97472725 161.37356567 7.26069641 C161.95751099 7.94132141 162.5414563 8.62194641 163.14309692 9.32319641 C165.29007859 12.25681323 165.6872484 14.7587824 165.71496582 18.28808594 C165.72356628 19.10523575 165.73216675 19.92238556 165.74102783 20.76429749 C165.74741776 22.10382477 165.74741776 22.10382477 165.75393677 23.47041321 C165.766203 24.88556969 165.766203 24.88556969 165.77871704 26.32931519 C165.80355882 29.4561754 165.8200851 32.58299021 165.83450317 35.70991516 C165.83982685 36.77836985 165.84515053 37.84682453 165.85063553 38.94765663 C165.87736338 44.6043234 165.89673842 50.26096814 165.91116333 55.91767883 C165.92449796 60.59593783 165.95234282 65.27376018 165.99319458 69.95185852 C166.04254213 75.60285466 166.06728731 81.25345495 166.07439041 86.90465736 C166.08109827 89.05559928 166.09630813 91.20653253 166.12028122 93.3573513 C166.15197652 96.37336896 166.15196252 99.38786578 166.14456177 102.40400696 C166.1609671 103.28690399 166.17737244 104.16980103 166.1942749 105.07945251 C166.13174275 111.32816292 164.48401722 115.39069245 160.56106567 120.26069641 C155.14403272 125.40687772 150.62405699 126.49704532 143.35403442 126.33100891 C142.76235474 126.30780579 142.17067505 126.28460266 141.56106567 126.26069641 C141.69383911 126.88975891 141.82661255 127.51882141 141.96340942 128.16694641 C146.50757151 150.19120644 146.50757151 150.19120644 142.93606567 155.82319641 C139.75629417 157.74779496 138.26887938 157.71025812 134.56106567 157.26069641 C131.5419696 155.83207896 128.82908526 153.99668624 126.06106567 152.13569641 C124.38027223 151.03904157 122.69927384 149.94270079 121.01809692 148.84663391 C120.13589478 148.26494446 119.25369263 147.683255 118.34475708 147.0839386 C113.51489198 143.92050827 108.62714529 140.84822912 103.74856567 137.76069641 C101.92882659 136.60559355 100.10977637 135.44940448 98.29153442 134.29194641 C97.52220581 133.80274719 96.7528772 133.31354797 95.9602356 132.80952454 C93.56106567 131.26069641 93.56106567 131.26069641 90.97932434 129.19404602 C86.59250976 126.71288614 83.41390305 126.711318 78.46975708 126.77827454 C77.5746492 126.77436203 76.67954132 126.77044952 75.75730896 126.76641846 C73.82087531 126.76045739 71.88439673 126.76358826 69.9479866 126.77484131 C66.87854725 126.79213847 63.81004686 126.78457565 60.74060059 126.77058411 C53.11765541 126.74096892 45.49489086 126.75411006 37.87191772 126.76576233 C31.42758179 126.77397896 24.98365675 126.76597266 18.53937912 126.7366333 C15.52360932 126.72956012 12.50857096 126.74619152 9.49285889 126.76374817 C7.63228976 126.75803764 5.77172359 126.75121906 3.91116333 126.74311829 C2.66401802 126.7600901 2.66401802 126.7600901 1.39167786 126.77740479 C-5.24689366 126.70861902 -10.70399882 124.96449413 -15.49752808 120.22554016 C-16.18008667 119.222005 -16.18008667 119.222005 -16.87643433 118.19819641 C-17.58606323 117.19079407 -17.58606323 117.19079407 -18.31002808 116.16304016 C-20.9479702 111.71778821 -20.60056379 107.23304946 -20.61593628 102.23457336 C-20.62250748 101.31064285 -20.62907867 100.38671234 -20.635849 99.43478394 C-20.65558132 96.37284769 -20.66724537 93.31096053 -20.67721558 90.24897766 C-20.6812911 89.2025881 -20.68536663 88.15619854 -20.68956566 87.0781002 C-20.71042756 81.53813753 -20.72472796 75.99819963 -20.73410034 70.45820618 C-20.74515625 64.7429108 -20.77954663 59.02800567 -20.81927204 53.31284809 C-20.8454509 48.91268197 -20.8537934 44.51260859 -20.85738182 40.11237144 C-20.8622456 38.00610409 -20.8738536 35.89984082 -20.89241982 33.79364967 C-20.91683454 30.84005193 -20.91584163 27.88746042 -20.90890503 24.93379211 C-20.92171509 24.06959656 -20.93452515 23.205401 -20.94772339 22.3150177 C-20.8933219 15.93442164 -19.48208213 10.47362147 -14.9915514 5.73256397 C-10.02071935 1.42045601 -6.53709453 0.01163231 0 0 Z M-4.77912903 15.25227356 C-7.0191306 19.31231115 -7.13544642 22.45438791 -7.07003784 27.02656555 C-7.07719315 27.89869186 -7.08434845 28.77081818 -7.09172058 29.66937256 C-7.10859732 32.54540253 -7.08921286 35.41987164 -7.06784058 38.29585266 C-7.06866929 40.29694752 -7.07112878 42.29804231 -7.07514954 44.2991333 C-7.07800674 48.4897362 -7.06331238 52.67980439 -7.03585815 56.87031555 C-7.00175365 62.24304772 -7.00780173 67.61482514 -7.02652073 72.98760319 C-7.03708573 77.11831631 -7.02815779 81.248807 -7.01313591 85.37949944 C-7.00795146 87.36064939 -7.00843908 89.34182254 -7.01468086 91.32296944 C-7.02012786 94.09056239 -6.99977562 96.85678498 -6.97238159 99.6242218 C-6.97890747 100.44355194 -6.98543335 101.26288208 -6.99215698 102.10704041 C-6.93543092 105.47529328 -6.67732241 107.8572832 -4.94947815 110.78123474 C-1.28558169 112.94036629 2.1427263 112.71105625 6.26321411 112.56855774 C7.14208282 112.55480103 8.02095154 112.54104431 8.92645264 112.52687073 C10.83739297 112.49601691 12.74821264 112.45682977 14.65883636 112.41033363 C17.7072676 112.34190095 20.75421911 112.30798543 23.80331421 112.28503418 C32.4732321 112.21863608 41.14135433 112.1323721 49.80911255 111.92158508 C95.68799398 110.85547626 95.68799398 110.85547626 113.48527527 126.47332764 C116.47006678 129.04339595 119.67941129 131.08303455 122.99856567 133.19819641 C124.32694458 134.10891907 124.32694458 134.10891907 125.68215942 135.03804016 C127.3271447 136.35159925 127.3271447 136.35159925 128.56106567 136.26069641 C128.51506226 135.67054749 128.46905884 135.08039856 128.42166138 134.47236633 C128.22250153 131.7985731 128.04777768 129.12372601 127.87356567 126.44819641 C127.80073364 125.51942688 127.72790161 124.59065735 127.65286255 123.63374329 C127.57068481 122.29472961 127.57068481 122.29472961 127.48684692 120.92866516 C127.42924194 120.10648499 127.37163696 119.28430481 127.31228638 118.43721008 C127.56106567 116.26069641 127.56106567 116.26069641 128.82376099 114.49214172 C132.25485859 112.06009334 137.21617766 112.82470054 141.3130188 112.82124329 C142.05358521 112.80255188 142.79415161 112.78386047 143.55715942 112.76460266 C144.22932495 112.76274963 144.90149048 112.76089661 145.59402466 112.75898743 C148.62976268 111.98997398 149.66556081 110.75644952 151.56106567 108.26069641 C151.96071682 105.22539041 152.11837257 102.55208601 152.09451294 99.51655579 C152.10312851 98.63482193 152.11174408 97.75308807 152.12062073 96.84463501 C152.14331806 93.93093996 152.13653536 91.0182037 152.12747192 88.10444641 C152.1327056 86.07950046 152.13898114 84.05455696 152.14625549 82.02961731 C152.15666649 77.7860517 152.15208777 73.54282129 152.13748169 69.29927063 C152.1202874 63.85804048 152.1437937 58.41786562 152.17897129 52.97675323 C152.20091829 48.79543545 152.19951043 44.61437128 152.19120598 40.43301392 C152.19038509 38.42672569 152.19727476 36.4204191 152.21197701 34.41418457 C152.22937434 31.61040615 152.21492133 28.80853813 152.19216919 26.00483704 C152.20386139 25.17458511 152.21555359 24.34433319 152.2276001 23.48892212 C152.16592266 19.75821048 152.06280255 17.77630516 149.40844631 15.04856205 C146.07940236 12.9582608 144.27733083 12.75617262 140.37478638 12.74603271 C139.12984406 12.73330826 137.88490173 12.7205838 136.60223389 12.70747375 C135.23043632 12.7136556 133.85864062 12.72026158 132.48684692 12.72724915 C131.03610355 12.72018864 129.58536754 12.71144306 128.13464355 12.70114136 C124.2007242 12.67865342 120.26720727 12.68158532 116.33324814 12.69046283 C113.04783685 12.69557502 109.76250103 12.6882784 106.47709751 12.68099076 C98.7266994 12.66399406 90.97649819 12.66755568 83.22610474 12.6842804 C75.23191014 12.70120815 67.23826132 12.68535801 59.24412632 12.65305752 C52.37772107 12.62636534 45.51148576 12.61908437 38.64503384 12.6275726 C34.54519472 12.63250216 30.44568412 12.63028473 26.34588623 12.60978508 C22.49116514 12.59143307 18.63722965 12.59737969 14.78255081 12.62198448 C13.36882545 12.62699374 11.95504028 12.62349943 10.54136276 12.61083603 C2.51660761 12.4286473 2.51660761 12.4286473 -4.77912903 15.25227356 Z " fill="#000002" transform="translate(346.4389343261719,119.73930358886719)"/>
<path d="M0 0 C4.99045493 1.66348498 6.68582603 6.39148653 9.3125 10.75 C9.88806641 11.6575 10.46363281 12.565 11.05664062 13.5 C11.59095703 14.38171875 12.12527344 15.2634375 12.67578125 16.171875 C13.16989502 16.9772168 13.66400879 17.78255859 14.1730957 18.61230469 C15 21 15 21 14.26074219 23.65869141 C12.78853032 26.39271771 11.07407034 28.3716154 8.9375 30.625 C4.90335746 34.98084449 1.1176233 39.46882419 -2.6171875 44.08203125 C-5.20755848 47.25417407 -7.84682867 50.38043294 -10.5 53.5 C-14.62005836 58.34800649 -18.6679643 63.24846418 -22.68359375 68.18359375 C-25.73540923 71.89414849 -28.84567553 75.55346914 -31.96679688 79.20581055 C-35.57718505 83.44750599 -38.99999294 87.81354991 -42.34375 92.26953125 C-42.8903125 92.84058594 -43.436875 93.41164063 -44 94 C-47 94 -47 94 -48.65625 92.5234375 C-53.13899228 87.29990306 -57.4253165 81.95307123 -61.64379883 76.51611328 C-65.52435994 71.5387126 -69.59253776 66.74726598 -73.72290039 61.9765625 C-77.27487214 57.86747555 -80.70854921 53.68257827 -84.078125 49.421875 C-86.17343124 46.78144843 -88.30139624 44.17001977 -90.4375 41.5625 C-91.17871094 40.655 -91.91992188 39.7475 -92.68359375 38.8125 C-94.28804061 36.86443636 -95.90621189 34.92762599 -97.53515625 33 C-98.34855469 32.030625 -99.16195312 31.06125 -100 30.0625 C-100.7425 29.18722656 -101.485 28.31195313 -102.25 27.41015625 C-103.98129941 25.02575506 -104.65641667 23.87327723 -105 21 C-103.68913767 17.53972312 -101.69043488 14.43238277 -99.8125 11.25 C-99.31685547 10.36183594 -98.82121094 9.47367187 -98.31054688 8.55859375 C-97.82263672 7.71941406 -97.33472656 6.88023437 -96.83203125 6.015625 C-96.38577393 5.24508789 -95.9395166 4.47455078 -95.47973633 3.68066406 C-94.99142334 3.12604492 -94.50311035 2.57142578 -94 2 C-89.38821299 2 -86.9644767 3.51805507 -83.125 5.75 C-65.81869758 15.20002863 -45.67465775 17.20123024 -26.375 12.5 C-17.09405249 9.75812603 -8.05159263 5.36772842 0 0 Z " fill="#FD9D5B" transform="translate(258,264)"/>
<path d="M0 0 C5.10997995 2.82963059 8.33045872 6.57112765 11.3359375 11.515625 C13.36380739 18.79209932 13.51499866 25.6967494 10.4609375 32.703125 C6.9316435 38.93954792 1.67261797 41.88748559 -4.7265625 44.703125 C-12.1040944 46.30693628 -18.13111652 45.11348731 -24.6015625 41.328125 C-30.22244835 36.39932826 -33.94853878 31.59830233 -34.87890625 24.08984375 C-35.31970775 17.17678609 -33.50168019 12.01620597 -29.6015625 6.328125 C-21.3629177 -2.96725808 -11.16820469 -4.87964636 0 0 Z " fill="#010103" transform="translate(341.6015625,360.671875)"/>
<path d="M0 0 C5.16371641 2.41622956 8.10370987 5.56803514 10.8203125 10.59375 C12.43471103 16.37867806 12.02388774 21.80764869 9.7578125 27.3203125 C6.97558582 31.91464734 2.6451861 35.58962547 -2.4296875 37.28125 C-9.14719941 38.04090401 -14.21318901 37.73690874 -19.7734375 33.71484375 C-23.8344496 30.19976959 -26.22464253 27.01386859 -26.6328125 21.57421875 C-26.79483124 10.84047701 -26.79483124 10.84047701 -23.4296875 6.28125 C-16.47197122 -0.53151386 -9.81470009 -2.90338395 0 0 Z " fill="#020204" transform="translate(254.4296875,410.71875)"/>
<path d="M0 0 C0.70762985 -0.00686325 1.4152597 -0.0137265 2.14433289 -0.02079773 C4.48379571 -0.03910187 6.82259031 -0.03522375 9.16210938 -0.02954102 C10.78731505 -0.03410078 12.4125188 -0.03940573 14.03771973 -0.04542542 C17.44400872 -0.05436334 20.85006334 -0.05192538 24.25634766 -0.04199219 C28.62481879 -0.03049541 32.99248245 -0.0507207 37.36084747 -0.07990932 C40.71686961 -0.09824053 44.07269709 -0.09798519 47.42875671 -0.0922718 C49.03953688 -0.09211824 50.65032996 -0.09819131 52.26106262 -0.11056328 C54.51179942 -0.1254161 56.76102963 -0.114841 59.01171875 -0.09765625 C60.29284546 -0.09749008 61.57397217 -0.09732391 62.8939209 -0.09715271 C66.00585938 0.40405273 66.00585938 0.40405273 67.95080566 2.2440033 C69.45841697 5.33059018 68.97149173 7.16228699 68.00585938 10.40405273 C66.87583923 12.06338501 66.87583923 12.06338501 65.00585938 13.40405273 C61.97657776 13.78500366 61.97657776 13.78500366 58.21118164 13.79223633 C57.52466522 13.79749329 56.8381488 13.80275024 56.13082886 13.8081665 C53.86107641 13.82137185 51.59202523 13.81262612 49.32226562 13.80249023 C47.74429693 13.80451106 46.16632914 13.80742258 44.58836365 13.81118774 C41.280417 13.81561199 37.97271333 13.80917784 34.66479492 13.79516602 C30.42656605 13.77808786 26.18890767 13.78790564 21.95069981 13.80588341 C18.69158134 13.8167306 15.43259782 13.81327041 12.17347527 13.80550003 C10.61098094 13.80349987 9.04847432 13.80595084 7.48599434 13.81293869 C5.30031076 13.82056725 3.11554682 13.80892993 0.92993164 13.79223633 C-0.93513283 13.78865616 -0.93513283 13.78865616 -2.83787537 13.78500366 C-6.23135385 13.37542187 -7.66457409 12.87956409 -9.99414062 10.40405273 C-10.72686655 4.54224536 -10.72686655 4.54224536 -8.90393066 1.71055603 C-5.98909118 -0.28350997 -3.50194973 0.01476902 0 0 Z " fill="#000002" transform="translate(182.994140625,65.595947265625)"/>
<path d="M0 0 C4.30533763 2.43305845 6.9493667 6.5660481 8.859375 11.05078125 C9.64474119 16.66053974 9.12142644 21.31554528 5.859375 26.05078125 C1.09099599 30.75293277 -2.07735315 33.20227109 -8.890625 33.36328125 C-14.17161709 33.31274544 -17.14701567 32.74486988 -21.140625 29.05078125 C-26.0876482 23.4352414 -26.61250714 19.8109633 -26.546875 12.39453125 C-25.93144169 7.32904166 -23.97234012 4.3423427 -20.140625 1.05078125 C-13.36697271 -2.89025281 -7.12935103 -2.91529664 0 0 Z " fill="#010203" transform="translate(428.140625,166.94921875)"/>
<path d="M0 0 C4.79423295 2.62325954 8.24274556 5.71137954 10.3125 10.8125 C11.02828616 16.96640182 11.01111771 22.63443521 7.3125 27.8125 C2.93545488 32.20150426 -0.74930265 33.96078806 -6.9375 34.125 C-12.46959905 34.05922868 -15.31399716 33.20419608 -19.6875 29.8125 C-23.85250731 24.55143813 -25.06839712 20.59115654 -24.96875 13.90234375 C-24.32302704 9.10426342 -21.70259803 5.75146568 -18.1875 2.5 C-16.95 1.6646875 -16.95 1.6646875 -15.6875 0.8125 C-15.089375 0.4 -14.49125 -0.0125 -13.875 -0.4375 C-8.98639153 -2.11359433 -4.78357464 -1.54047319 0 0 Z " fill="#010202" transform="translate(474.6875,166.1875)"/>
<path d="M0 0 C4.7210664 2.82026251 8.2794839 6.07068655 10.7734375 11.05859375 C11.54883614 17.63840504 11.31531847 22.96313126 7.30859375 28.3984375 C3.15271656 32.89270672 -0.61323199 34.29061214 -6.7265625 34.55859375 C-12.0555971 34.33929191 -15.01094769 33.32784605 -19.2265625 30.05859375 C-23.80758912 24.15148047 -24.8908006 19.35268001 -24.2265625 12.05859375 C-22.4125965 6.61669576 -18.84393612 3.28026125 -14.2265625 0.05859375 C-9.45849144 -1.53076327 -4.72202224 -1.99650414 0 0 Z " fill="#010202" transform="translate(377.2265625,165.94140625)"/>
<path d="M0 0 C5.10997995 2.82963059 8.33045872 6.57112765 11.3359375 11.515625 C13.36380739 18.79209932 13.51499866 25.6967494 10.4609375 32.703125 C6.9316435 38.93954792 1.67261797 41.88748559 -4.7265625 44.703125 C-12.1040944 46.30693628 -18.13111652 45.11348731 -24.6015625 41.328125 C-30.22244835 36.39932826 -33.94853878 31.59830233 -34.87890625 24.08984375 C-35.31970775 17.17678609 -33.50168019 12.01620597 -29.6015625 6.328125 C-21.3629177 -2.96725808 -11.16820469 -4.87964636 0 0 Z M-25.98046875 11.1953125 C-28.42972338 15.58178247 -29.24508127 19.27190608 -28.6015625 24.328125 C-26.4938758 30.76211599 -23.41290292 34.36672471 -17.9140625 38.203125 C-13.24396593 39.78919553 -9.36697019 39.46126754 -4.6015625 38.328125 C0.26284273 35.89592238 2.70604519 33.01488198 5.3984375 28.328125 C6.99072398 23.55126557 7.39277404 18.86970271 5.52734375 14.1015625 C2.81703597 9.35630233 -0.28553124 5.93390555 -5.6015625 4.328125 C-13.76299849 3.04718213 -20.87341489 4.2798118 -25.98046875 11.1953125 Z " fill="#555057" transform="translate(341.6015625,360.671875)"/>
<path d="M0 0 C2 3 2 3 1.875 5.5 C0.79727556 8.57921269 -0.09025849 9.54512924 -3 11 C-6.37036311 10.75925978 -7.58798021 10.41201979 -10 8 C-10.32954432 4.90228335 -10.45334601 2.82668977 -8.9375 0.0625 C-5.78433176 -1.66665678 -3.37491745 -0.8590699 0 0 Z " fill="#534F55" transform="translate(251,424)"/>
<path d="M0 0 C2.625 0.375 2.625 0.375 5 1 C5.625 3.875 5.625 3.875 6 7 C4 9 4 9 1.5 9.3125 C0.2625 9.1578125 0.2625 9.1578125 -1 9 C-3 6 -3 6 -2.75 3.9375 C-2 2 -2 2 0 0 Z " fill="#BEBEBE" transform="translate(466,178)"/>
<path d="M0 0 C1.9375 0.75 1.9375 0.75 3.9375 2.75 C3.5625 5.375 3.5625 5.375 2.9375 7.75 C0.0625 8.375 0.0625 8.375 -3.0625 8.75 C-5.0625 6.75 -5.0625 6.75 -5.375 4.25 C-5.271875 3.425 -5.16875 2.6 -5.0625 1.75 C-2.0625 -0.25 -2.0625 -0.25 0 0 Z " fill="#BEBEBF" transform="translate(420.0625,178.25)"/>
<path d="M0 0 C2.93453261 0.36681658 3.86437246 0.86437246 6 3 C5.44444444 7.55555556 5.44444444 7.55555556 4 9 C1.5625 9.1875 1.5625 9.1875 -1 9 C-1.66 8.34 -2.32 7.68 -3 7 C-2.67028521 3.70285207 -2.3773161 2.3773161 0 0 Z " fill="#C0C0C0" transform="translate(369,178)"/>
<path d="M0 0 C2.625 0.375 2.625 0.375 5 1 C5.625 3.375 5.625 3.375 6 6 C5.34 6.66 4.68 7.32 4 8 C0.875 7.625 0.875 7.625 -2 7 C-2.125 4.625 -2.125 4.625 -2 2 C-1.34 1.34 -0.68 0.68 0 0 Z " fill="#544F56" transform="translate(329,378)"/>
</svg>
