<?xml version="1.0" encoding="UTF-8"?>
<svg version="1.1" xmlns="http://www.w3.org/2000/svg" width="512" height="512">
<path d="M0 0 C1.09933365 -0.00524185 2.1986673 -0.0104837 3.33131409 -0.0158844 C5.64673013 -0.02228259 7.96217877 -0.02099631 10.27758789 -0.01245117 C13.8021889 -0.00394058 17.32516807 -0.03273684 20.84960938 -0.06445312 C23.10807243 -0.06606545 25.36653834 -0.06548701 27.625 -0.0625 C29.19102211 -0.07935097 29.19102211 -0.07935097 30.78868103 -0.09654236 C38.77025871 -0.0212578 44.37922329 1.97924284 51.12890625 6.12109375 C56.05213545 11.18107932 59.52432467 17.76624965 59.4765625 24.8828125 C59.47333984 25.73037109 59.47011719 26.57792969 59.46679688 27.45117188 C59.45841797 28.33224609 59.45003906 29.21332031 59.44140625 30.12109375 C59.43689453 31.01376953 59.43238281 31.90644531 59.42773438 32.82617188 C59.41595608 35.02871362 59.39950789 37.23111974 59.37890625 39.43359375 C60.54873047 39.4178833 61.71855469 39.40217285 62.92382812 39.38598633 C67.2922468 39.33140664 71.66063572 39.29714222 76.02929688 39.26879883 C77.91476522 39.25377582 79.800199 39.23335144 81.68554688 39.20727539 C84.40633715 39.17060512 87.12666266 39.15380229 89.84765625 39.140625 C90.68131714 39.12514114 91.51497803 39.10965729 92.37390137 39.09370422 C98.99088748 39.09183055 104.83321413 40.01844995 109.81640625 44.74609375 C111.53956788 47.70993175 111.90091041 50.06905995 112.37890625 53.43359375 C113.6949585 53.42312012 115.01101074 53.41264648 116.36694336 53.40185547 C121.28146613 53.36546863 126.19597714 53.34262558 131.1105957 53.32373047 C133.23170987 53.31371531 135.35281038 53.30009929 137.47387695 53.28271484 C140.53470241 53.2582685 143.59534422 53.2470655 146.65625 53.23828125 C147.5941185 53.22795868 148.531987 53.21763611 149.49827576 53.20700073 C158.89387233 53.20542416 167.96567318 54.31331211 175.0390625 61.00390625 C180.44103597 66.92351354 182.75777328 72.59550096 182.7396698 80.61534119 C182.74223307 81.3032754 182.74479635 81.99120962 182.7474373 82.69999033 C182.75234665 84.9863548 182.73593044 87.27204683 182.71948242 89.55834961 C182.71863553 91.20468124 182.71911251 92.851014 182.72080994 94.49734497 C182.72166889 98.95349985 182.70405937 103.40941132 182.68308806 107.86550975 C182.66430456 112.52731634 182.6625695 117.18912882 182.65901184 121.85096741 C182.6496963 130.67290542 182.62508914 139.49473159 182.59496337 148.31662041 C182.56140411 158.36252504 182.54492951 168.40843507 182.52987707 178.45438182 C182.49853916 199.1141815 182.44578818 219.77388057 182.37890625 240.43359375 C183.03890625 240.43359375 183.69890625 240.43359375 184.37890625 240.43359375 C184.3317749 239.56408081 184.3317749 239.56408081 184.28369141 238.67700195 C184.15846472 236.03376783 184.08078699 233.39115742 184.00390625 230.74609375 C183.95363281 229.83408203 183.90335937 228.92207031 183.8515625 227.98242188 C183.74981564 223.31902419 183.86731712 221.12227143 186.71484375 217.2890625 C189.78839087 215.16974919 192.44124884 215.23695701 196.10791016 215.31762695 C197.58972275 215.34274101 197.58972275 215.34274101 199.10147095 215.36836243 C199.8530246 215.38988876 200.60457825 215.4114151 201.37890625 215.43359375 C201.37446503 214.62371002 201.3700238 213.81382629 201.365448 212.97940063 C201.32541874 205.35706778 201.2949461 197.73478569 201.27528191 190.11237526 C201.2648326 186.19336091 201.25065263 182.27443322 201.22802734 178.35546875 C201.20633964 174.57536336 201.19434627 170.79534147 201.18915176 167.01517868 C201.18544866 165.57103536 201.17821765 164.12689675 201.16744614 162.68278885 C201.15298608 160.66438481 201.1520898 158.64589723 201.15185547 156.62744141 C201.14741425 155.47716461 201.14297302 154.32688782 201.13839722 153.14175415 C201.37890625 150.43359375 201.37890625 150.43359375 203.37890625 148.43359375 C205.87890625 148.18359375 205.87890625 148.18359375 208.37890625 148.43359375 C210.37890625 150.43359375 210.37890625 150.43359375 210.61941528 153.14175415 C210.61497406 154.29203094 210.61053284 155.44230774 210.60595703 156.62744141 C210.60580597 157.92863922 210.60565491 159.22983704 210.60549927 160.57046509 C210.59528518 161.99619702 210.58485317 163.4219274 210.57421875 164.84765625 C210.5704892 166.30211188 210.56764195 167.75657002 210.56564331 169.21102905 C210.55800225 173.04157431 210.53834982 176.87196821 210.51623535 180.70245361 C210.49578703 184.61020866 210.48664377 188.51798814 210.4765625 192.42578125 C210.45510427 200.09512113 210.42096276 207.76433624 210.37890625 215.43359375 C211.1304599 215.41206741 211.88201355 215.39054108 212.65634155 215.36836243 C214.13815414 215.34324837 214.13815414 215.34324837 215.64990234 215.31762695 C217.11754532 215.28533745 217.11754532 215.28533745 218.61483765 215.25239563 C221.38630141 215.43407854 222.78034786 215.72890989 225.04296875 217.2890625 C228.37555585 221.77523745 228.05325848 225.31553729 227.75390625 230.74609375 C227.72683594 231.67744141 227.69976562 232.60878906 227.671875 233.56835938 C227.60138875 235.85916247 227.50294871 238.14516938 227.37890625 240.43359375 C228.61125 240.40007812 229.84359375 240.3665625 231.11328125 240.33203125 C236.02687251 240.33852498 239.38889256 241.54945969 243.37890625 244.43359375 C248.01573298 250.14045742 248.52827015 254.65376222 248.51934814 261.79039001 C248.52380483 262.90503461 248.52380483 262.90503461 248.52835155 264.04219729 C248.53702624 266.53326988 248.53854574 269.02429436 248.54003906 271.51538086 C248.544668 273.30093997 248.54969277 275.08649809 248.55508423 276.87205505 C248.56820048 281.72323849 248.57465135 286.57440809 248.57909489 291.42560649 C248.58202607 294.45558467 248.58613091 297.48555907 248.59059906 300.51553535 C248.6042702 309.9934293 248.61393948 319.47131461 248.61780095 328.94921774 C248.62228484 339.89479011 248.63984968 350.84023781 248.66880155 361.78577226 C248.6904002 370.24446238 248.70050421 378.70311737 248.70184207 387.16183478 C248.70289114 392.21512079 248.708821 397.26828954 248.72666168 402.32154655 C248.74311159 407.07314893 248.74531289 411.82454549 248.73652267 416.57616615 C248.73575072 418.3204745 248.74011581 420.06479378 248.74998093 421.8090744 C248.76265539 424.18956736 248.75684862 426.5693263 248.74639893 428.94981384 C248.75848353 429.9861037 248.75848353 429.9861037 248.77081227 431.0433287 C248.7265929 435.34771675 247.94724574 437.97902624 245.37890625 441.43359375 C242.41423068 444.26901811 240.45532882 444.80084538 236.39453125 444.7265625 C235.55180664 444.71906982 234.70908203 444.71157715 233.84082031 444.70385742 C232.78088867 444.67654541 231.72095703 444.6492334 230.62890625 444.62109375 C227.24640625 444.55921875 223.86390625 444.49734375 220.37890625 444.43359375 C220.37890625 453.34359375 220.37890625 462.25359375 220.37890625 471.43359375 C227.39491106 471.23646168 227.39491106 471.23646168 234.40893555 470.9831543 C241.63342113 470.88073088 241.63342113 470.88073088 245.5234375 473.765625 C249.46488142 479.43300647 248.84539498 485.77180732 248.37890625 492.43359375 C246.86096288 496.69829179 246.12986944 497.93295163 242.37890625 500.43359375 C239.28042603 500.70774841 239.28042603 500.70774841 235.41650391 500.73999023 C234.71208664 500.74831375 234.00766937 500.75663727 233.28190613 500.76521301 C230.95220418 500.78931693 228.62278219 500.7980855 226.29296875 500.8046875 C224.6725557 500.81365366 223.05214351 500.82277551 221.43173218 500.83204651 C218.03389473 500.84854018 214.63615587 500.85623727 211.23828125 500.85913086 C206.88785089 500.86451468 202.53834908 500.90219196 198.18818092 500.94787502 C194.84067415 500.97764309 191.49339103 500.98485435 188.1457634 500.98585701 C186.54218671 500.99005999 184.9386094 501.00249757 183.33516312 501.02337456 C181.0894504 501.05028577 178.84589021 501.04546676 176.60009766 501.03295898 C174.68506943 501.04056496 174.68506943 501.04056496 172.73135376 501.04832458 C168.48745902 500.27013106 167.03288133 498.7649791 164.37890625 495.43359375 C162.30615083 489.21532749 162.50721458 481.88263224 164.69140625 475.74609375 C166.37890625 473.43359375 166.37890625 473.43359375 169.37890625 471.43359375 C171.73901367 471.20654297 171.73901367 471.20654297 174.484375 471.23828125 C175.37020264 471.24327637 176.25603027 471.24827148 177.16870117 471.25341797 C178.28994385 471.27162598 179.41118652 471.28983398 180.56640625 471.30859375 C184.13453125 471.34984375 187.70265625 471.39109375 191.37890625 471.43359375 C191.37890625 462.52359375 191.37890625 453.61359375 191.37890625 444.43359375 C188.40890625 444.43359375 185.43890625 444.43359375 182.37890625 444.43359375 C182.29640625 445.62984375 182.21390625 446.82609375 182.12890625 448.05859375 C181.28426034 454.71018033 177.28655545 459.09660144 172.37890625 463.43359375 C167.06138512 467.00256063 162.66957512 468.55501796 156.30752373 468.56781483 C155.27812483 468.57227267 154.24872593 468.57673051 153.18813312 468.58132344 C152.05877594 468.58113908 150.92941875 468.58095472 149.76583862 468.58076477 C148.56482864 468.58444146 147.36381865 468.58811815 146.12641442 468.59190625 C142.7912799 468.60102552 139.45619457 468.60564112 136.12105227 468.60829556 C132.52443459 468.61220215 128.92783113 468.62178025 125.33122253 468.63050842 C116.64459787 468.65026291 107.95797205 468.6603378 99.27133054 468.66923621 C95.17924975 468.67362082 91.08717025 468.67898719 86.99509048 468.68422508 C73.38967342 468.70123642 59.78425716 468.71573018 46.1788311 468.72297382 C42.64884312 468.72488367 39.11885514 468.72680401 35.58886719 468.72875977 C34.71152094 468.72924351 33.83417469 468.72972725 32.9302422 468.73022565 C18.7205534 468.73852443 4.51094884 468.76385919 -9.69870318 468.79634044 C-24.29185994 468.82942601 -38.88497391 468.84742394 -53.47816837 468.85061806 C-61.66991771 468.85278179 -69.86154423 468.8615102 -78.05325699 468.88707924 C-85.03028594 468.90880673 -92.00716223 468.91682662 -98.98422118 468.90711246 C-102.54197534 468.90257363 -106.09941467 468.90442918 -109.65712547 468.9238739 C-113.5202549 468.94480488 -117.38295286 468.93450128 -121.24612427 468.92134094 C-122.92008355 468.93779481 -122.92008355 468.93779481 -124.62786019 468.95458108 C-133.17686585 468.88438499 -139.73568634 466.92611926 -146.93359375 462.30859375 C-153.10709973 455.70437805 -155.74253244 448.12503652 -155.75252151 439.22214317 C-155.75636266 437.9384564 -155.7602038 436.65476962 -155.76416135 435.33218324 C-155.7633811 433.90451005 -155.76250231 432.4768369 -155.76153564 431.04916382 C-155.76411923 429.53491122 -155.76713237 428.0206593 -155.77053905 426.50640833 C-155.77861325 422.33896929 -155.78039885 418.17154746 -155.78113651 414.00410151 C-155.78298636 409.51177301 -155.79053341 405.01945346 -155.79727173 400.52713013 C-155.81085908 390.70056389 -155.81688054 380.87400173 -155.82128239 371.04742765 C-155.82404442 364.91178138 -155.82828173 358.77613669 -155.83278656 352.64049149 C-155.84498029 335.65348344 -155.85527905 318.66647667 -155.85866165 301.67946434 C-155.85888122 300.5920395 -155.85910078 299.50461467 -155.859327 298.38423757 C-155.85954528 297.2942037 -155.85976356 296.20416983 -155.85998845 295.08110464 C-155.86043192 292.87226637 -155.86087848 290.66342811 -155.86132812 288.45458984 C-155.86154955 287.35892872 -155.86177098 286.26326759 -155.86199912 285.13440461 C-155.86594637 267.38431394 -155.8833977 249.63426434 -155.90668765 231.88418953 C-155.9304048 213.661433 -155.94286369 195.43869707 -155.94402957 177.21592486 C-155.94494618 166.98417145 -155.95069496 156.75247155 -155.96884918 146.52073288 C-155.98425514 137.80715944 -155.98936773 129.09365603 -155.98111108 120.38007157 C-155.9772062 115.93531729 -155.97812625 111.490704 -155.99216843 107.0459671 C-156.00491709 102.97335703 -156.0037014 98.90099377 -155.99157771 94.828384 C-155.98962237 93.35861564 -155.99269162 91.88882975 -156.00142208 90.41908602 C-156.06436221 79.10271223 -155.57008452 69.52880088 -147.43359375 61.12109375 C-139.17026724 53.42765182 -129.62719711 53.11846182 -118.80078125 53.23828125 C-117.8161087 53.24111115 -116.83143616 53.24394104 -115.81692505 53.24685669 C-112.70985114 53.2579418 -109.60307871 53.28302384 -106.49609375 53.30859375 C-104.37370212 53.31863866 -102.25130591 53.32776185 -100.12890625 53.3359375 C-94.95952144 53.35784276 -89.79035849 53.39229047 -84.62109375 53.43359375 C-84.48960938 52.49902344 -84.358125 51.56445312 -84.22265625 50.6015625 C-83.48844313 46.73502458 -82.43298777 45.17149056 -79.62109375 42.43359375 C-73.93888869 39.39910583 -69.3411806 39.02598545 -62.96875 39.140625 C-61.61855019 39.14699226 -61.61855019 39.14699226 -60.24107361 39.15348816 C-57.38826589 39.17017559 -54.53618512 39.20780878 -51.68359375 39.24609375 C-49.74024463 39.26115345 -47.79688436 39.2748396 -45.85351562 39.28710938 C-41.10909826 39.32004649 -36.36521892 39.37175935 -31.62109375 39.43359375 C-31.63189468 38.85850067 -31.64269562 38.28340759 -31.65382385 37.69088745 C-31.69695277 35.06090018 -31.72360882 32.43098759 -31.75 29.80078125 C-31.76728149 28.89610107 -31.78456299 27.9914209 -31.80236816 27.05932617 C-31.86258994 19.05530436 -30.38082503 13.67697978 -25.01171875 7.6171875 C-17.75128793 0.70645632 -9.58657676 -0.02690409 0 0 Z M3.94140625 30.24609375 C3.05378789 33.69794291 3.41737672 36.00814481 4.37890625 39.43359375 C7.44428757 42.86390142 9.33605979 44.24737117 13.87890625 45.05859375 C18.58230183 44.21870168 20.12428966 42.92068295 23.37890625 39.43359375 C24.94064792 35.94264179 24.39982439 34.50099664 23.25390625 30.80859375 C21.24737059 27.19682956 20.16427854 25.96576825 16.37890625 24.43359375 C11.10679302 23.48731702 7.17659764 26.16693939 3.94140625 30.24609375 Z " fill="#DEEAFB" transform="translate(209.62109375,5.56640625)"/>
<path d="M0 0 C1.09933365 -0.00524185 2.1986673 -0.0104837 3.33131409 -0.0158844 C5.64673013 -0.02228259 7.96217877 -0.02099631 10.27758789 -0.01245117 C13.8021889 -0.00394058 17.32516807 -0.03273684 20.84960938 -0.06445312 C23.10807243 -0.06606545 25.36653834 -0.06548701 27.625 -0.0625 C29.19102211 -0.07935097 29.19102211 -0.07935097 30.78868103 -0.09654236 C38.77025871 -0.0212578 44.37922329 1.97924284 51.12890625 6.12109375 C56.05213545 11.18107932 59.52432467 17.76624965 59.4765625 24.8828125 C59.47333984 25.73037109 59.47011719 26.57792969 59.46679688 27.45117188 C59.45841797 28.33224609 59.45003906 29.21332031 59.44140625 30.12109375 C59.43689453 31.01376953 59.43238281 31.90644531 59.42773438 32.82617188 C59.41595608 35.02871362 59.39950789 37.23111974 59.37890625 39.43359375 C60.54873047 39.4178833 61.71855469 39.40217285 62.92382812 39.38598633 C67.2922468 39.33140664 71.66063572 39.29714222 76.02929688 39.26879883 C77.91476522 39.25377582 79.800199 39.23335144 81.68554688 39.20727539 C84.40633715 39.17060512 87.12666266 39.15380229 89.84765625 39.140625 C90.68131714 39.12514114 91.51497803 39.10965729 92.37390137 39.09370422 C98.99088748 39.09183055 104.83321413 40.01844995 109.81640625 44.74609375 C111.53956788 47.70993175 111.90091041 50.06905995 112.37890625 53.43359375 C113.6949585 53.42312012 115.01101074 53.41264648 116.36694336 53.40185547 C121.28146613 53.36546863 126.19597714 53.34262558 131.1105957 53.32373047 C133.23170987 53.31371531 135.35281038 53.30009929 137.47387695 53.28271484 C140.53470241 53.2582685 143.59534422 53.2470655 146.65625 53.23828125 C147.5941185 53.22795868 148.531987 53.21763611 149.49827576 53.20700073 C158.89387233 53.20542416 167.96567318 54.31331211 175.0390625 61.00390625 C180.44103597 66.92351354 182.75777328 72.59550096 182.7396698 80.61534119 C182.74223307 81.3032754 182.74479635 81.99120962 182.7474373 82.69999033 C182.75234665 84.9863548 182.73593044 87.27204683 182.71948242 89.55834961 C182.71863553 91.20468124 182.71911251 92.851014 182.72080994 94.49734497 C182.72166889 98.95349985 182.70405937 103.40941132 182.68308806 107.86550975 C182.66430456 112.52731634 182.6625695 117.18912882 182.65901184 121.85096741 C182.6496963 130.67290542 182.62508914 139.49473159 182.59496337 148.31662041 C182.56140411 158.36252504 182.54492951 168.40843507 182.52987707 178.45438182 C182.49853916 199.1141815 182.44578818 219.77388057 182.37890625 240.43359375 C183.03890625 240.43359375 183.69890625 240.43359375 184.37890625 240.43359375 C184.3317749 239.56408081 184.3317749 239.56408081 184.28369141 238.67700195 C184.15846472 236.03376783 184.08078699 233.39115742 184.00390625 230.74609375 C183.95363281 229.83408203 183.90335937 228.92207031 183.8515625 227.98242188 C183.74981564 223.31902419 183.86731712 221.12227143 186.71484375 217.2890625 C189.78839087 215.16974919 192.44124884 215.23695701 196.10791016 215.31762695 C197.58972275 215.34274101 197.58972275 215.34274101 199.10147095 215.36836243 C199.8530246 215.38988876 200.60457825 215.4114151 201.37890625 215.43359375 C201.37446503 214.62371002 201.3700238 213.81382629 201.365448 212.97940063 C201.32541874 205.35706778 201.2949461 197.73478569 201.27528191 190.11237526 C201.2648326 186.19336091 201.25065263 182.27443322 201.22802734 178.35546875 C201.20633964 174.57536336 201.19434627 170.79534147 201.18915176 167.01517868 C201.18544866 165.57103536 201.17821765 164.12689675 201.16744614 162.68278885 C201.15298608 160.66438481 201.1520898 158.64589723 201.15185547 156.62744141 C201.14741425 155.47716461 201.14297302 154.32688782 201.13839722 153.14175415 C201.37890625 150.43359375 201.37890625 150.43359375 203.37890625 148.43359375 C205.87890625 148.18359375 205.87890625 148.18359375 208.37890625 148.43359375 C210.37890625 150.43359375 210.37890625 150.43359375 210.61941528 153.14175415 C210.61497406 154.29203094 210.61053284 155.44230774 210.60595703 156.62744141 C210.60580597 157.92863922 210.60565491 159.22983704 210.60549927 160.57046509 C210.59528518 161.99619702 210.58485317 163.4219274 210.57421875 164.84765625 C210.5704892 166.30211188 210.56764195 167.75657002 210.56564331 169.21102905 C210.55800225 173.04157431 210.53834982 176.87196821 210.51623535 180.70245361 C210.49578703 184.61020866 210.48664377 188.51798814 210.4765625 192.42578125 C210.45510427 200.09512113 210.42096276 207.76433624 210.37890625 215.43359375 C211.1304599 215.41206741 211.88201355 215.39054108 212.65634155 215.36836243 C214.13815414 215.34324837 214.13815414 215.34324837 215.64990234 215.31762695 C217.11754532 215.28533745 217.11754532 215.28533745 218.61483765 215.25239563 C221.38630141 215.43407854 222.78034786 215.72890989 225.04296875 217.2890625 C228.37555585 221.77523745 228.05325848 225.31553729 227.75390625 230.74609375 C227.72683594 231.67744141 227.69976562 232.60878906 227.671875 233.56835938 C227.60138875 235.85916247 227.50294871 238.14516938 227.37890625 240.43359375 C228.61125 240.40007812 229.84359375 240.3665625 231.11328125 240.33203125 C236.02687251 240.33852498 239.38889256 241.54945969 243.37890625 244.43359375 C248.01573298 250.14045742 248.52827015 254.65376222 248.51934814 261.79039001 C248.52380483 262.90503461 248.52380483 262.90503461 248.52835155 264.04219729 C248.53702624 266.53326988 248.53854574 269.02429436 248.54003906 271.51538086 C248.544668 273.30093997 248.54969277 275.08649809 248.55508423 276.87205505 C248.56820048 281.72323849 248.57465135 286.57440809 248.57909489 291.42560649 C248.58202607 294.45558467 248.58613091 297.48555907 248.59059906 300.51553535 C248.6042702 309.9934293 248.61393948 319.47131461 248.61780095 328.94921774 C248.62228484 339.89479011 248.63984968 350.84023781 248.66880155 361.78577226 C248.6904002 370.24446238 248.70050421 378.70311737 248.70184207 387.16183478 C248.70289114 392.21512079 248.708821 397.26828954 248.72666168 402.32154655 C248.74311159 407.07314893 248.74531289 411.82454549 248.73652267 416.57616615 C248.73575072 418.3204745 248.74011581 420.06479378 248.74998093 421.8090744 C248.76265539 424.18956736 248.75684862 426.5693263 248.74639893 428.94981384 C248.75848353 429.9861037 248.75848353 429.9861037 248.77081227 431.0433287 C248.7265929 435.34771675 247.94724574 437.97902624 245.37890625 441.43359375 C242.41423068 444.26901811 240.45532882 444.80084538 236.39453125 444.7265625 C235.55180664 444.71906982 234.70908203 444.71157715 233.84082031 444.70385742 C232.78088867 444.67654541 231.72095703 444.6492334 230.62890625 444.62109375 C227.24640625 444.55921875 223.86390625 444.49734375 220.37890625 444.43359375 C220.37890625 453.34359375 220.37890625 462.25359375 220.37890625 471.43359375 C227.39491106 471.23646168 227.39491106 471.23646168 234.40893555 470.9831543 C241.63342113 470.88073088 241.63342113 470.88073088 245.5234375 473.765625 C249.46488142 479.43300647 248.84539498 485.77180732 248.37890625 492.43359375 C246.86096288 496.69829179 246.12986944 497.93295163 242.37890625 500.43359375 C239.28042603 500.70774841 239.28042603 500.70774841 235.41650391 500.73999023 C234.71208664 500.74831375 234.00766937 500.75663727 233.28190613 500.76521301 C230.95220418 500.78931693 228.62278219 500.7980855 226.29296875 500.8046875 C224.6725557 500.81365366 223.05214351 500.82277551 221.43173218 500.83204651 C218.03389473 500.84854018 214.63615587 500.85623727 211.23828125 500.85913086 C206.88785089 500.86451468 202.53834908 500.90219196 198.18818092 500.94787502 C194.84067415 500.97764309 191.49339103 500.98485435 188.1457634 500.98585701 C186.54218671 500.99005999 184.9386094 501.00249757 183.33516312 501.02337456 C181.0894504 501.05028577 178.84589021 501.04546676 176.60009766 501.03295898 C174.68506943 501.04056496 174.68506943 501.04056496 172.73135376 501.04832458 C168.48745902 500.27013106 167.03288133 498.7649791 164.37890625 495.43359375 C162.30615083 489.21532749 162.50721458 481.88263224 164.69140625 475.74609375 C166.37890625 473.43359375 166.37890625 473.43359375 169.37890625 471.43359375 C171.73901367 471.20654297 171.73901367 471.20654297 174.484375 471.23828125 C175.37020264 471.24327637 176.25603027 471.24827148 177.16870117 471.25341797 C178.28994385 471.27162598 179.41118652 471.28983398 180.56640625 471.30859375 C184.13453125 471.34984375 187.70265625 471.39109375 191.37890625 471.43359375 C191.37890625 462.52359375 191.37890625 453.61359375 191.37890625 444.43359375 C188.40890625 444.43359375 185.43890625 444.43359375 182.37890625 444.43359375 C182.29640625 445.62984375 182.21390625 446.82609375 182.12890625 448.05859375 C181.28426034 454.71018033 177.28655545 459.09660144 172.37890625 463.43359375 C167.06138512 467.00256063 162.66957512 468.55501796 156.30752373 468.56781483 C155.27812483 468.57227267 154.24872593 468.57673051 153.18813312 468.58132344 C152.05877594 468.58113908 150.92941875 468.58095472 149.76583862 468.58076477 C148.56482864 468.58444146 147.36381865 468.58811815 146.12641442 468.59190625 C142.7912799 468.60102552 139.45619457 468.60564112 136.12105227 468.60829556 C132.52443459 468.61220215 128.92783113 468.62178025 125.33122253 468.63050842 C116.64459787 468.65026291 107.95797205 468.6603378 99.27133054 468.66923621 C95.17924975 468.67362082 91.08717025 468.67898719 86.99509048 468.68422508 C73.38967342 468.70123642 59.78425716 468.71573018 46.1788311 468.72297382 C42.64884312 468.72488367 39.11885514 468.72680401 35.58886719 468.72875977 C34.71152094 468.72924351 33.83417469 468.72972725 32.9302422 468.73022565 C18.7205534 468.73852443 4.51094884 468.76385919 -9.69870318 468.79634044 C-24.29185994 468.82942601 -38.88497391 468.84742394 -53.47816837 468.85061806 C-61.66991771 468.85278179 -69.86154423 468.8615102 -78.05325699 468.88707924 C-85.03028594 468.90880673 -92.00716223 468.91682662 -98.98422118 468.90711246 C-102.54197534 468.90257363 -106.09941467 468.90442918 -109.65712547 468.9238739 C-113.5202549 468.94480488 -117.38295286 468.93450128 -121.24612427 468.92134094 C-122.92008355 468.93779481 -122.92008355 468.93779481 -124.62786019 468.95458108 C-133.17686585 468.88438499 -139.73568634 466.92611926 -146.93359375 462.30859375 C-153.10709973 455.70437805 -155.74253244 448.12503652 -155.75252151 439.22214317 C-155.75636266 437.9384564 -155.7602038 436.65476962 -155.76416135 435.33218324 C-155.7633811 433.90451005 -155.76250231 432.4768369 -155.76153564 431.04916382 C-155.76411923 429.53491122 -155.76713237 428.0206593 -155.77053905 426.50640833 C-155.77861325 422.33896929 -155.78039885 418.17154746 -155.78113651 414.00410151 C-155.78298636 409.51177301 -155.79053341 405.01945346 -155.79727173 400.52713013 C-155.81085908 390.70056389 -155.81688054 380.87400173 -155.82128239 371.04742765 C-155.82404442 364.91178138 -155.82828173 358.77613669 -155.83278656 352.64049149 C-155.84498029 335.65348344 -155.85527905 318.66647667 -155.85866165 301.67946434 C-155.85888122 300.5920395 -155.85910078 299.50461467 -155.859327 298.38423757 C-155.85954528 297.2942037 -155.85976356 296.20416983 -155.85998845 295.08110464 C-155.86043192 292.87226637 -155.86087848 290.66342811 -155.86132812 288.45458984 C-155.86154955 287.35892872 -155.86177098 286.26326759 -155.86199912 285.13440461 C-155.86594637 267.38431394 -155.8833977 249.63426434 -155.90668765 231.88418953 C-155.9304048 213.661433 -155.94286369 195.43869707 -155.94402957 177.21592486 C-155.94494618 166.98417145 -155.95069496 156.75247155 -155.96884918 146.52073288 C-155.98425514 137.80715944 -155.98936773 129.09365603 -155.98111108 120.38007157 C-155.9772062 115.93531729 -155.97812625 111.490704 -155.99216843 107.0459671 C-156.00491709 102.97335703 -156.0037014 98.90099377 -155.99157771 94.828384 C-155.98962237 93.35861564 -155.99269162 91.88882975 -156.00142208 90.41908602 C-156.06436221 79.10271223 -155.57008452 69.52880088 -147.43359375 61.12109375 C-139.17026724 53.42765182 -129.62719711 53.11846182 -118.80078125 53.23828125 C-117.8161087 53.24111115 -116.83143616 53.24394104 -115.81692505 53.24685669 C-112.70985114 53.2579418 -109.60307871 53.28302384 -106.49609375 53.30859375 C-104.37370212 53.31863866 -102.25130591 53.32776185 -100.12890625 53.3359375 C-94.95952144 53.35784276 -89.79035849 53.39229047 -84.62109375 53.43359375 C-84.48960938 52.49902344 -84.358125 51.56445312 -84.22265625 50.6015625 C-83.48844313 46.73502458 -82.43298777 45.17149056 -79.62109375 42.43359375 C-73.93888869 39.39910583 -69.3411806 39.02598545 -62.96875 39.140625 C-61.61855019 39.14699226 -61.61855019 39.14699226 -60.24107361 39.15348816 C-57.38826589 39.17017559 -54.53618512 39.20780878 -51.68359375 39.24609375 C-49.74024463 39.26115345 -47.79688436 39.2748396 -45.85351562 39.28710938 C-41.10909826 39.32004649 -36.36521892 39.37175935 -31.62109375 39.43359375 C-31.63189468 38.85850067 -31.64269562 38.28340759 -31.65382385 37.69088745 C-31.69695277 35.06090018 -31.72360882 32.43098759 -31.75 29.80078125 C-31.76728149 28.89610107 -31.78456299 27.9914209 -31.80236816 27.05932617 C-31.86258994 19.05530436 -30.38082503 13.67697978 -25.01171875 7.6171875 C-17.75128793 0.70645632 -9.58657676 -0.02690409 0 0 Z M3.94140625 30.24609375 C3.05378789 33.69794291 3.41737672 36.00814481 4.37890625 39.43359375 C7.44428757 42.86390142 9.33605979 44.24737117 13.87890625 45.05859375 C18.58230183 44.21870168 20.12428966 42.92068295 23.37890625 39.43359375 C24.94064792 35.94264179 24.39982439 34.50099664 23.25390625 30.80859375 C21.24737059 27.19682956 20.16427854 25.96576825 16.37890625 24.43359375 C11.10679302 23.48731702 7.17659764 26.16693939 3.94140625 30.24609375 Z M-117.62109375 97.43359375 C-118.21723791 100.07372454 -118.21723791 100.07372454 -118.12445831 103.021492 C-118.1348893 104.16605976 -118.14532029 105.31062751 -118.15606737 106.48987913 C-118.14714448 107.74783938 -118.1382216 109.00579963 -118.12902832 110.30187988 C-118.13363624 111.65129791 -118.13998842 113.00071091 -118.1479373 114.35011339 C-118.16466917 118.06180434 -118.15636704 121.77308507 -118.14399242 125.48477769 C-118.1349599 129.48621319 -118.14890269 133.48757704 -118.15991211 137.48899841 C-118.17772122 145.32918451 -118.17384674 153.16921764 -118.16226155 161.00940979 C-118.15323688 167.37990761 -118.15199903 173.75036249 -118.15635681 180.12086487 C-118.15696974 181.02671114 -118.15758268 181.93255742 -118.15821418 182.86585358 C-118.15949305 184.70592353 -118.1607899 186.54599347 -118.16210455 188.3860634 C-118.17351735 205.65023885 -118.16038567 222.91432941 -118.13890308 240.17849094 C-118.12103146 254.99973309 -118.12413537 269.82084995 -118.14257812 284.64208984 C-118.16397249 301.84346249 -118.17241865 319.04476068 -118.16012907 336.24614477 C-118.15885484 338.07953738 -118.15759736 339.91293 -118.15635681 341.74632263 C-118.15573971 342.64844389 -118.15512261 343.55056515 -118.15448681 344.48002341 C-118.1510296 350.84465635 -118.15687022 357.20924216 -118.16627502 363.5738678 C-118.17748048 371.327693 -118.17448569 379.08135618 -118.15315205 386.83516276 C-118.14262193 390.79314763 -118.13855292 394.75086212 -118.15174866 398.70884514 C-118.16363822 402.32974546 -118.15716767 405.95012393 -118.13583845 409.57097667 C-118.1292294 411.50642103 -118.14233926 413.44190141 -118.15606737 415.37730837 C-118.14563638 416.52187612 -118.13520539 417.66644387 -118.12445831 418.8456955 C-118.1238089 419.83535671 -118.12315949 420.82501792 -118.12249041 421.84466887 C-117.46978677 425.21485624 -116.34672419 426.39329735 -113.62109375 428.43359375 C-111.47920228 429.02509823 -111.47920228 429.02509823 -109.15764618 428.93975163 C-108.26388291 428.95079931 -107.37011964 428.961847 -106.44927263 428.97322947 C-105.47146066 428.9649887 -104.49364869 428.95674793 -103.48620605 428.94825745 C-101.92335412 428.95867574 -101.92335412 428.95867574 -100.32892942 428.9693045 C-96.82649245 428.98764767 -93.32472721 428.97728951 -89.82226562 428.96704102 C-87.31587718 428.97409572 -84.80949301 428.98283883 -82.30311584 428.9931488 C-76.19547208 429.01335775 -70.08807792 429.01465799 -63.98041356 429.00652326 C-59.0172331 429.00022688 -54.054107 429.00135694 -49.09092712 429.00779533 C-48.38490686 429.00869699 -47.67888659 429.00959864 -46.95147178 429.01052762 C-45.51726582 429.01237879 -44.08305988 429.01424135 -42.64885396 429.01611518 C-29.19600329 429.03269904 -15.74325746 429.0239693 -2.29041308 429.0071296 C10.02222179 428.99243011 22.33461269 429.00706339 34.64721614 429.03589977 C47.28544744 429.06527872 59.92356608 429.07627059 72.56183004 429.06671757 C73.99079988 429.065695 75.41976974 429.06470039 76.84873962 429.06373405 C77.55184494 429.06325766 78.25495026 429.06278127 78.9793618 429.06229045 C83.93738014 429.06012443 88.89529203 429.06994025 93.85328674 429.08450508 C100.524792 429.10382998 107.19577061 429.09697418 113.86728096 429.07230568 C116.31991407 429.06727964 118.77258151 429.0708336 121.2251873 429.08345413 C124.5653275 429.09928591 127.90395125 429.08452562 131.24401855 429.06178284 C132.22183053 429.07361857 133.1996425 429.08545429 134.20708513 429.09764868 C135.1008484 429.08522664 135.99461167 429.0728046 136.91545868 429.06000614 C138.07187213 429.05960161 138.07187213 429.05960161 139.25164747 429.0591889 C142.53496808 428.09361317 143.60468405 426.28503968 145.37890625 423.43359375 C145.97182671 420.69597663 145.97182671 420.69597663 145.88506413 417.73826504 C145.89611181 416.59518963 145.9071595 415.45211423 145.91854197 414.27440017 C145.9103012 413.02324372 145.90206043 411.77208726 145.89356995 410.48301697 C145.89889555 409.1368598 145.90596133 407.79070857 145.914617 406.44456869 C145.93326937 402.74654719 145.92693069 399.04892545 145.91646397 395.35088718 C145.90947937 391.36241391 145.92546412 387.37402337 145.9384613 383.38557434 C145.96011795 375.5729381 145.95997034 367.76044743 145.95183576 359.94779103 C145.94554 353.59972217 145.94666889 347.2516958 145.95310783 340.9036274 C145.95446032 339.54922426 145.95446032 339.54922426 145.95584012 338.16745945 C145.95769129 336.33326803 145.95955385 334.49907662 145.96142768 332.66488523 C145.97801153 315.46032096 145.96928151 298.25583866 145.9524421 281.05127931 C145.93774003 265.30176926 145.95237962 249.55244988 145.98121227 233.80296438 C146.01058374 217.63906855 146.02158542 201.4752608 146.01203007 185.31133944 C146.01100749 183.48414109 146.01001288 181.65694272 146.00904655 179.82974434 C146.00833197 178.4811511 146.00833197 178.4811511 146.00760295 177.10531355 C146.00543609 170.76269467 146.01525715 164.42015894 146.02981758 158.07755852 C146.04730703 150.35118179 146.04727231 142.62504836 146.02446593 134.89868134 C146.01329347 130.95480802 146.01022852 127.01136389 146.02876663 123.0675087 C146.04550827 119.45950492 146.03930795 115.85230672 146.01454984 112.24435575 C146.00731562 110.31590879 146.02475155 108.38741847 146.04296118 106.45904392 C146.03053914 105.31857626 146.0181171 104.17810861 146.00531864 103.00308132 C146.00504895 102.01699995 146.00477926 101.03091857 146.0045014 100.01495594 C145.13389295 96.42260757 143.44334721 95.37156959 140.37890625 93.43359375 C137.19596858 92.88687091 137.19596858 92.88687091 133.765625 93.04296875 C132.51845703 93.05585937 131.27128906 93.06875 129.98632812 93.08203125 C128.69275391 93.11554688 127.39917969 93.1490625 126.06640625 93.18359375 C124.75349609 93.20164062 123.44058594 93.2196875 122.08789062 93.23828125 C118.85082137 93.28536589 115.61523572 93.35112333 112.37890625 93.43359375 C112.32557129 94.11631348 112.27223633 94.7990332 112.21728516 95.50244141 C112.13913574 96.4001123 112.06098633 97.2977832 111.98046875 98.22265625 C111.90650879 99.11162598 111.83254883 100.0005957 111.75634766 100.91650391 C111.20040877 104.62396178 109.87867452 106.67069198 107.37890625 109.43359375 C102.3603359 112.79110437 99.17031852 113.93377716 93.00975037 113.93479919 C92.30154823 113.94033359 91.59334609 113.94586799 90.86368328 113.95157009 C88.50828509 113.96510246 86.15396031 113.95024906 83.79858398 113.93530273 C82.1028702 113.9390886 80.40715951 113.94459084 78.7114563 113.95167542 C74.11850713 113.9656114 69.52593334 113.95447381 64.93300509 113.9379642 C60.12184288 113.92409189 55.31070198 113.93057618 50.49952698 113.93409729 C42.42190516 113.93679743 34.34443212 113.92333982 26.2668457 113.90014648 C16.93218866 113.87352899 7.59778017 113.87179325 -1.73690182 113.88353485 C-10.72360444 113.89431853 -19.71021727 113.8881215 -28.69691277 113.87397957 C-32.51855533 113.86822581 -36.34013207 113.86829764 -40.16177559 113.87304497 C-44.66230875 113.87782165 -49.16257013 113.86768445 -53.66305161 113.84609032 C-55.31339921 113.84053203 -56.96377298 113.84004836 -58.61412239 113.84504318 C-60.86935571 113.85101213 -63.12376256 113.83846107 -65.37892151 113.8212738 C-66.64006051 113.81884391 -67.90119951 113.81641401 -69.20055485 113.81391048 C-73.97304175 113.28327579 -77.25636809 111.60877418 -80.87109375 108.49609375 C-82.73333954 105.23716361 -83.16582834 102.92473264 -83.73046875 99.2421875 C-83.90030273 98.15607178 -84.07013672 97.06995605 -84.24511719 95.95092773 C-84.36918945 95.12020752 -84.49326172 94.2894873 -84.62109375 93.43359375 C-88.67774322 93.33450235 -92.73392145 93.26202269 -96.79150391 93.21386719 C-98.17086055 93.19378733 -99.55013244 93.16651709 -100.92919922 93.13183594 C-102.91466354 93.08316558 -104.90075629 93.06272957 -106.88671875 93.04296875 C-108.67770996 93.01154785 -108.67770996 93.01154785 -110.50488281 92.97949219 C-114.33386747 93.53746081 -115.25005556 94.43753462 -117.62109375 97.43359375 Z " fill="#3A64CC" transform="translate(209.62109375,5.56640625)"/>
<path d="M0 0 C1.47118538 0.0001133 1.47118538 0.0001133 2.97209167 0.00022888 C4.028423 0.00539017 5.08475433 0.01055145 6.1730957 0.01586914 C7.79813774 0.01799156 7.79813774 0.01799156 9.45600891 0.02015686 C12.9203262 0.0257598 16.38457915 0.03831281 19.84887695 0.05102539 C22.19588123 0.05604001 24.54288652 0.06060298 26.88989258 0.06469727 C32.64709884 0.0748798 38.40416577 0.09445476 44.16137695 0.11352539 C44.16137695 7.70352539 44.16137695 15.29352539 44.16137695 23.11352539 C41.99317383 23.13930664 39.8249707 23.16508789 37.59106445 23.19165039 C35.47602723 23.2301353 33.36122853 23.2752742 31.24633789 23.32104492 C29.7838899 23.34915649 28.32129275 23.3704197 26.85864258 23.38452148 C24.74784526 23.40608958 22.63882266 23.45280195 20.52856445 23.50415039 C19.26125488 23.52509766 17.99394531 23.54604492 16.68823242 23.56762695 C12.50919866 24.21447172 10.39584085 25.4159188 7.16137695 28.11352539 C4.49480365 31.80838507 3.78572035 34.35155274 3.78106022 38.88135433 C3.77262028 40.04061332 3.76418034 41.1998723 3.75548464 42.39426035 C3.76149469 43.66350731 3.76750473 44.93275427 3.7736969 46.24046326 C3.76952373 47.60581576 3.76404631 48.97116479 3.75737709 50.33650738 C3.74290135 54.08761693 3.74717377 57.83850715 3.7545439 61.58962882 C3.75926803 65.63538602 3.74677244 69.68109525 3.73652649 73.72683716 C3.71931837 81.65242071 3.71850263 89.57792506 3.72373939 97.50352245 C3.72777854 103.9445314 3.72634058 110.38551691 3.72099113 116.82652473 C3.7198685 118.20087691 3.7198685 118.20087691 3.71872319 119.60299378 C3.71719173 121.46423872 3.71565339 123.32548367 3.71410822 125.1867286 C3.70037593 142.64647754 3.70582602 160.10618168 3.71729343 177.5659296 C3.7272269 193.54362302 3.71428448 209.52120065 3.69035924 225.49887621 C3.66598461 241.90007552 3.65635632 258.30122087 3.66301197 274.70243794 C3.66650779 283.9123665 3.6642482 293.122206 3.64676094 302.3321209 C3.63205942 310.17222688 3.63137662 318.01218107 3.64883185 325.85228401 C3.65736115 329.8530586 3.65944463 333.85356179 3.6441803 337.85432243 C3.63038026 341.51660204 3.63503527 345.17837657 3.65441953 348.8406266 C3.65998301 350.793441 3.64586897 352.74628082 3.63106543 354.69904703 C3.65185541 363.24319319 3.65185541 363.24319319 8.16137695 370.11352539 C12.68831479 374.09713717 17.79085673 373.53611937 23.51022339 373.50120544 C24.56311306 373.50659098 25.61600273 373.51197652 26.70079815 373.51752526 C30.23448833 373.53185091 33.76780635 373.52468955 37.30151367 373.51757812 C39.83273623 373.52327929 42.36395621 373.53024256 44.89517212 373.53837585 C51.06046675 373.55448331 57.22562359 373.55640199 63.3909329 373.55116295 C68.40268288 373.5471213 73.41440274 373.54856475 78.42615128 373.55391121 C79.13949597 373.55465963 79.85284066 373.55540805 80.58780185 373.55617915 C82.03698007 373.55771064 83.48615828 373.55924899 84.93533649 373.56079412 C98.52608713 373.5745226 112.11678022 373.56907927 125.70752956 373.55760891 C138.13767039 373.54767831 150.56766233 373.56061353 162.99778019 373.5845431 C175.76373787 373.60893385 188.52962621 373.61854191 201.29560673 373.61189038 C208.46163011 373.60839781 215.62753901 373.61063249 222.79354477 373.6281414 C229.53230979 373.64440223 236.27074502 373.63968213 243.00951767 373.62083626 C245.48346908 373.61714347 247.95744147 373.6202788 250.4313736 373.63072205 C253.80743335 373.64388583 257.18254451 373.63242407 260.55856323 373.61473083 C261.5386274 373.62433584 262.51869158 373.63394085 263.52845466 373.64383692 C269.57030737 373.57864512 273.36753213 372.92691334 278.16137695 369.11352539 C282.22650223 362.90588891 281.58369223 356.07365608 281.54905701 348.85997009 C281.55323287 347.50526586 281.55871177 346.15056512 281.56537682 344.79587084 C281.57981679 341.08348373 281.57559134 337.3713189 281.56821001 333.65891969 C281.56347714 329.65137108 281.5759891 325.64387047 281.58622742 321.63633728 C281.60341731 313.78990232 281.60425519 305.94354743 281.59901451 298.09709852 C281.59497263 291.72049661 281.59641658 285.34391836 281.60176277 278.96731758 C281.60251119 278.05967986 281.60325962 277.15204214 281.60403072 276.21690025 C281.60556219 274.37304937 281.60710054 272.52919849 281.60864569 270.68534762 C281.62237093 253.39774806 281.61693243 236.11019377 281.60546047 218.82259525 C281.59552377 203.00345845 281.60847626 187.18443855 281.63239466 171.36531978 C281.65676913 155.12225877 281.66639787 138.87925224 281.65974194 122.63617331 C281.65624659 113.51681815 281.6585028 104.39755294 281.67599297 95.27821159 C281.69069411 87.51683885 281.69137759 79.75561943 281.67392205 71.99424975 C281.66539319 68.03396562 281.66330833 64.07395564 281.67857361 60.11368561 C281.69237449 56.48849245 281.6877176 52.86380951 281.66833437 49.23864622 C281.66277152 47.30580988 281.67688405 45.37294786 281.69168848 43.44016021 C281.63721436 37.05608013 281.57761675 32.90419977 277.16137695 28.11352539 C272.77209933 24.45439237 269.67804572 23.60098981 264.01293945 23.50415039 C263.02685196 23.47934601 263.02685196 23.47934601 262.02084351 23.45404053 C259.94259019 23.40585936 257.8650667 23.38425925 255.78637695 23.36352539 C254.36837207 23.33534024 252.95040075 23.30540926 251.5324707 23.27368164 C248.07511365 23.19685148 244.62000158 23.1560669 241.16137695 23.11352539 C241.16137695 15.52352539 241.16137695 7.93352539 241.16137695 0.11352539 C247.99430908 -0.00155019 254.82385169 -0.10100742 261.65698242 -0.16113281 C263.9790387 -0.18620727 266.3010166 -0.22027553 268.62280273 -0.26367188 C271.96919137 -0.32463266 275.31453248 -0.3527561 278.66137695 -0.37475586 C280.20716431 -0.4134655 280.20716431 -0.4134655 281.78417969 -0.45295715 C288.59901327 -0.45558223 293.00080071 0.58224026 298.16137695 5.11352539 C304.70993887 11.89218516 303.87630357 20.4924621 303.82421875 29.28833008 C303.83264 30.92833111 303.84316869 32.56832247 303.8556366 34.20829773 C303.88261345 38.64407432 303.87800469 43.07928688 303.86593604 47.51510906 C303.85879253 51.22079508 303.86731159 54.9263776 303.87584144 58.63205552 C303.8957682 67.37060307 303.89024949 76.10887682 303.86816406 84.84741211 C303.84576416 93.86364706 303.86344848 102.87916738 303.90121335 111.89533496 C303.93242005 119.64162234 303.94037266 127.38768817 303.9292596 135.13403058 C303.92276755 139.75864336 303.92479955 144.38284305 303.9485836 149.00740814 C303.96978998 153.35143132 303.96191875 157.69444172 303.93148994 162.03840065 C303.9251483 163.63315176 303.92905776 165.22798107 303.94390106 166.8226757 C303.96251378 168.99841084 303.94424932 171.1708076 303.91654968 173.34637451 C303.91558635 174.56381222 303.91462301 175.78124992 303.91363049 177.03557968 C302.87909061 181.26853762 300.77582787 181.8667349 297.16137695 184.11352539 C294.17043337 188.58684297 293.7285532 192.57473897 293.7736969 197.82472229 C293.76831136 198.5817782 293.76292582 199.3388341 293.75737709 200.1188311 C293.74311579 202.64530601 293.75019649 205.17125563 293.75732422 207.69775391 C293.75161979 209.51316752 293.74465524 211.32857755 293.73652649 213.14398193 C293.7185907 218.06741082 293.71976394 222.99066154 293.72546887 227.91411328 C293.72855927 232.02468904 293.72247012 236.13523051 293.71643013 240.24580139 C293.70238592 249.94124038 293.70394611 259.63659124 293.71533203 269.33203125 C293.72682109 279.33642972 293.71272409 289.34056037 293.68593556 299.34492356 C293.66379397 307.93530433 293.65713747 316.52560093 293.66301197 325.11600822 C293.66638548 330.24641106 293.66393995 335.37664209 293.64676094 340.50702095 C293.63131782 345.32931191 293.63521802 350.15120513 293.65406609 354.97348022 C293.65775887 356.7435848 293.65462345 358.51371869 293.6441803 360.28379631 C293.63101582 362.69942928 293.64247617 365.11373652 293.66017151 367.52931213 C293.6505665 368.23048064 293.6409615 368.93164915 293.63106543 369.65406519 C293.68396368 373.16119641 294.12058149 375.04939106 296.02082729 378.03675747 C298.43655217 380.38050124 299.85170967 380.83771978 303.16137695 381.11352539 C302.48963886 386.82329917 299.81668346 390.6197122 295.59887695 394.42602539 C292.05118466 396.88212005 289.3917611 397.23934016 285.18625164 397.24774647 C284.1528936 397.25220431 283.11953555 397.25666216 282.05486363 397.26125509 C280.91597418 397.26107072 279.77708473 397.26088636 278.60368347 397.26069641 C277.39662209 397.2643731 276.18956071 397.26804979 274.94592172 397.27183789 C271.58940391 397.28096706 268.232935 397.28557492 264.87640941 397.2882272 C261.25871894 397.29212971 257.64104264 397.301708 254.02336121 397.31044006 C245.28443019 397.33020454 236.54549801 397.34027003 227.80655023 397.34916785 C223.6925335 397.35355022 219.57851805 397.35891711 215.46450233 397.36415672 C201.79134863 397.38116793 188.11819573 397.39566302 174.44503307 397.40290546 C170.8966236 397.40481539 167.34821414 397.40673572 163.79980469 397.40869141 C162.47687728 397.40941702 162.47687728 397.40941702 161.12722407 397.41015729 C146.83393815 397.41846108 132.54073583 397.44380436 118.24748643 397.47627208 C103.57753981 397.50932426 88.90763571 397.5273525 74.23765165 397.53054971 C65.99906659 397.53271636 57.76060348 397.54148786 49.52205467 397.56701088 C42.50719163 397.58869264 35.49248017 397.59678075 28.47758742 397.5870441 C24.89805874 397.58249219 21.31884298 397.58443685 17.73935699 397.60380554 C13.85944774 397.62461871 9.97997205 397.61447512 6.10002136 397.60127258 C4.96782407 397.61224183 3.83562679 397.62321108 2.66912049 397.63451272 C-4.62253886 397.57441853 -8.25235524 396.67423785 -13.4831543 391.48071289 C-17.07341314 386.89382701 -17.9636147 384.88857981 -17.97005081 379.09293842 C-17.97581253 377.15493098 -17.97581253 377.15493098 -17.98169065 375.17777187 C-17.9809103 373.73035636 -17.9800315 372.28294091 -17.97906494 370.83552551 C-17.98164704 369.30848655 -17.98465976 367.78144826 -17.98806834 366.25441092 C-17.99616004 362.04245666 -17.99792912 357.83051941 -17.99866581 353.61855829 C-18.00051264 349.08194352 -18.00805814 344.54533767 -18.01480103 340.00872803 C-18.02840087 330.08100833 -18.0344118 320.15329266 -18.03881168 310.2255652 C-18.04157165 304.0293146 -18.04580858 297.83306557 -18.05031586 291.63681602 C-18.06251131 274.48946766 -18.07280967 257.34212056 -18.07619095 240.19476795 C-18.07641051 239.09661535 -18.07663008 237.99846276 -18.0768563 236.86703281 C-18.07707458 235.76621152 -18.07729286 234.66539023 -18.07751775 233.53121072 C-18.07796122 231.30042954 -18.07840778 229.06964836 -18.07885742 226.83886719 C-18.07907885 225.73231628 -18.07930028 224.62576538 -18.07952842 223.48568263 C-18.08347641 205.55560883 -18.10092921 187.62557568 -18.12421694 169.69551758 C-18.14791978 151.29768694 -18.16039233 132.89987671 -18.16155887 114.50203055 C-18.1624763 104.16806209 -18.16824557 93.83414655 -18.18637848 83.50019264 C-18.20176514 74.70011433 -18.20690846 65.9001053 -18.19864038 57.10001609 C-18.19472861 52.60906686 -18.19568905 48.1182572 -18.20969772 43.62732506 C-18.22240528 39.51593388 -18.22126689 35.4047876 -18.20910701 31.29339691 C-18.20714453 29.80612567 -18.21025385 28.31883726 -18.21895137 26.83159015 C-18.30529629 11.06868441 -18.30529629 11.06868441 -13.11987305 5.15258789 C-12.53206055 4.68594727 -11.94424805 4.21930664 -11.33862305 3.73852539 C-10.75081055 3.25641602 -10.16299805 2.77430664 -9.55737305 2.27758789 C-6.41101295 0.146644 -3.68081365 -0.00946225 0 0 Z " fill="#F7A6A7" transform="translate(80.838623046875,67.886474609375)"/>
<path d="M0 0 C1.09828125 -0.020625 2.1965625 -0.04125 3.328125 -0.0625 C4.92140625 -0.07023438 4.92140625 -0.07023438 6.546875 -0.078125 C7.51979492 -0.0874707 8.49271484 -0.09681641 9.49511719 -0.10644531 C12.76950717 0.31721734 14.6016382 1.3039158 17.25 3.25 C19.74118953 6.9867843 19.4565226 8.99451819 19.375 13.4375 C19.35695313 14.70980469 19.33890625 15.98210937 19.3203125 17.29296875 C19.29710937 18.26878906 19.27390625 19.24460938 19.25 20.25 C23.39695797 19.74235514 25.15522732 18.69639418 28 15.6875 C30.81423006 13.1525849 32.80861961 11.63433513 36.625 11.25 C43.06200205 11.78271741 47.0477589 16.80545504 51.25 21.25 C51.96027344 21.95382813 52.67054688 22.65765625 53.40234375 23.3828125 C56.42819603 26.53860936 58.08321387 28.70331212 59.375 32.9375 C59.17922096 38.12564458 57.24852926 40.29791396 53.5625 43.8125 C50.79115971 46.1736558 50.79115971 46.1736558 51.25 50.25 C52.05824219 50.28738281 52.86648438 50.32476562 53.69921875 50.36328125 C55.30216797 50.46189453 55.30216797 50.46189453 56.9375 50.5625 C58.52111328 50.64951172 58.52111328 50.64951172 60.13671875 50.73828125 C63.54063405 51.29777047 65.4869343 52.21278343 68.25 54.25 C71.34889884 58.89834825 70.57855925 63.65842989 70.5625 69.125 C70.57861328 70.21425781 70.59472656 71.30351562 70.61132812 72.42578125 C70.61197266 73.47894531 70.61261719 74.53210938 70.61328125 75.6171875 C70.61626221 76.57737793 70.61924316 77.53756836 70.62231445 78.52685547 C70.03981194 82.78733612 68.30909401 85.41824133 64.95703125 88.05078125 C61.73699157 89.47726347 59.44349685 89.55308231 55.9375 89.4375 C54.33455078 89.39689453 54.33455078 89.39689453 52.69921875 89.35546875 C51.89097656 89.32066406 51.08273437 89.28585938 50.25 89.25 C51.47572242 92.71991951 52.72666682 95.02010662 55.3125 97.625 C58.34561224 101.04468536 59.33676987 103.56442679 59.25 108.25 C56.92072188 113.18158518 53.07882069 116.71825498 49.25 120.5 C48.30640625 121.45519531 48.30640625 121.45519531 47.34375 122.4296875 C46.7353125 123.03554688 46.126875 123.64140625 45.5 124.265625 C44.94828125 124.81508789 44.3965625 125.36455078 43.828125 125.93066406 C41.44113544 127.92622279 39.08978157 128.27827384 36.0625 128.8125 C31.02040591 128.06858448 29.42681455 125.80569539 26.2421875 122 C24.34532786 119.98724993 24.34532786 119.98724993 21.5078125 120 C20.76273437 120.0825 20.01765625 120.165 19.25 120.25 C19.29640625 121.13042969 19.3428125 122.01085937 19.390625 122.91796875 C19.42671875 124.07941406 19.4628125 125.24085938 19.5 126.4375 C19.54640625 127.58605469 19.5928125 128.73460937 19.640625 129.91796875 C19.1749943 133.88979862 18.02629613 135.43771485 15.25 138.25 C10.90984607 140.42007696 5.20465697 139.61329305 0.4375 139.6875 C-0.75166016 139.73326172 -1.94082031 139.77902344 -3.16601562 139.82617188 C-11.57644388 139.93478493 -11.57644388 139.93478493 -14.67797852 138.125 C-17.07993827 135.55563996 -17.75004646 133.24967364 -18.23828125 129.8203125 C-18.15126953 128.11488281 -18.15126953 128.11488281 -18.0625 126.375 C-18.01738281 125.22257812 -17.97226563 124.07015625 -17.92578125 122.8828125 C-17.86777344 122.01398438 -17.80976563 121.14515625 -17.75 120.25 C-20.77513199 119.96362778 -22.24092722 119.85926879 -24.69921875 121.74609375 C-25.27285156 122.38675781 -25.84648437 123.02742188 -26.4375 123.6875 C-29.28576686 126.81364655 -30.58281251 128.06325 -34.875 128.75 C-40.49933995 128.02427872 -42.8385513 125.14752896 -46.75 121.25 C-47.63945312 120.46625 -48.52890625 119.6825 -49.4453125 118.875 C-57.27194096 111.73961223 -57.27194096 111.73961223 -58.3125 106.625 C-58.36114429 102.69871067 -56.9398726 100.82231513 -54.375 97.9375 C-53.72789062 97.32261719 -53.08078125 96.70773438 -52.4140625 96.07421875 C-50.61778368 94.10505864 -50.15173674 92.84981063 -49.75 90.25 C-50.54664063 90.23582031 -51.34328125 90.22164063 -52.1640625 90.20703125 C-61.8985628 89.76886031 -61.8985628 89.76886031 -65.4375 86.8125 C-70.00448667 81.75178504 -69.00754418 76.49189766 -69.0625 69.9375 C-69.09150391 68.79603516 -69.12050781 67.65457031 -69.15039062 66.47851562 C-69.21449018 58.04202759 -69.21449018 58.04202759 -66.85546875 54.01953125 C-63.30386353 51.03460144 -60.71074332 51.00220787 -56.125 50.6875 C-54.93648437 50.60371094 -53.74796875 50.51992187 -52.5234375 50.43359375 C-51.60820312 50.37300781 -50.69296875 50.31242187 -49.75 50.25 C-50.25991126 46.09889145 -51.34009481 44.26934202 -54.3125 41.375 C-56.70364383 38.71044055 -57.7122856 37.37728608 -58.75 33.875 C-57.13203137 28.00986372 -52.99220449 24.4585362 -48.75 20.25 C-48.06164062 19.53714844 -47.37328125 18.82429688 -46.6640625 18.08984375 C-40.84769004 12.11395053 -40.84769004 12.11395053 -35.625 11.75 C-31.40112212 11.7567908 -29.57023554 12.8332316 -26.5 15.6875 C-25.89671875 16.32558594 -25.2934375 16.96367187 -24.671875 17.62109375 C-22.38757902 19.55717388 -20.68578955 19.89061887 -17.75 20.25 C-17.80800781 19.29738281 -17.86601562 18.34476563 -17.92578125 17.36328125 C-18.2894049 7.2545439 -18.2894049 7.2545439 -16.671875 4.2421875 C-15.3125 2.9375 -15.3125 2.9375 -12.75 1.25 C-10.22647453 -1.27352547 -3.38949034 0.01569208 0 0 Z " fill="#4671C6" transform="translate(222.75,133.75)"/>
<path d="M0 0 C0.89490646 -0.01283524 1.78981293 -0.02567047 2.71183777 -0.03889465 C3.67745132 -0.04628159 4.64306488 -0.05366852 5.63793945 -0.0612793 C6.63573929 -0.06935104 7.63353912 -0.07742279 8.66157532 -0.08573914 C10.77566799 -0.09957413 12.88978294 -0.1102989 15.00390625 -0.11816406 C18.221547 -0.13533965 21.43815021 -0.17922728 24.65551758 -0.22338867 C26.71215067 -0.23351928 28.76879247 -0.24203423 30.82543945 -0.2487793 C31.78093185 -0.26628738 32.73642426 -0.28379547 33.72087097 -0.30183411 C40.4482131 -0.28022216 46.07411293 0.86237246 51.08769226 5.6245575 C55.08303413 10.21553881 56.78779697 13.73812718 56.94262695 19.7824707 C56.97678711 20.84788086 57.01094727 21.91329102 57.04614258 23.01098633 C57.08578125 24.67097656 57.08578125 24.67097656 57.1262207 26.36450195 C57.18586978 28.56644129 57.2494507 30.76827889 57.31762695 32.9699707 C57.34155518 33.94474365 57.3654834 34.9195166 57.39013672 35.92382812 C57.31549958 38.14568193 57.31549958 38.14568193 58.5637207 39.17700195 C60.0157768 39.2785431 61.47263363 39.31267624 62.92822266 39.31884766 C64.32020622 39.32939934 64.32020622 39.32939934 65.74031067 39.34016418 C67.25584785 39.3464106 67.25584785 39.3464106 68.80200195 39.3527832 C70.92245457 39.37598281 73.04289731 39.40010021 75.16333008 39.42504883 C78.52106308 39.46018132 81.87843363 39.4895108 85.23632812 39.50292969 C88.46700429 39.51838292 91.69660811 39.55858117 94.92700195 39.6027832 C95.93128738 39.60087479 96.93557281 39.59896637 97.97029114 39.59700012 C101.83899977 39.66505595 104.72584524 39.74600566 108.19311523 41.52954102 C110.45080055 45.890485 110.1532983 50.27305357 110.13012695 55.1105957 C110.13632553 56.18068375 110.14252411 57.25077179 110.14891052 58.35328674 C110.15601109 60.61523529 110.15283062 62.87723608 110.14013672 65.13916016 C110.12628391 68.59871763 110.16032563 72.05556412 110.19848633 75.51489258 C110.19943764 77.71346095 110.19757804 79.9120327 110.19262695 82.1105957 C110.20588516 83.14405624 110.21914337 84.17751678 110.23280334 85.24229431 C110.22027023 86.21002274 110.20773712 87.17775116 110.19482422 88.17480469 C110.19386246 89.02211655 110.1929007 89.86942841 110.19190979 90.74241638 C109.25702868 94.36560581 107.42672989 95.82152193 104.5637207 98.17700195 C101.29187775 98.80620766 101.29187775 98.80620766 97.50427246 98.81192017 C96.80524071 98.81972012 96.10620896 98.82752007 95.38599443 98.83555639 C93.04951409 98.85546058 90.71466551 98.83971999 88.37817383 98.82397461 C86.70083161 98.8307515 85.02349683 98.83965504 83.34617615 98.8505249 C78.79444317 98.87331649 74.24327691 98.86448261 69.69153404 98.84862947 C64.92792611 98.83596972 60.16436667 98.8477108 55.40075684 98.8555603 C47.40111581 98.86465665 39.40170559 98.85266936 31.40209961 98.82885742 C22.15369244 98.80164615 12.90583639 98.81046032 3.65744257 98.83798945 C-4.28327066 98.86067995 -12.22381799 98.8638809 -20.16455317 98.8507961 C-24.90711151 98.84300126 -29.64941082 98.84196088 -34.39195251 98.85847855 C-38.85075107 98.87292324 -43.30883916 98.86290196 -47.76756096 98.83400726 C-49.40381122 98.82739639 -51.04012127 98.82929422 -52.67634773 98.84032059 C-54.91064891 98.85398904 -57.14267487 98.83684938 -59.37683105 98.81192017 C-60.6267408 98.81003504 -61.87665054 98.80814991 -63.16443634 98.80620766 C-67.32799298 98.00551715 -68.81668713 96.43890808 -71.4362793 93.17700195 C-72.06446838 90.74241638 -72.06446838 90.74241638 -72.06738281 88.17480469 C-72.07991592 87.20707626 -72.09244904 86.23934784 -72.10536194 85.24229431 C-72.09210373 84.20883377 -72.07884552 83.17537323 -72.06518555 82.1105957 C-72.06880348 80.50402855 -72.06880348 80.50402855 -72.07249451 78.86500549 C-72.07151652 76.60479015 -72.0581346 74.34455071 -72.03320312 72.08447266 C-71.99886314 68.62295335 -72.01255601 65.16398239 -72.03198242 61.70239258 C-72.02508487 59.50511608 -72.01541331 57.30784617 -72.00268555 55.1105957 C-72.00764542 54.07511093 -72.01260529 53.03962616 -72.01771545 51.97276306 C-71.95294683 48.0277669 -71.89384238 45.0608306 -70.06567383 41.52954102 C-65.78859089 39.3294445 -61.53988828 39.59377529 -56.79956055 39.6027832 C-55.7643779 39.58861862 -54.72919525 39.57445404 -53.66264343 39.55986023 C-50.35791616 39.51792843 -47.05373534 39.50270929 -43.7487793 39.48950195 C-40.43336516 39.46049298 -37.11809124 39.42601601 -33.80278015 39.38700867 C-31.73954092 39.36443502 -29.67621445 39.34866844 -27.61286926 39.34016418 C-26.2208857 39.3296125 -26.2208857 39.3296125 -24.80078125 39.31884766 C-23.98011673 39.31536819 -23.15945221 39.31188873 -22.31391907 39.30830383 C-20.42297359 39.38238199 -20.42297359 39.38238199 -19.4362793 38.17700195 C-19.33911659 36.41734016 -19.30424889 34.654167 -19.2956543 32.8918457 C-19.27631836 31.80323242 -19.25698242 30.71461914 -19.23706055 29.59301758 C-19.20360807 27.30152258 -19.18500874 25.00975523 -19.18237305 22.71801758 C-19.02495842 15.66335695 -18.24595305 10.54960088 -13.4362793 5.17700195 C-9.03104897 1.7409223 -5.56246963 0.06963193 0 0 Z M9.1262207 21.98950195 C8.23860235 25.44135112 8.60219118 27.75155301 9.5637207 31.17700195 C12.62910203 34.60730962 14.52087425 35.99077937 19.0637207 36.80200195 C23.76711628 35.96210989 25.30910411 34.66409116 28.5637207 31.17700195 C30.12546237 27.68604999 29.58463884 26.24440484 28.4387207 22.55200195 C26.43218504 18.94023776 25.349093 17.70917645 21.5637207 16.17700195 C16.29160747 15.23072522 12.36141209 17.91034759 9.1262207 21.98950195 Z " fill="#A2C8FE" transform="translate(204.436279296875,13.822998046875)"/>
<path d="M0 0 C1.62198303 -0.0236412 1.62198303 -0.0236412 3.2767334 -0.04776001 C4.43000122 -0.03763885 5.58326904 -0.0275177 6.77148438 -0.01708984 C7.96954712 -0.02187347 9.16760986 -0.0266571 10.40197754 -0.03158569 C12.93027055 -0.03498206 15.45860763 -0.02579837 17.98681641 -0.00488281 C21.85223505 0.02188264 25.71474959 -0.0046437 29.58007812 -0.03662109 C32.03971994 -0.03331695 34.49935995 -0.02691064 36.95898438 -0.01708984 C38.68888611 -0.03227158 38.68888611 -0.03227158 40.45373535 -0.04776001 C49.39101296 0.08250523 49.39101296 0.08250523 53.10400391 2.81616211 C55.72139654 6.09284831 56.07853327 7.46475866 55.95117188 11.60400391 C55.92869385 13.10797729 55.92869385 13.10797729 55.90576172 14.64233398 C55.8511377 15.90198975 55.79651367 17.16164551 55.74023438 18.45947266 C55.55460937 24.49228516 55.55460937 24.49228516 55.36523438 30.64697266 C45.79523438 30.97697266 36.22523438 31.30697266 26.36523438 31.64697266 C26.03523438 32.96697266 25.70523438 34.28697266 25.36523438 35.64697266 C27.22488513 37.50662341 30.31412556 36.88784815 32.80664062 36.96337891 C34.11181641 37.00527344 35.41699219 37.04716797 36.76171875 37.09033203 C38.15038767 37.13014873 39.53905959 37.16986091 40.92773438 37.20947266 C42.32032621 37.25265254 43.71290465 37.29626666 45.10546875 37.34033203 C48.52525986 37.44683072 51.94523333 37.54744321 55.36523438 37.64697266 C55.36523438 44.24697266 55.36523438 50.84697266 55.36523438 57.64697266 C45.79523438 57.97697266 36.22523438 58.30697266 26.36523438 58.64697266 C25.28438917 62.28316922 25.28438917 62.28316922 25.36523438 64.64697266 C40.21523438 65.14197266 40.21523438 65.14197266 55.36523438 65.64697266 C55.36523438 71.91697266 55.36523438 78.18697266 55.36523438 84.64697266 C52.36816406 84.72044922 52.36816406 84.72044922 49.31054688 84.79541016 C47.3777468 84.8510303 45.444948 84.90671812 43.51220703 84.96435547 C41.50636466 85.02151302 39.5002452 85.06865862 37.49414062 85.11572266 C36.23730469 85.15439453 34.98046875 85.19306641 33.68554688 85.23291016 C32.52297363 85.26433105 31.36040039 85.29575195 30.16259766 85.328125 C27.22866956 85.36855135 27.22866956 85.36855135 25.36523438 87.64697266 C25.69523437 88.96697266 26.02523437 90.28697266 26.36523438 91.64697266 C35.93523437 91.97697266 45.50523437 92.30697266 55.36523438 92.64697266 C55.36523438 99.24697266 55.36523438 105.84697266 55.36523438 112.64697266 C45.79523438 112.97697266 36.22523438 113.30697266 26.36523438 113.64697266 C25.87023437 115.62697266 25.87023437 115.62697266 25.36523438 117.64697266 C32.47156958 124.75330786 45.32176199 120.28827721 55.36523438 120.64697266 C55.36523438 142.75697266 55.36523438 164.86697266 55.36523438 187.64697266 C49.09523438 187.64697266 42.82523437 187.64697266 36.36523438 187.64697266 C36.36523438 178.73697266 36.36523438 169.82697266 36.36523438 160.64697266 C39.99523437 160.31697266 43.62523437 159.98697266 47.36523438 159.64697266 C50.46723252 155.72381583 50.46723252 155.72381583 50.72851562 151.38916016 C50.72787109 150.59896484 50.72722656 149.80876953 50.7265625 148.99462891 C50.71044922 148.17865234 50.69433594 147.36267578 50.67773438 146.52197266 C50.68095703 145.69826172 50.68417969 144.87455078 50.6875 144.02587891 C50.88743977 139.33355876 50.88743977 139.33355876 48.36523438 135.64697266 C46.0344401 135.34065193 46.0344401 135.34065193 43.3046875 135.38818359 C42.25019409 135.38187927 41.19570068 135.37557495 40.10925293 135.36907959 C38.3951825 135.37515228 38.3951825 135.37515228 36.64648438 135.38134766 C35.47766724 135.3794342 34.3088501 135.37752075 33.10461426 135.37554932 C30.62979925 135.3741864 28.15497711 135.37789024 25.68017578 135.38623047 C21.88102233 135.3969282 18.08234178 135.38633848 14.28320312 135.37353516 C11.88346249 135.37485673 9.48372216 135.37741908 7.08398438 135.38134766 C5.94127075 135.37729919 4.79855713 135.37325073 3.62121582 135.36907959 C2.03947571 135.37853607 2.03947571 135.37853607 0.42578125 135.38818359 C-0.50528442 135.38977478 -1.4363501 135.39136597 -2.39562988 135.39300537 C-4.83759025 135.43452304 -4.83759025 135.43452304 -6.63476562 137.64697266 C-7.07904209 140.58433121 -6.95887418 143.55482554 -6.94726562 146.52197266 C-6.96337891 147.33794922 -6.97949219 148.15392578 -6.99609375 148.99462891 C-6.99673828 149.78482422 -6.99738281 150.57501953 -6.99804688 151.38916016 C-7.00102783 152.10958496 -7.00400879 152.83000977 -7.00708008 153.57226562 C-6.69835684 156.18615686 -6.69835684 156.18615686 -3.63476562 159.64697266 C-0.00476563 159.97697266 3.62523437 160.30697266 7.36523438 160.64697266 C7.36523438 169.55697266 7.36523438 178.46697266 7.36523438 187.64697266 C1.09523438 187.64697266 -5.17476563 187.64697266 -11.63476562 187.64697266 C-11.77360045 164.00354876 -11.88070278 140.36022289 -11.94563866 116.71647358 C-11.97658963 105.73849432 -12.01879404 94.76077281 -12.08740234 83.78295898 C-12.14716615 74.21577526 -12.18590573 64.64877818 -12.19929659 55.08141297 C-12.20712546 50.01446727 -12.22555091 44.9480556 -12.26914597 39.8812809 C-12.30983924 35.11317941 -12.32244134 30.34583242 -12.31341171 25.57757378 C-12.31506383 23.82678249 -12.32701862 22.07596626 -12.34999847 20.32532501 C-12.37983666 17.93517761 -12.37268589 15.54788183 -12.35629272 13.15766907 C-12.37376977 12.46408068 -12.39124682 11.7704923 -12.40925348 11.05588609 C-12.35853806 8.32220532 -12.12360123 6.23645896 -10.34810996 4.09539604 C-6.94072917 1.13335988 -4.48488345 0.01886612 0 0 Z " fill="#A4C8FE" transform="translate(393.634765625,253.35302734375)"/>
<path d="M0 0 C1.09828125 -0.020625 2.1965625 -0.04125 3.328125 -0.0625 C4.92140625 -0.07023438 4.92140625 -0.07023438 6.546875 -0.078125 C7.51979492 -0.0874707 8.49271484 -0.09681641 9.49511719 -0.10644531 C12.76950717 0.31721734 14.6016382 1.3039158 17.25 3.25 C19.74118953 6.9867843 19.4565226 8.99451819 19.375 13.4375 C19.35695313 14.70980469 19.33890625 15.98210937 19.3203125 17.29296875 C19.29710937 18.26878906 19.27390625 19.24460938 19.25 20.25 C23.39695797 19.74235514 25.15522732 18.69639418 28 15.6875 C30.81423006 13.1525849 32.80861961 11.63433513 36.625 11.25 C43.06200205 11.78271741 47.0477589 16.80545504 51.25 21.25 C51.96027344 21.95382813 52.67054688 22.65765625 53.40234375 23.3828125 C56.42819603 26.53860936 58.08321387 28.70331212 59.375 32.9375 C59.17922096 38.12564458 57.24852926 40.29791396 53.5625 43.8125 C50.79115971 46.1736558 50.79115971 46.1736558 51.25 50.25 C52.05824219 50.28738281 52.86648438 50.32476562 53.69921875 50.36328125 C55.30216797 50.46189453 55.30216797 50.46189453 56.9375 50.5625 C58.52111328 50.64951172 58.52111328 50.64951172 60.13671875 50.73828125 C63.54063405 51.29777047 65.4869343 52.21278343 68.25 54.25 C71.34889884 58.89834825 70.57855925 63.65842989 70.5625 69.125 C70.57861328 70.21425781 70.59472656 71.30351562 70.61132812 72.42578125 C70.61197266 73.47894531 70.61261719 74.53210938 70.61328125 75.6171875 C70.61626221 76.57737793 70.61924316 77.53756836 70.62231445 78.52685547 C70.03981194 82.78733612 68.30909401 85.41824133 64.95703125 88.05078125 C61.73699157 89.47726347 59.44349685 89.55308231 55.9375 89.4375 C54.33455078 89.39689453 54.33455078 89.39689453 52.69921875 89.35546875 C51.89097656 89.32066406 51.08273437 89.28585938 50.25 89.25 C51.47572242 92.71991951 52.72666682 95.02010662 55.3125 97.625 C58.34561224 101.04468536 59.33676987 103.56442679 59.25 108.25 C56.92072188 113.18158518 53.07882069 116.71825498 49.25 120.5 C48.30640625 121.45519531 48.30640625 121.45519531 47.34375 122.4296875 C46.7353125 123.03554688 46.126875 123.64140625 45.5 124.265625 C44.94828125 124.81508789 44.3965625 125.36455078 43.828125 125.93066406 C41.44113544 127.92622279 39.08978157 128.27827384 36.0625 128.8125 C31.02040591 128.06858448 29.42681455 125.80569539 26.2421875 122 C24.34532786 119.98724993 24.34532786 119.98724993 21.5078125 120 C20.76273437 120.0825 20.01765625 120.165 19.25 120.25 C19.29640625 121.13042969 19.3428125 122.01085937 19.390625 122.91796875 C19.42671875 124.07941406 19.4628125 125.24085938 19.5 126.4375 C19.54640625 127.58605469 19.5928125 128.73460937 19.640625 129.91796875 C19.1749943 133.88979862 18.02629613 135.43771485 15.25 138.25 C10.90984607 140.42007696 5.20465697 139.61329305 0.4375 139.6875 C-0.75166016 139.73326172 -1.94082031 139.77902344 -3.16601562 139.82617188 C-11.57644388 139.93478493 -11.57644388 139.93478493 -14.67797852 138.125 C-17.07993827 135.55563996 -17.75004646 133.24967364 -18.23828125 129.8203125 C-18.15126953 128.11488281 -18.15126953 128.11488281 -18.0625 126.375 C-18.01738281 125.22257812 -17.97226563 124.07015625 -17.92578125 122.8828125 C-17.86777344 122.01398438 -17.80976563 121.14515625 -17.75 120.25 C-20.77513199 119.96362778 -22.24092722 119.85926879 -24.69921875 121.74609375 C-25.27285156 122.38675781 -25.84648437 123.02742188 -26.4375 123.6875 C-29.28576686 126.81364655 -30.58281251 128.06325 -34.875 128.75 C-40.49933995 128.02427872 -42.8385513 125.14752896 -46.75 121.25 C-47.63945312 120.46625 -48.52890625 119.6825 -49.4453125 118.875 C-57.27194096 111.73961223 -57.27194096 111.73961223 -58.3125 106.625 C-58.36114429 102.69871067 -56.9398726 100.82231513 -54.375 97.9375 C-53.72789062 97.32261719 -53.08078125 96.70773438 -52.4140625 96.07421875 C-50.61778368 94.10505864 -50.15173674 92.84981063 -49.75 90.25 C-50.54664063 90.23582031 -51.34328125 90.22164063 -52.1640625 90.20703125 C-61.8985628 89.76886031 -61.8985628 89.76886031 -65.4375 86.8125 C-70.00448667 81.75178504 -69.00754418 76.49189766 -69.0625 69.9375 C-69.09150391 68.79603516 -69.12050781 67.65457031 -69.15039062 66.47851562 C-69.21449018 58.04202759 -69.21449018 58.04202759 -66.85546875 54.01953125 C-63.30386353 51.03460144 -60.71074332 51.00220787 -56.125 50.6875 C-54.93648437 50.60371094 -53.74796875 50.51992187 -52.5234375 50.43359375 C-51.60820312 50.37300781 -50.69296875 50.31242187 -49.75 50.25 C-50.25991126 46.09889145 -51.34009481 44.26934202 -54.3125 41.375 C-56.70364383 38.71044055 -57.7122856 37.37728608 -58.75 33.875 C-57.13203137 28.00986372 -52.99220449 24.4585362 -48.75 20.25 C-48.06164062 19.53714844 -47.37328125 18.82429688 -46.6640625 18.08984375 C-40.84769004 12.11395053 -40.84769004 12.11395053 -35.625 11.75 C-31.40112212 11.7567908 -29.57023554 12.8332316 -26.5 15.6875 C-25.89671875 16.32558594 -25.2934375 16.96367187 -24.671875 17.62109375 C-22.38757902 19.55717388 -20.68578955 19.89061887 -17.75 20.25 C-17.80800781 19.29738281 -17.86601562 18.34476563 -17.92578125 17.36328125 C-18.2894049 7.2545439 -18.2894049 7.2545439 -16.671875 4.2421875 C-15.3125 2.9375 -15.3125 2.9375 -12.75 1.25 C-10.22647453 -1.27352547 -3.38949034 0.01569208 0 0 Z M-9.75 9.25 C-9.99571387 12.80830081 -10.13439137 16.36571564 -10.2734375 19.9296875 C-10.75 23.25 -10.75 23.25 -12.07421875 25.0859375 C-15.22077353 27.27165621 -18.78963623 29.45697068 -22.7109375 29.04296875 C-25.27591626 28.04547701 -26.89766836 26.65332367 -28.9375 24.8125 C-29.63230469 24.19503906 -30.32710937 23.57757813 -31.04296875 22.94140625 C-32.75 21.25 -32.75 21.25 -33.75 19.25 C-38.34774026 20.11048654 -40.86015843 22.84496345 -44.0625 26.0625 C-44.90651367 26.86397461 -44.90651367 26.86397461 -45.76757812 27.68164062 C-47.5798578 29.42555699 -47.5798578 29.42555699 -49.75 32.25 C-49.30933805 36.1582793 -47.55252873 37.55828988 -44.625 40.0625 C-40.77463173 43.78199707 -40.77463173 43.78199707 -40.5625 47.8125 C-41.78653517 51.3557597 -43.27330423 54.80437654 -44.75 58.25 C-52.67 58.745 -52.67 58.745 -60.75 59.25 C-60.75 66.18 -60.75 73.11 -60.75 80.25 C-57.40875 80.37375 -57.40875 80.37375 -54 80.5 C-47.3829783 80.74507488 -47.3829783 80.74507488 -44.375 83.14453125 C-41.44852844 86.93628166 -40.14456424 90.4634961 -40.75 95.25 C-42.75390625 97.56640625 -42.75390625 97.56640625 -45.3125 99.8125 C-47.86859982 101.9503867 -47.86859982 101.9503867 -49.75 104.25 C-49.22644331 108.84553613 -46.0698548 111.4449379 -42.9375 114.5625 C-42.40318359 115.12517578 -41.86886719 115.68785156 -41.31835938 116.26757812 C-39.57444301 118.0798578 -39.57444301 118.0798578 -36.75 120.25 C-32.8417207 119.80933805 -31.44171012 118.05252873 -28.9375 115.125 C-25.22482146 111.27455973 -25.22482146 111.27455973 -21.125 111.0625 C-13.12142857 113.87857143 -13.12142857 113.87857143 -10.75 116.25 C-10.51328017 118.77793394 -10.3285675 121.27934966 -10.1875 123.8125 C-10.043125 126.266875 -9.89875 128.72125 -9.75 131.25 C-2.82 131.25 4.11 131.25 11.25 131.25 C11.58 125.64 11.91 120.03 12.25 114.25 C22.30477186 110.64829068 22.30477186 110.64829068 26.25 111.25 C28.56640625 113.25390625 28.56640625 113.25390625 30.8125 115.8125 C32.9503867 118.36859982 32.9503867 118.36859982 35.25 120.25 C38.44039358 119.90133185 40.0687886 118.79581611 42.265625 116.52734375 C42.79414063 115.98916016 43.32265625 115.45097656 43.8671875 114.89648438 C44.40601563 114.33251953 44.94484375 113.76855469 45.5 113.1875 C46.05429687 112.61966797 46.60859375 112.05183594 47.1796875 111.46679688 C48.54334214 110.06787531 49.89760417 108.65980886 51.25 107.25 C49.82938133 103.99772072 48.06494656 101.92979464 45.5625 99.4375 C42.25852547 95.73595177 42.25852547 95.73595177 42.1875 91.6875 C42.538125 90.553125 42.88875 89.41875 43.25 88.25 C43.91 85.94 44.57 83.63 45.25 81.25 C53.665 80.755 53.665 80.755 62.25 80.25 C62.27683436 76.93744674 62.2967578 73.62510817 62.3125 70.3125 C62.32506836 68.89420898 62.32506836 68.89420898 62.33789062 67.44726562 C62.34272461 66.09858398 62.34272461 66.09858398 62.34765625 64.72265625 C62.35551147 63.47367554 62.35551147 63.47367554 62.36352539 62.19946289 C62.46643292 60.24483202 62.46643292 60.24483202 61.25 59.25 C59.50990843 59.23110878 57.76973501 59.21475434 56.02954102 59.21411133 C47.23269545 59.10221307 47.23269545 59.10221307 44.3671875 56.6171875 C42.29455431 52.57939099 41.73210553 48.77139326 42.25 44.25 C44.21875 41.6953125 44.21875 41.6953125 46.75 39.375 C47.5853125 38.59382813 48.420625 37.81265625 49.28125 37.0078125 C49.9309375 36.42773438 50.580625 35.84765625 51.25 35.25 C49.62849996 31.27685079 46.89417127 28.45699562 43.9375 25.4375 C43.46376953 24.92251953 42.99003906 24.40753906 42.50195312 23.87695312 C40.24159943 21.56712521 38.94653941 20.27193003 35.64453125 20.16796875 C31.94908814 21.83785087 29.91375279 24.60151388 27.3125 27.6328125 C25.25 29.25 25.25 29.25 22.765625 29.0625 C21.93546875 28.794375 21.1053125 28.52625 20.25 28.25 C19.52296875 28.10304687 18.7959375 27.95609375 18.046875 27.8046875 C15.44952173 26.9422076 14.10356035 26.30324132 12.25 24.25 C11.46925281 20.26775316 11.28714905 16.53267837 11.28515625 12.48828125 C11.62909885 9.39596922 11.62909885 9.39596922 10.25 8.25 C8.84651265 8.15139869 7.43819523 8.11921063 6.03125 8.1171875 C5.18175781 8.11589844 4.33226562 8.11460937 3.45703125 8.11328125 C2.56371094 8.11714844 1.67039063 8.12101563 0.75 8.125 C-0.58998047 8.11919922 -0.58998047 8.11919922 -1.95703125 8.11328125 C-3.23126953 8.11521484 -3.23126953 8.11521484 -4.53125 8.1171875 C-5.31564453 8.11831543 -6.10003906 8.11944336 -6.90820312 8.12060547 C-8.76752988 8.04892558 -8.76752988 8.04892558 -9.75 9.25 Z " fill="#3964CC" transform="translate(222.75,133.75)"/>
<path d="M0 0 C0.77339012 -0.00709439 1.54678023 -0.01418877 2.34360641 -0.02149814 C4.92570324 -0.03904947 7.506289 -0.02098916 10.08836365 -0.00291443 C11.94318832 -0.00805432 13.7980081 -0.01533613 15.65281677 -0.02459717 C20.68381252 -0.04310915 25.71427822 -0.0301743 30.74525189 -0.01050687 C36.01066532 0.00588009 41.2760452 -0.00293322 46.54147339 -0.00802612 C55.38254768 -0.01254662 64.22341036 0.0033211 73.06443787 0.03126526 C83.2869797 0.0633268 93.50914011 0.06329741 103.73170906 0.04605049 C113.5657858 0.03018999 123.39972265 0.03691527 133.23379326 0.0539875 C137.41911987 0.06086141 141.60433446 0.05982208 145.7896595 0.05244255 C150.71704142 0.04478454 155.64398888 0.05689008 160.57129669 0.08429146 C162.38009031 0.09118107 164.18892446 0.09126709 165.9977169 0.08407593 C168.46592324 0.07539344 170.93278505 0.09131556 173.40087891 0.11352539 C174.11761121 0.10528462 174.83434351 0.09704386 175.57279497 0.08855337 C180.35085352 0.16797733 182.77867515 1.24756391 186.13694763 4.62818909 C187.70630357 7.76690096 187.48895866 10.16674731 187.13694763 13.62818909 C184.46092185 17.1669791 182.96767608 18.48235446 178.55275726 19.25739479 C177.1415097 19.2847689 175.72956815 19.28481398 174.31822205 19.2631073 C173.53751925 19.27090725 172.75681645 19.27870721 171.952456 19.28674352 C169.3396433 19.30666796 166.72828644 19.29089809 164.11546326 19.27516174 C162.24108022 19.28193769 160.36670384 19.29084069 158.49234009 19.30171204 C153.40345387 19.32451463 148.31507424 19.315665 143.22617912 19.29981661 C137.90202844 19.28716265 132.57792129 19.29889632 127.25376892 19.30674744 C118.31256823 19.31584545 109.37157401 19.30385203 100.43040466 19.28004456 C90.09138586 19.25283307 79.75286003 19.26164711 69.41385317 19.28917658 C60.53897012 19.31186225 51.66423554 19.31507036 42.78933287 19.30198324 C37.48787066 19.29418577 32.18664021 19.29315534 26.88519287 19.30966568 C21.90112531 19.32410321 16.91769366 19.31410168 11.93369484 19.2851944 C10.10393645 19.27857977 8.2741246 19.28048769 6.44438744 19.29150772 C3.94742558 19.30516042 1.45250477 19.28805299 -1.04432678 19.2631073 C-2.13212126 19.27983771 -2.13212126 19.27983771 -3.24189138 19.29690611 C-7.14861503 19.221127 -8.7423515 18.72699582 -11.80802155 16.21741295 C-14.56936338 12.73827673 -14.56936338 12.73827673 -14.55055237 9.62818909 C-14.57504456 8.98881409 -14.59953674 8.34943909 -14.62477112 7.69068909 C-12.20106839 1.12804786 -6.25339809 -0.10358762 0 0 Z " fill="#4872C6" transform="translate(136.86305236816406,385.37181091308594)"/>
<path d="M0 0 C1.1529015 -0.01064158 1.1529015 -0.01064158 2.32909393 -0.02149814 C4.89504054 -0.03904849 7.45946636 -0.02098965 10.02539062 -0.00291443 C11.86874073 -0.0080544 13.71208592 -0.01533627 15.55541992 -0.02459717 C20.5554932 -0.04310941 25.55503315 -0.03017363 30.55508423 -0.01050687 C35.78933327 0.00588233 41.0235486 -0.00293365 46.2578125 -0.00802612 C55.04761267 -0.01254677 63.83720002 0.00332103 72.62695312 0.03126526 C82.78699173 0.06331696 92.94664649 0.06330129 103.10671234 0.04605049 C112.88312083 0.03018299 122.65938868 0.03692043 132.43579102 0.0539875 C136.59517158 0.06085746 140.75443939 0.05982608 144.91381836 0.05244255 C149.81247702 0.04477761 154.7106992 0.05691279 159.60928345 0.08429146 C161.40636906 0.09117416 163.20349545 0.09127448 165.00057983 0.08407593 C167.45529961 0.07537662 169.90867386 0.09134412 172.36328125 0.11352539 C173.07320976 0.10528462 173.78313828 0.09704386 174.51457977 0.08855337 C179.49268882 0.17148892 182.34459497 1.50823655 186.18164062 4.62818909 C187.75099656 7.76690096 187.53365165 10.16674731 187.18164062 13.62818909 C184.50561484 17.1669791 183.01236907 18.48235446 178.59745026 19.25739479 C177.1862027 19.2847689 175.77426115 19.28481398 174.36291504 19.2631073 C173.58221224 19.27090725 172.80150945 19.27870721 171.99714899 19.28674352 C169.38433629 19.30666796 166.77297943 19.29089809 164.16015625 19.27516174 C162.28577321 19.28193769 160.41139684 19.29084069 158.53703308 19.30171204 C153.44814687 19.32451463 148.35976724 19.315665 143.27087212 19.29981661 C137.94672144 19.28716265 132.62261429 19.29889632 127.29846191 19.30674744 C118.35726123 19.31584545 109.416267 19.30385203 100.47509766 19.28004456 C90.13607885 19.25283307 79.79755302 19.26164711 69.45854616 19.28917658 C60.58366312 19.31186225 51.70892853 19.31507036 42.83402586 19.30198324 C37.53256365 19.29418577 32.23133321 19.29315534 26.92988586 19.30966568 C21.9458183 19.32410321 16.96238666 19.31410168 11.97838783 19.2851944 C10.14862944 19.27857977 8.31881759 19.28048769 6.48908043 19.29150772 C3.99211857 19.30516042 1.49719776 19.28805299 -0.99963379 19.2631073 C-2.08742827 19.27983771 -2.08742827 19.27983771 -3.19719839 19.29690611 C-7.10392204 19.221127 -8.69765851 18.72699582 -11.76332855 16.21741295 C-14.52467039 12.73827673 -14.52467039 12.73827673 -14.50585938 9.62818909 C-14.53035156 8.98881409 -14.55484375 8.34943909 -14.58007812 7.69068909 C-12.16463344 1.1504081 -6.23718361 -0.10398457 0 0 Z " fill="#4973C7" transform="translate(136.818359375,338.37181091308594)"/>
<path d="M0 0 C0.7807028 -0.00694553 1.56140559 -0.01389106 2.36576605 -0.02104706 C4.97838866 -0.03932463 7.590104 -0.02905101 10.20275879 -0.01878357 C12.07714009 -0.02584163 13.95151569 -0.03458616 15.82588196 -0.04489136 C20.91469556 -0.0674065 26.00319846 -0.06444083 31.09204292 -0.05556989 C35.33927002 -0.05046287 39.58643858 -0.05775015 43.83365965 -0.06504196 C53.85176419 -0.08204736 63.86971643 -0.0784682 73.88781738 -0.06175232 C84.2268239 -0.04482423 94.56540844 -0.06067363 104.90436888 -0.0929752 C113.77924079 -0.11965324 122.65398119 -0.1269521 131.52888918 -0.11846012 C136.83036445 -0.11352644 142.13158569 -0.11577059 147.43302917 -0.13624763 C152.41707555 -0.15457703 157.4005137 -0.14867958 162.38452721 -0.12404823 C164.21429324 -0.11903191 166.0441054 -0.12255136 167.87383461 -0.13519669 C170.37077531 -0.15108894 172.86570369 -0.13621467 175.36254883 -0.11352539 C176.08774515 -0.12536112 176.81294147 -0.13719685 177.56011343 -0.14939123 C181.40549018 -0.07832995 183.07166075 0.42842857 186.13088226 2.83517551 C188.18127441 5.5146637 188.18127441 5.5146637 188.80627441 9.0146637 C188.03050005 13.35900012 186.56348777 14.77668146 183.18127441 17.5146637 C180.18868398 19.01095891 177.11941658 18.66267252 173.83720398 18.66183472 C172.68837068 18.66734975 172.68837068 18.66734975 171.51632863 18.6729762 C168.93613135 18.68403666 166.35597431 18.68786085 163.77575684 18.69166565 C161.93137992 18.69792847 160.08700426 18.70457511 158.24263 18.71157837 C153.22191608 18.72900393 148.20121168 18.73954418 143.180475 18.7477839 C140.04564672 18.75293033 136.91082143 18.75900619 133.77599525 18.76529503 C123.97346368 18.7843507 114.17093966 18.79858152 104.36839312 18.806907 C93.04242349 18.81668444 81.71664904 18.84301566 70.3907482 18.88340789 C61.64335435 18.9135368 52.89601654 18.92837277 44.14857179 18.93168801 C38.92083577 18.93404202 33.69330817 18.94304804 28.46562767 18.96814919 C23.54821565 18.99137878 18.63115004 18.99568377 13.71369743 18.9853878 C11.9081075 18.9848911 10.10250082 18.99125105 8.29696274 19.00494385 C5.83298921 19.02258565 3.37026927 19.01559546 0.90629578 19.00241089 C-0.16705897 19.01886476 -0.16705897 19.01886476 -1.26209766 19.03565103 C-6.04222266 18.97384011 -8.46054265 17.89679285 -11.81872559 14.5146637 C-13.38573001 11.38065485 -13.67037119 7.88311274 -12.81872559 4.5146637 C-8.84079187 0.43322897 -5.466111 -0.06211414 0 0 Z " fill="#4A74C7" transform="translate(135.8187255859375,292.48533630371094)"/>
<path d="M0 0 C7.24414743 4.953617 12.83739061 13.08504305 14.67578125 21.71484375 C15.82586597 31.82423046 13.74386999 40.64993182 7.92578125 49.02734375 C1.91222207 56.40075299 -5.45846852 61.09176513 -14.96484375 62.1015625 C-25.39039022 62.70771358 -32.98099602 60.52492593 -41.44140625 54.109375 C-47.38870235 48.73638861 -51.97428942 40.49912349 -52.5625 32.45703125 C-52.7109823 24.72032206 -52.56489425 18.42594392 -48.32421875 11.71484375 C-47.90011719 11.01875 -47.47601563 10.32265625 -47.0390625 9.60546875 C-36.02714851 -6.71302218 -16.6057878 -9.18202384 0 0 Z " fill="#A3C7FE" transform="translate(242.32421875,175.28515625)"/>
<path d="M0 0 C1.62198303 -0.0236412 1.62198303 -0.0236412 3.2767334 -0.04776001 C4.43000122 -0.03763885 5.58326904 -0.0275177 6.77148438 -0.01708984 C7.96954712 -0.02187347 9.16760986 -0.0266571 10.40197754 -0.03158569 C12.93027055 -0.03498206 15.45860763 -0.02579837 17.98681641 -0.00488281 C21.85223505 0.02188264 25.71474959 -0.0046437 29.58007812 -0.03662109 C32.03971994 -0.03331695 34.49935995 -0.02691064 36.95898438 -0.01708984 C38.68888611 -0.03227158 38.68888611 -0.03227158 40.45373535 -0.04776001 C49.39062532 0.08249958 49.39062532 0.08249958 53.10400391 2.82983398 C55.67919411 6.03811726 56.08126147 7.33079473 55.95117188 11.38525391 C55.92216797 12.98530273 55.92216797 12.98530273 55.89257812 14.61767578 C55.84230469 15.72046875 55.79203125 16.82326172 55.74023438 17.95947266 C55.69962891 19.64266602 55.69962891 19.64266602 55.65820312 21.35986328 C55.58762439 24.12419725 55.48907925 26.8845968 55.36523438 29.64697266 C52.72523438 29.64697266 50.08523438 29.64697266 47.36523438 29.64697266 C47.31625 28.58736328 47.26726562 27.52775391 47.21679688 26.43603516 C47.14176728 25.04798768 47.06621953 23.65996815 46.99023438 22.27197266 C46.95929688 21.57330078 46.92835938 20.87462891 46.89648438 20.15478516 C46.77023939 15.94511439 46.77023939 15.94511439 44.36523438 12.64697266 C42.36007316 12.34182002 42.36007316 12.34182002 40.0390625 12.38818359 C39.14473511 12.38187927 38.25040771 12.37557495 37.32897949 12.36907959 C36.3612561 12.37312805 35.39353271 12.37717651 34.39648438 12.38134766 C33.4052356 12.3794342 32.41398682 12.37752075 31.3927002 12.37554932 C29.2945124 12.3741868 27.19631619 12.37788784 25.09814453 12.38623047 C21.87838892 12.39692895 18.65919129 12.3863373 15.43945312 12.37353516 C13.40429564 12.37485674 11.3691385 12.37741911 9.33398438 12.38134766 C7.88239929 12.37527496 7.88239929 12.37527496 6.40148926 12.36907959 C5.50716187 12.37538391 4.61283447 12.38168823 3.69140625 12.38818359 C2.50798645 12.39057037 2.50798645 12.39057037 1.30065918 12.39300537 C-0.87211595 12.47825743 -0.87211595 12.47825743 -2.63476562 14.64697266 C-2.94032695 16.84515413 -2.94032695 16.84515413 -2.89305115 19.42295837 C-2.89987915 20.43107071 -2.90670715 21.43918304 -2.91374207 22.47784424 C-2.91118912 23.58802917 -2.90863617 24.69821411 -2.90600586 25.84204102 C-2.9112326 27.00794266 -2.91645935 28.1738443 -2.92184448 29.37507629 C-2.93210735 31.91345302 -2.93786885 34.45185093 -2.93972588 36.99024773 C-2.943374 41.00289898 -2.95969978 45.01538114 -2.98048401 49.02796936 C-3.02971463 58.99530281 -3.06056781 68.96268344 -3.08178711 78.93011475 C-3.09829891 86.67419008 -3.12108316 94.41811723 -3.16480786 102.16209322 C-3.183038 105.49726085 -3.1933842 108.83217816 -3.19351006 112.16740227 C-3.19370125 115.8859608 -3.2119055 119.6040273 -3.23413086 123.32250977 C-3.22726509 124.98475082 -3.22726509 124.98475082 -3.22026062 126.68057251 C-3.23473236 128.19697075 -3.23473236 128.19697075 -3.24949646 129.7440033 C-3.25150779 130.62356154 -3.25351912 131.50311979 -3.25559139 132.40933132 C-3.71364156 135.11244745 -4.61454322 135.87726448 -6.63476562 137.64697266 C-7.09241173 139.60139965 -7.09241173 139.60139965 -7.03320312 141.73681641 C-7.03707031 142.52121094 -7.0409375 143.30560547 -7.04492188 144.11376953 C-7.03332031 144.92910156 -7.02171875 145.74443359 -7.00976562 146.58447266 C-7.02136719 147.3959375 -7.03296875 148.20740234 -7.04492188 149.04345703 C-7.03912109 150.22198242 -7.03912109 150.22198242 -7.03320312 151.42431641 C-7.02981934 152.13837646 -7.02643555 152.85243652 -7.02294922 153.58813477 C-6.68987657 156.18652894 -6.68987657 156.18652894 -3.63476562 159.64697266 C-0.00476563 159.97697266 3.62523437 160.30697266 7.36523438 160.64697266 C7.36523438 169.55697266 7.36523438 178.46697266 7.36523438 187.64697266 C1.09523438 187.64697266 -5.17476563 187.64697266 -11.63476562 187.64697266 C-11.77360045 164.00354876 -11.88070278 140.36022289 -11.94563866 116.71647358 C-11.97658963 105.73849432 -12.01879404 94.76077281 -12.08740234 83.78295898 C-12.14716615 74.21577526 -12.18590573 64.64877818 -12.19929659 55.08141297 C-12.20712546 50.01446727 -12.22555091 44.9480556 -12.26914597 39.8812809 C-12.30983924 35.11317941 -12.32244134 30.34583242 -12.31341171 25.57757378 C-12.31506383 23.82678249 -12.32701862 22.07596626 -12.34999847 20.32532501 C-12.37983666 17.93517761 -12.37268589 15.54788183 -12.35629272 13.15766907 C-12.37376977 12.46408068 -12.39124682 11.7704923 -12.40925348 11.05588609 C-12.35853806 8.32220532 -12.12360123 6.23645896 -10.34810996 4.09539604 C-6.94072917 1.13335988 -4.48488345 0.01886612 0 0 Z " fill="#DDE9FB" transform="translate(393.634765625,253.35302734375)"/>
<path d="M0 0 C5.13556954 3.37320794 7.7282493 6.49724789 9.6875 12.375 C10.08598941 18.25271882 9.72790527 23.21164508 6.6875 28.375 C2.81669766 32.69500657 -1.49316339 35.97715244 -7.375 36.58984375 C-12.68945221 36.81427163 -16.63485919 36.11097859 -21.3125 33.375 C-25.09703136 29.76487101 -28.8414177 25.62975046 -29.61328125 20.296875 C-29.64698996 14.04952661 -29.04627819 8.41928139 -24.73046875 3.61328125 C-17.17050916 -3.18903533 -9.12096589 -5.13895128 0 0 Z " fill="#DFEAFC" transform="translate(233.3125,186.625)"/>
<path d="M0 0 C8.5880572 -0.02312635 17.17610149 -0.04091658 25.76418209 -0.05181217 C29.751572 -0.05704036 33.73894067 -0.06413684 37.72631836 -0.07543945 C41.57125114 -0.08627061 45.41616345 -0.09227732 49.26111031 -0.09487724 C50.73118983 -0.09673108 52.20126818 -0.10035091 53.67133904 -0.10573006 C55.72354467 -0.11294355 57.77566467 -0.11399081 59.82788086 -0.11352539 C61.58327431 -0.11685631 61.58327431 -0.11685631 63.37413025 -0.12025452 C66 0 66 0 67 1 C67.09851171 2.83115883 67.12972629 4.66619933 67.125 6.5 C67.12886719 8.00046875 67.12886719 8.00046875 67.1328125 9.53125 C67 12 67 12 66 13 C63.98049791 13.09935148 61.95749085 13.12799508 59.93554688 13.12939453 C57.98847839 13.13412277 57.98847839 13.13412277 56.0020752 13.13894653 C54.57429979 13.13715675 53.14652469 13.1351058 51.71875 13.1328125 C50.26525862 13.13348558 48.81176736 13.13445564 47.35827637 13.13571167 C44.30833873 13.13718846 41.25843034 13.1350347 38.20849609 13.13037109 C34.29069441 13.1246738 30.37296122 13.12795291 26.45516205 13.13394356 C23.45269246 13.13754969 20.45023923 13.13641035 17.44776917 13.13381577 C16.00281262 13.13314664 14.55785461 13.13397442 13.11289978 13.13629532 C11.09675117 13.13882265 9.08059738 13.13429052 7.06445312 13.12939453 C5.34023132 13.12820114 5.34023132 13.12820114 3.58117676 13.12698364 C1 13 1 13 0 12 C-0.07244053 9.98035801 -0.08377188 7.95832876 -0.0625 5.9375 C-0.05347656 4.83277344 -0.04445313 3.72804688 -0.03515625 2.58984375 C-0.02355469 1.73519531 -0.01195312 0.88054687 0 0 Z " fill="#4570C6" transform="translate(382,485)"/>
<path d="M0 0 C5.92970498 2.64268742 9.59419794 7.0857366 12 13 C12.92140506 18.96265573 11.95858305 23.69495454 9 29 C5.26714335 33.43907277 1.52845934 36.39787383 -4.2890625 37.390625 C-10.31402549 37.800994 -14.27968188 36.47060438 -19.08203125 32.82421875 C-23.73895371 28.3949259 -25.21233532 23.84801199 -25.625 17.5 C-25.33742098 10.09484026 -21.49985704 6.43888492 -16.4375 1.5 C-10.99008656 -0.87705314 -5.83573119 -0.93343197 0 0 Z M-16.4375 13.8125 C-17.32511836 17.26434916 -16.96152953 19.57455106 -16 23 C-12.93461868 26.43030767 -11.04284646 27.81377742 -6.5 28.625 C-1.79660442 27.78510793 -0.25461659 26.4870892 3 23 C4.56174167 19.50904804 4.02091814 18.06740289 2.875 14.375 C0.86846434 10.76323581 -0.21462771 9.5321745 -4 8 C-9.27211323 7.05372327 -13.20230861 9.73334564 -16.4375 13.8125 Z " fill="#3963CD" transform="translate(230,22)"/>
<path d="M0 0 C2.64 0 5.28 0 8 0 C8 22.11 8 44.22 8 67 C1.73 67 -4.54 67 -11 67 C-11 58.09 -11 49.18 -11 40 C-5.555 39.505 -5.555 39.505 0 39 C3.09143326 35.09219488 3.09143326 35.09219488 3.3984375 30.77734375 C3.40230469 29.99166016 3.40617187 29.20597656 3.41015625 28.39648438 C3.39855469 27.58501953 3.38695312 26.77355469 3.375 25.9375 C3.38660156 25.12216797 3.39820313 24.30683594 3.41015625 23.46679688 C3.40628906 22.68240234 3.40242188 21.89800781 3.3984375 21.08984375 C3.39505371 20.37691162 3.39166992 19.66397949 3.38818359 18.92944336 C2.89450198 16.47562837 1.7617061 15.71533784 0 14 C-0.29296875 10.64453125 -0.29296875 10.64453125 -0.1875 6.8125 C-0.16042969 5.54019531 -0.13335937 4.26789063 -0.10546875 2.95703125 C-0.07066406 1.98121094 -0.03585937 1.00539063 0 0 Z " fill="#DFEAFB" transform="translate(441,374)"/>
<path d="M0 0 C8.91 0 17.82 0 27 0 C27 5.61 27 11.22 27 17 C18.09 17 9.18 17 0 17 C0 11.39 0 5.78 0 0 Z " fill="#D5E2F9" transform="translate(402,230)"/>
<path d="M0 0 C14.19 0 28.38 0 43 0 C43 3.3 43 6.6 43 10 C28.81 10 14.62 10 0 10 C0 6.7 0 3.4 0 0 Z " fill="#4570C6" transform="translate(394,396)"/>
<path d="M0 0 C4.29 0 8.58 0 13 0 C13 9.24 13 18.48 13 28 C8.71 28 4.42 28 0 28 C0 18.76 0 9.52 0 0 Z " fill="#68D6DC" transform="translate(409,449)"/>
<path d="M0 0 C4.29 0 8.58 0 13 0 C13 9.24 13 18.48 13 28 C8.71 28 4.42 28 0 28 C0 18.76 0 9.52 0 0 Z " fill="#67D5DB" transform="translate(409,414)"/>
<path d="M0 0 C2.64 0 5.28 0 8 0 C8 6.27 8 12.54 8 19 C5.36 19 2.72 19 0 19 C0 12.73 0 6.46 0 0 Z " fill="#DEE9FB" transform="translate(441,346)"/>
<path d="M0 0 C2.64 0 5.28 0 8 0 C8 6.27 8 12.54 8 19 C5.36 19 2.72 19 0 19 C0 12.73 0 6.46 0 0 Z " fill="#E0EBFC" transform="translate(441,319)"/>
<path d="M0 0 C2.64 0 5.28 0 8 0 C8 6.27 8 12.54 8 19 C5.36 19 2.72 19 0 19 C0 12.73 0 6.46 0 0 Z " fill="#DEE9FB" transform="translate(441,292)"/>
</svg>
