<?xml version="1.0" encoding="UTF-8"?>
<svg version="1.1" xmlns="http://www.w3.org/2000/svg" width="512" height="512">
<path d="M0 0 C8.20970458 7.22810947 8.20970458 7.22810947 10.16088867 11.6027832 C11.84445535 14.35052635 11.84445535 14.35052635 15.29052734 14.61181641 C16.63884064 14.6326589 17.98771472 14.62761046 19.3359375 14.6015625 C20.05230377 14.60956879 20.76867004 14.61757507 21.50674438 14.62582397 C23.79673726 14.64890864 26.08495911 14.63943303 28.375 14.625 C30.65756938 14.62114594 32.93935065 14.6246586 35.22183228 14.64559937 C36.64087264 14.65763643 38.06013407 14.65510452 39.47909546 14.63589478 C43.82755845 14.66032775 46.58983985 15.25746602 50 18 C50.70638815 19.3127216 51.37978016 20.64443754 52 22 C52.98003998 22.00364563 53.96007996 22.00729126 54.96981812 22.01104736 C64.23806954 22.04810336 73.50599196 22.1059912 82.77399254 22.18390274 C87.53798102 22.22329182 92.30178702 22.25552215 97.06591797 22.27099609 C101.66974309 22.28621936 106.27306627 22.32076466 110.87666702 22.36830902 C112.62674199 22.3830646 114.37688864 22.39103765 116.1270256 22.39188385 C127.96408294 22.40335571 138.33438096 22.76571901 147.46875 31.296875 C154.35597733 38.95715846 156.30488073 46.71254223 156.24050903 56.79489136 C156.24307231 58.2665347 156.24307231 58.2665347 156.24568737 59.76790822 C156.24897909 63.05221516 156.23798366 66.33631737 156.22705078 69.62060547 C156.2264866 71.97614029 156.22680336 74.33167547 156.22793579 76.68721008 C156.22851003 83.08130974 156.21674409 89.47533448 156.20278788 95.86941671 C156.19155841 101.87484674 156.18954164 107.88027685 156.18748413 113.88571538 C156.18310965 125.77864209 156.16980725 137.67154133 156.15087891 149.56445312 C156.13251371 161.1155585 156.11836034 172.66665641 156.10986328 184.21777344 C156.10933783 184.93008904 156.10881239 185.64240464 156.10827102 186.37630557 C156.10566089 189.94987474 156.10313349 193.52344397 156.10064721 197.09701324 C156.0799224 226.73136037 156.04455465 256.36567888 156 286 C156.96322174 285.99311157 157.92644348 285.98622314 158.91885376 285.97912598 C160.18135956 285.97376831 161.44386536 285.96841064 162.74462891 285.96289062 C163.99660065 285.9560022 165.24857239 285.94911377 166.53848267 285.9420166 C181.95392331 286.20023852 198.75987807 294.73176831 210 305 C210.83015625 305.75023437 211.6603125 306.50046875 212.515625 307.2734375 C218.48437324 312.93838718 222.96240861 318.84621629 227 326 C227.46148437 326.77730469 227.92296875 327.55460937 228.3984375 328.35546875 C236.46962011 342.95697184 236.53696192 358.30289444 236.25 374.5 C236.22988015 376.49867978 236.2116392 378.49737939 236.1953125 380.49609375 C236.15180712 385.3312306 236.0830909 390.1653881 236 395 C236.60972656 395.29648437 237.21945312 395.59296875 237.84765625 395.8984375 C244.64208563 399.37580426 248.32287524 404.85101541 251.12109375 411.7734375 C253.47442314 420.41277117 253.15184662 430.77578466 249.2578125 438.890625 C244.28191068 447.23530507 237.39435273 452.42449508 228 455 C216.90022728 455.99851512 207.2655134 455.34947202 198.1875 448.25 C192.1297661 442.59230513 188.40892632 435.54573908 187.6640625 427.265625 C187.41732463 416.2993469 188.78588496 407.71599691 196.546875 399.40625 C201.1 395 201.1 395 204 395 C203.90488262 390.96524448 203.79849102 386.93094246 203.68261719 382.89672852 C203.6448513 381.53059556 203.60991832 380.1643807 203.578125 378.7980957 C203.1836955 362.04100498 201.93864935 345.32121065 189.78515625 332.51953125 C181.29452845 325.29227914 172.57597082 321.68523929 161.71484375 319.92578125 C160.64226318 319.75087158 159.56968262 319.57596191 158.46459961 319.39575195 C157.65128174 319.26515381 156.83796387 319.13455566 156 319 C156.00368717 319.56800009 156.00737434 320.13600018 156.01117325 320.72121239 C156.09972638 334.57769669 156.16555166 348.43413104 156.20724869 362.29083824 C156.22782498 368.99201792 156.25635461 375.6929802 156.30175781 382.39404297 C156.34532586 388.86499663 156.36916058 395.33575375 156.37950897 401.8068428 C156.38688059 404.27151202 156.40127556 406.73617088 156.42292023 409.20075607 C156.45209886 412.66190303 156.45594982 416.12224527 156.45410156 419.58349609 C156.46848267 420.59482605 156.48286377 421.60615601 156.49768066 422.64813232 C156.44528153 431.75953481 154.01126627 439.71457854 147.703125 446.46875 C141.55261594 451.99856549 134.6416374 455.24507122 126.29208755 455.25726891 C125.17162167 455.2637178 124.05115578 455.27016669 122.89673638 455.276811 C121.67593117 455.2737138 120.45512597 455.2706166 119.19732666 455.26742554 C117.89251901 455.27195665 116.58771137 455.27648776 115.2433641 455.28115618 C111.62769719 455.29337733 108.01212287 455.29312677 104.39644003 455.29076743 C100.4944628 455.29035904 96.59251517 455.30140061 92.69055176 455.31088257 C85.04786261 455.32748897 77.40520432 455.33299196 69.76249865 455.33410732 C63.54895449 455.33505802 57.33542051 455.33916942 51.12187958 455.34550858 C33.49997085 455.36312045 15.87808647 455.3723476 -1.74383113 455.37084763 C-2.69365006 455.37076772 -3.64346899 455.3706878 -4.62207031 455.37060547 C-6.04854123 455.37048283 -6.04854123 455.37048283 -7.50382975 455.37035771 C-22.91293374 455.36954495 -38.32193994 455.38868014 -53.73101565 455.4168822 C-69.55821454 455.4456206 -85.38536577 455.45942195 -101.21259141 455.45769465 C-110.09623484 455.45703105 -118.97977578 455.46251008 -127.86339569 455.48405075 C-135.42777549 455.50227519 -142.99200634 455.50659958 -150.5563986 455.4930319 C-154.41389102 455.48650842 -158.2710978 455.48636232 -162.12856293 455.5037384 C-166.31572141 455.52240514 -170.50222049 455.50989845 -174.68939209 455.49447632 C-175.90127441 455.50476344 -177.11315673 455.51505057 -178.36176276 455.52564943 C-188.03819676 455.44695093 -196.25116436 453.44407763 -203.46875 446.703125 C-209.35504233 440.15612638 -212.24652692 433.12802905 -212.25726891 424.29257584 C-212.26077498 423.64031324 -212.26428105 422.98805064 -212.26789337 422.31602252 C-212.27718789 420.13314241 -212.27228919 417.95053023 -212.26742554 415.76763916 C-212.27116279 414.18566221 -212.27576461 412.6036871 -212.28115618 411.02171493 C-212.29339244 406.67635163 -212.29312498 402.33106528 -212.29076743 397.98568869 C-212.29035942 393.29843044 -212.30139693 388.61119693 -212.31088257 383.9239502 C-212.32749715 374.74119991 -212.33299233 365.55847529 -212.33410732 356.37571123 C-212.33505761 348.91121415 -212.33916696 341.44672554 -212.34550858 333.98223114 C-212.36312251 312.81872145 -212.37234725 291.65523205 -212.37084763 270.49171498 C-212.37076772 269.35072834 -212.3706878 268.20974169 -212.37060547 267.03417969 C-212.37052371 265.89179973 -212.37044195 264.74941977 -212.37035771 263.57242224 C-212.36954484 245.0593926 -212.38868223 226.54644434 -212.4168822 208.03343824 C-212.44560965 189.02412559 -212.45942256 170.01485263 -212.45769465 151.00551772 C-212.45703068 140.33335799 -212.46252586 129.66128355 -212.48405075 118.98914337 C-212.50226073 109.90230263 -212.50661139 100.81558585 -212.4930319 91.72873476 C-212.48650126 87.09355751 -212.48638856 82.45861808 -212.5037384 77.82346344 C-212.51946993 73.57693021 -212.51660475 69.33082333 -212.49917014 65.08430049 C-212.49610041 63.55133573 -212.49973165 62.01833914 -212.51089029 60.48541191 C-212.58595879 49.43761612 -211.5314181 39.91305877 -203.703125 31.53125 C-196.7161387 25.24937241 -189.3903856 22.68658395 -180.02270508 22.76049805 C-179.24636215 22.75848389 -178.47001923 22.75646973 -177.67015076 22.75439453 C-175.99398466 22.75086391 -174.3178052 22.75159767 -172.64164162 22.75617027 C-169.98959165 22.7617821 -167.33797592 22.75257644 -164.68595886 22.7389679 C-157.14942355 22.7019029 -149.61304003 22.68334025 -142.07641602 22.69458008 C-137.45921691 22.7004212 -132.84263448 22.68222727 -128.22556114 22.64869118 C-126.46688243 22.6407262 -124.70813671 22.64202903 -122.94947243 22.65271568 C-120.49533154 22.66699615 -118.04314346 22.65082636 -115.58911133 22.62768555 C-114.86126434 22.63945328 -114.13341736 22.65122101 -113.3835144 22.66334534 C-111.12038635 22.6771061 -111.12038635 22.6771061 -108 22 C-106.06237247 19.6426036 -106.06237247 19.6426036 -105 17 C-101.54941008 14.39130323 -97.74252443 14.78498797 -93.6015625 14.8671875 C-92.13801874 14.86638082 -90.67447504 14.86371867 -89.2109375 14.859375 C-86.91697511 14.86133817 -84.62556167 14.87498876 -82.33203125 14.92089844 C-73.55641653 15.40222278 -73.55641653 15.40222278 -65.73388672 12.28857422 C-64.21755235 10.25412374 -63.12892701 8.26532329 -62 6 C-55.63672591 -1.88556505 -46.32105447 -7.00807697 -36.33203125 -8.75390625 C-23.04413834 -10.15614621 -10.82725226 -8.19120555 0 0 Z " fill="#313032" transform="translate(236,33)"/>
<path d="M0 0 C1.80164108 0.0001133 1.80164108 0.0001133 3.63967896 0.00022888 C5.59283524 0.00797081 5.59283524 0.00797081 7.58544922 0.01586914 C8.92780505 0.01773401 10.27016156 0.01915759 11.61251831 0.02015686 C15.14709347 0.02397661 18.68162759 0.03380227 22.21618652 0.04486084 C25.82234136 0.05508661 29.42850282 0.05965698 33.03466797 0.06469727 C40.11150768 0.07542501 47.18831952 0.09249494 54.26513672 0.11352539 C54.31412109 1.13833008 54.36310547 2.16313477 54.41357422 3.21899414 C54.48864742 4.57969599 54.56419326 5.94037183 54.64013672 7.30102539 C54.67107422 7.97456055 54.70201172 8.6480957 54.73388672 9.34204102 C54.96521725 13.29393766 55.26589881 16.66085379 57.26513672 20.11352539 C61.01346246 22.85753884 63.65427024 23.48848787 68.26159668 23.48774719 C69.46446823 23.49476151 70.66733978 23.50177582 71.90666199 23.50900269 C73.21798599 23.50135895 74.52931 23.49371521 75.88037109 23.48583984 C77.28184784 23.48826907 78.68332285 23.49198966 80.08479309 23.49690247 C83.88439113 23.50629729 87.68373094 23.49689799 91.48330879 23.48357034 C95.46213945 23.47224189 99.44095765 23.47636443 103.4197998 23.47831726 C110.10119844 23.4791998 116.78249553 23.46812834 123.46386719 23.44970703 C131.18524399 23.42854001 138.90647205 23.42502978 146.62787199 23.43126899 C154.05973999 23.43696649 161.49155568 23.43131243 168.92341614 23.42009544 C172.08438587 23.41545458 175.24532356 23.41457339 178.40629578 23.41668129 C182.12947862 23.41856692 185.8525104 23.41043923 189.5756588 23.3946209 C191.59163334 23.38836443 193.6076308 23.39188223 195.62361145 23.39569092 C196.826483 23.38860611 198.02935455 23.3815213 199.26867676 23.3742218 C200.83381893 23.3711425 200.83381893 23.3711425 202.43058014 23.36800098 C205.44233478 23.09761723 207.57965415 22.49271917 210.26513672 21.11352539 C213.24322921 16.6825445 213.77573463 12.45460996 213.95263672 7.23852539 C213.98679687 6.55016602 214.02095703 5.86180664 214.05615234 5.15258789 C214.13777762 3.47343926 214.20315242 1.79351371 214.26513672 0.11352539 C221.85408581 0.04387254 229.44300156 -0.00936326 237.03219795 -0.04191113 C240.55657403 -0.05753623 244.08073066 -0.07871604 247.60498047 -0.11279297 C251.66099093 -0.15176413 255.71677252 -0.16620984 259.77294922 -0.17944336 C261.03253448 -0.19492722 262.29211975 -0.21041107 263.58987427 -0.22636414 C265.36103104 -0.22670403 265.36103104 -0.22670403 267.16796875 -0.22705078 C268.72017624 -0.23704353 268.72017624 -0.23704353 270.30374146 -0.24723816 C275.5034842 0.3862057 279.32816986 2.62076082 282.57763672 6.67602539 C283.06876953 7.27543945 283.55990234 7.87485352 284.06591797 8.49243164 C286.92890289 12.36259041 286.44432087 16.27997378 286.479599 20.91127014 C286.49033135 21.83359528 286.50106369 22.75592043 286.51212126 23.70619482 C286.54671966 26.81598037 286.57389039 29.92578381 286.60083008 33.03564453 C286.62345338 35.25776409 286.6463219 37.47988116 286.66941833 39.70199585 C286.8716621 60.0017276 286.98376806 80.30234111 287.07263851 100.60285282 C287.08474633 103.32019718 287.09707995 106.03754041 287.10961914 108.75488281 C287.11272599 109.43026057 287.11583283 110.10563833 287.11903382 110.80148207 C287.17082967 121.73398053 287.27499637 132.66536213 287.39941137 143.59724886 C287.52611907 154.82395807 287.59849271 166.0501123 287.62304598 177.27758878 C287.63843031 183.58058754 287.67799884 189.88130891 287.77592278 196.18361092 C287.86716819 202.11632912 287.89224079 208.04568483 287.86693764 213.97901535 C287.86918959 216.15396611 287.89536561 218.32904643 287.94747162 220.5033741 C288.31186908 236.52662239 288.31186908 236.52662239 284.90684438 240.83029628 C282.13172172 243.26863952 279.17966646 244.93047505 275.83272648 246.46050167 C260.97607413 253.34425243 252.20685992 269.60633348 246.42138672 284.18774414 C242.92789684 294.95933794 242.90918718 306.1949565 242.69873047 317.39868164 C242.53615804 323.64004912 242.10424622 329.13977554 240.26513672 335.11352539 C239.87455078 336.4090332 239.87455078 336.4090332 239.47607422 337.73071289 C234.88683134 350.12595768 226.05357846 358.44883236 214.41748047 364.25415039 C203.49481862 368.61528579 190.25227088 369.03462066 179.14013672 365.05102539 C173.4980644 362.50206886 168.77675445 359.34150507 164.26513672 355.11352539 C163.63994141 354.52958008 163.01474609 353.94563477 162.37060547 353.34399414 C153.51528545 344.17999194 150.12724649 332.85121504 150.15161133 320.35205078 C150.15168686 319.05123062 150.15176239 317.75041046 150.15184021 316.41017151 C150.15694531 315.01050782 150.16216128 313.61084453 150.16748047 312.21118164 C150.16934806 310.76387074 150.17077035 309.3165592 150.17176819 307.86924744 C150.17556654 304.07992779 150.18537362 300.29064713 150.19647217 296.50134277 C150.20674425 292.62663297 150.21127818 288.7519168 150.21630859 284.87719727 C150.22699856 277.28928896 150.24404238 269.70141266 150.26513672 262.11352539 C151.07487442 261.98632614 151.88461212 261.85912689 152.71888733 261.72807312 C153.78868332 261.55580704 154.85847931 261.38354095 155.96069336 261.20605469 C157.01793106 261.03760544 158.07516876 260.86915619 159.16444397 260.69560242 C163.53023737 259.87603458 167.56551052 258.5165824 171.70263672 256.92602539 C172.51611572 256.61777832 173.32959473 256.30953125 174.16772461 255.99194336 C186.06868376 251.3688197 196.33416685 245.17304702 206.26513672 237.11352539 C207.13009766 236.41485352 207.99505859 235.71618164 208.88623047 234.99633789 C230.58478479 216.51363795 242.84109654 188.17682061 245.26513672 160.11352539 C245.46417023 156.57072881 245.53984017 153.03636187 245.57763672 149.48852539 C245.62114258 148.11567383 245.62114258 148.11567383 245.66552734 146.71508789 C245.72083132 140.82734177 245.09726423 137.64173725 241.26513672 133.11352539 C240.93513672 132.78352539 240.60513672 132.45352539 240.26513672 132.11352539 C240.14257508 129.89053047 240.08525455 127.66389852 240.05419922 125.43774414 C240.0260716 124.03734301 239.99740697 122.63695259 239.96826172 121.23657227 C239.92744856 119.03630565 239.89056537 116.83622625 239.86376953 114.63574219 C239.67441818 100.31849453 238.29747155 87.31387311 228.51904297 76.11352539 C222.05327783 69.87628002 213.83814275 67.17784425 205.39013672 64.61352539 C201.10203708 63.26184181 198.57964881 61.11236966 195.26513672 58.11352539 C189.89562967 56.32368971 185.06778339 56.22920816 179.95263672 58.73852539 C176.44009404 61.84263288 173.68394966 64.49241521 172.91748047 69.28930664 C172.72493067 74.27048626 173.42249968 77.89858082 176.26513672 82.11352539 C180.95784245 86.34840617 183.76578161 87.41174861 189.94482422 87.33227539 C194.36261652 86.91578319 197.28643821 85.25534031 200.14013672 81.92602539 C200.51138672 81.32790039 200.88263672 80.72977539 201.26513672 80.11352539 C210.32685725 81.01969744 214.62853777 84.10480332 220.53076172 90.76196289 C225.16932441 97.05118528 224.73774342 103.91438854 224.80053711 111.40576172 C224.82753306 113.54281952 224.90251239 115.67497235 224.97802734 117.81079102 C225.16793722 127.83217767 225.16793722 127.83217767 222.73730469 131.28198242 C220.85498047 132.83618164 220.85498047 132.83618164 218.97192383 133.95751953 C216.78233455 135.44052701 216.16636493 136.63890525 215.26513672 139.11352539 C214.98130396 141.52498162 214.98130396 141.52498162 215.02685547 144.12133789 C215.01444824 145.09925293 215.00204102 146.07716797 214.98925781 147.0847168 C214.97717285 148.12547363 214.96508789 149.16623047 214.95263672 150.23852539 C214.38364052 170.50026686 208.60965545 188.5449202 195.26513672 204.11352539 C194.81912109 204.70262695 194.37310547 205.29172852 193.91357422 205.89868164 C182.63179073 220.38026922 163.1564235 229.28524027 145.26513672 232.11352539 C122.38879927 234.32928516 101.09652744 228.72941942 83.26513672 214.11352539 C82.56130859 213.57211914 81.85748047 213.03071289 81.13232422 212.47290039 C66.51191229 200.66190095 57.10212496 181.56244295 54.26513672 163.11352539 C53.85016184 157.83463932 53.69263565 152.55513813 53.71679688 147.26049805 C53.68052926 141.35083794 53.38718752 137.70767432 49.26513672 133.11352539 C47.97639648 132.25791016 47.97639648 132.25791016 46.66162109 131.38500977 C44.26513672 129.11352539 44.26513672 129.11352539 43.6340332 125.94067383 C43.63512085 124.10037598 43.63512085 124.10037598 43.63623047 122.22290039 C43.63381851 121.55945618 43.63140656 120.89601196 43.62892151 120.21246338 C43.62989888 118.81044535 43.64326703 117.40838822 43.66821289 116.0065918 C43.70231884 113.88331476 43.6889255 111.76425374 43.66943359 109.64086914 C43.67701999 100.68905073 44.34568381 94.5307979 50.44873047 87.65258789 C51.19251953 87.02094727 51.93630859 86.38930664 52.70263672 85.73852539 C53.81445312 84.76786133 53.81445312 84.76786133 54.94873047 83.77758789 C58.08933538 81.52143664 61.02626329 80.32504037 64.82763672 79.67602539 C68.3414575 80.30671117 69.19705659 82.31161038 71.26513672 85.11352539 C75.4706015 87.71860188 79.45666666 87.64872901 84.26513672 87.11352539 C88.9839236 85.42188481 91.47096489 83.25303921 94.26513672 79.11352539 C95.62106903 75.04572846 95.79589257 71.3668428 95.26513672 67.11352539 C92.61155174 61.99589722 89.73395846 58.93646597 84.26513672 57.11352539 C79.50844902 56.56084358 76.16548186 56.63000671 71.89013672 58.92602539 C69.37262705 60.89706966 69.37262705 60.89706966 67.94482422 62.66821289 C65.67205301 64.62385323 63.69578593 64.85917614 60.76513672 65.42602539 C49.83735362 67.9995975 41.84248296 72.95499836 35.26513672 82.11352539 C33.68402883 84.70465444 32.36931474 87.28748561 31.26513672 90.11352539 C30.75418457 91.40468262 30.75418457 91.40468262 30.23291016 92.72192383 C29.10753489 96.66584745 28.98623129 100.33587609 28.99169922 104.39868164 C28.97142147 105.99699608 28.95057091 107.59530333 28.92919922 109.19360352 C28.90657106 111.69081746 28.89010935 114.18774665 28.88427734 116.68505859 C28.87474444 119.1109437 28.84097816 121.53557781 28.80419922 123.96118164 C28.80924469 124.70400894 28.81429016 125.44683624 28.81948853 126.21217346 C28.72575743 131.16615014 27.67255242 133.5605462 24.26513672 137.11352539 C23.03094855 139.58190173 23.13582248 141.22989851 23.13232422 143.98852539 C23.13103516 144.9746582 23.12974609 145.96079102 23.12841797 146.97680664 C23.13421875 148.52948242 23.13421875 148.52948242 23.14013672 150.11352539 C23.13626953 151.11770508 23.13240234 152.12188477 23.12841797 153.15649414 C23.14124839 163.074409 23.90568512 172.17301593 26.82763672 181.67602539 C27.09157227 182.53663574 27.35550781 183.39724609 27.62744141 184.28393555 C37.30583596 214.6897589 57.12731014 237.50227495 85.38427734 252.16772461 C94.56782592 256.78572398 104.19386261 260.40802521 114.43798828 261.6496582 C115.70094727 261.80273438 116.96390625 261.95581055 118.26513672 262.11352539 C118.26656174 262.95051971 118.26798676 263.78751404 118.26945496 264.64987183 C118.28744327 272.62068501 118.32951735 280.59095457 118.39722729 288.56150627 C118.43120894 292.65720508 118.45656157 296.75254235 118.46069336 300.84838867 C118.49246646 324.10849447 119.81136486 343.28324005 131.26513672 364.11352539 C131.93610078 365.44470136 132.60362548 366.77762678 133.26513672 368.11352539 C115.24545392 368.20699488 97.2258341 368.27751736 79.20596123 368.32077408 C70.83888517 368.34139339 62.4719598 368.36950183 54.10498047 368.4152832 C46.81173543 368.45517041 39.51859954 368.4809628 32.22524846 368.48987937 C28.36394497 368.49509098 24.50295369 368.50732665 20.64175034 368.53644562 C17.0055787 368.56364473 13.36984716 368.57196148 9.73358345 368.56595612 C7.76659145 368.56757707 5.79964711 368.58907638 3.83277893 368.61120605 C-3.96034319 368.57482369 -7.76295857 367.97221666 -13.37939453 362.51586914 C-16.98982896 357.98773232 -17.85925166 355.10839223 -17.86908436 349.40438366 C-17.8735422 348.20730602 -17.87800005 347.01022839 -17.88259298 345.77687567 C-17.88250368 344.44176049 -17.88231382 343.10664531 -17.8820343 341.77153015 C-17.88533301 340.35840959 -17.8890586 338.94528996 -17.89317578 337.53217155 C-17.90320284 333.63979203 -17.9069137 329.74742794 -17.90956509 325.85503733 C-17.91346598 321.66065541 -17.92304437 317.46628573 -17.93177795 313.27191162 C-17.95154705 303.13882595 -17.96160852 293.00573928 -17.97050574 282.87263915 C-17.97488736 278.10312425 -17.98025445 273.33361047 -17.98549461 268.56409645 C-18.0025063 252.71375477 -18.01700158 236.86341379 -18.02424335 221.01306438 C-18.0261533 216.89917182 -18.02807363 212.78527926 -18.0300293 208.67138672 C-18.03051304 207.64887622 -18.03099678 206.62636572 -18.03149518 205.57287005 C-18.03979968 189.00013908 -18.06514396 172.42748018 -18.09760997 155.8547807 C-18.13065544 138.84796866 -18.14868978 121.84119329 -18.1518876 104.83434898 C-18.15405488 95.28232435 -18.1628355 85.73040487 -18.18834877 76.17841148 C-18.21002135 68.04549118 -18.21812315 59.91270158 -18.20838199 51.77975567 C-18.20382744 47.62911818 -18.20579025 43.47875054 -18.22514343 39.3281498 C-18.24270575 35.52888277 -18.24183434 31.73008385 -18.22624614 27.93081234 C-18.22272826 25.90432236 -18.23894787 23.87782786 -18.25585061 21.85140532 C-18.19998663 14.0071681 -17.66987458 10.07677839 -12.10205078 4.46899414 C-7.62602093 0.9655048 -5.64775148 -0.01181538 0 0 Z " fill="#E5E6E7" transform="translate(73.73486328125,87.886474609375)"/>
<path d="M0 0 C5.67476113 1.96434039 9.31400331 5.62800662 12 11 C12.59057744 16.67862925 12.29370905 21.16922672 9 26 C4.99653611 30.03627917 1.41408246 32.12458106 -4.3125 32.3125 C-8.91166282 32.26006655 -11.48810392 31.08361607 -15 28 C-15.71030916 26.68939589 -16.38636627 25.35855654 -17 24 C-26.16112634 25.97114399 -31.94070425 29.43021118 -37.18359375 37.26171875 C-39.92156106 43.02036379 -39.70746736 49.26734551 -39.6862793 55.51855469 C-39.68750265 57.62956634 -39.7475519 59.73378593 -39.81054688 61.84375 C-40.07849637 68.86864673 -40.07849637 68.86864673 -37.46337891 75.15527344 C-35.6495652 76.73452236 -35.6495652 76.73452236 -33.70239258 77.83740234 C-31.52352787 79.32539227 -30.90006156 80.53158604 -30 83 C-29.77636719 85.32397461 -29.77636719 85.32397461 -29.796875 87.90234375 C-29.6213747 110.94688366 -24.84594336 129.99307827 -10 148 C-9.278125 148.99 -8.55625 149.98 -7.8125 151 C3.56425742 164.28511673 22.91618548 172.9645557 40 175 C63.20872807 176.64746287 84.06104941 171.28548082 102 156 C102.99 155.278125 103.98 154.55625 105 153.8125 C118.1330241 142.60759301 126.40956104 123.84560905 129 107 C129.41497487 101.72111393 129.57250107 96.44161274 129.54833984 91.14697266 C129.58460745 85.23731255 129.8779492 81.59414893 134 77 C134.85916016 76.42958984 135.71832031 75.85917969 136.60351562 75.27148438 C139.28395828 73.16884159 139.28395828 73.16884159 139.63110352 69.82714844 C139.63001587 67.98685059 139.63001587 67.98685059 139.62890625 66.109375 C139.63252419 65.11420868 139.63252419 65.11420868 139.63621521 64.09893799 C139.63523784 62.69691996 139.62186969 61.29486283 139.59692383 59.89306641 C139.56281787 57.76978937 139.57621121 55.65072835 139.59570312 53.52734375 C139.58742405 44.74977771 138.85174548 38.75160742 133.2109375 31.79296875 C128.19532266 27.40697364 123.50060022 25.39869472 117 24 C116.70996094 24.62519531 116.41992188 25.25039062 116.12109375 25.89453125 C114.23268211 29.44106043 111.73812251 30.75395916 108 32 C103.33305478 32.54225459 99.92228952 32.4698456 95.6875 30.3125 C91.55326303 26.7551333 88.41210073 23.54676857 87.76171875 17.94921875 C87.57998207 12.41103242 88.25486994 9.35244845 92 5 C96.75762883 0.80875556 99.46392767 -0.2986173 105.68359375 -0.21875 C109.90643416 0.18003425 112.93626336 1.76389862 115.6875 4.9609375 C118.70796859 7.62425609 121.88356206 8.37754257 125.6875 9.375 C136.88239569 12.61658991 144.84317609 18.00692295 151.25 27.9375 C157.06162916 38.5351767 156.34945898 50.77612345 156.38085938 62.50024414 C156.39039143 64.62184064 156.42412123 66.74200709 156.4609375 68.86328125 C156.46915527 70.11407471 156.47737305 71.36486816 156.48583984 72.65356445 C157.0860582 76.56011384 158.3430366 78.14640213 161 81 C167.52546964 94.05093929 160.58142825 119.03907309 156.3125 132.25 C146.54093825 160.62232851 125.8997581 183.81976568 99 197 C88.4354951 201.86569671 77.73488513 206.09779071 66 206 C66.08469924 214.31967007 66.17969477 222.639134 66.28752708 230.95853329 C66.337291 234.82233589 66.38362126 238.68611376 66.421875 242.55004883 C66.45898121 246.28492588 66.50540656 250.01958535 66.55806351 253.75427437 C66.57647386 255.17304192 66.59163009 256.59185586 66.60334396 258.0106945 C66.73867648 273.84833915 69.52856904 287.17932402 80.80078125 299.03125 C89.52205995 306.83857587 99.76405052 310.58716544 111.375 310.4375 C112.20572021 310.42992676 113.03644043 310.42235352 113.89233398 310.41455078 C120.55060598 310.23654644 126.04778931 309.09630346 132 306 C132.87011719 305.56429688 133.74023438 305.12859375 134.63671875 304.6796875 C144.38412482 299.34702588 149.62316456 292.0486896 154 282 C154.35449219 281.19949219 154.70898438 280.39898437 155.07421875 279.57421875 C156.79560427 274.78775016 157.12792587 269.98345323 157.24609375 264.9296875 C157.27896484 263.785 157.31183594 262.6403125 157.34570312 261.4609375 C157.40629896 259.09383228 157.46365705 256.72664168 157.51757812 254.359375 C158.21579412 230.80446568 165.81362426 211.58621659 183 195 C201.61187228 178.69449806 223.70857526 173.40073435 248 175 C262.31530406 176.76173547 277.38109344 184.29926957 288 194 C288.83015625 194.75023437 289.6603125 195.50046875 290.515625 196.2734375 C296.48437324 201.93838718 300.96240861 207.84621629 305 215 C305.46148437 215.77730469 305.92296875 216.55460938 306.3984375 217.35546875 C314.46962011 231.95697184 314.53696192 247.30289444 314.25 263.5 C314.22988015 265.49867978 314.2116392 267.49737939 314.1953125 269.49609375 C314.15180712 274.3312306 314.0830909 279.1653881 314 284 C314.60972656 284.29648437 315.21945312 284.59296875 315.84765625 284.8984375 C322.64208563 288.37580426 326.32287524 293.85101541 329.12109375 300.7734375 C331.47442314 309.41277117 331.15184662 319.77578466 327.2578125 327.890625 C322.28191068 336.23530507 315.39435273 341.42449508 306 344 C294.90022728 344.99851512 285.2655134 344.34947202 276.1875 337.25 C270.1297661 331.59230513 266.40892632 324.54573908 265.6640625 316.265625 C265.41732463 305.2993469 266.78588496 296.71599691 274.546875 288.40625 C279.1 284 279.1 284 282 284 C281.90488262 279.96524448 281.79849102 275.93094246 281.68261719 271.89672852 C281.6448513 270.53059556 281.60991832 269.1643807 281.578125 267.7980957 C281.1836955 251.04100498 279.93864935 234.32121065 267.78515625 221.51953125 C255.49841503 211.06101411 241.89545446 207.80784092 226 209 C217.30273629 210.79667158 209.27233556 215.72766444 203 222 C202.89101046 224.37125144 202.84578258 226.71445216 202.84228516 229.08666992 C202.83720444 229.82820312 202.83212372 230.56973633 202.82688904 231.33374023 C202.81616132 232.94995619 202.80755063 234.56618722 202.80076981 236.18242455 C202.78900764 238.74240821 202.7695598 241.3022211 202.74765015 243.86213684 C202.68595881 251.14281505 202.63205499 258.42347866 202.59863281 265.7043457 C202.57765603 270.15361119 202.54232222 274.60257036 202.49787521 279.05166054 C202.48373152 280.74643655 202.47499646 282.44126681 202.47182083 284.13609886 C202.46689758 286.51317598 202.44370207 288.88944519 202.41650391 291.26635742 C202.41951004 291.96322159 202.42251617 292.66008575 202.4256134 293.37806702 C202.33379948 298.79679715 200.97707118 302.8566751 197.28125 306.86328125 C196.6934375 307.34152344 196.105625 307.81976563 195.5 308.3125 C194.9121875 308.80363281 194.324375 309.29476563 193.71875 309.80078125 C191.00197597 311.69634858 189.1104907 312.00365594 185.8125 311.89453125 C177.85557345 311.66691177 177.85557345 311.66691177 171.09375 315.3828125 C169.7365445 316.9027313 168.46954298 318.47554846 167.19628906 320.06616211 C156.95788921 332.75198077 139.86978064 340.4737104 124 343 C120.61907092 343.2819131 117.26656238 343.33423473 113.875 343.3125 C112.95920166 343.30758545 112.04340332 343.3026709 111.09985352 343.29760742 C87.69756127 342.89846048 69.43556062 333.40639787 53.06640625 317.0703125 C41.42738936 304.57586676 33.85559994 286.14203104 33.88647461 269.0065918 C33.88632858 268.32311172 33.88618256 267.63963165 33.8860321 266.93544006 C33.88672538 264.68999999 33.89449026 262.44464423 33.90234375 260.19921875 C33.90421001 258.63694809 33.90563293 257.07467685 33.90663147 255.5124054 C33.91044028 251.41069916 33.92025654 247.30902861 33.93133545 243.20733643 C33.9415848 239.01778649 33.94613663 234.82823075 33.95117188 230.63867188 C33.96188033 222.42576491 33.97893703 214.2128869 34 206 C32.03771973 206.02644857 30.07543945 206.05289714 28.11315918 206.0793457 C6.34852609 205.262119 -18.84333774 187.09889567 -32.98828125 171.859375 C-45.35541725 157.97483784 -53.52248543 141.83357794 -58.875 124.125 C-59.07826904 123.46016602 -59.28153809 122.79533203 -59.4909668 122.11035156 C-62.08174969 113.02185374 -62.22040614 103.64357338 -62.3125 94.25 C-62.34150391 93.24839844 -62.37050781 92.24679688 -62.40039062 91.21484375 C-62.45283114 85.12367603 -62.03170427 81.65611736 -58 77 C-57.505 76.505 -57.505 76.505 -57 76 C-56.90148333 73.47579672 -56.86285789 70.97402426 -56.859375 68.44921875 C-56.84101529 66.86652243 -56.82144216 65.28383982 -56.80078125 63.70117188 C-56.77206573 61.21095211 -56.75000678 58.72159603 -56.74951172 56.23120117 C-56.728527 41.32155597 -54.18430895 29.31427559 -43.34375 18.3203125 C-37.50858991 12.98909805 -31.63060497 10.28448524 -23.9375 8.625 C-18.92731865 7.48488288 -15.92496038 5.92496038 -12.3046875 2.3046875 C-8.94191144 -1.05808856 -4.43344441 -0.40440202 0 0 Z " fill="#01B3B1" transform="translate(158,144)"/>
<path d="M0 0 C8.20970458 7.22810947 8.20970458 7.22810947 10.16088867 11.6027832 C11.84445535 14.35052635 11.84445535 14.35052635 15.29052734 14.61181641 C16.63884064 14.6326589 17.98771472 14.62761046 19.3359375 14.6015625 C20.05230377 14.60956879 20.76867004 14.61757507 21.50674438 14.62582397 C23.79673726 14.64890864 26.08495911 14.63943303 28.375 14.625 C30.65756938 14.62114594 32.93935065 14.6246586 35.22183228 14.64559937 C36.64087264 14.65763643 38.06013407 14.65510452 39.47909546 14.63589478 C43.82755845 14.66032775 46.58983985 15.25746602 50 18 C50.70638815 19.3127216 51.37978016 20.64443754 52 22 C53.47005997 22.00546844 53.47005997 22.00546844 54.96981812 22.01104736 C64.23806954 22.04810336 73.50599196 22.1059912 82.77399254 22.18390274 C87.53798102 22.22329182 92.30178702 22.25552215 97.06591797 22.27099609 C101.66974309 22.28621936 106.27306627 22.32076466 110.87666702 22.36830902 C112.62674199 22.3830646 114.37688864 22.39103765 116.1270256 22.39188385 C127.96408294 22.40335571 138.33438096 22.76571901 147.46875 31.296875 C154.35597733 38.95715846 156.30488073 46.71254223 156.24050903 56.79489136 C156.24307231 58.2665347 156.24307231 58.2665347 156.24568737 59.76790822 C156.24897909 63.05221516 156.23798366 66.33631737 156.22705078 69.62060547 C156.2264866 71.97614029 156.22680336 74.33167547 156.22793579 76.68721008 C156.22851003 83.08130974 156.21674409 89.47533448 156.20278788 95.86941671 C156.19155841 101.87484674 156.18954164 107.88027685 156.18748413 113.88571538 C156.18310965 125.77864209 156.16980725 137.67154133 156.15087891 149.56445312 C156.13251371 161.1155585 156.11836034 172.66665641 156.10986328 184.21777344 C156.10933783 184.93008904 156.10881239 185.64240464 156.10827102 186.37630557 C156.10566089 189.94987474 156.10313349 193.52344397 156.10064721 197.09701324 C156.0799224 226.73136037 156.04455465 256.36567888 156 286 C154.29457031 286.23783203 154.29457031 286.23783203 152.5546875 286.48046875 C142.50216519 287.96944809 133.42638433 290.16579544 124 294 C123.99853344 292.83563353 123.99706688 291.67126705 123.99555588 290.47161674 C123.9598532 262.83135021 123.90361108 235.19118758 123.82207905 207.55101662 C123.8120616 204.14892037 123.80221747 200.74682363 123.79248047 197.34472656 C123.7905391 196.66743087 123.78859772 195.99013518 123.78659752 195.29231538 C123.75557717 184.32591153 123.73859678 173.35952861 123.72680578 162.39308916 C123.71439438 151.14033951 123.6865959 139.887699 123.64538693 128.63501179 C123.62272871 122.31458861 123.60709194 115.99432223 123.60811615 109.67385483 C123.60886017 103.7263488 123.59101276 97.77918999 123.55883217 91.83177376 C123.55030493 89.6476824 123.54860229 87.46355221 123.55419731 85.27945137 C123.56081605 82.29900138 123.54296695 79.319663 123.51898193 76.33932495 C123.52674235 75.47355674 123.53450277 74.60778852 123.54249835 73.71578491 C123.46569311 68.33038845 122.55866843 65.28304573 119 61 C114.44634185 56.89060118 111.29728564 55.88503411 105.2434082 55.79467773 C104.06241043 55.77473251 102.88141266 55.75478729 101.66462708 55.73423767 C100.38955795 55.71752518 99.11448883 55.70081268 97.80078125 55.68359375 C95.84279854 55.6524221 95.84279854 55.6524221 93.84526062 55.62062073 C90.37817647 55.56547727 86.91103354 55.51603405 83.44384766 55.46777344 C79.90456931 55.4175019 76.36537611 55.36184537 72.82617188 55.30664062 C65.88418844 55.19915362 58.94212806 55.09768773 52 55 C52.01957764 56.03278076 52.03915527 57.06556152 52.05932617 58.12963867 C52.07515943 59.49657687 52.09051516 60.86352065 52.10546875 62.23046875 C52.11960815 62.9097644 52.13374756 63.58906006 52.14831543 64.28894043 C52.19389439 69.84450908 51.61264812 72.80151704 48 77 C44.25943593 78.89692224 41.17437164 79.25403298 37.01026917 79.26742554 C35.80884277 79.27595551 34.60741638 79.28448547 33.36958313 79.29327393 C32.05983017 79.29236755 30.75007721 79.29146118 29.40063477 79.29052734 C28.00077965 79.29651477 26.60092782 79.30332082 25.20108032 79.31088257 C21.40562232 79.32852591 17.61025454 79.33323718 13.81475949 79.33451414 C11.44223613 79.335937 9.06973562 79.34020911 6.69721794 79.34550858 C-1.58313577 79.36400184 -9.86342515 79.37217988 -18.14379883 79.37060547 C-25.85727813 79.36940357 -33.57047783 79.39051706 -41.28388637 79.4220928 C-47.91164032 79.44825565 -54.53930293 79.4589728 -61.16710812 79.45769465 C-65.12331514 79.45718511 -69.07927351 79.46286408 -73.035429 79.48405075 C-76.75624701 79.50343405 -80.47657912 79.50355744 -84.1974144 79.48901749 C-86.20965175 79.48593421 -88.22188916 79.50260431 -90.23405457 79.51989746 C-101.58874474 79.44079882 -101.58874474 79.44079882 -106 75 C-107.84582318 71.67753071 -108.25366993 68.87060448 -108.2746582 65.10546875 C-108.28419022 64.16098877 -108.29372223 63.21650879 -108.30354309 62.2434082 C-108.30263168 61.2349585 -108.30172028 60.22650879 -108.30078125 59.1875 C-108.30506638 58.14102295 -108.3093515 57.0945459 -108.31376648 56.01635742 C-108.31950037 53.80746178 -108.32001699 51.59854725 -108.31567383 49.38964844 C-108.31251128 46.01204247 -108.33599443 42.63531042 -108.36132812 39.2578125 C-108.36360096 37.1093761 -108.36430469 34.96093735 -108.36328125 32.8125 C-108.372491 31.80405029 -108.38170074 30.79560059 -108.39118958 29.7565918 C-108.33185716 20.75993605 -108.33185716 20.75993605 -105 17 C-101.54941008 14.39130323 -97.74252443 14.78498797 -93.6015625 14.8671875 C-92.13801874 14.86638082 -90.67447504 14.86371867 -89.2109375 14.859375 C-86.91697511 14.86133817 -84.62556167 14.87498876 -82.33203125 14.92089844 C-73.55641653 15.40222278 -73.55641653 15.40222278 -65.73388672 12.28857422 C-64.21755235 10.25412374 -63.12892701 8.26532329 -62 6 C-55.63672591 -1.88556505 -46.32105447 -7.00807697 -36.33203125 -8.75390625 C-23.04413834 -10.15614621 -10.82725226 -8.19120555 0 0 Z " fill="#413F42" transform="translate(236,33)"/>
<path d="M0 0 C10.25798354 -0.09062439 20.51569811 -0.16390188 30.77399254 -0.20724869 C35.53811985 -0.22806042 40.30195738 -0.25625989 45.06591797 -0.30175781 C49.66952968 -0.34544564 54.27286389 -0.36918527 58.87666702 -0.37950897 C60.62683094 -0.38685939 62.37698088 -0.40121246 64.1270256 -0.42292023 C75.96318223 -0.56380381 86.36870759 -0.20222121 95.46875 8.296875 C102.35597733 15.95715846 104.30488073 23.71254223 104.24050903 33.79489136 C104.24221788 34.77598692 104.24392673 35.75708248 104.24568737 36.76790822 C104.24897909 40.05221516 104.23798366 43.33631737 104.22705078 46.62060547 C104.2264866 48.97614029 104.22680336 51.33167547 104.22793579 53.68721008 C104.22851003 60.08130974 104.21674409 66.47533448 104.20278788 72.86941671 C104.19155841 78.87484674 104.18954164 84.88027685 104.18748413 90.88571538 C104.18310965 102.77864209 104.16980725 114.67154133 104.15087891 126.56445312 C104.13251371 138.1155585 104.11836034 149.66665641 104.10986328 161.21777344 C104.10933783 161.93008904 104.10881239 162.64240464 104.10827102 163.37630557 C104.10566089 166.94987474 104.10313349 170.52344397 104.10064721 174.09701324 C104.0799224 203.73136037 104.04455465 233.36567888 104 263 C102.86304688 263.15855469 101.72609375 263.31710937 100.5546875 263.48046875 C90.50216519 264.96944809 81.42638433 267.16579544 72 271 C71.99780016 269.25345029 71.99780016 269.25345029 71.99555588 267.47161674 C71.9598532 239.83135021 71.90361108 212.19118758 71.82207905 184.55101662 C71.8120616 181.14892037 71.80221747 177.74682363 71.79248047 174.34472656 C71.7905391 173.66743087 71.78859772 172.99013518 71.78659752 172.29231538 C71.75557717 161.32591153 71.73859678 150.35952861 71.72680578 139.39308916 C71.71439438 128.14033951 71.6865959 116.887699 71.64538693 105.63501179 C71.62272871 99.31458861 71.60709194 92.99432223 71.60811615 86.67385483 C71.60886017 80.7263488 71.59101276 74.77918999 71.55883217 68.83177376 C71.55030493 66.6476824 71.54860229 64.46355221 71.55419731 62.27945137 C71.56081605 59.29900138 71.54296695 56.319663 71.51898193 53.33932495 C71.53062256 52.04067263 71.53062256 52.04067263 71.54249835 50.71578491 C71.46569311 45.33038845 70.55866843 42.28304573 67 38 C62.44634185 33.89060118 59.29728564 32.88503411 53.2434082 32.79467773 C52.06241043 32.77473251 50.88141266 32.75478729 49.66462708 32.73423767 C48.38955795 32.71752518 47.11448883 32.70081268 45.80078125 32.68359375 C44.49545944 32.66281265 43.19013763 32.64203156 41.84526062 32.62062073 C38.37817647 32.56547727 34.91103354 32.51603405 31.44384766 32.46777344 C27.9045694 32.4175019 24.36537523 32.36189738 20.82617188 32.30664062 C13.88417911 32.19864954 6.94213921 32.09956684 0 32 C0 21.44 0 10.88 0 0 Z " fill="#313032" transform="translate(288,56)"/>
<path d="M0 0 C0.93714844 -0.00257813 1.87429687 -0.00515625 2.83984375 -0.0078125 C7.80437377 0.06260637 11.52949427 0.18039685 15.5 3.5 C16.67426264 5.84852528 16.61508173 7.23774065 16.59765625 9.8515625 C16.59443359 10.70234375 16.59121094 11.553125 16.58789062 12.4296875 C16.57532227 13.76386719 16.57532227 13.76386719 16.5625 15.125 C16.55798828 16.0221875 16.55347656 16.919375 16.54882812 17.84375 C16.53702591 20.06256648 16.52056155 22.28125018 16.5 24.5 C17.74136719 24.46519531 18.98273438 24.43039063 20.26171875 24.39453125 C21.90363226 24.36638416 23.54556046 24.33908499 25.1875 24.3125 C26.00412109 24.28736328 26.82074219 24.26222656 27.66210938 24.23632812 C32.44015822 24.17829514 35.63423093 24.35096129 39.5 27.5 C41.36630915 31.2326183 40.72798906 35.70470785 40.75 39.8125 C40.770625 40.76318359 40.79125 41.71386719 40.8125 42.69335938 C40.8627921 51.68935942 40.8627921 51.68935942 37.5 55.5 C34.73434618 56.42188461 33.11716298 56.61785222 30.26953125 56.59765625 C29.46708984 56.59443359 28.66464844 56.59121094 27.83789062 56.58789062 C27.00451172 56.57951172 26.17113281 56.57113281 25.3125 56.5625 C24.46751953 56.55798828 23.62253906 56.55347656 22.75195312 56.54882812 C20.66793845 56.53705403 18.58396023 56.5191189 16.5 56.5 C16.55220703 58.36205078 16.55220703 58.36205078 16.60546875 60.26171875 C16.63361584 61.90363226 16.66091501 63.54556046 16.6875 65.1875 C16.71263672 66.00412109 16.73777344 66.82074219 16.76367188 67.66210938 C16.8213146 72.40802701 16.70816603 75.70853106 13.5 79.5 C9.06039131 80.97986956 4.71322847 80.72497927 0.0625 80.75 C-0.89205078 80.770625 -1.84660156 80.79125 -2.83007812 80.8125 C-3.75111328 80.81765625 -4.67214844 80.8228125 -5.62109375 80.828125 C-6.4608374 80.8374707 -7.30058105 80.84681641 -8.16577148 80.85644531 C-11.05257208 80.4156202 -12.3942602 79.49722064 -14.5 77.5 C-15.42188461 74.73434618 -15.61785222 73.11716298 -15.59765625 70.26953125 C-15.59443359 69.46708984 -15.59121094 68.66464844 -15.58789062 67.83789062 C-15.57951172 67.00451172 -15.57113281 66.17113281 -15.5625 65.3125 C-15.55798828 64.46751953 -15.55347656 63.62253906 -15.54882812 62.75195312 C-15.53705403 60.66793845 -15.5191189 58.58396023 -15.5 56.5 C-16.05461914 56.51571045 -16.60923828 56.5314209 -17.18066406 56.54760742 C-19.70367152 56.61012862 -22.22651576 56.64904342 -24.75 56.6875 C-25.62269531 56.71263672 -26.49539062 56.73777344 -27.39453125 56.76367188 C-33.85069754 56.83759744 -33.85069754 56.83759744 -37.046875 55.17578125 C-40.625238 51.0491207 -39.79843131 45.27598463 -39.875 40.125 C-39.91238281 39.17882812 -39.94976562 38.23265625 -39.98828125 37.2578125 C-40.04448176 32.81172805 -39.93439768 30.21511275 -37.58984375 26.35546875 C-33.22411745 23.73382527 -29.67383213 23.94580605 -24.6875 24.1875 C-23.80384766 24.21005859 -22.92019531 24.23261719 -22.00976562 24.25585938 C-19.8391109 24.31452572 -17.6693331 24.40420021 -15.5 24.5 C-15.55800781 23.18644531 -15.61601562 21.87289062 -15.67578125 20.51953125 C-15.72269048 18.78388977 -15.76818939 17.04820977 -15.8125 15.3125 C-15.85439453 14.44818359 -15.89628906 13.58386719 -15.93945312 12.69335938 C-16.0205655 8.45929344 -15.86574296 6.10497106 -13.63671875 2.41796875 C-9.09153062 -0.36121851 -5.22434908 -0.15809585 0 0 Z " fill="#B3291C" transform="translate(207.5,191.5)"/>
<path d="M0 0 C5.97329045 4.76301591 9.73069364 11.38535363 11.73046875 18.6796875 C12.72898387 29.77946022 12.07994077 39.4141741 4.98046875 48.4921875 C-0.67722612 54.5499214 -7.72379217 58.27076118 -16.00390625 59.015625 C-26.73338399 59.25703493 -35.57693231 58.00520443 -43.73828125 50.3828125 C-51.13194416 42.15924865 -52.85143192 33.44523115 -52.58203125 22.66796875 C-52.10831068 14.29298388 -48.49916042 7.26693285 -42.26953125 1.6796875 C-40.04133153 0.05441241 -37.77222349 -1.17013904 -35.26953125 -2.3203125 C-34.66367187 -2.619375 -34.0578125 -2.9184375 -33.43359375 -3.2265625 C-22.92405862 -7.85933717 -9.74245934 -5.66773022 0 0 Z " fill="#E5E7E8" transform="translate(476.26953125,429.3203125)"/>
<path d="M0 0 C5.67476113 1.96434039 9.31400331 5.62800662 12 11 C12.59057744 16.67862925 12.29370905 21.16922672 9 26 C4.99653611 30.03627917 1.41408246 32.12458106 -4.3125 32.3125 C-8.91166282 32.26006655 -11.48810392 31.08361607 -15 28 C-15.71030916 26.68939589 -16.38636627 25.35855654 -17 24 C-26.15483038 25.96978932 -31.9224774 29.42783828 -37.1796875 37.23828125 C-40.24186122 43.64808556 -39.68210525 51.04157718 -39.75 58 C-39.77820128 59.4570661 -39.80813444 60.91409977 -39.83984375 62.37109375 C-39.91321509 65.91391061 -39.96308952 69.45659381 -40 73 C-40.73605469 72.97679687 -41.47210938 72.95359375 -42.23046875 72.9296875 C-43.20628906 72.91164063 -44.18210937 72.89359375 -45.1875 72.875 C-46.15042969 72.85179687 -47.11335938 72.82859375 -48.10546875 72.8046875 C-51.12812778 73.0086456 -53.26769985 73.73125368 -56 75 C-56.12508346 70.23528254 -56.21502373 65.47155322 -56.2746582 60.70556641 C-56.2995576 59.08983683 -56.33349066 57.47421695 -56.37719727 55.85888672 C-56.74283812 41.98174102 -54.73098131 30.63729819 -45 20 C-38.83816303 13.75096723 -32.48442838 10.4686641 -23.9375 8.625 C-18.92731865 7.48488288 -15.92496038 5.92496038 -12.3046875 2.3046875 C-8.94191144 -1.05808856 -4.43344441 -0.40440202 0 0 Z " fill="#323133" transform="translate(158,144)"/>
<path d="M0 0 C3.32178284 1.25350296 5.37204438 2.27029231 7.6875 4.9609375 C10.70796859 7.62425609 13.88356206 8.37754257 17.6875 9.375 C28.88239569 12.61658991 36.84317609 18.00692295 43.25 27.9375 C48.73548665 37.94044625 48.25969245 49.05988839 48.125 60.125 C48.11494507 61.57291044 48.10582368 63.02082768 48.09765625 64.46875 C48.07585344 67.97931037 48.04146381 71.48961028 48 75 C47.12085938 74.67257813 46.24171875 74.34515625 45.3359375 74.0078125 C42.18468288 73.05579413 39.8848099 72.78689703 36.625 72.875 C35.75101562 72.89304687 34.87703125 72.91109375 33.9765625 72.9296875 C33.32429688 72.95289063 32.67203125 72.97609375 32 73 C31.98598145 71.65421875 31.98598145 71.65421875 31.97167969 70.28125 C31.92738749 66.91851661 31.86565338 63.55700653 31.79248047 60.19482422 C31.76443964 58.74604784 31.74314189 57.29712328 31.72900391 55.84814453 C31.63253242 46.51613632 31.34713628 39.36273362 25.2109375 31.79296875 C20.19532266 27.40697364 15.50060022 25.39869472 9 24 C8.70996094 24.62519531 8.41992188 25.25039062 8.12109375 25.89453125 C6.23268211 29.44106043 3.73812251 30.75395916 0 32 C-4.66694522 32.54225459 -8.07771048 32.4698456 -12.3125 30.3125 C-16.44673697 26.7551333 -19.58789927 23.54676857 -20.23828125 17.94921875 C-20.42001793 12.41103242 -19.74513006 9.35244845 -16 5 C-10.59677069 0.24001227 -7.08169701 -0.66876059 0 0 Z " fill="#323133" transform="translate(266,144)"/>
<path d="M0 0 C0.33 0 0.66 0 1 0 C1.06958022 9.80549922 1.12285201 19.61093948 1.15543652 29.41663551 C1.17107726 33.97006592 1.1922864 38.52332712 1.22631836 43.07666016 C1.25896866 47.47275831 1.27686499 51.86869395 1.28463173 56.26490402 C1.29016507 57.9402052 1.30097039 59.61549772 1.31719017 61.29072952 C1.33904018 63.64144199 1.34196382 65.9914871 1.34057617 68.34228516 C1.351362 69.03136963 1.36214783 69.7204541 1.3732605 70.43041992 C1.33880726 75.84172295 -0.03227249 79.8668045 -3.71875 83.86328125 C-4.3065625 84.34152344 -4.894375 84.81976563 -5.5 85.3125 C-6.38171875 86.04919922 -6.38171875 86.04919922 -7.28125 86.80078125 C-11.0765867 89.44889117 -14.71757378 89.1035085 -19.1875 89.0625 C-21.09595703 89.04896484 -21.09595703 89.04896484 -23.04296875 89.03515625 C-24.01878906 89.02355469 -24.99460937 89.01195312 -26 89 C-24.49823658 85.00768833 -22.61970891 81.32979957 -20.625 77.5625 C-14.96783644 66.54645968 -12.04740785 55.05950104 -11.859375 42.6484375 C-11.84003906 41.46636719 -11.82070313 40.28429687 -11.80078125 39.06640625 C-11.76725174 36.6290687 -11.74872327 34.191473 -11.74609375 31.75390625 C-11.50256221 19.92340027 -8.35321534 8.74972873 0 0 Z " fill="#E2E5E6" transform="translate(359,367)"/>
<path d="M0 0 C1.76947998 -0.00717545 1.76947998 -0.00717545 3.57470703 -0.01449585 C6.06609431 -0.01789477 8.55752619 -0.00869315 11.04882812 0.01220703 C14.86168899 0.03896907 18.67160568 0.01245507 22.484375 -0.01953125 C24.9062565 -0.01622716 27.32813616 -0.00982094 29.75 0 C31.45953857 -0.01518173 31.45953857 -0.01518173 33.20361328 -0.03067017 C41.99852657 0.09953302 41.99852657 0.09953302 45.10498047 3.07226562 C46.91792132 5.72691115 47.50133922 6.6709771 47 9.7890625 C46.92007813 10.45164062 46.84015625 11.11421875 46.7578125 11.796875 C45.4424566 14.57891094 43.58338644 15.29053981 40.875 16.6640625 C38.29528809 17.05847168 38.29528809 17.05847168 35.52148438 17.08398438 C33.95460876 17.10785217 33.95460876 17.10785217 32.3560791 17.13220215 C31.2382605 17.13240356 30.12044189 17.13260498 28.96875 17.1328125 C27.23256409 17.14423279 27.23256409 17.14423279 25.46130371 17.15588379 C23.01703039 17.16667692 20.57271098 17.16954112 18.12841797 17.16503906 C14.38821693 17.16406594 10.65006163 17.20571747 6.91015625 17.25 C4.53385844 17.25520644 2.15755351 17.2578952 -0.21875 17.2578125 C-1.3365686 17.27420776 -2.45438721 17.29060303 -3.6060791 17.30749512 C-11.34129588 17.23858782 -11.34129588 17.23858782 -15.33007812 14.31445312 C-17.125 11.6640625 -17.125 11.6640625 -17.75 8.6640625 C-15.78392524 -0.77309636 -7.88621583 -0.07003435 0 0 Z " fill="#313032" transform="translate(177.125,71.3359375)"/>
<path d="M0 0 C4.31281867 1.62747874 6.83548875 3.73000504 10 7 C12.13309192 8.23512079 12.13309192 8.23512079 14 9 C13.01 9 12.02 9 11 9 C11.33 9.99 11.66 10.98 12 12 C12.5389234 18.46708082 11.77404343 21.69593897 8 27 C3.30098915 31.35518079 -0.47091849 32.36239067 -6.71875 32.28125 C-11.47521811 31.69483612 -14.22375322 28.86016535 -17.3125 25.4375 C-20.45685936 20.8956476 -20.66038084 16.35642235 -20 11 C-15.51817976 2.20235286 -9.4435166 -0.89179921 0 0 Z " fill="#444345" transform="translate(266,144)"/>
<path d="M0 0 C5.67476113 1.96434039 9.31400331 5.62800662 12 11 C12.59057744 16.67862925 12.29370905 21.16922672 9 26 C4.99653611 30.03627917 1.41408246 32.12458106 -4.3125 32.3125 C-10.13900706 32.23683108 -13.11858715 29.72886586 -17.3125 25.875 C-19.99944058 21.29724937 -20.61354654 15.90084803 -19.51171875 10.69140625 C-19.25841797 9.85416016 -19.25841797 9.85416016 -19 9 C-20.65 9 -22.3 9 -24 9 C-24 8.67 -24 8.34 -24 8 C-22.96875 7.773125 -21.9375 7.54625 -20.875 7.3125 C-16.64392695 6.12814284 -14.22752302 3.92728832 -11 1 C-7.53909109 -0.73045446 -3.79089112 -0.34579074 0 0 Z " fill="#444345" transform="translate(158,144)"/>
<path d="M0 0 C4.0743356 0.84881992 5.54405875 2.30225596 8 5.625 C8.625 8.625 8.625 8.625 8 11.625 C5.54405875 14.94774404 4.0743356 16.40118008 0 17.25 C-4.0743356 16.40118008 -5.54405875 14.94774404 -8 11.625 C-8.625 8.625 -8.625 8.625 -8 5.625 C-5.54405875 2.30225596 -4.0743356 0.84881992 0 0 Z " fill="#D2D3D4" transform="translate(456,447.375)"/>
<path d="M0 0 C4.14822958 0.8642145 5.60540961 2.14195943 8 5.625 C8.38022707 8.54196592 8.0649833 10.88562629 7 13.625 C4.875 15.6875 4.875 15.6875 2 16.625 C-1.77654862 16.55988709 -4.04916906 16.45314308 -6.9375 13.9375 C-8.3613395 10.8385552 -8.55153827 9.00317188 -8 5.625 C-5.54405875 2.30225596 -4.0743356 0.84881992 0 0 Z " fill="#313032" transform="translate(248,71.375)"/>
</svg>
