<?xml version="1.0" encoding="UTF-8"?>
<svg version="1.1" xmlns="http://www.w3.org/2000/svg" width="512" height="512">
<path d="M0 0 C1.38086121 -0.00735292 2.7617163 -0.01594268 4.14256287 -0.02566528 C7.87004458 -0.04776318 11.59730448 -0.05081785 15.32484269 -0.04891777 C18.44824045 -0.04879751 21.57159215 -0.05738439 24.69497699 -0.06569529 C32.07077154 -0.08488772 39.44645295 -0.08782863 46.82226562 -0.08105469 C54.40400287 -0.0744191 61.98525299 -0.0972681 69.56689149 -0.13436842 C76.10056806 -0.16516776 82.63408876 -0.17641436 89.16783637 -0.1725316 C93.05939064 -0.17047439 96.95056574 -0.1757825 100.84205055 -0.20042419 C104.50559007 -0.22285884 108.16834352 -0.22067723 111.8318882 -0.20049667 C113.79761159 -0.19551838 115.76335079 -0.21498461 117.72897339 -0.23550415 C129.95482513 -0.12114447 139.24018945 3.57404163 148.00854492 12.10351562 C157.09954533 22.01337452 158.63945961 33.38437887 158.44604492 46.48242188 C158.45087891 48.17141602 158.45087891 48.17141602 158.45581055 49.89453125 C158.40118925 58.15227754 158.40118925 58.15227754 156.13354492 60.41992188 C155.14354492 60.41992188 154.15354492 60.41992188 153.13354492 60.41992188 C153.13354492 67.01992187 153.13354492 73.61992188 153.13354492 80.41992188 C154.96916992 80.37351562 156.80479492 80.32710938 158.69604492 80.27929688 C192.80344978 79.66799474 192.80344978 79.66799474 205.07885742 89.38085938 C211.74058331 95.99192575 214.21083026 103.23026058 215.13354492 112.41992188 C215.13354492 116.94860654 214.79337528 121.41178797 214.38354492 125.91992188 C214.25206055 127.66789062 214.25206055 127.66789062 214.11791992 129.45117188 C213.40437826 138.01367187 213.40437826 138.01367187 211.13354492 141.41992188 C210.71552534 143.3067363 210.3475282 145.20481856 210.00854492 147.10742188 C208.04880067 156.08204555 203.89876387 164.45615942 199.00170898 172.21264648 C196.39826441 176.37873635 195.63325961 179.34059982 195.75854492 184.23242188 C195.77143555 185.35261719 195.78432617 186.4728125 195.79760742 187.62695312 C195.85831263 190.55642605 195.85831263 190.55642605 198.13354492 192.41992188 C201.1463412 193.43813731 204.00462314 193.56717467 207.16870117 193.63085938 C208.14387695 193.65921875 209.11905273 193.68757812 210.1237793 193.71679688 C212.14444428 193.7681806 214.16529905 193.81264827 216.1862793 193.84960938 C230.29429993 194.2930835 241.50162983 198.25270676 251.80151367 207.93554688 C263.14808862 220.02335536 263.57449719 234.12280356 263.42651367 249.77539062 C263.42090743 251.53086481 263.4166422 253.28634375 263.41365051 255.04182434 C263.40228258 259.62689535 263.37288626 264.21167408 263.33953857 268.79663086 C263.30866254 273.48938037 263.29510797 278.18217784 263.2800293 282.875 C263.24800751 292.05678866 263.19530694 301.23828506 263.13354492 310.41992188 C273.03354492 310.41992188 282.93354492 310.41992188 293.13354492 310.41992188 C293.07069758 294.32127953 292.99554556 278.22285523 292.89783001 262.12439346 C292.85285558 254.64967508 292.81344479 247.17500452 292.78710938 239.70019531 C292.76414254 233.18549399 292.73075943 226.67094379 292.68484336 220.1563623 C292.66089315 216.70659752 292.64217627 213.25698257 292.63593102 209.80713654 C292.62876579 205.95686917 292.59834642 202.10697758 292.56591797 198.25683594 C292.5680706 196.53917023 292.5680706 196.53917023 292.57026672 194.7868042 C292.5514595 193.21352356 292.5514595 193.21352356 292.53227234 191.60845947 C292.52766337 190.697728 292.52305441 189.78699654 292.51830578 188.84866714 C292.05430058 185.91970381 291.18874012 184.53662524 289.13354492 182.41992188 C286.11906664 181.81976505 286.11906664 181.81976505 282.61425781 181.92163086 C281.95700211 181.91611206 281.2997464 181.91059326 280.62257385 181.90490723 C279.19684396 181.89558812 277.77103083 181.89548145 276.34529305 181.90350151 C274.08779921 181.91611847 271.8315305 181.90485573 269.57408142 181.88746643 C265.59547739 181.86073998 261.61717286 181.8551716 257.63848877 181.85656738 C251.273692 181.85879412 244.90926633 181.84468529 238.54461479 181.80098152 C236.32203068 181.79114105 234.10002883 181.79986172 231.87745667 181.80967712 C230.51237609 181.80353223 229.14729868 181.79662026 227.78222656 181.78881836 C225.99710411 181.790261 225.99710411 181.790261 224.17591858 181.79173279 C220.853498 181.38569712 219.4426952 180.81589401 217.13354492 178.41992188 C216.75854492 175.35742187 216.75854492 175.35742187 217.13354492 172.41992188 C219.97030516 169.58316163 221.86789458 170.14734744 225.84301758 170.11352539 C226.53271637 170.10520187 227.22241516 170.09687836 227.93301392 170.08830261 C230.22126874 170.06414119 232.5092384 170.05542041 234.79760742 170.04882812 C236.38984259 170.03986183 237.98207688 170.03073998 239.5743103 170.02146912 C242.9184575 170.00495671 246.26250439 169.99727574 249.60668945 169.99438477 C253.87727217 169.98901844 258.14690104 169.95142207 262.41721535 169.9056406 C265.7099443 169.87577829 269.00244698 169.86865913 272.29529953 169.86765862 C273.86848667 169.8634694 275.44167529 169.85108742 277.01472855 169.83014107 C293.16705343 169.63230497 293.16705343 169.63230497 299.13354492 175.41992188 C303.56681034 180.87624855 304.25405904 185.45506937 304.27398682 192.32026672 C304.27969696 193.50197449 304.2854071 194.68368225 304.29129028 195.90119934 C304.29240814 197.18910873 304.293526 198.47701813 304.29467773 199.80395508 C304.29930963 201.18085868 304.30433478 202.55776101 304.3097229 203.93466187 C304.32281235 207.66825447 304.32928498 211.40182912 304.33373356 215.13544106 C304.3366696 217.47045077 304.34077539 219.80545562 304.34523773 222.14046288 C304.35890298 229.45324915 304.36857464 236.76602428 304.37243962 244.07882243 C304.37691945 252.50742842 304.39446784 260.93587216 304.42344022 269.36442882 C304.44508464 275.88859553 304.45514536 282.41271669 304.45648074 288.93691891 C304.45752671 292.82943703 304.46339004 296.72180243 304.48130035 300.61428261 C304.49782917 304.27757722 304.49991342 307.94060509 304.49116135 311.6039238 C304.49002904 313.57998857 304.50370878 315.55604468 304.51791382 317.53205872 C304.48011307 325.6103442 304.10792151 331.91168282 298.69604492 338.29492188 C295.19944676 341.19453986 292.61915332 342.6725293 288.04595947 342.66043091 C287.24111618 342.66318024 286.43627289 342.66592957 285.60704041 342.66876221 C284.73310135 342.66157166 283.85916229 342.6543811 282.95874023 342.64697266 C281.56798027 342.64741074 281.56798027 342.64741074 280.14912415 342.64785767 C277.08654399 342.64646507 274.02420755 342.63090706 270.96166992 342.61523438 C268.83746473 342.611504 266.71325782 342.60865714 264.58905029 342.60665894 C258.9994837 342.59902444 253.41002112 342.57937745 247.82049561 342.55725098 C242.11626594 342.53678864 236.41201946 342.52765638 230.70776367 342.51757812 C219.51630438 342.49613144 208.32494958 342.46095071 197.13354492 342.41992188 C197.13354492 349.01992188 197.13354492 355.61992187 197.13354492 362.41992188 C200.32397461 362.38511719 203.5144043 362.3503125 206.80151367 362.31445312 C209.89598699 362.29104808 212.9904504 362.27283686 216.08496094 362.25512695 C218.23344343 362.24005273 220.38189522 362.21958998 222.53027344 362.19360352 C225.620764 362.15716074 228.71084723 362.14018169 231.80151367 362.12695312 C232.76002731 362.11146927 233.71854095 362.09598541 234.70610046 362.08003235 C239.64041813 362.0787908 243.17531521 362.10198661 247.13354492 365.41992188 C248.6104856 368.37380324 248.34285289 371.07154069 248.38354492 374.35742188 C248.40932617 375.60394531 248.43510742 376.85046875 248.46166992 378.13476562 C248.13354492 381.41992188 248.13354492 381.41992188 246.74291992 383.36132812 C245.13354492 384.41992188 245.13354492 384.41992188 243.13354492 384.41992188 C243.13354492 385.73992187 243.13354492 387.05992187 243.13354492 388.41992188 C243.81370667 388.41548065 244.49386841 388.41103943 245.19464111 388.40646362 C252.26719057 388.36225189 259.33970082 388.33206436 266.41235352 388.31005859 C269.05266921 388.29999468 271.69297375 388.28634236 274.33325195 388.26904297 C278.12608595 388.24481216 281.91877271 388.23344264 285.71166992 388.22460938 C286.89408264 388.2142868 288.07649536 388.20396423 289.29473877 388.19332886 C290.395578 388.1931778 291.49641724 388.19302673 292.63061523 388.19287109 C293.59880188 388.18842987 294.56698853 388.18398865 295.56451416 388.17941284 C298.27903587 388.43354253 299.88653254 388.88582937 302.13354492 390.41992188 C303.09542357 393.30555783 303.26127695 395.12151057 303.26725769 398.11961365 C303.27152267 399.08558472 303.27578766 400.05155579 303.28018188 401.04679871 C303.2797287 402.10506363 303.27927551 403.16332855 303.27880859 404.25366211 C303.28216721 405.36933563 303.28552582 406.48500916 303.28898621 407.63449097 C303.29850635 411.33251043 303.3004398 415.03048467 303.30151367 418.72851562 C303.3047253 421.29297403 303.3080893 423.85743225 303.31159973 426.42189026 C303.31759351 431.80120344 303.3194821 437.1804986 303.31884766 442.55981445 C303.31824675 448.77700119 303.32880163 454.9941012 303.34459132 461.21126598 C303.35924156 467.19295214 303.36283577 473.17459118 303.36223793 479.15629768 C303.36342028 481.7012575 303.36785624 484.24621791 303.3755703 486.79116631 C303.38533829 490.34644704 303.38250476 493.90150296 303.37646484 497.45678711 C303.38208435 498.5130278 303.38770386 499.56926849 303.39349365 500.65751648 C303.38720192 502.11070282 303.38720192 502.11070282 303.38078308 503.59324646 C303.38132785 504.43371238 303.38187262 505.2741783 303.38243389 506.14011288 C303.11051492 508.63087542 302.38231705 510.26580499 301.13354492 512.41992188 C297.75854492 512.54492188 297.75854492 512.54492188 294.13354492 512.41992188 C293.47354492 511.75992187 292.81354492 511.09992188 292.13354492 510.41992188 C292.13354492 509.09992188 292.13354492 507.77992188 292.13354492 506.41992188 C291.22376105 506.4259974 290.31397718 506.43207293 289.37662411 506.43833256 C258.4415627 506.64357663 227.50636722 506.82139387 196.57104492 506.98242188 C195.35031989 506.98880472 194.12959485 506.99518756 192.87187815 507.00176382 C111.05935729 507.42773321 29.25354691 507.42755693 -80.13230437 506.99210185 C-82.43666731 506.98238937 -84.74103038 506.97270997 -87.04539347 506.96303415 C-125.98583223 506.79930525 -164.92617928 506.61885484 -203.86645508 506.41992188 C-203.9364964 480.03838229 -203.98941935 453.6568566 -204.02189159 427.27524281 C-204.0373689 415.02615567 -204.05847497 402.77712626 -204.09277344 390.52807617 C-204.12264929 379.85340181 -204.14202379 369.17876925 -204.14872056 358.50405425 C-204.15263588 352.8504317 -204.16185547 347.19692876 -204.18364525 341.5433445 C-204.20398167 336.22383614 -204.21029461 330.90449685 -204.20577812 325.58495331 C-204.20660459 323.63101216 -204.2125871 321.67706546 -204.2240715 319.72315788 C-204.23897106 317.05784973 -204.23541796 314.3931821 -204.22721863 311.7278595 C-204.23595715 310.9525612 -204.24469568 310.1772629 -204.253699 309.37847072 C-204.21650487 304.91326212 -203.7310106 301.91983789 -200.86645508 298.41992188 C-198.16723633 297.93164062 -198.16723633 297.93164062 -195.17895508 298.10742188 C-193.6881543 298.17509766 -193.6881543 298.17509766 -192.16723633 298.24414062 C-191.40797852 298.30214844 -190.6487207 298.36015625 -189.86645508 298.41992188 C-189.8896582 297.79988281 -189.91286133 297.17984375 -189.93676758 296.54101562 C-190.26894462 280.24061365 -187.87573744 264.98687249 -176.86645508 252.41992188 C-176.33922852 251.76507813 -175.81200195 251.11023438 -175.26879883 250.43554688 C-167.77335849 241.93522332 -155.75352348 236.05049704 -144.55004883 234.58398438 C-139.65001292 234.28441886 -134.77200654 234.26582078 -129.86645508 234.41992188 C-129.51583008 233.28554687 -129.16520508 232.15117187 -128.80395508 230.98242188 C-128.60672852 230.34433594 -128.40950195 229.70625 -128.20629883 229.04882812 C-127.24136935 221.58448857 -129.57523082 214.43952867 -131.67895508 207.35742188 C-138.6870528 182.41037032 -145.65591703 150.02915325 -133.47583008 125.63476562 C-128.46769079 117.52948756 -121.8523163 113.21430555 -112.86645508 110.41992188 C-108.50593277 109.5522622 -104.3854087 109.29813943 -99.94311523 109.30639648 C-99.27899628 109.30625046 -98.61487732 109.30610443 -97.93063354 109.30595398 C-95.75556059 109.30664554 -93.5805754 109.31440214 -91.40551758 109.32226562 C-89.88951667 109.3241325 -88.37351516 109.32555513 -86.85751343 109.32655334 C-82.88240877 109.33035731 -78.9073411 109.34016935 -74.93225098 109.35125732 C-70.86995952 109.36151718 -66.80766203 109.36606074 -62.74536133 109.37109375 C-54.78570901 109.38179365 -46.82608665 109.39884442 -38.86645508 109.41992188 C-38.92638775 106.4802245 -39.01335931 103.54565128 -39.11645508 100.60742188 C-39.13063477 99.77404297 -39.14481445 98.94066406 -39.15942383 98.08203125 C-39.19165039 97.27958984 -39.22387695 96.47714844 -39.25708008 95.65039062 C-39.27802734 94.91199951 -39.29897461 94.1736084 -39.32055664 93.4128418 C-39.69380169 91.22407893 -39.69380169 91.22407893 -41.87120056 89.99766541 C-43.86645508 88.41992188 -43.86645508 88.41992188 -44.38111877 85.93800354 C-44.38731735 84.95049606 -44.39351593 83.96298859 -44.39990234 82.94555664 C-44.42365685 81.26218956 -44.42365685 81.26218956 -44.44789124 79.54481506 C-44.44293137 78.32926437 -44.4379715 77.11371368 -44.43286133 75.86132812 C-44.43905991 74.60666245 -44.44525848 73.35199677 -44.4516449 72.05931091 C-44.45876053 69.39648288 -44.45747968 66.73515748 -44.44287109 64.07250977 C-44.42920105 61.36139163 -44.43586886 58.65168575 -44.46337891 55.94067383 C-44.50053258 52.01796447 -44.50285118 48.09668142 -44.49536133 44.17382812 C-44.50861954 42.97649551 -44.52187775 41.7791629 -44.53553772 40.54554749 C-44.41295489 29.29171474 -40.91530208 18.57421229 -32.86645508 10.41992188 C-22.53478852 1.67503005 -13.29795993 -0.03052734 0 0 Z M-19.86645508 139.41992188 C-20.39432617 140.58007812 -20.39432617 140.58007812 -20.93286133 141.76367188 C-28.19492223 157.08415545 -28.19492223 157.08415545 -34.86645508 160.41992188 C-34.85074463 161.49250244 -34.83503418 162.56508301 -34.81884766 163.67016602 C-34.76374786 167.72379779 -34.72982007 171.77739797 -34.70166016 175.83129883 C-34.68675295 177.5719157 -34.66642 179.31249625 -34.64013672 181.05297852 C-34.41524082 196.35030926 -34.59469684 213.9181817 -44.11645508 226.79492188 C-48.59487141 231.06977383 -53.67311936 233.64575491 -59.86645508 234.41992188 C-57.07237185 236.28264403 -54.95533932 237.13608647 -51.80395508 238.16992188 C-37.49774192 243.30354981 -29.00425499 251.52072934 -21.92114258 264.75976562 C-20.44092072 267.4917338 -18.79852024 270.04575938 -17.04614258 272.61132812 C-13.3865152 278.0228804 -10.26543336 283.70092151 -7.11645508 289.41992188 C-3.12469684 296.60884808 0.87353136 303.7862875 5.07104492 310.85742188 C11.18606242 321.16355971 17.14958217 331.55655664 23.12963867 341.94140625 C25.18100728 345.50311764 27.23511332 349.06324591 29.28979492 352.62304688 C29.6294075 353.21146866 29.96902008 353.79989044 30.31892395 354.40614319 C31.94935354 357.23101271 33.57988 360.05582631 35.21044922 362.88061523 C36.09083862 364.40634155 36.09083862 364.40634155 36.98901367 365.96289062 C37.50101318 366.85000732 38.0130127 367.73712402 38.54052734 368.65112305 C40.13354492 371.41992188 40.13354492 371.41992188 40.95306396 373.2766571 C41.93598355 375.4977012 41.93598355 375.4977012 44.13354492 378.41992188 C46.98524828 379.22975712 48.81193593 379.50975647 51.68823242 379.54101562 C52.42623077 379.57550308 53.16422913 379.60999054 53.92459106 379.64552307 C56.2859093 379.74795866 58.64568176 379.80308375 61.00854492 379.85742188 C62.55814779 379.91882918 64.10763415 379.98325478 65.65698242 380.05078125 C74.81475445 380.42280892 83.96886448 380.49464899 93.13354492 380.41992188 C93.13354492 379.09992188 93.13354492 377.77992188 93.13354492 376.41992188 C91.21331789 374.64582379 91.21331789 374.64582379 89.13354492 373.41992188 C89.32104492 370.10742188 89.32104492 370.10742188 90.13354492 366.41992188 C94.56732712 362.4950176 99.64408725 362.946426 105.24682617 362.90820312 C106.21637741 362.89025192 107.18592865 362.87230072 108.18486023 362.85380554 C111.27187798 362.79976139 114.35874162 362.76582541 117.44604492 362.73242188 C119.54307154 362.69924363 121.64007785 362.66475351 123.73706055 362.62890625 C128.86924348 362.54157587 134.00072879 362.48145626 139.13354492 362.41992188 C139.13354492 355.81992187 139.13354492 349.21992188 139.13354492 342.41992188 C136.31742676 342.40533936 133.50130859 342.39075684 130.59985352 342.37573242 C121.29185315 342.32537892 111.98401994 342.25878236 102.6761837 342.18420696 C97.03324183 342.13949356 91.39037232 342.10023939 85.74731445 342.07348633 C80.30069844 342.0474633 74.85436075 342.00706754 69.40791702 341.95673561 C67.33076059 341.94006021 65.253556 341.92855013 63.17634201 341.92230797 C60.26513289 341.91267439 57.3546369 341.88462341 54.44360352 341.85229492 C53.58620575 341.85373001 52.72880798 341.8551651 51.84542847 341.85664368 C46.87324587 341.77863612 43.44549809 341.16128026 39.13354492 338.41992188 C34.9192054 333.86387914 34.01001317 330.62122899 33.99310303 324.5188446 C33.98739288 323.28651093 33.98168274 322.05417725 33.97579956 320.78450012 C33.97455422 319.41647349 33.97342912 318.04844674 33.97241211 316.68041992 C33.96778339 315.24145378 33.96275866 313.80248887 33.95736694 312.36352539 C33.94424584 308.45226835 33.93779852 304.54102848 33.93335629 300.62975287 C33.93042502 298.18588833 33.9263201 295.74202846 33.92185211 293.29816628 C33.90817778 285.65113334 33.89851088 278.00411112 33.89465022 270.35706681 C33.89016985 261.53110035 33.87262273 252.70528879 33.84364963 243.87936944 C33.82202935 237.05633848 33.81194575 230.23335109 33.8106091 223.41028625 C33.80956129 219.3355993 33.80365876 215.26105796 33.78578949 211.18640709 C33.76930282 207.35242734 33.76715609 203.51870259 33.7759285 199.68470001 C33.77669857 198.27944824 33.77236008 196.87418272 33.76247025 195.46896553 C33.74973732 193.54666884 33.75742414 191.62426957 33.76605225 189.70195007 C33.76385241 188.09004807 33.76385241 188.09004807 33.76160812 186.44558239 C34.27602767 182.26084209 35.78357477 178.89996727 38.63354492 175.77539062 C42.7480853 172.57162091 45.5143339 171.29561769 50.6809082 171.29052734 C51.59840851 171.28737518 52.51590881 171.28422302 53.46121216 171.28097534 C54.4487851 171.28299957 55.43635803 171.2850238 56.45385742 171.28710938 C57.97545975 171.28567429 57.97545975 171.28567429 59.52780151 171.28421021 C61.67128562 171.2835297 63.8147718 171.28537496 65.95825195 171.28955078 C69.25240665 171.29491189 72.54642567 171.28959571 75.84057617 171.28320312 C77.92000356 171.28386371 79.99943086 171.28514447 82.07885742 171.28710938 C83.56628952 171.28407303 83.56628952 171.28407303 85.08377075 171.28097534 C86.45056473 171.28570358 86.45056473 171.28570358 87.8449707 171.29052734 C89.05384445 171.29172073 89.05384445 171.29172073 90.28713989 171.29293823 C92.13354492 171.41992188 92.13354492 171.41992188 93.13354492 172.41992188 C93.1744743 174.75289621 93.17596215 177.08697412 93.13354492 179.41992188 C90.40936295 180.32798253 88.80303039 180.54836415 86.00097656 180.56176758 C84.75937523 180.57231926 84.75937523 180.57231926 83.49269104 180.58308411 C82.60202438 180.58724838 81.71135773 180.59141266 80.79370117 180.59570312 C78.90762223 180.61889537 77.02155447 180.64301247 75.13549805 180.66796875 C72.16186974 180.70312616 69.18865493 180.73245516 66.21484375 180.74584961 C63.3447884 180.76130686 60.47593867 180.80149384 57.60620117 180.84570312 C56.27323753 180.8428405 56.27323753 180.8428405 54.91334534 180.83992004 C54.08245895 180.85641098 53.25157257 180.87290192 52.39550781 180.88989258 C51.66731339 180.89575882 50.93911896 180.90162506 50.18885803 180.90766907 C47.22537171 181.64626903 46.06477484 183.08953526 44.13354492 185.41992188 C43.54815351 187.90328713 43.54815351 187.90328713 43.65252686 190.64642334 C43.6470282 191.70369125 43.64152954 192.76095917 43.63586426 193.8502655 C43.65024536 195.00472672 43.66462646 196.15918793 43.67944336 197.34863281 C43.67885925 198.56841324 43.67827515 199.78819366 43.67767334 201.04493713 C43.67998198 204.38589114 43.70003492 207.72585537 43.72796917 211.06663418 C43.75298187 214.55930602 43.7553247 218.05199118 43.7600708 221.54473877 C43.77250104 228.15689372 43.80532304 234.768784 43.84546876 241.38082242 C43.89018518 248.90915048 43.91217314 256.43749121 43.9322505 263.96591902 C43.97405591 279.45076599 44.04740853 294.9352484 44.13354492 310.41992188 C53.70354492 310.41992188 63.27354492 310.41992188 73.13354492 310.41992188 C73.15336426 308.24108398 73.17318359 306.06224609 73.19360352 303.81738281 C73.26084285 296.57697691 73.33847512 289.33670841 73.42107201 282.09646225 C73.47078282 277.71147506 73.51711266 273.32650906 73.55541992 268.94140625 C73.5925943 264.70079224 73.63903613 260.46036736 73.69160843 256.2199173 C73.70998321 254.61103928 73.72515184 253.00212098 73.73688889 251.39318085 C73.85980144 235.11005221 74.65459295 220.11762482 86.25854492 207.54492188 C98.19402435 196.45478838 111.71615893 195.15795896 127.19799805 194.85351562 C128.2737207 194.82386719 129.34944336 194.79421875 130.45776367 194.76367188 C131.91315552 194.73563477 131.91315552 194.73563477 133.39794922 194.70703125 C137.45327193 194.28141237 140.2390367 193.31443009 143.13354492 190.41992188 C144.05973991 182.71957982 143.7654216 176.65789821 139.13354492 170.41992188 C134.18462519 162.96088723 130.82809928 155.17221422 127.55151367 146.88476562 C126.48547853 143.64298708 126.48547853 143.64298708 125.13354492 142.41992188 C123.71784369 142.33340577 122.29794992 142.31287284 120.87963867 142.32226562 C120.11063232 142.32476318 119.34162598 142.32726074 118.54931641 142.32983398 C117.56648682 142.33893799 116.58365723 142.34804199 115.57104492 142.35742188 C112.45666992 142.37804687 109.34229492 142.39867187 106.13354492 142.41992188 C105.80354492 150.00992188 105.47354492 157.59992188 105.13354492 165.41992188 C98.80365022 165.41992188 98.24363698 165.31533499 93.82104492 161.48242188 C92.95866211 160.75152344 92.0962793 160.020625 91.20776367 159.26757812 C89.37580399 157.67735836 87.90950364 156.13275153 86.41073608 154.21166992 C83.20593062 150.36098968 80.69575107 147.80303586 75.74024963 146.5877533 C71.66684513 146.28446313 67.67831296 146.24891715 63.59838867 146.32226562 C62.10907535 146.31660341 60.61977235 146.30698042 59.13050842 146.29359436 C55.23850419 146.26911812 51.34870776 146.29792487 47.45690918 146.33837891 C43.47469879 146.37016324 39.49275915 146.35080645 35.51049805 146.3359375 C27.71756232 146.31428496 19.92624691 146.34899946 12.13354492 146.41992188 C11.14354492 144.43992188 11.14354492 144.43992188 10.13354492 142.41992188 C9.19671875 142.39019287 9.19671875 142.39019287 8.2409668 142.35986328 C5.37145111 142.26375256 2.50257945 142.15442701 -0.36645508 142.04492188 C-1.3487207 142.01398438 -2.33098633 141.98304688 -3.34301758 141.95117188 C-9.13615226 141.71944649 -14.29897 141.05039965 -19.86645508 139.41992188 Z " fill="#020303" transform="translate(205.866455078125,-0.419921875)"/>
<path d="M0 0 C1.45378304 -0.01913956 1.45378304 -0.01913956 2.93693542 -0.03866577 C4.51176445 -0.04200424 4.51176445 -0.04200424 6.1184082 -0.04541016 C7.20821487 -0.05206696 8.29802155 -0.05872375 9.42085266 -0.06558228 C11.73676873 -0.07572264 14.0527141 -0.08039887 16.36865234 -0.08007812 C19.86062265 -0.08440017 23.35127537 -0.12056276 26.84301758 -0.15869141 C58.08235638 -0.31837256 58.08235638 -0.31837256 70.17700195 9.25146484 C76.83872784 15.86253122 79.3089748 23.10086605 80.23168945 32.29052734 C80.23168945 36.81921201 79.89151981 41.28239344 79.48168945 45.79052734 C79.3940332 46.95583984 79.30637695 48.12115234 79.21606445 49.32177734 C78.50252279 57.88427734 78.50252279 57.88427734 76.23168945 61.29052734 C75.81366987 63.17734176 75.44567273 65.07542403 75.10668945 66.97802734 C73.1469452 75.95265102 68.9969084 84.32676489 64.09985352 92.08325195 C61.49640894 96.24934182 60.73140414 99.21120529 60.85668945 104.10302734 C60.86958008 105.22322266 60.8824707 106.34341797 60.89575195 107.49755859 C60.95645716 110.42703152 60.95645716 110.42703152 63.23168945 112.29052734 C66.24448574 113.30874278 69.10276768 113.43778014 72.2668457 113.50146484 C73.24202148 113.52982422 74.21719727 113.55818359 75.22192383 113.58740234 C77.24258881 113.63878607 79.26344358 113.68325374 81.28442383 113.72021484 C95.39244446 114.16368897 106.59977436 118.12331223 116.8996582 127.80615234 C128.24623315 139.89396083 128.67264172 153.99340903 128.5246582 169.64599609 C128.51905196 171.40147028 128.51478673 173.15694922 128.51179504 174.91242981 C128.50042711 179.49750081 128.47103079 184.08227954 128.43768311 188.66723633 C128.40680707 193.35998584 128.3932525 198.05278331 128.37817383 202.74560547 C128.34615204 211.92739413 128.29345147 221.10889053 128.23168945 230.29052734 C138.13168945 230.29052734 148.03168945 230.29052734 158.23168945 230.29052734 C158.16884211 214.191885 158.09369009 198.0934607 157.99597454 181.99499893 C157.95100011 174.52028055 157.91158932 167.04560999 157.88525391 159.57080078 C157.86228707 153.05609946 157.82890396 146.54154926 157.78298789 140.02696776 C157.75903768 136.57720299 157.7403208 133.12758804 157.73407555 129.677742 C157.72691032 125.82747464 157.69649095 121.97758305 157.6640625 118.12744141 C157.66621513 116.4097757 157.66621513 116.4097757 157.66841125 114.65740967 C157.64960403 113.08412903 157.64960403 113.08412903 157.63041687 111.47906494 C157.62580791 110.56833347 157.62119894 109.65760201 157.61645031 108.71927261 C157.15244511 105.79030928 156.28688465 104.40723071 154.23168945 102.29052734 C151.21721118 101.69037052 151.21721118 101.69037052 147.71240234 101.79223633 C147.05514664 101.78671753 146.39789093 101.78119873 145.72071838 101.7755127 C144.29498849 101.76619359 142.86917537 101.76608692 141.44343758 101.77410698 C139.18594374 101.78672394 136.92967503 101.7754612 134.67222595 101.7580719 C130.69362192 101.73134545 126.71531739 101.72577707 122.7366333 101.72717285 C116.37183653 101.72939958 110.00741087 101.71529076 103.64275932 101.67158699 C101.42017521 101.66174652 99.19817336 101.67046719 96.9756012 101.68028259 C95.61052062 101.6741377 94.24544321 101.66722573 92.88037109 101.65942383 C91.09524864 101.66086647 91.09524864 101.66086647 89.27406311 101.66233826 C85.95164253 101.25630259 84.54083973 100.68649948 82.23168945 98.29052734 C81.85668945 95.22802734 81.85668945 95.22802734 82.23168945 92.29052734 C85.06844969 89.4537671 86.96603911 90.01795291 90.94116211 89.98413086 C91.6308609 89.97580734 92.32055969 89.96748383 93.03115845 89.95890808 C95.31941328 89.93474666 97.60738293 89.92602587 99.89575195 89.91943359 C101.48798712 89.9104673 103.08022141 89.90134545 104.67245483 89.89207458 C108.01660204 89.87556218 111.36064892 89.86788121 114.70483398 89.86499023 C118.9754167 89.85962391 123.24504557 89.82202754 127.51535988 89.77624607 C130.80808883 89.74638376 134.10059151 89.7392646 137.39344406 89.73826408 C138.9666312 89.73407487 140.53981982 89.72169289 142.11287308 89.70074654 C158.26519796 89.50291044 158.26519796 89.50291044 164.23168945 95.29052734 C168.66495487 100.74685402 169.35220357 105.32567484 169.37213135 112.19087219 C169.37784149 113.37257996 169.38355164 114.55428772 169.38943481 115.77180481 C169.39055267 117.0597142 169.39167053 118.3476236 169.39282227 119.67456055 C169.39745416 121.05146415 169.40247932 122.42836648 169.40786743 123.80526733 C169.42095689 127.53885994 169.42742952 131.27243458 169.43187809 135.00604653 C169.43481414 137.34105624 169.43891992 139.67606109 169.44338226 142.01106834 C169.45704751 149.32385462 169.46671917 156.63662974 169.47058415 163.9494279 C169.47506398 172.37803388 169.49261237 180.80647763 169.52158475 189.23503429 C169.54322918 195.759201 169.55328989 202.28332216 169.55462527 208.80752438 C169.55567124 212.7000425 169.56153458 216.5924079 169.57944489 220.48488808 C169.5959737 224.14818269 169.59805795 227.81121056 169.58930588 231.47452927 C169.58817357 233.45059404 169.60185331 235.42665015 169.61605835 237.40266418 C169.57825761 245.48094967 169.20606604 251.78228829 163.79418945 258.16552734 C160.29759129 261.06514533 157.71729786 262.54313477 153.144104 262.53103638 C152.33926071 262.53378571 151.53441742 262.53653503 150.70518494 262.53936768 C149.83124588 262.53217712 148.95730682 262.52498657 148.05688477 262.51757812 C146.6661248 262.5180162 146.6661248 262.5180162 145.24726868 262.51846313 C142.18468852 262.51707054 139.12235208 262.50151253 136.05981445 262.48583984 C133.93560926 262.48210947 131.81140235 262.47926261 129.68719482 262.4772644 C124.09762823 262.46962991 118.50816565 262.44998292 112.91864014 262.42785645 C107.21441047 262.40739411 101.51016399 262.39826185 95.8059082 262.38818359 C84.61444891 262.36673691 73.42309411 262.33155618 62.23168945 262.29052734 C62.23168945 268.89052734 62.23168945 275.49052734 62.23168945 282.29052734 C65.42211914 282.25572266 68.61254883 282.22091797 71.8996582 282.18505859 C74.99413152 282.16165355 78.08859493 282.14344233 81.18310547 282.12573242 C83.33158796 282.1106582 85.48003975 282.09019545 87.62841797 282.06420898 C90.71890853 282.02776621 93.80899176 282.01078716 96.8996582 281.99755859 C98.33742867 281.97433281 98.33742867 281.97433281 99.804245 281.95063782 C104.73856266 281.94939627 108.27345974 281.97259208 112.23168945 285.29052734 C113.70863013 288.24440871 113.44099743 290.94214616 113.48168945 294.22802734 C113.52036133 296.0978125 113.52036133 296.0978125 113.55981445 298.00537109 C113.23168945 301.29052734 113.23168945 301.29052734 111.71606445 303.23193359 C111.2262207 303.58126953 110.73637695 303.93060547 110.23168945 304.29052734 C104.35668945 302.41552734 104.35668945 302.41552734 103.23168945 301.29052734 C103.09053784 298.61993883 103.18921838 295.96620497 103.23168945 293.29052734 C84.95112204 293.37443739 66.67064913 293.46957452 48.39021111 293.57805443 C39.90216751 293.62816286 31.41413348 293.67460599 22.92602539 293.71240234 C15.52725359 293.74535735 8.12855645 293.78520798 0.7298671 293.8333174 C-3.18718695 293.85854751 -7.1041917 293.88033907 -11.02130508 293.89387131 C-14.709978 293.90672336 -18.39848151 293.92881151 -22.08706093 293.95791054 C-24.0825893 293.97126991 -26.07817541 293.97490173 -28.07374573 293.97822571 C-29.86571129 293.99497093 -29.86571129 293.99497093 -31.69387817 294.01205444 C-32.7281299 294.0175852 -33.76238163 294.02311596 -34.82797432 294.02881432 C-38.05479739 294.31602692 -40.74356291 295.15628744 -43.76831055 296.29052734 C-45.33081055 295.22802734 -45.33081055 295.22802734 -46.76831055 293.29052734 C-46.64338124 289.79250668 -46.49478178 287.28116994 -44.39331055 284.41552734 C-41.45463452 282.38105933 -38.84453205 282.16709977 -35.38867188 282.17700195 C-34.50798538 282.17707748 -33.62729889 282.17715302 -32.71992493 282.17723083 C-31.77296249 282.18239212 -30.82600006 282.18755341 -29.8503418 282.19287109 C-28.87796066 282.19428604 -27.90557953 282.19570099 -26.9037323 282.19715881 C-23.79606051 282.20275918 -20.68846059 282.21531172 -17.58081055 282.22802734 C-15.4746918 282.2330423 -13.36857192 282.23760521 -11.26245117 282.24169922 C-6.09768762 282.2518781 -0.9330796 282.27145351 4.23168945 282.29052734 C4.23168945 275.69052734 4.23168945 269.09052734 4.23168945 262.29052734 C1.41557129 262.30623779 -1.40054688 262.32194824 -4.30200195 262.33813477 C-13.60985737 262.38785976 -22.91771868 262.42098801 -32.22567177 262.44596386 C-37.8686997 262.46161499 -43.51159145 262.48284342 -49.15454102 262.5168457 C-54.60102043 262.54945849 -60.04736892 262.56738452 -65.49393845 262.57515907 C-67.57115108 262.5806991 -69.64835661 262.59151741 -71.72551346 262.60771751 C-74.63658342 262.62951705 -77.5471134 262.63249318 -80.45825195 262.63110352 C-81.31564972 262.64188934 -82.17304749 262.65267517 -83.056427 262.66378784 C-88.73416308 262.63448908 -93.05429091 261.76602269 -97.4128418 257.79052734 C-101.03591495 253.13748356 -101.89264656 250.20159934 -101.90875244 244.38945007 C-101.91446259 243.15711639 -101.92017273 241.92478271 -101.92605591 240.65510559 C-101.92730125 239.28707896 -101.92842635 237.91905221 -101.92944336 236.55102539 C-101.93407207 235.11205925 -101.93909681 233.67309434 -101.94448853 232.23413086 C-101.95760963 228.32287382 -101.96405695 224.41163395 -101.96849918 220.50035834 C-101.97143045 218.05649379 -101.97553537 215.61263393 -101.98000336 213.16877174 C-101.99367769 205.52173881 -102.00334459 197.87471659 -102.00720525 190.22767228 C-102.01168562 181.40170582 -102.02923274 172.57589426 -102.05820584 163.74997491 C-102.07982612 156.92694395 -102.08990972 150.10395656 -102.09124637 143.28089172 C-102.09229417 139.20620476 -102.09819671 135.13166343 -102.11606598 131.05701256 C-102.13255265 127.22303281 -102.13469938 123.38930806 -102.12592697 119.55530548 C-102.1251569 118.1500537 -102.12949538 116.74478819 -102.13938522 115.339571 C-102.15211815 113.41727431 -102.14443133 111.49487504 -102.13580322 109.57255554 C-102.13726978 108.49795421 -102.13873634 107.42335287 -102.14024734 106.31618786 C-101.50176196 101.12218707 -99.30194459 97.25977785 -95.26831055 93.97802734 C-94.3865918 93.24132812 -94.3865918 93.24132812 -93.48706055 92.48974609 C-90.46620362 90.38201183 -87.80296807 90.16216063 -84.23681641 90.14526367 C-83.32254379 90.13888382 -82.40827118 90.13250397 -81.46629333 90.12593079 C-80.48185745 90.12481796 -79.49742157 90.12370514 -78.4831543 90.12255859 C-77.47112442 90.11923019 -76.45909454 90.11590179 -75.41639709 90.11247253 C-73.27711441 90.10740957 -71.13782383 90.10506401 -68.99853516 90.10522461 C-65.71528247 90.10303366 -62.43236334 90.084859 -59.14916992 90.06591797 C-57.0729992 90.06298489 -54.99682688 90.06099952 -52.9206543 90.06005859 C-51.93419418 90.05287308 -50.94773407 90.04568756 -49.93138123 90.0382843 C-49.02026077 90.04136093 -48.10914032 90.04443756 -47.17041016 90.04760742 C-46.36671494 90.0461824 -45.56301971 90.04475739 -44.73497009 90.04328918 C-42.76831055 90.29052734 -42.76831055 90.29052734 -40.76831055 92.29052734 C-40.64331055 95.91552734 -40.64331055 95.91552734 -40.76831055 99.29052734 C-43.64955267 100.92432591 -45.72581432 101.54236789 -49.03027344 101.56176758 C-50.27660301 101.5770475 -50.27660301 101.5770475 -51.54811096 101.59263611 C-52.43675339 101.59477615 -53.32539581 101.5969162 -54.2409668 101.59912109 C-56.12833984 101.62426898 -58.01570956 101.64966717 -59.90307617 101.67529297 C-62.87450386 101.70409876 -65.84587414 101.72812216 -68.81738281 101.74682617 C-71.68803798 101.76842432 -74.55803718 101.80784497 -77.4284668 101.84912109 C-78.31913345 101.84923691 -79.20980011 101.84935272 -80.12745667 101.84947205 C-81.369058 101.86948021 -81.369058 101.86948021 -82.63574219 101.88989258 C-83.36314102 101.89496323 -84.09053986 101.90003387 -84.83998108 101.90525818 C-87.40037169 102.41680953 -88.16589408 103.24236745 -89.76831055 105.29052734 C-90.22700446 107.67759632 -90.22700446 107.67759632 -90.16703796 110.39677429 C-90.17957611 111.45266754 -90.19211426 112.50856079 -90.20503235 113.59645081 C-90.20359726 114.75450729 -90.20216217 115.91256378 -90.20068359 117.10571289 C-90.21087524 118.32534729 -90.22106689 119.54498169 -90.23156738 120.80157471 C-90.25660711 124.14645954 -90.26842749 127.49090502 -90.27442145 130.83584571 C-90.28379408 134.33129111 -90.30999649 137.82660896 -90.33442688 141.32197571 C-90.37812634 147.94109484 -90.40665204 154.56018927 -90.42975026 161.17940885 C-90.45678354 168.71507935 -90.50069614 176.25062176 -90.54603899 183.78620088 C-90.63893466 199.28759162 -90.70836434 214.78896884 -90.76831055 230.29052734 C-81.19831055 230.29052734 -71.62831055 230.29052734 -61.76831055 230.29052734 C-61.784021 227.02227051 -61.784021 227.02227051 -61.80004883 223.68798828 C-61.83335262 216.44770149 -61.85534531 209.20741111 -61.87193489 201.96706772 C-61.88232311 197.58200746 -61.89639042 193.19702641 -61.91918945 188.81201172 C-61.94109639 184.5715076 -61.95291637 180.33107915 -61.95806503 176.09052277 C-61.96172903 174.48159852 -61.96888277 172.87267789 -61.97977066 171.26378632 C-62.0884522 154.5213506 -61.10036461 139.75686515 -49.14331055 126.91552734 C-36.96353419 115.50615852 -23.60367107 114.03678371 -7.70385742 113.72412109 C-6.62813477 113.69447266 -5.55241211 113.66482422 -4.4440918 113.63427734 C-2.98869995 113.60624023 -2.98869995 113.60624023 -1.50390625 113.57763672 C1.66828998 113.24470475 4.90093929 112.6212775 7.23168945 110.29052734 C7.9190952 102.51495412 7.92029016 96.60489672 3.23168945 90.29052734 C-2.39549591 81.80920762 -6.24901449 72.79966528 -9.76831055 63.29052734 C-10.1344043 62.30439453 -10.50049805 61.31826172 -10.87768555 60.30224609 C-15.70138831 44.57970548 -15.1757285 17.33581626 -7.76831055 2.29052734 C-4.56125829 0.1524925 -3.69233423 0.03307396 0 0 Z " fill="#010303" transform="translate(340.768310546875,79.70947265625)"/>
<path d="M0 0 C0.99 0.495 0.99 0.495 2 1 C2.33 1.99 2.66 2.98 3 4 C3.5904586 4.00054477 4.18091721 4.00108953 4.78926849 4.00165081 C19.1793525 4.01664062 33.56916206 4.05917607 47.9590683 4.13209057 C54.91806009 4.16669307 61.87685478 4.19208982 68.8359375 4.19555664 C75.55348139 4.1989293 82.27045484 4.22829744 88.98786926 4.27343178 C91.54902764 4.28640865 94.1102453 4.29071383 96.6714325 4.28615379 C100.26261713 4.28124962 103.85235293 4.30733616 107.44335938 4.34057617 C109.02724457 4.32763771 109.02724457 4.32763771 110.64312744 4.31443787 C118.13849523 4.43052774 123.16189153 6.18077342 128.52077484 11.51329327 C133.14339852 16.80148311 134.2497781 20.29847019 134.2515564 27.29432678 C134.25452654 28.03066721 134.25749667 28.76700764 134.26055682 29.52566141 C134.26819755 31.99383055 134.26170262 34.46176177 134.25537109 36.92993164 C134.25812088 38.6990322 134.26180071 40.46813153 134.26634216 42.23722839 C134.27445558 46.04699941 134.2766223 49.85671174 134.27439499 53.66649055 C134.27156497 59.68716873 134.28590126 65.70772926 134.30337524 71.7283783 C134.35043506 88.84860475 134.37435249 105.96882308 134.38085938 123.08911133 C134.38460472 132.54429893 134.40258991 141.9993534 134.43595374 151.45448393 C134.45621882 157.44326062 134.45851342 163.43169515 134.44767356 169.42049229 C134.44507373 173.14094269 134.45903428 176.86119217 134.47775459 180.58159065 C134.48309461 182.31060048 134.48154907 184.0396469 134.47271919 185.76864243 C134.46165876 188.12379835 134.47495665 190.47758541 134.49447632 192.83265686 C134.49556585 194.1520781 134.49665539 195.47149935 134.49777794 196.83090305 C134.70261529 200.50219763 134.70261529 200.50219763 139 203 C93.13 203 47.26 203 0 203 C0 136.01 0 69.02 0 0 Z " fill="#E86F29" transform="translate(2,303)"/>
<path d="M0 0 C1.38086121 -0.00735292 2.7617163 -0.01594268 4.14256287 -0.02566528 C7.87004458 -0.04776318 11.59730448 -0.05081785 15.32484269 -0.04891777 C18.44824045 -0.04879751 21.57159215 -0.05738439 24.69497699 -0.06569529 C32.07077154 -0.08488772 39.44645295 -0.08782863 46.82226562 -0.08105469 C54.40400287 -0.0744191 61.98525299 -0.0972681 69.56689149 -0.13436842 C76.10056806 -0.16516776 82.63408876 -0.17641436 89.16783637 -0.1725316 C93.05939064 -0.17047439 96.95056574 -0.1757825 100.84205055 -0.20042419 C104.50559007 -0.22285884 108.16834352 -0.22067723 111.8318882 -0.20049667 C113.79761159 -0.19551838 115.76335079 -0.21498461 117.72897339 -0.23550415 C129.95482513 -0.12114447 139.24018945 3.57404163 148.00854492 12.10351562 C157.09954533 22.01337452 158.63945961 33.38437887 158.44604492 46.48242188 C158.44926758 47.60841797 158.45249023 48.73441406 158.45581055 49.89453125 C158.40118925 58.15227754 158.40118925 58.15227754 156.13354492 60.41992188 C155.14354492 60.41992188 154.15354492 60.41992188 153.13354492 60.41992188 C153.13354492 67.01992187 153.13354492 73.61992188 153.13354492 80.41992188 C151.50803711 80.45730469 149.8825293 80.4946875 148.20776367 80.53320312 C146.07883396 80.59885294 143.94992875 80.66530061 141.82104492 80.73242188 C140.74918945 80.75498047 139.67733398 80.77753906 138.57299805 80.80078125 C137.03095703 80.85395508 137.03095703 80.85395508 135.45776367 80.90820312 C134.5098999 80.93438721 133.56203613 80.96057129 132.58544922 80.98754883 C129.7291774 81.49122874 128.84102832 82.11388298 127.13354492 84.41992188 C121.68323746 102.12177516 120.76990667 124.4199141 125.13354492 142.41992188 C118.86354492 142.41992188 112.59354492 142.41992188 106.13354492 142.41992188 C106.16834961 143.90105469 106.2031543 145.3821875 106.23901367 146.90820312 C106.26714983 148.84959805 106.29445017 150.79100522 106.32104492 152.73242188 C106.34618164 153.70888672 106.37131836 154.68535156 106.3972168 155.69140625 C106.41171875 157.0980957 106.41171875 157.0980957 106.42651367 158.53320312 C106.45007935 159.82931519 106.45007935 159.82931519 106.47412109 161.15161133 C106.13354492 163.41992188 106.13354492 163.41992188 104.7800293 165.21362305 C103.13354492 166.41992188 103.13354492 166.41992188 100.49682617 166.60742188 C95.35258634 164.79110491 92.14572358 161.21525517 88.32104492 157.41992188 C87.54567383 156.6696875 86.77030273 155.91945312 85.97143555 155.14648438 C83.67547218 152.9208261 81.39462608 150.68100303 79.13354492 148.41992188 C77.05843963 148.30658226 74.97949812 148.26306124 72.90136719 148.24633789 C72.25094452 148.23965088 71.60052185 148.23296387 70.9303894 148.22607422 C69.51388507 148.21199515 68.09735767 148.20011026 66.68081856 148.19012642 C64.44117488 148.17376401 62.20170237 148.15052901 59.96214294 148.12522888 C53.59317499 148.05431788 47.22413706 147.994277 40.85498047 147.94311523 C36.96338745 147.91137227 33.07199023 147.87010856 29.18055534 147.82291985 C27.69459484 147.80687068 26.20858918 147.79456263 24.7225666 147.78601265 C22.64654724 147.77389595 20.57099047 147.74976279 18.49511719 147.72290039 C17.31232681 147.71259293 16.12953644 147.70228546 14.91090393 147.69166565 C12.13354492 147.41992188 12.13354492 147.41992188 10.13354492 145.41992188 C10.13354492 144.42992187 10.13354492 143.43992188 10.13354492 142.41992188 C9.19671875 142.44348755 9.19671875 142.44348755 8.2409668 142.4675293 C5.37192075 142.53044232 2.5030205 142.56908919 -0.36645508 142.60742188 C-1.3487207 142.63255859 -2.33098633 142.65769531 -3.34301758 142.68359375 C-9.59818567 142.74614543 -14.15858495 142.00884868 -19.86645508 139.41992188 C-19.70274414 138.32679688 -19.5390332 137.23367187 -19.37036133 136.10742188 C-18.71634574 130.87529718 -18.75712589 125.68468321 -18.80395508 120.41992188 C-18.82458008 117.11992188 -18.84520508 113.81992188 -18.86645508 110.41992188 C-25.46645508 110.08992188 -32.06645508 109.75992188 -38.86645508 109.41992188 C-39.11645508 100.60742187 -39.11645508 100.60742187 -39.16430664 97.8425293 C-39.19492188 97.11912354 -39.22553711 96.39571777 -39.25708008 95.65039062 C-39.27802734 94.91199951 -39.29897461 94.1736084 -39.32055664 93.4128418 C-39.68115142 91.22375359 -39.68115142 91.22375359 -41.86723328 90.13751221 C-43.86645508 88.41992188 -43.86645508 88.41992188 -44.38111877 85.93800354 C-44.38731735 84.95049606 -44.39351593 83.96298859 -44.39990234 82.94555664 C-44.41573868 81.82331192 -44.43157501 80.7010672 -44.44789124 79.54481506 C-44.44293137 78.32926437 -44.4379715 77.11371368 -44.43286133 75.86132812 C-44.43905991 74.60666245 -44.44525848 73.35199677 -44.4516449 72.05931091 C-44.45876053 69.39648288 -44.45747968 66.73515748 -44.44287109 64.07250977 C-44.42920105 61.36139163 -44.43586886 58.65168575 -44.46337891 55.94067383 C-44.50053258 52.01796447 -44.50285118 48.09668142 -44.49536133 44.17382812 C-44.50861954 42.97649551 -44.52187775 41.7791629 -44.53553772 40.54554749 C-44.41295489 29.29171474 -40.91530208 18.57421229 -32.86645508 10.41992188 C-22.53478852 1.67503005 -13.29795993 -0.03052734 0 0 Z " fill="#72FDFD" transform="translate(205.866455078125,-0.419921875)"/>
<path d="M0 0 C2.73588458 3.27878322 4.98469762 6.52413193 7.0234375 10.2734375 C7.57 11.2634375 8.1165625 12.2534375 8.6796875 13.2734375 C9.80481166 15.33184438 10.92723426 17.39173036 12.046875 19.453125 C17.59675866 29.48460485 22.32877284 35.99167562 33.1875 40.25 C43.6378931 42.30581504 54.7597364 40.68381729 65.31164551 39.88937378 C85.4172237 38.37960672 105.53552861 37.17814137 125.66796875 36.09057617 C127.74222496 35.97642742 129.81644446 35.8616094 131.890625 35.74609375 C132.89637573 35.69047775 133.90212646 35.63486176 134.93835449 35.57756042 C140.05951326 35.28005597 145.16418632 34.91212564 150.27148438 34.43017578 C151.29385193 34.33382339 152.31621948 34.23747101 153.36956787 34.13819885 C155.28578809 33.95198496 157.20116901 33.75678489 159.11529541 33.55015564 C166.90169437 32.78352531 174.3984209 33.07766458 182 35 C186.114828 35.24392889 190.22853592 35.27073382 194.35009766 35.29516602 C196.33389625 35.31214814 198.31740696 35.35598672 200.30078125 35.40039062 C210.14538518 35.46431662 221.59812827 34.81300339 229.75 28.5625 C234.0553432 23.65919247 234.21667991 19.72505171 234.16796875 13.40234375 C234.04941605 10.70387355 234.04941605 10.70387355 233 7 C260.72 7 288.44 7 317 7 C317 42.31 317 77.62 317 114 C244.73 114 172.46 114 98 114 C98 110.04 98 106.08 98 102 C96.0031264 96.03863741 92.11335471 91.40890314 86.90625 87.9375 C80.60921443 84.84059726 74.23529129 84.34184778 67.34765625 83.7109375 C65.64916786 83.54871201 65.64916786 83.54871201 63.91636658 83.38320923 C61.5203376 83.15627694 59.12396772 82.93291937 56.72729492 82.71289062 C53.10553248 82.37896755 49.48542634 82.03017994 45.86523438 81.6796875 C28.45994772 79.66744959 28.45994772 79.66744959 11 80 C10.01 80.99 10.01 80.99 9 82 C6.7578125 82.23046875 6.7578125 82.23046875 4.125 82.1875 C2.82949219 82.17783203 2.82949219 82.17783203 1.5078125 82.16796875 C-0.7993837 82.01343692 -2.77492395 81.59089768 -5 81 C-3.93387224 53.93719863 -2.43592477 26.97579218 0 0 Z " fill="#BBBBBB" transform="translate(181,392)"/>
<path d="M0 0 C1.24502289 -0.01226624 1.24502289 -0.01226624 2.51519775 -0.02478027 C5.25483499 -0.04953532 7.99442062 -0.06612813 10.73413086 -0.08056641 C11.67440062 -0.08589008 12.61467037 -0.09121376 13.58343315 -0.09669876 C18.56391457 -0.12339204 23.5443713 -0.14277602 28.52490234 -0.15722656 C32.62864597 -0.17054039 36.73188938 -0.19835148 40.83544922 -0.23925781 C45.80797325 -0.28881456 50.78004533 -0.31337586 55.75280571 -0.32045364 C57.6380857 -0.32712844 59.5233571 -0.34225093 61.40849495 -0.36634445 C76.22847929 -0.54489636 87.38672534 1.06415271 98.47631836 11.83740234 C101.72518873 15.38002229 104.18133951 19.07009705 106.63647461 23.19287109 C107.39486168 24.41288508 108.15548177 25.6315124 108.91772461 26.84912109 C116.47892055 38.99424737 123.5807472 51.40500609 130.69702148 63.81396484 C133.83395323 69.2791128 136.98569556 74.73569869 140.13647461 80.19287109 C143.91387547 86.73747211 147.68929909 93.28318257 151.45678711 99.83349609 C157.59557636 110.50142786 163.75932985 121.15337806 170.01147461 131.75537109 C170.56528809 132.69606445 171.11910156 133.63675781 171.68969727 134.60595703 C172.19549316 135.46092773 172.70128906 136.31589844 173.22241211 137.19677734 C173.66633301 137.94773682 174.11025391 138.69869629 174.56762695 139.47241211 C175.52215665 141.15438166 175.52215665 141.15438166 176.63647461 142.19287109 C178.5338878 142.40623196 180.43874175 142.55370914 182.34423828 142.67529297 C183.56790604 142.7546106 184.79157379 142.83392822 186.05232239 142.91564941 C187.40717583 142.99797328 188.76205018 143.07995381 190.11694336 143.16162109 C191.51889735 143.24911536 192.92084943 143.33664029 194.32279968 143.42419434 C204.31495438 144.03775106 214.31108853 144.53441124 224.31225586 144.97412109 C224.99697842 145.00429321 225.68170097 145.03446533 226.3871727 145.06555176 C232.67153214 145.34136891 238.95613361 145.61115739 245.24121094 145.87011719 C248.7461674 146.01489377 252.25072407 146.1673294 255.75514793 146.32444763 C257.68347391 146.40872427 259.6121613 146.48460222 261.54084778 146.56018066 C278.9803913 147.34987451 278.9803913 147.34987451 284.69897461 151.31787109 C287.14507773 154.9475725 288.07422496 157.81536763 287.63647461 162.19287109 C285.41254835 166.72625924 283.08695611 168.93761057 278.63647461 171.19287109 C275.77294922 171.76123047 275.77294922 171.76123047 272.53881836 172.03662109 C271.28834717 172.1469165 270.03787598 172.25721191 268.74951172 172.37084961 C267.35771794 172.47886132 265.96587001 172.58617702 264.57397461 172.69287109 C263.10072094 172.81485076 261.62749587 172.93717626 260.15429688 173.05981445 C243.99144715 174.36662228 227.7944539 175.23766841 211.60302734 176.10302734 C199.74223811 176.74260477 187.90659982 177.50986062 176.07151794 178.52735901 C150.35390596 180.70684038 150.35390596 180.70684038 142.63647461 176.19287109 C137.10713774 170.46019228 133.39992025 163.98280164 129.51147461 157.06787109 C128.84956115 155.90293129 128.1869529 154.73838601 127.52368164 153.57421875 C126.18654159 151.22518894 124.85334897 148.87398741 123.52319336 146.52099609 C121.84469219 143.56016173 120.15202696 140.60837835 118.44897461 137.66162109 C112.98616766 128.20004305 107.66549146 118.66758165 102.44897461 109.06787109 C101.88355957 108.02937012 101.31814453 106.99086914 100.7355957 105.92089844 C99.95369873 104.47384521 99.95369873 104.47384521 99.15600586 102.99755859 C98.46148315 101.71341064 98.46148315 101.71341064 97.75292969 100.40332031 C96.63647461 98.19287109 96.63647461 98.19287109 95.63647461 95.19287109 C92.71995287 95.02606 92.71995287 95.02606 89.63647461 95.19287109 C88.97647461 95.85287109 88.31647461 96.51287109 87.63647461 97.19287109 C87.95174295 101.50842953 89.84901319 104.63688131 92.01538086 108.31396484 C92.69711199 109.50913512 93.3774033 110.70512761 94.05639648 111.90185547 C95.11809856 113.75952964 96.18715923 115.61054926 97.28271484 117.44848633 C102.62494458 126.45535166 104.64659578 133.54017928 103.63647461 144.19287109 C103.58096436 145.10883057 103.5254541 146.02479004 103.46826172 146.96850586 C103.29619806 149.73562805 103.0637509 152.49332378 102.82397461 155.25537109 C101.63839146 169.94884602 100.83216025 184.66275824 100.01147461 199.38037109 C99.94326508 200.60144562 99.87505554 201.82252014 99.80477905 203.08059692 C99.41219538 210.11784979 99.0229554 217.15528053 98.63647461 224.19287109 C91.70647461 224.19287109 84.77647461 224.19287109 77.63647461 224.19287109 C77.63100616 221.50465462 77.63100616 221.50465462 77.62542725 218.76213074 C77.58845448 201.85659665 77.53089204 184.95124263 77.45257187 168.04584789 C77.41283325 159.35502518 77.38041454 150.66429233 77.36547852 141.97338867 C77.35243507 134.39469686 77.32540205 126.81620322 77.28186154 119.23762304 C77.25930697 115.22812726 77.2435603 111.21887537 77.24459076 107.20931053 C77.24534095 103.42773626 77.2272478 99.64669985 77.19530678 95.86526489 C77.18285748 93.83134187 77.18984371 91.79732823 77.19761658 89.76338196 C77.07079203 78.50395099 74.82581123 69.35333389 66.92944336 61.07177734 C63.21732561 58.02999091 59.19221987 56.55231195 54.63647461 55.19287109 C53.15147461 54.69787109 53.15147461 54.69787109 51.63647461 54.19287109 C48.63977708 54.07220722 45.66465105 54.00742125 42.66699219 53.98754883 C41.74971848 53.97764923 40.83244476 53.96774963 39.88737488 53.95755005 C36.8519449 53.9259333 33.81649926 53.90117686 30.78100586 53.87646484 C28.67778616 53.85589547 26.57457059 53.83489901 24.47135925 53.81349182 C18.93282417 53.75826943 13.39425177 53.70886084 7.85565186 53.66064453 C2.20508499 53.61043077 -3.44542762 53.55474404 -9.09594727 53.49951172 C-20.18509363 53.39192807 -31.27428709 53.29048351 -42.36352539 53.19287109 C-42.25634522 49.83283203 -42.12815145 46.47390185 -41.99633789 43.11474609 C-41.96644775 42.16970215 -41.93655762 41.2246582 -41.90576172 40.25097656 C-41.42659374 28.66015528 -37.47141548 19.6540095 -29.36352539 11.19287109 C-20.45951564 3.20071776 -11.87663459 0.06514074 0 0 Z " fill="#189E9F" transform="translate(68.363525390625,244.80712890625)"/>
<path d="M0 0 C4.65352543 -0.20946526 7.58465016 0.32580363 11.52905273 2.85424805 C13.8984375 5.16796875 13.8984375 5.16796875 14.54199219 7.97705078 C14.55601074 9.56042236 14.55601074 9.56042236 14.5703125 11.17578125 C14.59480469 12.32691406 14.61929688 13.47804687 14.64453125 14.6640625 C14.64646484 16.46037109 14.64646484 16.46037109 14.6484375 18.29296875 C14.68149579 20.67062262 14.71778646 23.04823447 14.7578125 25.42578125 C14.76264648 26.47910645 14.76748047 27.53243164 14.77246094 28.61767578 C14.72650483 31.15955413 14.72650483 31.15955413 15.8984375 33.16796875 C17.89798496 33.21051231 19.89885386 33.20877658 21.8984375 33.16796875 C23.22730785 32.06529169 23.22730785 32.06529169 23.01196289 29.30053711 C23.00672607 28.04893799 23.00148926 26.79733887 22.99609375 25.5078125 C22.9946788 24.8433461 22.99326385 24.1788797 22.99180603 23.49427795 C22.98619268 21.36462976 22.97363804 19.23508536 22.9609375 17.10546875 C22.95592421 15.66471506 22.95136101 14.22395972 22.94726562 12.78320312 C22.93621895 9.24475773 22.91894542 5.70637336 22.8984375 2.16796875 C34.16653024 5.64309023 41.09933205 10.80706165 47.02825928 21.13632202 C50.95738575 29.51408312 50.40402511 38.17782212 50.2890625 47.20703125 C50.28158916 48.94151147 50.2759014 50.67600021 50.27191162 52.41049194 C50.25674121 56.94472134 50.21753515 61.47842679 50.1730957 66.01245117 C50.13195604 70.65145788 50.11386093 75.2905504 50.09375 79.9296875 C50.05103103 89.00938018 49.98075319 98.08854864 49.8984375 107.16796875 C40.9884375 107.16796875 32.0784375 107.16796875 22.8984375 107.16796875 C22.83785156 104.72519531 22.77726562 102.28242188 22.71484375 99.765625 C22.65309952 97.40922812 22.58969317 95.05288145 22.52612305 92.6965332 C22.48271453 91.05432572 22.44104392 89.41207136 22.40112305 87.76977539 C22.3435631 85.4140813 22.27982858 83.05862447 22.21484375 80.703125 C22.19813126 79.96457779 22.18141876 79.22603058 22.16419983 78.46510315 C22.36295737 75.02496248 22.36295737 75.02496248 20.8984375 72.16796875 C18.89885386 72.12716092 16.89798496 72.12542519 14.8984375 72.16796875 C13.39855828 75.16772718 13.65932742 78.28721111 13.58203125 81.58203125 C13.56338013 82.22873779 13.544729 82.87544434 13.5255127 83.54174805 C13.45718897 85.95868199 13.39705683 88.37584189 13.3359375 90.79296875 C13.1915625 96.19671875 13.0471875 101.60046875 12.8984375 107.16796875 C-0.6315625 107.16796875 -14.1615625 107.16796875 -28.1015625 107.16796875 C-28.41984439 99.40189061 -28.71943377 91.66047446 -28.87781525 83.89352417 C-28.95582316 80.27470517 -29.05916237 76.66148194 -29.2331543 73.04589844 C-30.22979333 51.76580634 -27.27368064 38.61374988 -14.91165161 20.89164734 C-12.63995978 17.47338558 -10.79891411 13.92669054 -9.00393677 10.24079895 C-4.82705893 1.81774637 -4.82705893 1.81774637 0 0 Z " fill="#72FDFD" transform="translate(409.1015625,202.83203125)"/>
<path d="M0 0 C0.72293243 -0.00014603 1.44586487 -0.00029205 2.19070435 -0.0004425 C4.54969419 0.00024701 6.9086023 0.00799376 9.26757812 0.01586914 C10.91524207 0.01773674 12.56290658 0.01915903 14.21057129 0.02015686 C18.52430789 0.02395509 22.83801023 0.03376207 27.1517334 0.04486084 C31.56273943 0.05513318 35.97375105 0.0596669 40.38476562 0.06469727 C49.02280209 0.07538701 57.66081083 0.09243069 66.29882812 0.11352539 C66.31685342 1.70641968 66.32968115 3.29937332 66.34033203 4.89233398 C66.34803619 5.77940033 66.35574036 6.66646667 66.36367798 7.58041382 C66.11258909 17.38824113 61.64398371 25.9899982 54.69726562 32.64868164 C50.91579631 35.77214198 46.84172847 37.85159333 42.43066406 39.92089844 C29.5118247 46.01192703 23.35316777 53.6572054 18.29882812 67.11352539 C16.51021122 72.10818715 14.77317536 77.11998263 13.1015625 82.1550293 C9.06499145 94.197737 9.06499145 94.197737 3.92382812 96.86352539 C-1.21511277 98.63557397 -5.70173179 99.26900572 -11.13867188 99.30102539 C-12.23050781 99.31520508 -13.32234375 99.32938477 -14.44726562 99.34399414 C-20.49718237 98.91548863 -20.49718237 98.91548863 -23.70117188 97.11352539 C-25.29755954 94.17895962 -26.03530221 91.09476804 -26.82617188 87.86352539 C-27.07133545 86.93491699 -27.31649902 86.00630859 -27.5690918 85.04956055 C-41.36597329 31.13642717 -41.36597329 31.13642717 -29.32617188 10.55102539 C-25.70097596 5.41082223 -21.81789531 2.67269019 -15.70117188 1.11352539 C-10.41670672 0.34075239 -5.35166259 -0.00916381 0 0 Z " fill="#E86F29" transform="translate(111.701171875,118.886474609375)"/>
<path d="M0 0 C1.3606152 0.03962957 2.72061697 0.11085657 4.078125 0.2109375 C4.77550781 0.23800781 5.47289062 0.26507813 6.19140625 0.29296875 C7.90498205 0.36338967 9.61695802 0.47100837 11.328125 0.5859375 C13.27184291 3.9782446 15.20675523 7.37550813 17.140625 10.7734375 C17.66849609 11.69447266 18.19636719 12.61550781 18.74023438 13.56445312 C19.91804567 15.63767651 21.07046784 17.72542429 22.2043457 19.82299805 C23.73948038 22.62901479 25.4360841 25.27449643 27.20776367 27.93676758 C36.78253576 43.07501623 36.69292819 57.51773612 36.08343506 74.76873779 C35.96879704 78.36915583 35.91961876 81.97051707 35.86523438 85.57226562 C35.75480486 92.58152804 35.53950801 99.57613522 35.328125 106.5859375 C20.478125 106.5859375 5.628125 106.5859375 -9.671875 106.5859375 C-10.046875 89.7109375 -10.046875 89.7109375 -10.14990234 84.38720703 C-10.18510167 82.99770162 -10.22102219 81.6082142 -10.2578125 80.21875 C-10.27485229 79.13291626 -10.27485229 79.13291626 -10.29223633 78.02514648 C-10.28691173 73.84959349 -10.28691173 73.84959349 -12.671875 70.5859375 C-15.97870966 70.87577019 -15.97870966 70.87577019 -18.671875 72.5859375 C-18.83175991 75.10474267 -18.93121725 77.59936016 -18.98828125 80.12109375 C-19.00906235 80.87434433 -19.02984344 81.62759491 -19.05125427 82.40367126 C-19.11682925 84.8184974 -19.17567121 87.23343548 -19.234375 89.6484375 C-19.2775527 91.28191279 -19.32116673 92.9153766 -19.36523438 94.54882812 C-19.47334297 98.56108468 -19.57235614 102.57342174 -19.671875 106.5859375 C-28.251875 106.5859375 -36.831875 106.5859375 -45.671875 106.5859375 C-45.76245191 96.31068331 -45.83574973 86.0356968 -45.87912369 75.76013279 C-45.89994708 70.98813029 -45.92816822 66.21641647 -45.97363281 61.44458008 C-46.01727858 56.83448916 -46.04105154 52.22467491 -46.05138397 47.61439323 C-46.05874186 45.86061184 -46.07310983 44.1068446 -46.09479523 42.35318184 C-46.30339654 24.77565558 -46.30339654 24.77565558 -41.671875 17.5859375 C-41.23691711 16.87107681 -40.80195923 16.15621613 -40.3538208 15.41969299 C-36.22443369 8.92004498 -29.48658724 3.75145862 -21.9609375 1.9296875 C-19.484375 1.6484375 -19.484375 1.6484375 -15.671875 1.5859375 C-16.331875 6.8659375 -16.991875 12.1459375 -17.671875 17.5859375 C-19.71375 17.7096875 -19.71375 17.7096875 -21.796875 17.8359375 C-27.16203689 18.43487853 -30.57735464 20.38484237 -34.31762695 24.31542969 C-36.14065235 27.37188114 -36.01316307 29.55814573 -35.96484375 33.1015625 C-35.9503418 34.97714844 -35.9503418 34.97714844 -35.93554688 36.890625 C-35.91041016 38.19257813 -35.88527344 39.49453125 -35.859375 40.8359375 C-35.84583984 42.15335938 -35.83230469 43.47078125 -35.81835938 44.828125 C-35.78300051 48.08114071 -35.73364533 51.3333335 -35.671875 54.5859375 C-33.361875 54.9159375 -31.051875 55.2459375 -28.671875 55.5859375 C-28.65729248 54.84432373 -28.64270996 54.10270996 -28.62768555 53.33862305 C-28.55328043 49.98303119 -28.45659494 46.62844256 -28.359375 43.2734375 C-28.33681641 42.10619141 -28.31425781 40.93894531 -28.29101562 39.73632812 C-28.25556641 38.61806641 -28.22011719 37.49980469 -28.18359375 36.34765625 C-28.15740967 35.31600342 -28.13122559 34.28435059 -28.10424805 33.22143555 C-27.671875 30.5859375 -27.671875 30.5859375 -26.47973633 28.75073242 C-23.98888421 27.14589036 -22.18636987 27.19779082 -19.234375 27.1875 C-18.17476563 27.18363281 -17.11515625 27.17976563 -16.0234375 27.17578125 C-14.91742188 27.18738281 -13.81140625 27.19898438 -12.671875 27.2109375 C-11.01285156 27.19353516 -11.01285156 27.19353516 -9.3203125 27.17578125 C-8.26070313 27.17964844 -7.20109375 27.18351562 -6.109375 27.1875 C-4.65337891 27.19257568 -4.65337891 27.19257568 -3.16796875 27.19775391 C-0.671875 27.5859375 -0.671875 27.5859375 1.13818359 28.79394531 C2.71544583 31.16922328 2.74209317 32.81507797 2.8046875 35.65625 C2.835625 36.63464844 2.8665625 37.61304688 2.8984375 38.62109375 C2.91648437 39.64074219 2.93453125 40.66039062 2.953125 41.7109375 C3.0039039 43.73447686 3.05838554 45.75792789 3.1171875 47.78125 C3.13475098 48.67859863 3.15231445 49.57594727 3.17041016 50.50048828 C3.09942516 52.57449423 3.09942516 52.57449423 4.328125 53.5859375 C6.78622498 53.8360148 6.78622498 53.8360148 9.328125 53.5859375 C12.80908903 50.10497347 11.69735321 45.05149104 11.703125 40.3359375 C11.73986328 38.77939453 11.73986328 38.77939453 11.77734375 37.19140625 C11.80045972 31.15813908 11.56438796 27.2532588 7.328125 22.5859375 C4.29397667 19.69597391 1.68046275 19.0333231 -2.421875 18.3984375 C-3.40671875 18.23988281 -4.3915625 18.08132812 -5.40625 17.91796875 C-6.52773438 17.75361328 -6.52773438 17.75361328 -7.671875 17.5859375 C-7.78121163 15.87907115 -7.85806584 14.17011146 -7.921875 12.4609375 C-7.96828125 11.50960937 -8.0146875 10.55828125 -8.0625 9.578125 C-7.3426576 4.06413222 -5.65862368 0.90297186 0 0 Z " fill="#71FCFC" transform="translate(335.671875,203.4140625)"/>
<path d="M0 0 C2.11380425 0.00316292 4.22621221 -0.0203163 6.33984375 -0.0456543 C7.68359199 -0.04792712 9.02734398 -0.04863086 10.37109375 -0.04760742 C11.593125 -0.05058838 12.81515625 -0.05356934 14.07421875 -0.05664062 C17.12109375 0.31567383 17.12109375 0.31567383 19.0246582 1.56030273 C20.41474399 3.78580192 20.4667054 5.15029533 20.4140625 7.76489258 C20.39956055 9.03623047 20.39956055 9.03623047 20.38476562 10.33325195 C20.35962891 11.21432617 20.33449219 12.09540039 20.30859375 13.00317383 C20.28829102 14.3421875 20.28829102 14.3421875 20.26757812 15.70825195 C20.23223454 17.91133549 20.18289868 20.11319965 20.12109375 22.31567383 C20.96873291 22.29996338 20.96873291 22.29996338 21.83349609 22.28393555 C24.38765028 22.24242594 26.94173357 22.21636423 29.49609375 22.19067383 C30.38554687 22.17391602 31.275 22.1571582 32.19140625 22.13989258 C33.0421875 22.13344727 33.89296875 22.12700195 34.76953125 22.12036133 C35.94781494 22.10465088 35.94781494 22.10465088 37.14990234 22.08862305 C39.12109375 22.31567383 39.12109375 22.31567383 41.12109375 24.31567383 C41.52096497 28.8766938 41.45011767 33.45195621 41.43676758 38.02856445 C41.43360572 40.30704473 41.45706892 42.58422904 41.48242188 44.86254883 C41.48469463 46.30525552 41.48539848 47.74796571 41.484375 49.19067383 C41.48735596 50.5080957 41.49033691 51.82551758 41.4934082 53.18286133 C41.37054443 54.21668945 41.24768066 55.25051758 41.12109375 56.31567383 C38.02023804 58.38291097 37.39177694 58.56064806 33.890625 58.51098633 C33.08818359 58.50454102 32.28574219 58.4980957 31.45898438 58.49145508 C30.62560547 58.47469727 29.79222656 58.45793945 28.93359375 58.44067383 C28.08861328 58.43165039 27.24363281 58.42262695 26.37304688 58.41333008 C24.28894132 58.38978086 22.20498158 58.3539103 20.12109375 58.31567383 C20.14429688 59.58024414 20.1675 60.84481445 20.19140625 62.14770508 C20.21016501 63.80785543 20.2283651 65.46801216 20.24609375 67.12817383 C20.26285156 67.96155273 20.27960938 68.79493164 20.296875 69.65356445 C20.30654297 70.85722656 20.30654297 70.85722656 20.31640625 72.08520508 C20.3321167 73.19279175 20.3321167 73.19279175 20.34814453 74.32275391 C20.12109375 76.31567383 20.12109375 76.31567383 18.12109375 79.31567383 C14.98828125 79.68798828 14.98828125 79.68798828 10.99609375 79.67895508 C10.29339355 79.67945358 9.59069336 79.67995209 8.86669922 79.6804657 C7.3805051 79.67812444 5.89430708 79.66839271 4.40820312 79.65185547 C2.1298487 79.62826448 -0.14733578 79.63129317 -2.42578125 79.63793945 C-13.59983369 79.59474639 -13.59983369 79.59474639 -15.87890625 77.31567383 C-16.10595703 75.34448242 -16.10595703 75.34448242 -16.07421875 72.96411133 C-16.06777344 72.11333008 -16.06132812 71.26254883 -16.0546875 70.38598633 C-16.03792969 69.4965332 -16.02117187 68.60708008 -16.00390625 67.69067383 C-15.99488281 66.79348633 -15.98585937 65.89629883 -15.9765625 64.97192383 C-15.95295595 62.75290797 -15.92002935 60.53442305 -15.87890625 58.31567383 C-16.43876221 58.33138428 -16.99861816 58.34709473 -17.57543945 58.36328125 C-20.11399215 58.42567231 -22.65238354 58.46467601 -25.19140625 58.50317383 C-26.51301758 58.54087891 -26.51301758 58.54087891 -27.86132812 58.5793457 C-29.13266602 58.59384766 -29.13266602 58.59384766 -30.4296875 58.60864258 C-31.20997314 58.62435303 -31.99025879 58.64006348 -32.79418945 58.65625 C-34.87890625 58.31567383 -34.87890625 58.31567383 -36.63208008 57.21923828 C-38.5064208 54.35762978 -38.2679463 51.95949493 -38.27734375 48.56567383 C-38.28021393 47.91115234 -38.28308411 47.25663086 -38.28604126 46.58227539 C-38.28807993 45.20043064 -38.28256371 43.8185569 -38.27001953 42.43676758 C-38.25396061 40.32282932 -38.26987226 38.21080269 -38.2890625 36.09692383 C-38.28708003 34.75316961 -38.28323627 33.40941659 -38.27734375 32.06567383 C-38.27395996 30.84364258 -38.27057617 29.62161133 -38.26708984 28.36254883 C-37.87890625 25.31567383 -37.87890625 25.31567383 -36.63208008 23.41210938 C-34.40794575 22.02113496 -33.04355922 21.97007679 -30.4296875 22.02270508 C-29.58212891 22.03237305 -28.73457031 22.04204102 -27.86132812 22.05200195 C-26.5397168 22.08970703 -26.5397168 22.08970703 -25.19140625 22.12817383 C-24.29873047 22.14170898 -23.40605469 22.15524414 -22.48632812 22.16918945 C-20.28324459 22.20453304 -18.08138043 22.2538689 -15.87890625 22.31567383 C-15.8946167 21.72028809 -15.91032715 21.12490234 -15.92651367 20.51147461 C-15.98876426 17.8213038 -16.02786408 15.13128426 -16.06640625 12.44067383 C-16.09154297 11.50352539 -16.11667969 10.56637695 -16.14257812 9.60083008 C-16.15224609 8.70493164 -16.16191406 7.8090332 -16.171875 6.88598633 C-16.18758545 6.05856934 -16.2032959 5.23115234 -16.21948242 4.37866211 C-16.10709229 3.69787598 -15.99470215 3.01708984 -15.87890625 2.31567383 C-11.09203357 -0.87557462 -5.59719384 -0.01758895 0 0 Z " fill="#040505" transform="translate(260.87890625,30.684326171875)"/>
<path d="M0 0 C11.9696779 0.0308188 23.83772827 1.07255562 35.74951172 2.19091797 C39.355012 2.52550448 42.9621111 2.83581397 46.56982422 3.14550781 C48.88766926 3.35887163 51.20538322 3.57366532 53.52294922 3.79003906 C54.58875214 3.87876282 55.65455505 3.96748657 56.75265503 4.05889893 C66.01169844 4.97200504 73.82566328 7.48084747 80.46826172 14.27441406 C84.83938124 19.99849915 86.01035698 24.83737121 85.83935547 31.98925781 C85.46826172 34.27441406 85.46826172 34.27441406 83.46826172 36.27441406 C81.08258629 36.50489235 81.08258629 36.50489235 78.02670288 36.47695923 C76.87121445 36.4712944 75.71572601 36.46562958 74.52522278 36.45979309 C73.25136215 36.4432518 71.97750153 36.42671051 70.66503906 36.40966797 C69.31501393 36.39924573 67.9649817 36.38970978 66.61494446 36.3809967 C62.94357233 36.35477783 59.27242288 36.31611283 55.60118818 36.27527285 C51.76686894 36.23471553 47.93246393 36.20552136 44.09805298 36.17514038 C36.83421657 36.11585099 29.57051601 36.04628919 22.30680811 35.97306955 C14.03854532 35.89022153 5.77019643 35.81877515 -2.49817967 35.74830365 C-19.50949396 35.60305961 -36.52064403 35.44344139 -53.53173828 35.27441406 C-52.88299744 34.66732605 -52.23425659 34.06023804 -51.56585693 33.43475342 C-49.04398057 30.75639011 -49.00290072 29.47672366 -48.92236328 25.85253906 C-48.89013672 24.82773437 -48.85791016 23.80292969 -48.82470703 22.74707031 C-48.8034375 21.15185547 -48.8034375 21.15185547 -48.78173828 19.52441406 C-48.75208984 18.44546875 -48.72244141 17.36652344 -48.69189453 16.25488281 C-48.62126892 13.59465162 -48.56853632 10.93529304 -48.53173828 8.27441406 C-47.72953857 8.27030518 -46.92733887 8.26619629 -46.10083008 8.26196289 C-42.47287837 8.22910815 -38.84662422 8.15847099 -35.21923828 8.08691406 C-33.95660156 8.08111328 -32.69396484 8.0753125 -31.39306641 8.06933594 C-30.18457031 8.04033203 -28.97607422 8.01132812 -27.73095703 7.98144531 C-26.61551514 7.96573486 -25.50007324 7.95002441 -24.35083008 7.93383789 C-21.30833512 7.56069839 -21.30833512 7.56069839 -19.84960938 4.75634766 C-19.41471191 3.93730957 -18.97981445 3.11827148 -18.53173828 2.27441406 C-15.24658203 1.85644531 -15.24658203 1.85644531 -11.46923828 2.08691406 C-9.1593464 2.2132549 -6.84503832 2.28874678 -4.53173828 2.27441406 C-2.53173828 0.27441406 -2.53173828 0.27441406 0 0 Z " fill="#34496E" transform="translate(194.53173828125,470.7255859375)"/>
<path d="M0 0 C1.38086121 -0.00735292 2.7617163 -0.01594268 4.14256287 -0.02566528 C7.87004458 -0.04776318 11.59730448 -0.05081785 15.32484269 -0.04891777 C18.44824045 -0.04879751 21.57159215 -0.05738439 24.69497699 -0.06569529 C32.07077154 -0.08488772 39.44645295 -0.08782863 46.82226562 -0.08105469 C54.40400287 -0.0744191 61.98525299 -0.0972681 69.56689149 -0.13436842 C76.10056806 -0.16516776 82.63408876 -0.17641436 89.16783637 -0.1725316 C93.05939064 -0.17047439 96.95056574 -0.1757825 100.84205055 -0.20042419 C104.50559007 -0.22285884 108.16834352 -0.22067723 111.8318882 -0.20049667 C113.79761159 -0.19551838 115.76335079 -0.21498461 117.72897339 -0.23550415 C129.95482513 -0.12114447 139.24018945 3.57404163 148.00854492 12.10351562 C157.09954533 22.01337452 158.63945961 33.38437887 158.44604492 46.48242188 C158.44926758 47.60841797 158.45249023 48.73441406 158.45581055 49.89453125 C158.40118925 58.15227754 158.40118925 58.15227754 156.13354492 60.41992188 C153.13354492 60.66992188 153.13354492 60.66992188 150.13354492 60.41992188 C147.52965707 57.81603402 147.88215771 56.69536645 147.86010742 53.07226562 C147.82916992 51.45094727 147.82916992 51.45094727 147.79760742 49.796875 C147.77187713 47.53132277 147.75346407 45.2656738 147.74291992 43 C147.55217227 34.04015884 145.77145557 27.46731019 140.13354492 20.41992188 C140.13354492 19.75992187 140.13354492 19.09992187 140.13354492 18.41992188 C139.55733398 18.13246094 138.98112305 17.845 138.38745117 17.54882812 C136.95564667 16.83168514 135.52572456 16.1107618 134.09838867 15.38476562 C133.42936523 15.04574219 132.7603418 14.70671875 132.07104492 14.35742188 C131.39944336 14.01582031 130.7278418 13.67421875 130.03588867 13.32226562 C126.43482057 11.61416145 123.59013242 11.28656868 119.65248108 11.2592926 C118.5129599 11.24924698 117.37343872 11.23920135 116.1993866 11.22885132 C114.94797379 11.22302032 113.69656097 11.21718933 112.40722656 11.21118164 C111.08982483 11.20139786 109.7724231 11.19161407 108.4151001 11.18153381 C104.04133036 11.15015584 99.66754171 11.12987364 95.29370117 11.11132812 C94.17561605 11.10638214 94.17561605 11.10638214 93.03494334 11.10133624 C85.99703006 11.07054058 78.95911237 11.04384704 71.92115116 11.02691746 C62.93865173 11.00505368 53.9567533 10.96318006 44.97449404 10.89347988 C38.64903654 10.84607675 32.32374016 10.82196178 25.99811071 10.81472057 C22.22593357 10.80978619 18.45443378 10.79492095 14.68245125 10.75497627 C11.12565331 10.71780909 7.56991098 10.70979652 4.01295471 10.72298241 C2.10434937 10.72290369 0.1958147 10.69324319 -1.71253967 10.66229248 C-10.82528623 10.73811977 -19.28468908 12.80131751 -25.90399075 19.47383976 C-27.4685851 21.40637148 -28.69695056 23.22372362 -29.86645508 25.41992188 C-30.63300415 26.83108276 -30.63300415 26.83108276 -31.41503906 28.27075195 C-33.68538187 33.6463451 -33.28769132 39.28766658 -33.27270508 45.02929688 C-33.28354126 46.23305969 -33.29437744 47.43682251 -33.30554199 48.67706299 C-33.35135052 53.8111999 -33.36293732 58.94528492 -33.37768555 64.07958984 C-33.3933263 67.83384443 -33.42630293 71.58767014 -33.46020508 75.34179688 C-33.45718384 76.5074115 -33.4541626 77.67302612 -33.4510498 78.8739624 C-33.46621643 80.49144379 -33.46621643 80.49144379 -33.48168945 82.14160156 C-33.48477112 83.5655423 -33.48477112 83.5655423 -33.48791504 85.01824951 C-33.93700326 87.86751952 -34.57410435 88.72130798 -36.86645508 90.41992188 C-38.35145508 90.91492188 -38.35145508 90.91492188 -39.86645508 91.41992188 C-42.02061462 90.3245697 -42.02061462 90.3245697 -43.86645508 88.41992188 C-44.38111877 85.93800354 -44.38111877 85.93800354 -44.39990234 82.94555664 C-44.41573868 81.82331192 -44.43157501 80.7010672 -44.44789124 79.54481506 C-44.44293137 78.32926437 -44.4379715 77.11371368 -44.43286133 75.86132812 C-44.43905991 74.60666245 -44.44525848 73.35199677 -44.4516449 72.05931091 C-44.45876053 69.39648288 -44.45747968 66.73515748 -44.44287109 64.07250977 C-44.42920105 61.36139163 -44.43586886 58.65168575 -44.46337891 55.94067383 C-44.50053258 52.01796447 -44.50285118 48.09668142 -44.49536133 44.17382812 C-44.50861954 42.97649551 -44.52187775 41.7791629 -44.53553772 40.54554749 C-44.41295489 29.29171474 -40.91530208 18.57421229 -32.86645508 10.41992188 C-22.53478852 1.67503005 -13.29795993 -0.03052734 0 0 Z " fill="#010202" transform="translate(205.866455078125,-0.419921875)"/>
<path d="M0 0 C82.5 0 165 0 250 0 C250 8 250 8 248.60258484 10.46825409 C244.60991385 12.81813232 240.91362908 12.55176797 236.35864258 12.50793457 C235.36982747 12.51417453 234.38101236 12.5204145 233.36223316 12.52684355 C230.03942535 12.54283466 226.71734488 12.53014503 223.39453125 12.51757812 C221.01622081 12.5229965 218.63791373 12.53011756 216.25961304 12.53881836 C210.46479567 12.55518964 204.67021056 12.55275859 198.875386 12.5411678 C194.16630652 12.53213825 189.45728512 12.53090738 184.74819946 12.53526306 C184.07825889 12.53587599 183.40831833 12.53648893 182.71807653 12.53712043 C181.35715157 12.53839932 179.99622663 12.53969617 178.63530171 12.5410108 C165.87060012 12.55241998 153.1060134 12.53929764 140.34133065 12.51780933 C129.38602488 12.499938 118.43088864 12.50304201 107.47558594 12.52148438 C94.75691148 12.54288517 82.03833773 12.55132131 69.31964779 12.53903532 C67.96369872 12.53776111 66.60774964 12.53650363 65.25180054 12.53526306 C64.58462865 12.53464596 63.91745677 12.53402886 63.23006755 12.53339306 C58.52604464 12.52993777 53.82208554 12.53577232 49.11807251 12.54518127 C42.78806526 12.55671344 36.458379 12.54876189 30.12840652 12.52560425 C27.80155598 12.52030311 25.47467854 12.52185478 23.14783859 12.53065491 C19.97864354 12.54153815 16.81048585 12.5279335 13.64135742 12.50793457 C12.25051296 12.5213189 12.25051296 12.5213189 10.83157063 12.53497362 C7.06557133 12.48867537 4.68124608 12.40094597 1.39741516 10.46825409 C0 8 0 8 0 0 Z " fill="#30466A" transform="translate(249,320)"/>
<path d="M0 0 C1.56814453 -0.02416992 1.56814453 -0.02416992 3.16796875 -0.04882812 C9.13290617 -0.05259863 13.79405611 0.03447169 18.875 3.3125 C20.69522303 5.67388004 21.94318273 8.17429496 23.1875 10.875 C25.5040045 15.9436098 25.5040045 15.9436098 28.875 20.3125 C29.42716369 25.86174508 28.15510199 30.08640929 25.875 35.0625 C25.56103271 35.75988281 25.24706543 36.45726562 24.92358398 37.17578125 C20.27451548 47.13659684 12.52008515 59.96714297 1.875 64.3125 C-3.18749097 64.9874988 -5.95663919 64.83209996 -10.125 61.8125 C-11.48190621 60.67333608 -12.81486407 59.50515785 -14.125 58.3125 C-14.79660156 57.72082031 -15.46820313 57.12914062 -16.16015625 56.51953125 C-23.40581795 49.74853718 -30.61896972 40.0786474 -33.125 30.3125 C-32.68311696 25.44312216 -30.56524202 20.83949825 -28.8125 16.3125 C-28.51666016 15.5184375 -28.22082031 14.724375 -27.91601562 13.90625 C-24.64336597 5.42422066 -24.64336597 5.42422066 -21.125 2.3125 C-14.4759756 -0.34586712 -7.04114865 -0.02186692 0 0 Z " fill="#F6B593" transform="translate(377.125,117.6875)"/>
<path d="M0 0 C1.19189438 -0.00274933 2.38378876 -0.00549866 3.61180115 -0.0083313 C5.56791069 0.00245453 5.56791069 0.00245453 7.5635376 0.01345825 C8.95327242 0.01402251 10.34300784 0.01370551 11.73274231 0.01257324 C15.50309861 0.01199931 19.27332771 0.02376013 23.04365444 0.03772116 C26.98478488 0.05022178 30.92591822 0.05139849 34.86706543 0.05377197 C42.32910466 0.05998871 49.7910853 0.07640214 57.25309873 0.09647095 C65.74878944 0.11882393 74.24448295 0.12982187 82.74019575 0.13986182 C100.21552328 0.1607682 117.69079377 0.19594794 135.16607666 0.24050903 C135.35935465 2.27501424 135.55263265 4.30951945 135.74591064 6.34402466 C135.99619184 8.46507467 135.99619184 8.46507467 138.22857666 9.74050903 C138.86795166 9.90550903 139.50732666 10.07050903 140.16607666 10.24050903 C140.36138916 16.29519653 140.36138916 16.29519653 140.16607666 18.24050903 C137.15827188 21.24831382 133.75774747 20.58512579 129.72076416 20.61160278 C128.45500046 20.62514549 128.45500046 20.62514549 127.16366577 20.63896179 C125.37316443 20.65348942 123.5826097 20.66235725 121.79205322 20.66604614 C119.07204317 20.67787437 116.35435285 20.72697316 113.63482666 20.77761841 C111.89265019 20.78709079 110.15045982 20.79432192 108.40826416 20.79910278 C107.60275116 20.8186351 106.79723816 20.83816742 105.96731567 20.85829163 C100.5706591 20.81590142 97.29676492 19.57892059 92.89709473 16.44775391 C83.04947034 9.57983364 69.41948321 10.18045313 58.16607666 12.17800903 C55.40997447 12.73325298 52.70371944 13.3583648 49.97857666 14.05300903 C47.16607666 14.24050903 47.16607666 14.24050903 43.95513916 12.82254028 C37.51019509 10.31157072 30.55743164 10.43941272 23.72857666 10.11550903 C22.29101159 10.03809478 20.85351084 9.959477 19.41607666 9.87966919 C16.60533507 9.72528022 13.79439163 9.57730325 10.98297119 9.43582153 C6.20876479 9.19152288 1.43762044 8.90630744 -3.33392334 8.61550903 C-5.50055157 8.4898446 -7.66719917 8.36450831 -9.83392334 8.24050903 C-9.83392334 6.26050903 -9.83392334 4.28050903 -9.83392334 2.24050903 C-6.46620264 0.21217423 -3.90176314 -0.00694264 0 0 Z " fill="#31476B" transform="translate(308.83392333984375,372.7594909667969)"/>
<path d="M0 0 C5.28 0 10.56 0 16 0 C16.06058594 1.35996094 16.12117188 2.71992187 16.18359375 4.12109375 C16.26798171 5.89324097 16.35263058 7.66537577 16.4375 9.4375 C16.47681641 10.33533203 16.51613281 11.23316406 16.55664062 12.15820312 C16.59853516 13.01220703 16.64042969 13.86621094 16.68359375 14.74609375 C16.73858032 15.93223267 16.73858032 15.93223267 16.79467773 17.14233398 C16.80563257 19.01401441 16.80563257 19.01401441 18 20 C19.48638992 20.15655027 20.97949127 20.25066943 22.47265625 20.31640625 C23.37177734 20.35830078 24.27089844 20.40019531 25.19726562 20.44335938 C26.14279297 20.48267578 27.08832031 20.52199219 28.0625 20.5625 C29.4865918 20.62727539 29.4865918 20.62727539 30.93945312 20.69335938 C33.29278176 20.79979132 35.64637099 20.90043154 38 21 C38 26.61 38 32.22 38 38 C35.97746094 38.07347656 35.97746094 38.07347656 33.9140625 38.1484375 C32.15102041 38.22346057 30.38800061 38.29900859 28.625 38.375 C27.73554688 38.4059375 26.84609375 38.436875 25.9296875 38.46875 C25.07890625 38.50742188 24.228125 38.54609375 23.3515625 38.5859375 C22.56604004 38.6173584 21.78051758 38.6487793 20.97119141 38.68115234 C18.76997061 38.8399465 18.76997061 38.8399465 17 41 C16.63105418 43.03060659 16.63105418 43.03060659 16.5859375 45.3515625 C16.54726563 46.20234375 16.50859375 47.053125 16.46875 47.9296875 C16.42234375 49.26386719 16.42234375 49.26386719 16.375 50.625 C16.33632813 51.5221875 16.29765625 52.419375 16.2578125 53.34375 C16.16341224 55.56215605 16.08061195 57.78105013 16 60 C10.39 60 4.78 60 -1 60 C-1.06058594 58.56785156 -1.12117188 57.13570312 -1.18359375 55.66015625 C-1.26798104 53.79425959 -1.35262993 51.92837476 -1.4375 50.0625 C-1.47681641 49.11697266 -1.51613281 48.17144531 -1.55664062 47.19726562 C-1.59853516 46.29814453 -1.64042969 45.39902344 -1.68359375 44.47265625 C-1.72025146 43.64000244 -1.75690918 42.80734863 -1.79467773 41.94946289 C-1.79367103 39.99661142 -1.79367103 39.99661142 -3 39 C-4.41327947 38.84379445 -5.8335459 38.74943827 -7.25390625 38.68359375 C-8.10791016 38.64169922 -8.96191406 38.59980469 -9.84179688 38.55664062 C-10.73962891 38.51732422 -11.63746094 38.47800781 -12.5625 38.4375 C-13.46419922 38.39431641 -14.36589844 38.35113281 -15.29492188 38.30664062 C-17.52975156 38.20022016 -19.76485486 38.09957519 -22 38 C-22 32.72 -22 27.44 -22 22 C-20.73542969 21.96261719 -19.47085938 21.92523438 -18.16796875 21.88671875 C-16.5077827 21.82106167 -14.84762778 21.75461424 -13.1875 21.6875 C-12.35412109 21.66494141 -11.52074219 21.64238281 -10.66210938 21.61914062 C-9.85966797 21.58369141 -9.05722656 21.54824219 -8.23046875 21.51171875 C-7.49207764 21.48553467 -6.75368652 21.45935059 -5.99291992 21.43237305 C-3.43405794 20.8772163 -2.53907298 20.10347878 -1 18 C-0.5005539 15.98207174 -0.5005539 15.98207174 -0.48828125 13.76953125 C-0.45283203 12.96708984 -0.41738281 12.16464844 -0.38085938 11.33789062 C-0.35830078 10.50451172 -0.33574219 9.67113281 -0.3125 8.8125 C-0.27833984 7.96751953 -0.24417969 7.12253906 -0.20898438 6.25195312 C-0.12658529 4.16843351 -0.06161355 2.08423784 0 0 Z " fill="#FAFAFA" transform="translate(255,41)"/>
<path d="M0 0 C2.5097059 17.10615539 3.4666209 37.7441794 -6.16015625 52.81640625 C-8.97981005 56.57896678 -11.4598989 58.02076251 -16 59 C-17.41538104 59.17725333 -18.83216295 59.34360206 -20.25 59.5 C-24.02141651 59.61644977 -24.02141651 59.61644977 -26 62 C-26.33 64.31 -26.66 66.62 -27 69 C-42.51 69 -58.02 69 -74 69 C-73.67 66.69 -73.34 64.38 -73 62 C-69.30848422 61.05364273 -65.92148068 60.98318464 -62.12402344 61.11621094 C-52.48554559 61.43046234 -44.62532909 60.11188418 -36.0625 55.375 C-30.15068147 48.56745139 -27.72464756 39.51939471 -25.125 31.0625 C-21.25350176 19.04731619 -17.45180125 8.65020744 -6 2 C-1.72727273 0 -1.72727273 0 0 0 Z " fill="#F4B392" transform="translate(161,166)"/>
<path d="M0 0 C6.17060778 -0.09980454 12.34073288 -0.17190611 18.51196289 -0.21972656 C20.60579629 -0.23968776 22.69957506 -0.26686659 24.79321289 -0.30175781 C54.24461973 -0.77984224 54.24461973 -0.77984224 64 8 C69.09191636 14.07469838 69.65926797 19.26440673 69.3125 27 C69.28994141 27.96550781 69.26738281 28.93101563 69.24414062 29.92578125 C69.18573128 32.28551874 69.10390208 34.64190223 69 37 C65.70913092 33.89133407 64.49699119 30.66087272 62.8671875 26.47265625 C59.91119936 22.55813639 56.71822714 21.1916169 52 20 C47.09919926 19.5112572 42.26564237 19.4234008 37.34399414 19.47851562 C35.07003748 19.49992902 32.79925027 19.47866019 30.52539062 19.453125 C21.58153186 19.43429467 12.65443153 19.57038001 5.81640625 26.078125 C5.19572266 27.15320313 5.19572266 27.15320313 4.5625 28.25 C3.87994141 29.41595703 3.87994141 29.41595703 3.18359375 30.60546875 C1.50092229 34.00968527 0.18138532 37.39021153 -1 41 C-1.66 41 -2.32 41 -3 41 C-3.4950495 6.99009901 -3.4950495 6.99009901 0 0 Z " fill="#E36D28" transform="translate(341,90)"/>
<path d="M0 0 C0.67352005 -0.01796127 1.3470401 -0.03592255 2.04096985 -0.0544281 C4.27741852 -0.10928436 6.51361789 -0.14717005 8.75048828 -0.18041992 C9.90023825 -0.19826318 9.90023825 -0.19826318 11.07321548 -0.2164669 C15.13941053 -0.27584549 19.20549076 -0.3196319 23.27197266 -0.35351562 C26.62129915 -0.38452866 29.96769806 -0.4469193 33.31591797 -0.53808594 C37.37109765 -0.64841999 41.42361622 -0.70321295 45.48022842 -0.71991539 C47.01687846 -0.73506908 48.55347479 -0.76882406 50.0892601 -0.82254982 C57.7846301 -1.07661675 63.80963276 -0.82942195 69.86445808 4.41714191 C72.18933972 6.64894922 74.34086913 8.96059273 76.44580078 11.40161133 C76.5033252 10.73049316 76.56084961 10.059375 76.62011719 9.36791992 C77.19580078 2.65161133 77.19580078 2.65161133 79.44580078 0.40161133 C82.44580078 0.08911133 82.44580078 0.08911133 85.44580078 0.40161133 C88.49423699 4.97426564 87.77467671 9.52375737 87.75830078 14.90161133 C87.77441406 15.95993164 87.79052734 17.01825195 87.80712891 18.10864258 C87.80777344 19.12313477 87.80841797 20.13762695 87.80908203 21.18286133 C87.81206299 22.11163086 87.81504395 23.04040039 87.81811523 23.99731445 C87.44580078 26.40161133 87.44580078 26.40161133 86.08789062 28.21606445 C84.44580078 29.40161133 84.44580078 29.40161133 81.80908203 29.58911133 C76.6648422 27.77279436 73.45797944 24.19694462 69.63330078 20.40161133 C68.85792969 19.65137695 68.08255859 18.90114258 67.28369141 18.12817383 C64.98772804 15.90251555 62.70688194 13.66269249 60.44580078 11.40161133 C58.37069549 11.28827172 56.29175398 11.2447507 54.21362305 11.22802734 C53.56320038 11.22134033 52.91277771 11.21465332 52.24264526 11.20776367 C50.82614093 11.1936846 49.40961353 11.18179971 47.99307442 11.17181587 C45.75343074 11.15545346 43.51395823 11.13221846 41.2743988 11.10691833 C34.90543085 11.03600734 28.53639292 10.97596645 22.16723633 10.92480469 C18.27564331 10.89306173 14.38424609 10.85179801 10.4928112 10.8046093 C9.0068507 10.78856013 7.52084504 10.77625208 6.03482246 10.7677021 C3.9588031 10.7555854 1.88324633 10.73145224 -0.19262695 10.70458984 C-1.37541733 10.69428238 -2.5582077 10.68397491 -3.77684021 10.6733551 C-6.55419922 10.40161133 -6.55419922 10.40161133 -8.55419922 8.40161133 C-8.80419922 5.40161133 -8.80419922 5.40161133 -8.55419922 2.40161133 C-5.75263296 -0.39995493 -3.92838513 0.09248197 0 0 Z " fill="#000101" transform="translate(224.55419921875,136.598388671875)"/>
<path d="M0 0 C0.67804688 0.433125 1.35609375 0.86625 2.0546875 1.3125 C8.43485168 5.12999436 13.52367024 7.49774156 21 6 C23.23508822 5.14473665 25.24212828 4.17629689 27.30859375 2.97265625 C29 2 29 2 32 1 C32.14695312 1.87011719 32.14695312 1.87011719 32.296875 2.7578125 C32.44640625 3.53898438 32.5959375 4.32015625 32.75 5.125 C32.88921875 5.89070312 33.0284375 6.65640625 33.171875 7.4453125 C34.23526839 10.7257808 36.00749822 13.20563775 38 16 C37.57178955 16.74048584 37.1435791 17.48097168 36.70239258 18.24389648 C35.0896469 21.03358715 33.47758708 23.82367274 31.8659668 26.61401367 C31.17287519 27.81371268 30.479523 29.01326118 29.78588867 30.21264648 C25.79773276 37.10913271 21.83411055 44.01631906 18 51 C17.34 51 16.68 51 16 51 C15.49549316 50.04633545 14.99098633 49.0926709 14.47119141 48.11010742 C12.59796643 44.57018964 10.72264053 41.0313885 8.84667969 37.49291992 C8.03523377 35.96164818 7.22435699 34.4300747 6.4140625 32.89819336 C5.2488943 30.69565421 4.0816799 28.49421029 2.9140625 26.29296875 C2.55253082 25.60849167 2.19099915 24.92401459 1.81851196 24.21879578 C0.31342091 21.38542768 -1.21855309 18.67217036 -3 16 C-2.75 13.4375 -2.75 13.4375 -2 10 C-1.64388592 8.20871939 -1.28982276 6.41703017 -0.9375 4.625 C-0.62594465 3.08314215 -0.31376521 1.54140966 0 0 Z " fill="#F4B392" transform="translate(359,185)"/>
<path d="M0 0 C10.83572365 0.01175733 21.61965484 1.10764068 32.3984375 2.11962891 C36.00393778 2.45421541 39.61103688 2.76452491 43.21875 3.07421875 C45.53659504 3.28758256 47.854309 3.50237625 50.171875 3.71875 C51.23767792 3.80747375 52.30348083 3.89619751 53.40158081 3.98760986 C62.66062422 4.90071598 70.47458906 7.40955841 77.1171875 14.203125 C81.48830702 19.92721009 82.65928276 24.76608215 82.48828125 31.91796875 C82.1171875 34.203125 82.1171875 34.203125 80.1171875 36.203125 C77.6171875 36.453125 77.6171875 36.453125 75.1171875 36.203125 C72.82652791 33.91246541 72.75923935 33.05543611 72.2421875 29.953125 C71.33491676 25.61218345 70.0527531 22.62795153 67.1171875 19.203125 C61.67636781 15.69235531 56.09383277 15.33270828 49.8046875 14.703125 C48.68980957 14.58275879 47.57493164 14.46239258 46.42626953 14.33837891 C34.69436714 13.09829132 22.94151713 12.05103759 11.18907166 11.02655029 C9.27376025 10.85778639 7.35903262 10.68243685 5.44433594 10.50683594 C3.4487808 10.32467637 1.45220522 10.1526478 -0.54589844 10.00097656 C-2.71875 9.8046875 -2.71875 9.8046875 -5.8828125 9.203125 C-7.8828125 6.203125 -7.8828125 6.203125 -7.5703125 3.578125 C-6.29732633 -0.81946359 -4.31054849 0.0329562 0 0 Z " fill="#020303" transform="translate(197.8828125,470.796875)"/>
<path d="M0 0 C3.29047472 2.16784217 6.20044344 4.40088689 8 8 C8.45822567 14.30060293 8.45822567 14.30060293 6.8125 16.8125 C0.75890398 20.77864911 -5.86648029 21.12890938 -12.9296875 21.09765625 C-14.21875 21.09443359 -15.5078125 21.09121094 -16.8359375 21.08789062 C-18.18229236 21.07953733 -19.52864652 21.07107241 -20.875 21.0625 C-22.24479004 21.0574783 -23.61458185 21.05291657 -24.984375 21.04882812 C-28.3229619 21.03707254 -31.66145815 21.02063964 -35 21 C-36 18 -36 18 -35.0703125 15.80078125 C-33.70585725 12.23029068 -33.78148563 8.94605836 -33.875 5.1875 C-33.88853516 4.14819336 -33.88853516 4.14819336 -33.90234375 3.08789062 C-33.92573843 1.39177605 -33.96160359 -0.30415871 -34 -2 C-23.86307001 -6.87352403 -9.86665026 -4.52623956 0 0 Z " fill="#F5B492" transform="translate(398,397)"/>
<path d="M0 0 C12.21 0 24.42 0 37 0 C37 6.93 37 13.86 37 21 C24.79 21 12.58 21 0 21 C0 14.07 0 7.14 0 0 Z " fill="#B9B9B9" transform="translate(356,342)"/>
</svg>
